<svg xmlns="http://www.w3.org/2000/svg" xmlns:xlink="http://www.w3.org/1999/xlink" width="500" zoomAndPan="magnify" viewBox="0 0 375 374.999991" height="500" preserveAspectRatio="xMidYMid meet" version="1.2"><defs><clipPath id="80538f63db"><path d="M 112.5 138.375 L 262.5 138.375 L 262.5 236.625 L 112.5 236.625 Z M 112.5 138.375 "/></clipPath></defs><g id="342f824993"><rect x="0" width="375" y="0" height="374.999991" style="fill:#ffffff;fill-opacity:1;stroke:none;"/><rect x="0" width="375" y="0" height="374.999991" style="fill:#ffffff;fill-opacity:1;stroke:none;"/><path style=" stroke:none;fill-rule:nonzero;fill:#8a310d;fill-opacity:1;" d="M 186.953125 196.679688 C 185.476562 196.679688 184.582031 196.265625 184.34375 196.03125 C 184.582031 195.792969 185.476562 195.378906 186.953125 195.378906 C 188.425781 195.378906 189.320312 195.792969 189.558594 196.03125 C 189.320312 196.265625 188.425781 196.679688 186.953125 196.679688 Z M 186.953125 193.617188 C 184.757812 193.617188 182.539062 194.445312 182.539062 196.03125 C 182.539062 197.613281 184.757812 198.441406 186.953125 198.441406 C 189.144531 198.441406 191.363281 197.613281 191.363281 196.03125 C 191.363281 194.445312 189.144531 193.617188 186.953125 193.617188 "/><g clip-rule="nonzero" clip-path="url(#80538f63db)"><path style=" stroke:none;fill-rule:nonzero;fill:#8a310d;fill-opacity:1;" d="M 208.628906 190.953125 L 260.714844 193.246094 L 260.714844 199.71875 L 207.109375 202.433594 Z M 205.21875 195.929688 L 202.65625 195.847656 C 202.671875 195.703125 202.679688 195.558594 202.679688 195.410156 C 202.679688 194.824219 202.550781 194.253906 202.316406 193.707031 C 202.253906 193.476562 202.191406 193.257812 202.125 193.035156 L 205.21875 193.035156 Z M 186.324219 201.625 C 177.65625 201.625 171.820312 198.460938 171.730469 195.480469 C 171.777344 195.257812 171.914062 194.695312 172.195312 193.925781 C 173.742188 191.441406 179.03125 189.199219 186.324219 189.199219 C 193.941406 189.199219 199.375 191.644531 200.636719 194.261719 C 200.742188 194.660156 200.835938 195.0625 200.914062 195.484375 C 200.824219 198.460938 194.984375 201.625 186.324219 201.625 Z M 184.972656 205.175781 L 168.3125 234.484375 L 159.21875 231.640625 L 173.375 204.644531 L 178.109375 202.339844 C 180.007812 202.867188 182.152344 203.214844 184.457031 203.335938 Z M 168.929688 188.800781 L 171.867188 190.578125 C 171.542969 191.132812 171.265625 191.664062 171.039062 192.160156 L 167.917969 190.230469 Z M 164.351562 192.21875 L 115.714844 166.78125 L 124.820312 159.605469 L 169.5625 184.855469 Z M 186.550781 183.824219 C 186.796875 183.820312 189.734375 183.796875 192.917969 185.152344 C 195.574219 186.285156 197.605469 188.019531 199.003906 190.320312 C 196.027344 188.550781 191.492188 187.4375 186.324219 187.4375 C 181.585938 187.4375 177.382812 188.375 174.421875 189.894531 C 176.539062 187.144531 180.222656 184.332031 186.550781 183.824219 Z M 182.976562 178.214844 C 182.976562 177.160156 185.351562 173.617188 186.503906 173.617188 L 187.042969 173.617188 C 188.109375 173.617188 190.027344 177.042969 190.027344 178.214844 L 190.027344 182.453125 C 187.984375 182.03125 186.519531 182.066406 186.472656 182.066406 L 186.433594 182.066406 C 185.1875 182.164062 184.042969 182.351562 182.976562 182.601562 Z M 186.023438 153.605469 C 186.023438 153.4375 186.15625 153.304688 186.324219 153.304688 C 186.488281 153.304688 186.625 153.4375 186.625 153.605469 L 186.625 171.855469 L 186.503906 171.855469 C 186.34375 171.855469 186.183594 171.875 186.023438 171.917969 Z M 182.238281 147.304688 L 182.238281 142.878906 L 189.601562 142.878906 L 189.601562 147.304688 C 189.601562 148.078125 188.0625 151.136719 187.367188 151.542969 L 184.691406 151.542969 C 183.953125 151.15625 182.253906 148.082031 182.238281 147.304688 Z M 183.3125 140.136719 L 188.527344 140.136719 C 189.085938 140.136719 189.542969 140.570312 189.589844 141.117188 L 182.25 141.117188 C 182.296875 140.570312 182.753906 140.136719 183.3125 140.136719 Z M 206.808594 191.277344 L 201.476562 191.277344 C 199.269531 186.210938 195.152344 183.929688 191.789062 182.902344 L 191.789062 178.214844 C 191.789062 176.808594 190.265625 173.488281 188.386719 172.292969 L 188.386719 153.605469 C 188.386719 153.398438 188.355469 153.199219 188.296875 153.007812 C 189.890625 151.953125 191.363281 148.355469 191.363281 147.304688 L 191.363281 141.214844 C 191.363281 139.648438 190.089844 138.378906 188.527344 138.378906 L 183.3125 138.378906 C 181.75 138.378906 180.476562 139.648438 180.476562 141.214844 L 180.476562 147.304688 C 180.476562 148.410156 182.488281 152.761719 184.292969 153.257812 C 184.273438 153.371094 184.261719 153.484375 184.261719 153.605469 L 184.261719 172.949219 L 184.265625 172.949219 C 182.625 174.425781 181.214844 177.003906 181.214844 178.214844 L 181.214844 183.035156 L 181.421875 183.035156 C 177.132812 184.414062 174.464844 186.921875 172.878906 189.058594 C 172.863281 189.074219 172.851562 189.089844 172.839844 189.109375 L 169.949219 187.359375 L 172.128906 184.28125 L 124.660156 157.492188 L 112.488281 167.082031 L 164.898438 194.492188 L 166.898438 191.671875 L 170.300781 193.773438 C 170.082031 194.300781 169.964844 194.847656 169.964844 195.410156 C 169.964844 197.898438 172.1875 200.082031 175.738281 201.535156 L 172.082031 203.3125 L 156.679688 232.695312 L 169.140625 236.585938 L 186.867188 205.410156 L 186.300781 203.386719 C 186.308594 203.386719 186.316406 203.386719 186.324219 203.386719 C 193.9375 203.386719 200.179688 200.96875 202.078125 197.589844 L 205.957031 197.71875 L 205.085938 204.296875 L 262.476562 201.394531 L 262.476562 191.558594 L 207.09375 189.125 L 206.808594 191.277344 "/></g></g></svg>