<svg xmlns="http://www.w3.org/2000/svg" xmlns:xlink="http://www.w3.org/1999/xlink" width="500" zoomAndPan="magnify" viewBox="0 0 375 374.999991" height="500" preserveAspectRatio="xMidYMid meet" version="1.2"><defs><clipPath id="b363e9170b"><path d="M 128.253906 159.554688 L 246.753906 159.554688 L 246.753906 216 L 128.253906 216 Z M 128.253906 159.554688 "/></clipPath><clipPath id="bcd32d5acc"><path d="M 174 218 L 181 218 L 181 233.804688 L 174 233.804688 Z M 174 218 "/></clipPath><clipPath id="f4ad6599aa"><path d="M 154 218 L 166 218 L 166 233.804688 L 154 233.804688 Z M 154 218 "/></clipPath><clipPath id="b339ac8347"><path d="M 209 218 L 221 218 L 221 233.804688 L 209 233.804688 Z M 209 218 "/></clipPath><clipPath id="2224856831"><path d="M 194 218 L 201 218 L 201 233.804688 L 194 233.804688 Z M 194 218 "/></clipPath></defs><g id="c6da9343e3"><rect x="0" width="375" y="0" height="374.999991" style="fill:#ffffff;fill-opacity:1;stroke:none;"/><rect x="0" width="375" y="0" height="374.999991" style="fill:#ffffff;fill-opacity:1;stroke:none;"/><g clip-rule="nonzero" clip-path="url(#b363e9170b)"><path style=" stroke:none;fill-rule:nonzero;fill:#8a310d;fill-opacity:1;" d="M 238.519531 211.390625 L 136.480469 211.390625 C 135.6875 211.390625 134.976562 210.886719 134.722656 210.125 L 132.675781 203.984375 L 138.035156 203.984375 L 139.460938 208.273438 C 139.714844 209.027344 140.421875 209.539062 141.21875 209.539062 L 217.121094 209.539062 C 218.140625 209.539062 218.972656 208.707031 218.972656 207.6875 C 218.972656 206.667969 218.140625 205.835938 217.121094 205.835938 L 142.546875 205.835938 L 141.933594 203.984375 L 233.066406 203.984375 L 232.449219 205.835938 L 224.523438 205.835938 C 223.503906 205.835938 222.671875 206.667969 222.671875 207.6875 C 222.671875 208.707031 223.503906 209.539062 224.523438 209.539062 L 233.78125 209.539062 C 234.578125 209.539062 235.285156 209.027344 235.539062 208.273438 L 236.964844 203.984375 L 242.320312 203.984375 L 240.273438 210.125 C 240.023438 210.886719 239.3125 211.390625 238.519531 211.390625 Z M 131.960938 165.109375 C 131.960938 164.089844 132.792969 163.257812 133.8125 163.257812 L 241.1875 163.257812 C 242.207031 163.257812 243.039062 164.089844 243.039062 165.109375 L 243.039062 200.285156 L 131.960938 200.285156 Z M 241.1875 159.554688 L 133.8125 159.554688 C 130.746094 159.554688 128.257812 162.042969 128.257812 165.109375 L 128.257812 202.136719 C 128.257812 202.332031 128.289062 202.53125 128.351562 202.71875 L 131.210938 211.296875 C 131.96875 213.566406 134.085938 215.09375 136.480469 215.09375 L 238.519531 215.09375 C 240.910156 215.09375 243.03125 213.566406 243.789062 211.296875 L 246.644531 202.71875 C 246.703125 202.53125 246.742188 202.332031 246.742188 202.136719 L 246.742188 165.109375 C 246.742188 162.042969 244.253906 159.554688 241.1875 159.554688 "/></g><path style=" stroke:none;fill-rule:nonzero;fill:#8a310d;fill-opacity:1;" d="M 178.242188 196.582031 L 196.757812 196.582031 C 197.777344 196.582031 198.605469 195.75 198.605469 194.730469 C 198.605469 193.710938 197.777344 192.878906 196.757812 192.878906 L 178.242188 192.878906 C 177.222656 192.878906 176.390625 193.710938 176.390625 194.730469 C 176.390625 195.75 177.222656 196.582031 178.242188 196.582031 "/><g clip-rule="nonzero" clip-path="url(#bcd32d5acc)"><path style=" stroke:none;fill-rule:nonzero;fill:#8a310d;fill-opacity:1;" d="M 178.546875 218.824219 C 177.535156 218.644531 176.585938 219.332031 176.421875 220.34375 L 174.570312 231.453125 C 174.394531 232.457031 175.074219 233.410156 176.089844 233.578125 C 176.191406 233.597656 176.289062 233.605469 176.390625 233.605469 C 177.28125 233.605469 178.070312 232.960938 178.214844 232.058594 L 180.066406 220.953125 C 180.238281 219.945312 179.558594 218.992188 178.546875 218.824219 "/></g><g clip-rule="nonzero" clip-path="url(#f4ad6599aa)"><path style=" stroke:none;fill-rule:nonzero;fill:#8a310d;fill-opacity:1;" d="M 164.121094 218.925781 C 163.179688 218.550781 162.09375 219.007812 161.710938 219.960938 C 158.871094 227.070312 156.597656 229.398438 155.195312 230.097656 C 154.285156 230.554688 153.917969 231.667969 154.371094 232.585938 C 154.699219 233.230469 155.347656 233.605469 156.027344 233.605469 C 156.308594 233.605469 156.59375 233.542969 156.859375 233.410156 C 159.773438 231.949219 162.484375 228.003906 165.152344 221.335938 C 165.53125 220.386719 165.066406 219.308594 164.121094 218.925781 "/></g><g clip-rule="nonzero" clip-path="url(#b339ac8347)"><path style=" stroke:none;fill-rule:nonzero;fill:#8a310d;fill-opacity:1;" d="M 219.804688 230.097656 C 218.398438 229.398438 216.128906 227.070312 213.289062 219.960938 C 212.902344 219.007812 211.820312 218.550781 210.878906 218.925781 C 209.933594 219.308594 209.46875 220.386719 209.84375 221.335938 C 212.511719 228.003906 215.226562 231.949219 218.140625 233.410156 C 218.40625 233.542969 218.6875 233.605469 218.972656 233.605469 C 219.652344 233.605469 220.300781 233.230469 220.628906 232.585938 C 221.082031 231.667969 220.714844 230.554688 219.804688 230.097656 "/></g><g clip-rule="nonzero" clip-path="url(#2224856831)"><path style=" stroke:none;fill-rule:nonzero;fill:#8a310d;fill-opacity:1;" d="M 196.453125 218.824219 C 195.441406 218.992188 194.761719 219.945312 194.933594 220.953125 L 196.785156 232.058594 C 196.929688 232.960938 197.71875 233.605469 198.605469 233.605469 C 198.707031 233.605469 198.808594 233.597656 198.910156 233.578125 C 199.921875 233.410156 200.601562 232.457031 200.429688 231.453125 L 198.578125 220.34375 C 198.417969 219.332031 197.457031 218.652344 196.453125 218.824219 "/></g></g></svg>