<svg xmlns="http://www.w3.org/2000/svg" xmlns:xlink="http://www.w3.org/1999/xlink" width="500" zoomAndPan="magnify" viewBox="0 0 375 374.999991" height="500" preserveAspectRatio="xMidYMid meet" version="1.2"><defs><clipPath id="ab55b1faca"><path d="M 179 122.558594 L 196 122.558594 L 196 162 L 179 162 Z M 179 122.558594 "/></clipPath><clipPath id="0a02929e94"><path d="M 179 233 L 196 233 L 196 272.558594 L 179 272.558594 Z M 179 233 "/></clipPath><clipPath id="f77db36c6d"><path d="M 112.5 189 L 152 189 L 152 206 L 112.5 206 Z M 112.5 189 "/></clipPath><clipPath id="34ffb51199"><path d="M 223 189 L 262.5 189 L 262.5 206 L 223 206 Z M 223 189 "/></clipPath></defs><g id="20647b88a9"><rect x="0" width="375" y="0" height="374.999991" style="fill:#ffffff;fill-opacity:1;stroke:none;"/><rect x="0" width="375" y="0" height="374.999991" style="fill:#ffffff;fill-opacity:1;stroke:none;"/><path style=" stroke:none;fill-rule:nonzero;fill:#8a310d;fill-opacity:1;" d="M 187.484375 224.710938 C 172.503906 224.710938 160.316406 212.523438 160.316406 197.542969 C 160.316406 182.5625 172.503906 170.375 187.484375 170.375 C 202.464844 170.375 214.652344 182.5625 214.652344 197.542969 C 214.652344 212.523438 202.464844 224.710938 187.484375 224.710938 Z M 187.484375 173.890625 C 174.445312 173.890625 163.835938 184.5 163.835938 197.542969 C 163.835938 210.582031 174.445312 221.191406 187.484375 221.191406 C 200.527344 221.191406 211.136719 210.582031 211.136719 197.542969 C 211.136719 184.5 200.527344 173.890625 187.484375 173.890625 Z M 187.484375 173.890625 "/><g clip-rule="nonzero" clip-path="url(#ab55b1faca)"><path style=" stroke:none;fill-rule:nonzero;fill:#8a310d;fill-opacity:1;" d="M 187.597656 161.933594 L 187.371094 161.933594 C 183.167969 161.933594 179.746094 158.515625 179.746094 154.3125 L 179.746094 130.167969 C 179.746094 125.964844 183.167969 122.542969 187.371094 122.542969 L 187.597656 122.542969 C 191.804688 122.542969 195.222656 125.964844 195.222656 130.167969 L 195.222656 154.3125 C 195.222656 158.515625 191.804688 161.933594 187.597656 161.933594 Z M 187.371094 126.0625 C 185.109375 126.0625 183.265625 127.90625 183.265625 130.167969 L 183.265625 154.3125 C 183.265625 156.574219 185.109375 158.417969 187.371094 158.417969 L 187.597656 158.417969 C 189.863281 158.417969 191.703125 156.574219 191.703125 154.3125 L 191.703125 130.167969 C 191.703125 127.90625 189.863281 126.0625 187.597656 126.0625 Z M 187.371094 126.0625 "/></g><g clip-rule="nonzero" clip-path="url(#0a02929e94)"><path style=" stroke:none;fill-rule:nonzero;fill:#8a310d;fill-opacity:1;" d="M 187.597656 272.539062 L 187.371094 272.539062 C 183.167969 272.539062 179.746094 269.121094 179.746094 264.914062 L 179.746094 240.773438 C 179.746094 236.570312 183.167969 233.148438 187.371094 233.148438 L 187.597656 233.148438 C 191.804688 233.148438 195.222656 236.570312 195.222656 240.773438 L 195.222656 264.914062 C 195.222656 269.121094 191.804688 272.539062 187.597656 272.539062 Z M 187.371094 236.667969 C 185.109375 236.667969 183.265625 238.511719 183.265625 240.773438 L 183.265625 264.914062 C 183.265625 267.179688 185.109375 269.019531 187.371094 269.019531 L 187.597656 269.019531 C 189.863281 269.019531 191.703125 267.179688 191.703125 264.914062 L 191.703125 240.773438 C 191.703125 238.511719 189.863281 236.667969 187.597656 236.667969 Z M 187.371094 236.667969 "/></g><g clip-rule="nonzero" clip-path="url(#f77db36c6d)"><path style=" stroke:none;fill-rule:nonzero;fill:#8a310d;fill-opacity:1;" d="M 144.253906 205.28125 L 120.113281 205.28125 C 115.90625 205.28125 112.488281 201.859375 112.488281 197.65625 L 112.488281 197.429688 C 112.488281 193.226562 115.90625 189.804688 120.113281 189.804688 L 144.253906 189.804688 C 148.457031 189.804688 151.878906 193.226562 151.878906 197.429688 L 151.878906 197.65625 C 151.878906 201.859375 148.457031 205.28125 144.253906 205.28125 Z M 120.113281 193.324219 C 117.847656 193.324219 116.007812 195.164062 116.007812 197.429688 L 116.007812 197.65625 C 116.007812 199.917969 117.847656 201.761719 120.113281 201.761719 L 144.253906 201.761719 C 146.519531 201.761719 148.359375 199.917969 148.359375 197.65625 L 148.359375 197.429688 C 148.359375 195.164062 146.519531 193.324219 144.253906 193.324219 Z M 120.113281 193.324219 "/></g><g clip-rule="nonzero" clip-path="url(#34ffb51199)"><path style=" stroke:none;fill-rule:nonzero;fill:#8a310d;fill-opacity:1;" d="M 254.859375 205.28125 L 230.71875 205.28125 C 226.511719 205.28125 223.09375 201.859375 223.09375 197.65625 L 223.09375 197.429688 C 223.09375 193.226562 226.511719 189.804688 230.71875 189.804688 L 254.859375 189.804688 C 259.0625 189.804688 262.484375 193.226562 262.484375 197.429688 L 262.484375 197.65625 C 262.484375 201.859375 259.0625 205.28125 254.859375 205.28125 Z M 230.71875 193.324219 C 228.453125 193.324219 226.613281 195.164062 226.613281 197.429688 L 226.613281 197.65625 C 226.613281 199.917969 228.453125 201.761719 230.71875 201.761719 L 254.859375 201.761719 C 257.121094 201.761719 258.964844 199.917969 258.964844 197.65625 L 258.964844 197.429688 C 258.964844 195.164062 257.121094 193.324219 254.859375 193.324219 Z M 230.71875 193.324219 "/></g><path style=" stroke:none;fill-rule:nonzero;fill:#8a310d;fill-opacity:1;" d="M 183 206.957031 C 182.996094 206.957031 182.992188 206.957031 182.984375 206.957031 C 182.507812 206.953125 182.050781 206.753906 181.722656 206.402344 L 175.742188 200.0625 C 175.074219 199.355469 175.109375 198.242188 175.816406 197.574219 C 176.523438 196.910156 177.636719 196.941406 178.304688 197.648438 L 183.023438 202.65625 L 196.6875 188.660156 C 197.367188 187.964844 198.480469 187.949219 199.175781 188.628906 C 199.871094 189.308594 199.886719 190.421875 199.207031 191.117188 L 184.261719 206.425781 C 183.929688 206.765625 183.476562 206.957031 183 206.957031 Z M 183 206.957031 "/><path style=" stroke:none;fill-rule:nonzero;fill:#8a310d;fill-opacity:1;" d="M 193.460938 263.296875 C 192.5625 263.296875 191.796875 262.613281 191.710938 261.699219 C 191.621094 260.730469 192.335938 259.875 193.300781 259.785156 C 223.238281 257.023438 246.96875 233.292969 249.730469 203.359375 C 249.816406 202.390625 250.671875 201.675781 251.640625 201.769531 C 252.609375 201.859375 253.324219 202.714844 253.234375 203.683594 C 250.316406 235.304688 225.246094 260.371094 193.625 263.289062 C 193.570312 263.296875 193.515625 263.296875 193.460938 263.296875 Z M 193.460938 263.296875 "/><path style=" stroke:none;fill-rule:nonzero;fill:#8a310d;fill-opacity:1;" d="M 251.480469 193.324219 C 250.582031 193.324219 249.8125 192.636719 249.730469 191.726562 C 246.96875 161.789062 223.238281 138.058594 193.300781 135.300781 C 192.335938 135.210938 191.621094 134.351562 191.710938 133.386719 C 191.800781 132.417969 192.65625 131.707031 193.625 131.792969 C 225.246094 134.710938 250.316406 159.78125 253.234375 191.402344 C 253.324219 192.371094 252.609375 193.226562 251.640625 193.316406 C 251.589844 193.320312 251.53125 193.324219 251.480469 193.324219 Z M 251.480469 193.324219 "/><path style=" stroke:none;fill-rule:nonzero;fill:#8a310d;fill-opacity:1;" d="M 181.507812 263.296875 C 181.453125 263.296875 181.398438 263.296875 181.34375 263.289062 C 149.722656 260.371094 124.652344 235.304688 121.738281 203.683594 C 121.648438 202.714844 122.359375 201.859375 123.328125 201.769531 C 124.296875 201.679688 125.152344 202.390625 125.242188 203.359375 C 128.003906 233.292969 151.734375 257.023438 181.667969 259.785156 C 182.636719 259.875 183.347656 260.730469 183.257812 261.699219 C 183.175781 262.613281 182.40625 263.296875 181.507812 263.296875 Z M 181.507812 263.296875 "/><path style=" stroke:none;fill-rule:nonzero;fill:#8a310d;fill-opacity:1;" d="M 123.492188 193.324219 C 123.4375 193.324219 123.382812 193.320312 123.328125 193.316406 C 122.359375 193.226562 121.648438 192.371094 121.738281 191.402344 C 124.652344 159.78125 149.722656 134.710938 181.34375 131.792969 C 182.316406 131.707031 183.167969 132.417969 183.257812 133.386719 C 183.347656 134.351562 182.636719 135.210938 181.667969 135.300781 C 151.734375 138.058594 128.003906 161.789062 125.242188 191.726562 C 125.15625 192.636719 124.390625 193.324219 123.492188 193.324219 Z M 123.492188 193.324219 "/><path style=" stroke:none;fill-rule:nonzero;fill:#8a310d;fill-opacity:1;" d="M 193.460938 251.277344 C 192.578125 251.277344 191.816406 250.613281 191.714844 249.714844 C 191.605469 248.75 192.300781 247.878906 193.265625 247.769531 C 216.386719 245.136719 235.082031 226.445312 237.710938 203.320312 C 237.824219 202.355469 238.695312 201.664062 239.660156 201.773438 C 240.625 201.882812 241.320312 202.753906 241.210938 203.71875 C 239.835938 215.777344 234.335938 227.160156 225.722656 235.777344 C 217.105469 244.394531 205.71875 249.894531 193.664062 251.265625 C 193.59375 251.273438 193.527344 251.277344 193.460938 251.277344 Z M 193.460938 251.277344 "/><path style=" stroke:none;fill-rule:nonzero;fill:#8a310d;fill-opacity:1;" d="M 239.457031 193.324219 C 238.574219 193.324219 237.816406 192.660156 237.710938 191.761719 C 235.082031 168.640625 216.386719 149.945312 193.265625 147.316406 C 192.300781 147.203125 191.605469 146.332031 191.714844 145.367188 C 191.824219 144.402344 192.699219 143.707031 193.664062 143.820312 C 205.71875 145.191406 217.105469 150.691406 225.722656 159.308594 C 234.335938 167.921875 239.835938 179.308594 241.210938 191.363281 C 241.320312 192.328125 240.625 193.203125 239.660156 193.3125 C 239.59375 193.320312 239.523438 193.324219 239.457031 193.324219 Z M 239.457031 193.324219 "/><path style=" stroke:none;fill-rule:nonzero;fill:#8a310d;fill-opacity:1;" d="M 181.507812 251.277344 C 181.441406 251.277344 181.375 251.273438 181.308594 251.265625 C 169.25 249.894531 157.867188 244.394531 149.25 235.777344 C 140.632812 227.160156 135.132812 215.777344 133.761719 203.71875 C 133.652344 202.753906 134.34375 201.882812 135.308594 201.773438 C 136.277344 201.667969 137.148438 202.355469 137.257812 203.320312 C 139.890625 226.445312 158.582031 245.136719 181.707031 247.769531 C 182.671875 247.878906 183.363281 248.75 183.253906 249.714844 C 183.152344 250.613281 182.390625 251.277344 181.507812 251.277344 Z M 181.507812 251.277344 "/><path style=" stroke:none;fill-rule:nonzero;fill:#8a310d;fill-opacity:1;" d="M 135.511719 193.324219 C 135.445312 193.324219 135.378906 193.320312 135.3125 193.3125 C 134.34375 193.203125 133.652344 192.332031 133.761719 191.363281 C 135.132812 179.308594 140.632812 167.921875 149.25 159.308594 C 157.867188 150.691406 169.25 145.191406 181.308594 143.820312 C 182.273438 143.707031 183.144531 144.402344 183.253906 145.367188 C 183.363281 146.332031 182.671875 147.203125 181.707031 147.316406 C 158.582031 149.945312 139.890625 168.640625 137.257812 191.761719 C 137.15625 192.660156 136.394531 193.324219 135.511719 193.324219 Z M 135.511719 193.324219 "/></g></svg>