<svg xmlns="http://www.w3.org/2000/svg" xmlns:xlink="http://www.w3.org/1999/xlink" width="500" zoomAndPan="magnify" viewBox="0 0 375 374.999991" height="500" preserveAspectRatio="xMidYMid meet" version="1.2"><defs><clipPath id="1bfa13fba8"><path d="M 116.066406 132.59375 L 257 132.59375 L 257 257 L 116.066406 257 Z M 116.066406 132.59375 "/></clipPath></defs><g id="9420f80dde"><rect x="0" width="375" y="0" height="374.999991" style="fill:#ffffff;fill-opacity:1;stroke:none;"/><rect x="0" width="375" y="0" height="374.999991" style="fill:#ffffff;fill-opacity:1;stroke:none;"/><g clip-rule="nonzero" clip-path="url(#1bfa13fba8)"><path style=" stroke:none;fill-rule:nonzero;fill:#8a310d;fill-opacity:1;" d="M 152.882812 132.558594 C 147.980469 132.558594 142.957031 133.691406 137.84375 136.121094 C 123.773438 142.800781 117.058594 154.972656 116.625 170.355469 C 116.273438 183.191406 121.777344 194.164062 128.914062 204.351562 C 143.816406 225.636719 163.984375 241.371094 184.6875 256.480469 C 185.046875 256.742188 185.660156 256.867188 186.296875 256.867188 C 187.035156 256.867188 187.804688 256.703125 188.25 256.390625 C 191.550781 254.011719 194.828125 251.605469 198.070312 249.160156 C 188.59375 242.308594 182.425781 231.175781 182.425781 218.613281 C 182.425781 197.828125 199.328125 180.929688 220.109375 180.929688 C 232.019531 180.929688 242.652344 186.476562 249.550781 195.136719 C 250.144531 193.992188 250.714844 192.828125 251.25 191.640625 C 256.457031 180.210938 258.355469 168.480469 253.480469 156.390625 C 247.332031 141.144531 234.089844 132.703125 220.070312 132.703125 C 211.898438 132.703125 203.460938 135.578125 196.015625 141.644531 C 192.667969 144.375 189.699219 147.550781 186.378906 150.679688 C 183.074219 147.550781 180.230469 144.375 176.933594 141.792969 C 169.402344 135.917969 161.324219 132.558594 152.882812 132.558594 Z M 152.882812 139.957031 C 159.296875 139.957031 165.859375 142.535156 172.378906 147.621094 C 174.261719 149.09375 176.109375 150.9375 178.066406 152.886719 C 179.09375 153.910156 180.15625 154.972656 181.289062 156.046875 L 186.359375 160.851562 L 191.445312 156.0625 C 192.578125 154.992188 193.660156 153.933594 194.707031 152.910156 C 196.753906 150.902344 198.691406 149.003906 200.6875 147.375 C 206.527344 142.617188 213.230469 140.101562 220.074219 140.101562 C 231.707031 140.101562 241.878906 147.402344 246.621094 159.152344 C 249.546875 166.414062 249.671875 173.914062 246.9375 182.390625 C 239.265625 176.679688 229.929688 173.53125 220.109375 173.53125 C 195.253906 173.53125 175.03125 193.757812 175.03125 218.613281 C 175.03125 229.71875 179.183594 240.378906 186.449219 248.5625 C 186.4375 248.566406 186.429688 248.574219 186.421875 248.585938 C 167.804688 234.910156 148.769531 219.816406 134.96875 200.105469 C 127.140625 188.933594 123.765625 179.816406 124.019531 170.5625 C 124.390625 157.316406 130.109375 147.976562 141.019531 142.800781 C 144.992188 140.914062 148.980469 139.957031 152.882812 139.957031 "/></g><path style=" stroke:none;fill-rule:nonzero;fill:#8a310d;fill-opacity:1;" d="M 221.753906 194.167969 C 207.824219 194.167969 196.488281 205.503906 196.488281 219.4375 C 196.488281 233.367188 207.824219 244.699219 221.753906 244.699219 C 235.683594 244.699219 247.015625 233.367188 247.015625 219.4375 C 247.015625 205.503906 235.683594 194.167969 221.753906 194.167969 Z M 221.753906 253.121094 C 203.179688 253.121094 188.066406 238.011719 188.066406 219.4375 C 188.066406 200.859375 203.179688 185.746094 221.753906 185.746094 C 240.328125 185.746094 255.441406 200.859375 255.441406 219.4375 C 255.441406 238.011719 240.328125 253.121094 221.753906 253.121094 "/><path style=" stroke:none;fill-rule:nonzero;fill:#8a310d;fill-opacity:1;" d="M 237.546875 215.75 L 225.4375 215.75 L 225.4375 203.644531 C 225.4375 201.617188 223.777344 199.960938 221.753906 199.960938 C 219.726562 199.960938 218.066406 201.617188 218.066406 203.644531 L 218.066406 215.75 L 205.960938 215.75 C 203.9375 215.75 202.28125 217.40625 202.28125 219.4375 C 202.28125 221.460938 203.9375 223.117188 205.960938 223.117188 L 218.066406 223.117188 L 218.066406 235.226562 C 218.066406 237.253906 219.726562 238.910156 221.753906 238.910156 C 223.777344 238.910156 225.4375 237.253906 225.4375 235.226562 L 225.4375 223.117188 L 237.546875 223.117188 C 239.570312 223.117188 241.230469 221.460938 241.230469 219.4375 C 241.230469 217.40625 239.570312 215.75 237.546875 215.75 "/></g></svg>