<svg xmlns="http://www.w3.org/2000/svg" xmlns:xlink="http://www.w3.org/1999/xlink" width="500" zoomAndPan="magnify" viewBox="0 0 375 374.999991" height="500" preserveAspectRatio="xMidYMid meet" version="1.2"><defs><clipPath id="ee6b3460a3"><path d="M 128.703125 135.878906 L 246.390625 135.878906 L 246.390625 239.378906 L 128.703125 239.378906 Z M 128.703125 135.878906 "/></clipPath></defs><g id="3cae5bf078"><rect x="0" width="375" y="0" height="374.999991" style="fill:#ffffff;fill-opacity:1;stroke:none;"/><rect x="0" width="375" y="0" height="374.999991" style="fill:#ffffff;fill-opacity:1;stroke:none;"/><path style=" stroke:none;fill-rule:nonzero;fill:#aaedff;fill-opacity:1;" d="M 135.027344 230.707031 C 135.867188 231.171875 136.832031 231.4375 137.855469 231.4375 L 218.886719 231.4375 C 229.679688 231.4375 238.464844 222.640625 238.464844 211.828125 C 238.464844 209.089844 237.898438 206.480469 236.882812 204.113281 C 233.449219 201.363281 229.097656 199.71875 224.371094 199.71875 L 221.988281 199.71875 C 221.988281 199.71875 221.984375 199.71875 221.984375 199.71875 L 149.382812 199.71875 C 142.179688 199.71875 136.320312 205.585938 136.320312 212.800781 C 136.320312 216.039062 137.503906 219.003906 139.457031 221.289062 C 141.273438 222.195312 143.320312 222.707031 145.484375 222.707031 L 223.464844 222.707031 C 226.929688 222.707031 229.746094 219.882812 229.746094 216.414062 C 229.746094 212.945312 226.929688 210.125 223.464844 210.125 L 157.644531 210.125 L 157.128906 210.640625 L 152.804688 214.972656 C 152.605469 215.171875 152.34375 215.269531 152.082031 215.269531 C 151.824219 215.269531 151.5625 215.171875 151.363281 214.972656 C 150.964844 214.570312 150.964844 213.925781 151.363281 213.527344 L 154.757812 210.125 L 155.683594 209.195312 L 155.78125 209.101562 L 154.789062 208.105469 L 154.757812 208.078125 L 151.363281 204.675781 C 150.964844 204.277344 150.964844 203.628906 151.363281 203.230469 C 151.761719 202.832031 152.40625 202.832031 152.804688 203.230469 L 156.339844 206.773438 L 157.644531 208.078125 L 223.464844 208.078125 C 228.054688 208.078125 231.789062 211.820312 231.789062 216.414062 C 231.789062 221.011719 228.054688 224.75 223.464844 224.75 L 141.296875 224.75 C 137.945312 224.75 135.199219 227.394531 135.027344 230.707031 "/><path style=" stroke:none;fill-rule:nonzero;fill:#aaedff;fill-opacity:1;" d="M 138.550781 220.792969 C 138.488281 220.757812 138.425781 220.71875 138.363281 220.683594 C 138.425781 220.71875 138.488281 220.757812 138.550781 220.792969 "/><path style=" stroke:none;fill-rule:nonzero;fill:#aaedff;fill-opacity:1;" d="M 139.453125 221.289062 C 139.222656 221.171875 138.996094 221.050781 138.769531 220.921875 C 138.992188 221.050781 139.21875 221.171875 139.453125 221.289062 "/><path style=" stroke:none;fill-rule:nonzero;fill:#ffffff;fill-opacity:1;" d="M 232.90625 197.757812 C 232.953125 197.78125 233.003906 197.808594 233.050781 197.832031 C 233.003906 197.808594 232.953125 197.78125 232.90625 197.757812 "/><path style=" stroke:none;fill-rule:nonzero;fill:#ffffff;fill-opacity:1;" d="M 149.382812 199.71875 L 221.984375 199.71875 C 221.984375 199.71875 221.988281 199.71875 221.988281 199.71875 L 224.367188 199.71875 C 229.097656 199.71875 233.449219 201.363281 236.882812 204.113281 C 235.777344 201.53125 234.132812 199.234375 232.09375 197.367188 C 232.28125 197.453125 232.46875 197.542969 232.65625 197.632812 C 229.878906 196.265625 226.761719 195.496094 223.464844 195.496094 L 220.988281 195.496094 C 220.988281 195.496094 220.984375 195.496094 220.984375 195.496094 L 145.484375 195.496094 C 137.992188 195.496094 131.898438 201.597656 131.898438 209.101562 C 131.898438 213.992188 134.488281 218.285156 138.363281 220.683594 C 138.425781 220.71875 138.488281 220.757812 138.550781 220.792969 C 138.621094 220.839844 138.695312 220.878906 138.769531 220.921875 C 138.996094 221.050781 139.222656 221.171875 139.453125 221.289062 C 139.453125 221.289062 139.457031 221.289062 139.457031 221.289062 C 137.503906 219.003906 136.320312 216.039062 136.320312 212.800781 C 136.320312 205.585938 142.179688 199.71875 149.382812 199.71875 "/><path style=" stroke:none;fill-rule:nonzero;fill:#76ceff;fill-opacity:1;" d="M 236.882812 204.113281 C 237.898438 206.480469 238.464844 209.089844 238.464844 211.828125 C 238.464844 222.640625 229.679688 231.4375 218.886719 231.4375 L 137.855469 231.4375 C 136.832031 231.4375 135.867188 231.171875 135.027344 230.707031 C 135.019531 230.820312 135.015625 230.929688 135.015625 231.042969 C 135.015625 234.511719 137.835938 237.335938 141.296875 237.335938 L 223.464844 237.335938 C 234.980469 237.335938 244.351562 227.949219 244.351562 216.414062 C 244.351562 208.339844 239.757812 201.316406 233.050781 197.832031 C 233.003906 197.808594 232.953125 197.78125 232.90625 197.757812 C 232.820312 197.714844 232.738281 197.675781 232.65625 197.632812 C 232.46875 197.542969 232.28125 197.453125 232.09375 197.367188 C 234.132812 199.234375 235.777344 201.53125 236.882812 204.113281 "/><path style=" stroke:none;fill-rule:nonzero;fill:#f4b3ff;fill-opacity:1;" d="M 196.132812 186.683594 C 195.597656 186.5 195.316406 185.917969 195.503906 185.386719 C 195.6875 184.851562 196.269531 184.570312 196.800781 184.753906 C 202.121094 186.601562 203.828125 186.875 204.371094 186.875 C 206.644531 186.875 208.492188 185.023438 208.492188 182.746094 C 208.492188 180.46875 206.644531 178.617188 204.371094 178.617188 C 203.828125 178.617188 202.121094 178.894531 196.800781 180.742188 C 196.269531 180.925781 195.6875 180.644531 195.503906 180.109375 C 195.316406 179.574219 195.597656 178.992188 196.132812 178.808594 C 202.574219 176.574219 203.925781 176.574219 204.371094 176.574219 C 207.769531 176.574219 210.53125 179.34375 210.53125 182.746094 C 210.53125 186.152344 207.769531 188.921875 204.371094 188.921875 C 203.925781 188.921875 202.574219 188.921875 196.132812 186.683594 Z M 184.914062 174.78125 C 184.804688 174.820312 184.691406 174.835938 184.582031 174.835938 C 184.15625 174.835938 183.761719 174.570312 183.617188 174.148438 C 181.382812 167.699219 181.382812 166.34375 181.382812 165.898438 C 181.382812 162.496094 184.148438 159.726562 187.546875 159.726562 C 190.945312 159.726562 193.710938 162.496094 193.710938 165.898438 C 193.710938 166.34375 193.710938 167.699219 191.480469 174.148438 C 191.296875 174.683594 190.714844 174.964844 190.183594 174.78125 C 189.648438 174.59375 189.367188 174.011719 189.550781 173.480469 C 191.394531 168.148438 191.671875 166.441406 191.671875 165.898438 C 191.671875 163.621094 189.820312 161.769531 187.546875 161.769531 C 185.273438 161.769531 183.425781 163.621094 183.425781 165.898438 C 183.425781 166.441406 183.699219 168.148438 185.542969 173.480469 C 185.730469 174.011719 185.445312 174.59375 184.914062 174.78125 Z M 164.5625 182.746094 C 164.5625 179.34375 167.328125 176.574219 170.726562 176.574219 C 171.171875 176.574219 172.523438 176.574219 178.964844 178.808594 C 179.496094 178.992188 179.777344 179.574219 179.59375 180.109375 C 179.410156 180.644531 178.828125 180.925781 178.296875 180.742188 C 172.976562 178.894531 171.269531 178.617188 170.726562 178.617188 C 168.453125 178.617188 166.605469 180.46875 166.605469 182.746094 C 166.605469 185.023438 168.453125 186.875 170.726562 186.875 C 171.269531 186.875 172.976562 186.601562 178.296875 184.753906 C 178.828125 184.570312 179.410156 184.851562 179.59375 185.386719 C 179.777344 185.917969 179.496094 186.5 178.964844 186.683594 C 172.523438 188.921875 171.171875 188.921875 170.726562 188.921875 C 167.328125 188.921875 164.5625 186.152344 164.5625 182.746094 Z M 223.414062 183.378906 C 223.414062 182.339844 222.847656 181.460938 221.898438 181.023438 C 217.082031 178.800781 207.3125 169.941406 199.777344 162.394531 C 195.109375 157.71875 189.707031 151.800781 185.808594 146.929688 C 181.972656 151.65625 176.765625 157.230469 172.0625 161.941406 C 164.414062 169.597656 154.503906 178.585938 149.617188 180.839844 C 148.65625 181.285156 148.082031 182.179688 148.082031 183.234375 C 148.082031 184.289062 148.65625 185.183594 149.617188 185.625 C 152.464844 186.941406 156.917969 190.550781 160.257812 193.453125 L 211.40625 193.453125 C 214.699219 190.59375 219.085938 187.035156 221.898438 185.738281 C 222.847656 185.300781 223.414062 184.417969 223.414062 183.378906 "/><path style=" stroke:none;fill-rule:nonzero;fill:#ffffff;fill-opacity:1;" d="M 135.015625 231.042969 C 135.015625 230.929688 135.019531 230.820312 135.027344 230.707031 C 135.199219 227.394531 137.945312 224.75 141.296875 224.75 L 137.027344 224.75 C 133.5625 224.75 130.746094 227.574219 130.746094 231.042969 C 130.746094 234.511719 133.5625 237.335938 137.027344 237.335938 L 141.296875 237.335938 C 137.835938 237.335938 135.015625 234.511719 135.015625 231.042969 "/><path style=" stroke:none;fill-rule:nonzero;fill:#ffffff;fill-opacity:1;" d="M 159.449219 193.453125 L 160.257812 193.453125 C 156.917969 190.550781 152.464844 186.941406 149.617188 185.625 C 148.65625 185.183594 148.082031 184.289062 148.082031 183.234375 C 148.082031 182.179688 148.65625 181.285156 149.617188 180.839844 C 154.503906 178.585938 164.414062 169.597656 172.0625 161.941406 C 176.765625 157.226562 181.972656 151.65625 185.808594 146.929688 C 184.714844 145.5625 183.742188 144.28125 182.933594 143.132812 C 179.207031 148.414062 172.335938 155.886719 166.289062 161.941406 C 158.640625 169.597656 148.730469 178.585938 143.84375 180.839844 C 142.882812 181.285156 142.308594 182.179688 142.308594 183.234375 C 142.308594 184.289062 142.882812 185.183594 143.84375 185.625 C 146.691406 186.941406 151.144531 190.550781 154.488281 193.453125 L 159.449219 193.453125 "/><path style=" stroke:none;fill-rule:nonzero;fill:#c899ff;fill-opacity:1;" d="M 199.777344 162.394531 C 207.3125 169.941406 217.082031 178.800781 221.898438 181.023438 C 222.84375 181.460938 223.410156 182.339844 223.410156 183.378906 C 223.410156 184.417969 222.84375 185.300781 221.898438 185.738281 C 219.085938 187.035156 214.699219 190.597656 211.40625 193.453125 L 220.605469 193.453125 C 223.945312 190.554688 228.398438 186.941406 231.25 185.625 C 232.210938 185.183594 232.789062 184.289062 232.789062 183.234375 C 232.789062 182.179688 232.210938 181.285156 231.25 180.839844 C 226.363281 178.585938 216.453125 169.597656 208.808594 161.941406 C 201.160156 154.28125 192.1875 144.355469 189.9375 139.460938 C 189.492188 138.496094 188.601562 137.921875 187.546875 137.921875 C 186.496094 137.921875 185.601562 138.496094 185.160156 139.460938 C 184.6875 140.484375 183.917969 141.734375 182.929688 143.132812 C 183.742188 144.285156 184.714844 145.566406 185.804688 146.929688 C 189.707031 151.800781 195.109375 157.71875 199.777344 162.394531 "/><path style=" stroke:none;fill-rule:nonzero;fill:#002549;fill-opacity:1;" d="M 178.964844 186.683594 C 179.496094 186.5 179.777344 185.917969 179.59375 185.382812 C 179.410156 184.851562 178.828125 184.570312 178.296875 184.753906 C 172.976562 186.601562 171.269531 186.875 170.726562 186.875 C 168.453125 186.875 166.605469 185.023438 166.605469 182.746094 C 166.605469 180.46875 168.453125 178.617188 170.726562 178.617188 C 171.269531 178.617188 172.976562 178.894531 178.296875 180.738281 C 178.828125 180.925781 179.410156 180.640625 179.59375 180.109375 C 179.777344 179.574219 179.496094 178.992188 178.964844 178.808594 C 172.523438 176.574219 171.171875 176.574219 170.726562 176.574219 C 167.328125 176.574219 164.5625 179.34375 164.5625 182.746094 C 164.5625 186.152344 167.328125 188.921875 170.726562 188.921875 C 171.171875 188.921875 172.523438 188.921875 178.964844 186.683594 "/><path style=" stroke:none;fill-rule:nonzero;fill:#002549;fill-opacity:1;" d="M 183.425781 165.898438 C 183.425781 163.621094 185.273438 161.769531 187.546875 161.769531 C 189.820312 161.769531 191.671875 163.621094 191.671875 165.898438 C 191.671875 166.441406 191.394531 168.152344 189.550781 173.480469 C 189.367188 174.011719 189.648438 174.59375 190.183594 174.78125 C 190.714844 174.964844 191.296875 174.683594 191.480469 174.148438 C 193.710938 167.699219 193.710938 166.34375 193.710938 165.898438 C 193.710938 162.496094 190.945312 159.726562 187.546875 159.726562 C 184.148438 159.726562 181.382812 162.496094 181.382812 165.898438 C 181.382812 166.34375 181.382812 167.699219 183.617188 174.148438 C 183.761719 174.570312 184.15625 174.835938 184.582031 174.835938 C 184.691406 174.835938 184.804688 174.820312 184.914062 174.78125 C 185.445312 174.59375 185.730469 174.011719 185.542969 173.480469 C 183.699219 168.152344 183.425781 166.441406 183.425781 165.898438 "/><path style=" stroke:none;fill-rule:nonzero;fill:#002549;fill-opacity:1;" d="M 210.53125 182.746094 C 210.53125 179.34375 207.765625 176.574219 204.371094 176.574219 C 203.925781 176.574219 202.570312 176.574219 196.132812 178.808594 C 195.597656 178.992188 195.316406 179.578125 195.503906 180.109375 C 195.6875 180.644531 196.265625 180.925781 196.800781 180.742188 C 202.121094 178.894531 203.824219 178.617188 204.371094 178.617188 C 206.640625 178.617188 208.492188 180.46875 208.492188 182.746094 C 208.492188 185.023438 206.640625 186.875 204.371094 186.875 C 203.824219 186.875 202.121094 186.601562 196.800781 184.753906 C 196.265625 184.570312 195.6875 184.851562 195.503906 185.386719 C 195.316406 185.917969 195.597656 186.5 196.132812 186.683594 C 202.570312 188.921875 203.925781 188.921875 204.371094 188.921875 C 207.765625 188.921875 210.53125 186.152344 210.53125 182.746094 "/><g clip-rule="nonzero" clip-path="url(#ee6b3460a3)"><path style=" stroke:none;fill-rule:nonzero;fill:#002549;fill-opacity:1;" d="M 130.746094 231.042969 C 130.746094 227.574219 133.5625 224.75 137.027344 224.75 L 223.464844 224.75 C 228.054688 224.75 231.789062 221.011719 231.789062 216.414062 C 231.789062 211.820312 228.054688 208.078125 223.464844 208.078125 L 157.644531 208.078125 L 156.339844 206.773438 L 152.804688 203.230469 C 152.40625 202.832031 151.761719 202.832031 151.363281 203.230469 C 150.964844 203.628906 150.964844 204.277344 151.363281 204.675781 L 154.757812 208.078125 L 154.789062 208.105469 L 154.898438 208.21875 L 155.78125 209.101562 L 155.683594 209.195312 L 154.757812 210.125 L 151.363281 213.527344 C 150.964844 213.925781 150.964844 214.570312 151.363281 214.972656 C 151.5625 215.171875 151.824219 215.269531 152.082031 215.269531 C 152.34375 215.269531 152.605469 215.171875 152.804688 214.972656 L 157.128906 210.640625 L 157.644531 210.125 L 223.464844 210.125 C 226.929688 210.125 229.746094 212.945312 229.746094 216.414062 C 229.746094 219.882812 226.929688 222.707031 223.464844 222.707031 L 145.484375 222.707031 C 143.320312 222.707031 141.273438 222.195312 139.457031 221.289062 C 139.457031 221.289062 139.453125 221.289062 139.453125 221.289062 C 139.21875 221.171875 138.992188 221.050781 138.769531 220.921875 C 138.695312 220.878906 138.621094 220.839844 138.550781 220.792969 C 138.488281 220.757812 138.425781 220.71875 138.363281 220.683594 C 134.488281 218.285156 131.898438 213.992188 131.898438 209.101562 C 131.898438 201.597656 137.992188 195.496094 145.484375 195.496094 L 223.464844 195.496094 C 226.761719 195.496094 229.882812 196.265625 232.65625 197.632812 C 232.738281 197.675781 232.824219 197.714844 232.90625 197.757812 C 232.953125 197.78125 233.003906 197.808594 233.050781 197.832031 C 239.757812 201.316406 244.351562 208.339844 244.351562 216.414062 C 244.351562 227.949219 234.980469 237.335938 223.464844 237.335938 L 137.027344 237.335938 C 133.5625 237.335938 130.746094 234.511719 130.746094 231.042969 Z M 143.84375 185.625 C 142.882812 185.183594 142.308594 184.289062 142.308594 183.234375 C 142.308594 182.179688 142.882812 181.285156 143.84375 180.839844 C 148.730469 178.585938 158.640625 169.597656 166.289062 161.941406 C 172.335938 155.886719 179.207031 148.414062 182.933594 143.132812 C 183.917969 141.734375 184.6875 140.484375 185.160156 139.460938 C 185.601562 138.496094 186.496094 137.921875 187.546875 137.921875 C 188.601562 137.921875 189.492188 138.496094 189.9375 139.460938 C 192.1875 144.355469 201.160156 154.28125 208.808594 161.941406 C 216.453125 169.597656 226.363281 178.585938 231.25 180.839844 C 232.210938 181.285156 232.789062 182.179688 232.789062 183.234375 C 232.789062 184.289062 232.210938 185.183594 231.25 185.625 C 228.398438 186.941406 223.945312 190.554688 220.605469 193.453125 L 154.484375 193.453125 C 151.144531 190.550781 146.691406 186.941406 143.84375 185.625 Z M 223.75 193.457031 C 227.421875 190.375 230.289062 188.320312 232.105469 187.484375 C 233.785156 186.707031 234.828125 185.078125 234.828125 183.234375 C 234.828125 181.386719 233.785156 179.757812 232.105469 178.984375 C 228.28125 177.21875 219.703125 169.960938 210.25 160.496094 C 200.796875 151.027344 193.554688 142.4375 191.789062 138.605469 C 191.015625 136.921875 189.390625 135.878906 187.546875 135.878906 C 185.707031 135.878906 184.078125 136.921875 183.304688 138.605469 C 181.542969 142.4375 174.296875 151.027344 164.847656 160.496094 C 155.394531 169.960938 146.816406 177.21875 142.992188 178.984375 C 141.3125 179.757812 140.269531 181.386719 140.269531 183.234375 C 140.269531 185.078125 141.3125 186.707031 142.992188 187.484375 C 144.804688 188.320312 147.667969 190.371094 151.339844 193.453125 L 145.484375 193.453125 C 136.867188 193.453125 129.859375 200.472656 129.859375 209.101562 C 129.859375 214.921875 133.046875 220.011719 137.769531 222.707031 L 137.027344 222.707031 C 132.4375 222.707031 128.703125 226.445312 128.703125 231.042969 C 128.703125 235.640625 132.4375 239.378906 137.027344 239.378906 L 223.464844 239.378906 C 236.109375 239.378906 246.390625 229.078125 246.390625 216.414062 C 246.390625 203.847656 236.261719 193.609375 223.75 193.457031 "/></g></g></svg>