<svg xmlns="http://www.w3.org/2000/svg" xmlns:xlink="http://www.w3.org/1999/xlink" width="500" zoomAndPan="magnify" viewBox="0 0 375 374.999991" height="500" preserveAspectRatio="xMidYMid meet" version="1.2"><defs><clipPath id="0a3c3f4cf4"><path d="M 133.429688 157 L 182 157 L 182 252.921875 L 133.429688 252.921875 Z M 133.429688 157 "/></clipPath><clipPath id="9510c8b3a2"><path d="M 149 122.421875 L 181 122.421875 L 181 131 L 149 131 Z M 149 122.421875 "/></clipPath><clipPath id="dd579230d2"><path d="M 199 177.578125 L 206 177.578125 L 206 184 L 199 184 Z M 199 177.578125 "/></clipPath></defs><g id="bcbc0bc78c"><rect x="0" width="375" y="0" height="374.999991" style="fill:#ffffff;fill-opacity:1;stroke:none;"/><rect x="0" width="375" y="0" height="374.999991" style="fill:#ffffff;fill-opacity:1;stroke:none;"/><g clip-rule="nonzero" clip-path="url(#0a3c3f4cf4)"><path style=" stroke:none;fill-rule:nonzero;fill:#8a310d;fill-opacity:1;" d="M 172.074219 252.484375 L 143.25 252.484375 C 142.605469 252.484375 141.96875 252.421875 141.335938 252.296875 C 140.703125 252.167969 140.085938 251.980469 139.492188 251.734375 C 138.894531 251.488281 138.332031 251.183594 137.792969 250.828125 C 137.257812 250.46875 136.761719 250.058594 136.304688 249.605469 C 135.847656 249.148438 135.441406 248.652344 135.082031 248.117188 C 134.722656 247.578125 134.421875 247.011719 134.175781 246.417969 C 133.925781 245.820312 133.742188 245.207031 133.613281 244.574219 C 133.488281 243.941406 133.425781 243.304688 133.421875 242.660156 L 133.421875 174.871094 C 133.421875 165.035156 141.425781 157.035156 151.261719 157.035156 L 164.0625 157.035156 C 173.898438 157.035156 181.902344 165.035156 181.902344 174.871094 L 181.902344 242.65625 C 181.902344 243.304688 181.835938 243.941406 181.710938 244.574219 C 181.585938 245.207031 181.398438 245.820312 181.152344 246.417969 C 180.902344 247.011719 180.601562 247.578125 180.242188 248.117188 C 179.882812 248.652344 179.476562 249.148438 179.019531 249.605469 C 178.5625 250.0625 178.066406 250.46875 177.53125 250.828125 C 176.996094 251.183594 176.429688 251.488281 175.832031 251.734375 C 175.234375 251.980469 174.621094 252.167969 173.988281 252.296875 C 173.355469 252.421875 172.71875 252.484375 172.074219 252.484375 Z M 151.261719 158.808594 C 150.734375 158.808594 150.210938 158.835938 149.6875 158.886719 C 149.164062 158.941406 148.644531 159.015625 148.128906 159.121094 C 147.613281 159.222656 147.101562 159.351562 146.601562 159.503906 C 146.097656 159.65625 145.601562 159.835938 145.117188 160.035156 C 144.632812 160.238281 144.15625 160.460938 143.691406 160.710938 C 143.230469 160.957031 142.777344 161.230469 142.339844 161.519531 C 141.902344 161.8125 141.480469 162.125 141.074219 162.460938 C 140.667969 162.792969 140.28125 163.148438 139.90625 163.519531 C 139.535156 163.890625 139.183594 164.28125 138.851562 164.6875 C 138.515625 165.09375 138.203125 165.515625 137.910156 165.953125 C 137.617188 166.390625 137.347656 166.839844 137.101562 167.304688 C 136.851562 167.765625 136.628906 168.242188 136.425781 168.726562 C 136.222656 169.214844 136.046875 169.707031 135.894531 170.210938 C 135.742188 170.714844 135.613281 171.222656 135.507812 171.738281 C 135.40625 172.253906 135.328125 172.773438 135.277344 173.296875 C 135.226562 173.820312 135.199219 174.34375 135.199219 174.871094 L 135.199219 242.65625 C 135.199219 243.1875 135.25 243.710938 135.355469 244.226562 C 135.457031 244.746094 135.609375 245.25 135.8125 245.738281 C 136.015625 246.226562 136.265625 246.691406 136.558594 247.128906 C 136.851562 247.570312 137.1875 247.976562 137.558594 248.347656 C 137.933594 248.722656 138.339844 249.054688 138.777344 249.351562 C 139.21875 249.644531 139.683594 249.890625 140.171875 250.09375 C 140.660156 250.296875 141.160156 250.449219 141.679688 250.554688 C 142.199219 250.65625 142.722656 250.710938 143.25 250.710938 L 172.070312 250.710938 C 172.601562 250.710938 173.125 250.65625 173.640625 250.554688 C 174.160156 250.449219 174.664062 250.296875 175.152344 250.09375 C 175.640625 249.890625 176.105469 249.644531 176.542969 249.351562 C 176.984375 249.054688 177.390625 248.722656 177.761719 248.347656 C 178.136719 247.976562 178.472656 247.570312 178.765625 247.128906 C 179.058594 246.691406 179.304688 246.226562 179.507812 245.738281 C 179.710938 245.25 179.863281 244.746094 179.96875 244.226562 C 180.070312 243.710938 180.125 243.1875 180.125 242.65625 L 180.125 174.871094 C 180.125 174.34375 180.097656 173.820312 180.046875 173.296875 C 179.992188 172.773438 179.914062 172.253906 179.8125 171.738281 C 179.710938 171.222656 179.582031 170.714844 179.429688 170.210938 C 179.277344 169.707031 179.097656 169.214844 178.898438 168.726562 C 178.695312 168.242188 178.46875 167.765625 178.222656 167.304688 C 177.972656 166.839844 177.703125 166.390625 177.410156 165.953125 C 177.121094 165.515625 176.804688 165.09375 176.472656 164.6875 C 176.140625 164.28125 175.785156 163.890625 175.414062 163.519531 C 175.042969 163.148438 174.652344 162.792969 174.246094 162.460938 C 173.839844 162.125 173.417969 161.8125 172.980469 161.519531 C 172.542969 161.230469 172.09375 160.957031 171.628906 160.710938 C 171.167969 160.460938 170.691406 160.238281 170.207031 160.035156 C 169.71875 159.835938 169.226562 159.65625 168.722656 159.503906 C 168.21875 159.351562 167.710938 159.222656 167.195312 159.121094 C 166.679688 159.015625 166.160156 158.941406 165.636719 158.886719 C 165.113281 158.835938 164.585938 158.808594 164.0625 158.808594 Z M 151.261719 158.808594 "/></g><path style=" stroke:none;fill-rule:nonzero;fill:#8a310d;fill-opacity:1;" d="M 165.636719 158.808594 L 149.6875 158.808594 C 149.441406 158.808594 149.234375 158.722656 149.0625 158.546875 C 148.886719 158.375 148.800781 158.167969 148.800781 157.921875 L 148.800781 145.480469 C 148.800781 145.125 148.871094 144.78125 149.003906 144.453125 C 149.140625 144.128906 149.335938 143.835938 149.585938 143.585938 C 149.835938 143.335938 150.125 143.140625 150.453125 143.007812 C 150.78125 142.871094 151.125 142.800781 151.480469 142.800781 L 163.84375 142.800781 C 164.199219 142.800781 164.542969 142.871094 164.871094 143.003906 C 165.195312 143.140625 165.488281 143.335938 165.738281 143.585938 C 165.988281 143.835938 166.183594 144.128906 166.320312 144.453125 C 166.453125 144.78125 166.523438 145.125 166.523438 145.480469 L 166.523438 157.921875 C 166.523438 158.164062 166.4375 158.375 166.261719 158.546875 C 166.089844 158.722656 165.878906 158.808594 165.636719 158.808594 Z M 150.574219 157.035156 L 164.746094 157.035156 L 164.746094 145.480469 C 164.746094 145.230469 164.660156 145.015625 164.484375 144.839844 C 164.308594 144.664062 164.09375 144.578125 163.84375 144.578125 L 151.480469 144.578125 C 151.230469 144.578125 151.015625 144.664062 150.839844 144.839844 C 150.664062 145.015625 150.578125 145.230469 150.574219 145.480469 Z M 150.574219 157.035156 "/><path style=" stroke:none;fill-rule:nonzero;fill:#8a310d;fill-opacity:1;" d="M 161.691406 144.578125 L 153.628906 144.578125 C 153.386719 144.578125 153.175781 144.488281 153.003906 144.316406 C 152.828125 144.144531 152.742188 143.933594 152.742188 143.6875 L 152.742188 129.128906 C 152.742188 128.882812 152.828125 128.675781 153.003906 128.5 C 153.175781 128.328125 153.386719 128.242188 153.628906 128.242188 L 161.691406 128.242188 C 161.9375 128.242188 162.148438 128.328125 162.320312 128.5 C 162.496094 128.675781 162.582031 128.882812 162.582031 129.128906 L 162.582031 143.6875 C 162.582031 143.933594 162.496094 144.144531 162.320312 144.316406 C 162.148438 144.488281 161.9375 144.578125 161.691406 144.578125 Z M 154.519531 142.800781 L 160.804688 142.800781 L 160.804688 130.015625 L 154.519531 130.015625 Z M 154.519531 142.800781 "/><g clip-rule="nonzero" clip-path="url(#9510c8b3a2)"><path style=" stroke:none;fill-rule:nonzero;fill:#8a310d;fill-opacity:1;" d="M 178.472656 130.015625 L 153.234375 130.015625 C 152.984375 130.015625 152.734375 129.992188 152.492188 129.941406 C 152.246094 129.890625 152.007812 129.816406 151.777344 129.714844 C 151.546875 129.617188 151.328125 129.496094 151.121094 129.351562 C 150.914062 129.210938 150.726562 129.046875 150.550781 128.867188 C 150.378906 128.683594 150.226562 128.484375 150.09375 128.273438 C 149.960938 128.058594 149.851562 127.835938 149.765625 127.601562 C 149.675781 127.367188 149.613281 127.125 149.578125 126.875 C 149.539062 126.628906 149.527344 126.378906 149.539062 126.128906 C 149.550781 125.878906 149.589844 125.628906 149.652344 125.386719 C 149.714844 125.144531 149.800781 124.910156 149.914062 124.683594 C 150.023438 124.460938 150.15625 124.25 150.308594 124.050781 C 150.460938 123.851562 150.632812 123.671875 150.824219 123.507812 C 151.015625 123.34375 151.21875 123.199219 151.441406 123.078125 C 151.660156 122.957031 151.886719 122.859375 152.128906 122.785156 C 152.367188 122.710938 152.613281 122.660156 152.863281 122.632812 C 153.109375 122.609375 153.359375 122.609375 153.609375 122.632812 L 178.71875 125.195312 C 179.027344 125.226562 179.320312 125.3125 179.59375 125.457031 C 179.867188 125.597656 180.105469 125.789062 180.308594 126.023438 C 180.511719 126.257812 180.660156 126.523438 180.761719 126.816406 C 180.863281 127.109375 180.90625 127.410156 180.890625 127.722656 C 180.875 128.03125 180.800781 128.328125 180.671875 128.609375 C 180.542969 128.890625 180.363281 129.136719 180.140625 129.351562 C 179.914062 129.566406 179.660156 129.730469 179.371094 129.84375 C 179.082031 129.957031 178.785156 130.015625 178.472656 130.015625 Z M 153.230469 124.390625 C 152.972656 124.390625 152.730469 124.441406 152.496094 124.539062 C 152.257812 124.636719 152.050781 124.777344 151.871094 124.957031 C 151.691406 125.136719 151.554688 125.34375 151.457031 125.582031 C 151.359375 125.816406 151.308594 126.0625 151.308594 126.316406 C 151.3125 126.570312 151.359375 126.816406 151.457031 127.050781 C 151.554688 127.289062 151.695312 127.496094 151.875 127.675781 C 152.054688 127.855469 152.261719 127.996094 152.5 128.09375 C 152.734375 128.191406 152.980469 128.242188 153.234375 128.242188 L 178.472656 128.242188 C 178.644531 128.238281 178.792969 128.179688 178.914062 128.0625 C 179.039062 127.945312 179.105469 127.800781 179.113281 127.632812 C 179.121094 127.460938 179.070312 127.3125 178.960938 127.179688 C 178.847656 127.050781 178.707031 126.976562 178.539062 126.960938 L 153.429688 124.402344 C 153.363281 124.394531 153.296875 124.390625 153.230469 124.390625 Z M 153.230469 124.390625 "/></g><path style=" stroke:none;fill-rule:nonzero;fill:#8a310d;fill-opacity:1;" d="M 170.277344 232.476562 L 145.046875 232.476562 C 144.757812 232.476562 144.472656 232.449219 144.191406 232.390625 C 143.90625 232.335938 143.632812 232.25 143.367188 232.140625 C 143.101562 232.03125 142.847656 231.894531 142.609375 231.734375 C 142.367188 231.574219 142.144531 231.390625 141.941406 231.1875 C 141.738281 230.984375 141.554688 230.761719 141.394531 230.523438 C 141.234375 230.28125 141.097656 230.03125 140.988281 229.761719 C 140.878906 229.496094 140.792969 229.222656 140.738281 228.9375 C 140.683594 228.65625 140.652344 228.371094 140.652344 228.082031 L 140.652344 185.242188 C 140.652344 184.953125 140.683594 184.667969 140.738281 184.386719 C 140.792969 184.101562 140.878906 183.828125 140.988281 183.5625 C 141.097656 183.296875 141.234375 183.042969 141.394531 182.800781 C 141.554688 182.5625 141.738281 182.339844 141.941406 182.136719 C 142.144531 181.933594 142.367188 181.75 142.609375 181.589844 C 142.847656 181.429688 143.101562 181.292969 143.367188 181.183594 C 143.632812 181.074219 143.90625 180.988281 144.191406 180.933594 C 144.472656 180.875 144.757812 180.847656 145.046875 180.847656 L 170.277344 180.847656 C 170.5625 180.847656 170.851562 180.875 171.132812 180.933594 C 171.414062 180.988281 171.691406 181.074219 171.957031 181.183594 C 172.222656 181.292969 172.476562 181.429688 172.714844 181.589844 C 172.957031 181.75 173.179688 181.933594 173.382812 182.136719 C 173.585938 182.339844 173.769531 182.5625 173.929688 182.800781 C 174.089844 183.042969 174.222656 183.296875 174.335938 183.5625 C 174.445312 183.828125 174.527344 184.101562 174.585938 184.386719 C 174.640625 184.667969 174.671875 184.953125 174.671875 185.242188 L 174.671875 228.082031 C 174.671875 228.371094 174.640625 228.65625 174.585938 228.9375 C 174.527344 229.222656 174.445312 229.496094 174.335938 229.761719 C 174.222656 230.03125 174.089844 230.28125 173.929688 230.523438 C 173.769531 230.761719 173.585938 230.984375 173.382812 231.1875 C 173.179688 231.390625 172.957031 231.574219 172.714844 231.734375 C 172.476562 231.894531 172.222656 232.03125 171.957031 232.140625 C 171.691406 232.25 171.414062 232.335938 171.132812 232.390625 C 170.851562 232.449219 170.5625 232.476562 170.277344 232.476562 Z M 145.046875 182.621094 C 144.699219 182.625 144.367188 182.691406 144.046875 182.824219 C 143.726562 182.957031 143.441406 183.144531 143.195312 183.390625 C 142.949219 183.636719 142.761719 183.917969 142.628906 184.242188 C 142.496094 184.5625 142.429688 184.894531 142.429688 185.242188 L 142.429688 228.082031 C 142.429688 228.429688 142.496094 228.761719 142.628906 229.085938 C 142.761719 229.40625 142.949219 229.6875 143.195312 229.933594 C 143.441406 230.179688 143.726562 230.367188 144.046875 230.5 C 144.367188 230.632812 144.699219 230.703125 145.046875 230.703125 L 170.277344 230.703125 C 170.625 230.703125 170.957031 230.632812 171.277344 230.5 C 171.597656 230.367188 171.882812 230.179688 172.128906 229.933594 C 172.371094 229.6875 172.5625 229.40625 172.695312 229.085938 C 172.828125 228.761719 172.894531 228.429688 172.894531 228.082031 L 172.894531 185.242188 C 172.894531 184.894531 172.828125 184.5625 172.695312 184.242188 C 172.5625 183.917969 172.371094 183.636719 172.128906 183.390625 C 171.882812 183.144531 171.597656 182.957031 171.277344 182.824219 C 170.957031 182.691406 170.625 182.625 170.277344 182.621094 Z M 145.046875 182.621094 "/><path style=" stroke:none;fill-rule:nonzero;fill:#8a310d;fill-opacity:1;" d="M 237.300781 191.753906 L 222.644531 182.777344 C 220.546875 181.484375 217.925781 181.371094 215.722656 182.480469 L 186.921875 196.742188 C 184.488281 197.957031 182.945312 200.4375 182.933594 203.15625 L 182.933594 209.445312 C 182.933594 211.917969 184.210938 214.21875 186.308594 215.53125 L 200.335938 224.289062 C 202.488281 225.613281 205.175781 225.722656 207.429688 224.582031 L 212.082031 222.191406 C 213.4375 223.472656 215.292969 224.082031 217.144531 223.859375 C 218.992188 223.570312 218.644531 220.773438 216.785156 220.945312 C 214.996094 221.152344 213.347656 219.9375 213.015625 218.167969 C 212.320312 214.960938 216.550781 212.730469 218.808594 215.085938 C 220.183594 216.527344 222.78125 215.589844 222.9375 213.617188 C 223.066406 211.214844 225.464844 209.476562 227.789062 209.8125 C 232.648438 210.300781 232.753906 217.5625 227.949219 218.339844 C 226.164062 218.644531 225.597656 220.78125 226.300781 222.265625 C 226.652344 224.128906 225.429688 225.921875 223.570312 226.277344 C 222.152344 226.746094 220.363281 224.863281 219.429688 226.628906 C 219.0625 227.355469 219.355469 228.238281 220.082031 228.605469 C 224.824219 231.195312 230.753906 226.242188 229.039062 221.125 C 233.332031 220.128906 235.769531 215.003906 233.828125 211.046875 L 236.855469 209.492188 C 239.25 208.265625 240.75 205.800781 240.746094 203.109375 L 240.746094 197.878906 C 240.734375 195.378906 239.433594 193.0625 237.300781 191.753906 Z M 235.492188 206.863281 L 232.066406 208.625 C 228.234375 205.0625 221.148438 207.152344 220.175781 212.386719 C 215.234375 208.53125 208.09375 213.949219 210.441406 219.738281 C 207.980469 220.796875 204.660156 223.703125 201.902344 221.792969 L 187.871094 213.042969 C 186.628906 212.269531 185.875 210.90625 185.871094 209.445312 L 185.871094 203.15625 C 185.878906 201.550781 186.789062 200.09375 188.222656 199.375 L 217.023438 185.109375 C 218.320312 184.457031 219.867188 184.523438 221.105469 185.285156 L 235.757812 194.257812 C 237.007812 195.03125 237.773438 196.390625 237.78125 197.863281 L 237.789062 203.09375 C 237.792969 204.679688 236.90625 206.136719 235.492188 206.863281 Z M 235.492188 206.863281 "/><path style=" stroke:none;fill-rule:nonzero;fill:#8a310d;fill-opacity:1;" d="M 231.070312 196.769531 L 231.070312 196.761719 L 206.292969 208.839844 C 204.988281 209.480469 203.441406 209.402344 202.207031 208.632812 L 192.019531 202.328125 C 190.394531 201.320312 188.835938 203.804688 190.472656 204.828125 C 190.472656 204.828125 200.660156 211.132812 200.660156 211.132812 C 202.753906 212.4375 205.371094 212.566406 207.582031 211.484375 L 232.359375 199.410156 C 234.070312 198.566406 232.8125 195.925781 231.070312 196.769531 Z M 231.070312 196.769531 "/><path style=" stroke:none;fill-rule:nonzero;fill:#8a310d;fill-opacity:1;" d="M 190.972656 191.828125 C 198.984375 191.621094 198.984375 179.882812 190.972656 179.679688 C 182.964844 179.882812 182.96875 191.625 190.972656 191.828125 Z M 190.972656 182.628906 C 195.09375 182.699219 195.09375 188.832031 190.972656 188.898438 C 186.855469 188.828125 186.855469 182.699219 190.972656 182.628906 Z M 190.972656 182.628906 "/><g clip-rule="nonzero" clip-path="url(#dd579230d2)"><path style=" stroke:none;fill-rule:nonzero;fill:#8a310d;fill-opacity:1;" d="M 202.609375 183.199219 C 206.3125 183.136719 206.308594 177.628906 202.609375 177.566406 C 198.910156 177.628906 198.910156 183.136719 202.609375 183.199219 Z M 202.609375 183.199219 "/></g></g></svg>