<svg xmlns="http://www.w3.org/2000/svg" xmlns:xlink="http://www.w3.org/1999/xlink" width="500" zoomAndPan="magnify" viewBox="0 0 375 374.999991" height="500" preserveAspectRatio="xMidYMid meet" version="1.2"><defs><clipPath id="0799387a1f"><path d="M 209.394531 179.171875 L 265.644531 179.171875 L 265.644531 222.765625 L 209.394531 222.765625 Z M 209.394531 179.171875 "/></clipPath><clipPath id="8dbda7e5ed"><path d="M 109.246094 128.761719 L 209.746094 128.761719 L 209.746094 246.511719 L 109.246094 246.511719 Z M 109.246094 128.761719 "/></clipPath></defs><g id="32a2381d10"><rect x="0" width="375" y="0" height="374.999991" style="fill:#ffffff;fill-opacity:1;stroke:none;"/><rect x="0" width="375" y="0" height="374.999991" style="fill:#ffffff;fill-opacity:1;stroke:none;"/><g clip-rule="nonzero" clip-path="url(#0799387a1f)"><path style=" stroke:none;fill-rule:nonzero;fill:#8a310d;fill-opacity:1;" d="M 261.257812 192.34375 C 261.03125 190.644531 261 187.71875 262.578125 186.738281 C 262.601562 186.722656 262.625 186.695312 262.652344 186.671875 C 263.9375 186.261719 264.832031 185.679688 264.132812 184.902344 L 245.113281 179.171875 L 214.320312 183.453125 C 214.320312 183.453125 210.796875 183.957031 211.109375 189.4375 C 211.28125 192.417969 212.214844 193.878906 213.03125 194.601562 L 210.507812 195.367188 C 209.808594 196.144531 210.699219 196.71875 211.988281 197.132812 C 212.011719 197.15625 212.03125 197.179688 212.0625 197.199219 C 213.636719 198.183594 213.605469 201.105469 213.378906 202.804688 C 207.71875 204.410156 209.75 204.9375 209.75 204.9375 L 210.992188 205.234375 C 210.121094 206.027344 209.25 207.519531 209.417969 210.359375 C 209.726562 215.839844 212.625 216.21875 212.625 216.21875 L 232.777344 222.765625 L 263.191406 215.402344 C 263.191406 215.402344 265.222656 214.875 259.5625 213.265625 C 259.332031 211.574219 259.304688 208.644531 260.878906 207.660156 C 260.910156 207.644531 260.929688 207.617188 260.957031 207.597656 C 262.242188 207.183594 263.136719 206.605469 262.4375 205.828125 L 261.113281 205.429688 C 261.996094 204.898438 263.320312 203.507812 263.527344 199.898438 C 263.671875 197.417969 263.019531 195.964844 262.273438 195.105469 L 264.882812 194.472656 C 264.882812 194.472656 266.917969 193.949219 261.257812 192.34375 Z M 235.820312 192.273438 L 240.929688 191.222656 L 258.21875 187.667969 L 260.792969 187.140625 C 259.964844 188.648438 260 190.707031 260.136719 192.03125 C 260.167969 192.328125 260.203125 192.601562 260.234375 192.8125 L 257.417969 193.511719 L 235.601562 198.9375 Z M 213.847656 197.601562 L 216.421875 198.128906 L 233.019531 201.542969 L 234.46875 201.84375 L 238.820312 202.734375 L 239.03125 209.402344 L 216.609375 203.824219 L 214.398438 203.277344 C 214.433594 203.066406 214.464844 202.792969 214.5 202.492188 C 214.632812 201.171875 214.667969 199.109375 213.847656 197.601562 Z M 212.84375 189.175781 C 212.8125 187.714844 213.074219 186.660156 213.601562 186.125 C 213.933594 185.78125 214.328125 185.710938 214.597656 185.710938 C 214.742188 185.710938 214.84375 185.734375 214.851562 185.734375 L 228.121094 190.058594 L 234.738281 192.214844 L 234.523438 198.929688 L 215.949219 193.722656 L 214.972656 193.449219 C 214.9375 193.441406 214.882812 193.433594 214.847656 193.433594 C 214.769531 193.421875 212.9375 193.257812 212.84375 189.175781 Z M 232.824219 219.855469 L 213.273438 214.375 C 213.238281 214.363281 213.191406 214.359375 213.152344 214.355469 C 213.074219 214.351562 211.234375 214.183594 211.148438 210.101562 C 211.117188 208.640625 211.375 207.585938 211.902344 207.050781 C 212.238281 206.707031 212.628906 206.636719 212.902344 206.636719 C 213.042969 206.636719 213.148438 206.660156 213.152344 206.660156 C 213.152344 206.660156 213.15625 206.660156 213.152344 206.660156 L 233.042969 213.140625 Z M 258.441406 212.957031 C 258.472656 213.257812 258.507812 213.527344 258.539062 213.738281 L 233.90625 219.867188 L 234.117188 213.199219 L 239.386719 212.113281 L 240.164062 212.300781 L 243.078125 211.359375 L 256.515625 208.59375 L 259.09375 208.066406 C 258.269531 209.570312 258.304688 211.628906 258.441406 212.957031 Z M 259.800781 203.890625 C 259.753906 203.894531 259.707031 203.898438 259.667969 203.914062 L 257.808594 204.4375 L 240.117188 209.394531 L 239.902344 202.679688 L 245.707031 200.785156 L 259.761719 196.199219 C 259.761719 196.199219 260.5 196.039062 261.039062 196.585938 C 261.5625 197.125 261.824219 198.179688 261.792969 199.636719 C 261.703125 203.71875 259.867188 203.886719 259.800781 203.890625 Z M 259.800781 203.890625 "/></g><g clip-rule="nonzero" clip-path="url(#8dbda7e5ed)"><path style=" stroke:none;fill-rule:nonzero;fill:#8a310d;fill-opacity:1;" d="M 202.648438 193.410156 L 202.648438 175.445312 L 198.855469 176.910156 L 192.113281 170.265625 L 186.519531 173.957031 C 183.621094 170.136719 179.03125 167.019531 173.4375 165.042969 C 177.578125 161.226562 180.1875 155.777344 180.1875 149.714844 C 180.1875 138.203125 170.824219 128.839844 159.316406 128.839844 C 147.804688 128.839844 138.441406 138.203125 138.441406 149.714844 C 138.441406 155.765625 141.046875 161.210938 145.175781 165.027344 C 139.570312 167 134.988281 170.113281 132.089844 173.941406 L 126.519531 170.265625 L 119.773438 176.90625 L 115.980469 175.445312 L 115.980469 193.414062 C 112.132812 194.453125 109.257812 198.425781 109.257812 203.164062 C 109.257812 207.898438 112.132812 211.871094 115.980469 212.910156 L 115.980469 229.445312 L 159.316406 246.164062 L 202.648438 229.445312 L 202.648438 212.910156 C 206.496094 211.871094 209.375 207.898438 209.375 203.164062 C 209.375 198.425781 206.496094 194.453125 202.648438 193.410156 Z M 191.613281 175.382812 L 194.765625 178.488281 L 175.851562 185.785156 Z M 142.4375 149.714844 C 142.4375 140.40625 150.007812 132.835938 159.316406 132.835938 C 168.621094 132.835938 176.195312 140.40625 176.195312 149.714844 C 176.195312 159.019531 168.621094 166.59375 159.316406 166.59375 C 150.007812 166.59375 142.4375 159.023438 142.4375 149.714844 Z M 127.019531 175.382812 L 142.777344 185.785156 L 123.863281 178.488281 Z M 113.253906 203.160156 C 113.253906 199.835938 115.375 197.132812 117.980469 197.132812 C 120.589844 197.132812 122.710938 199.835938 122.710938 203.160156 C 122.710938 206.488281 120.589844 209.191406 117.980469 209.191406 C 115.371094 209.191406 113.253906 206.488281 113.253906 203.160156 Z M 157.316406 241.113281 L 119.976562 226.707031 L 119.976562 212.921875 C 120.019531 212.910156 120.0625 212.886719 120.105469 212.875 C 120.976562 212.621094 121.792969 212.222656 122.539062 211.695312 C 122.597656 211.652344 122.65625 211.613281 122.714844 211.570312 C 123.066406 211.308594 123.398438 211.015625 123.710938 210.703125 C 123.769531 210.644531 123.828125 210.582031 123.886719 210.519531 C 124.195312 210.191406 124.492188 209.839844 124.757812 209.464844 C 124.785156 209.421875 124.8125 209.378906 124.839844 209.335938 C 125.09375 208.964844 125.328125 208.566406 125.535156 208.152344 C 125.558594 208.105469 125.585938 208.0625 125.605469 208.015625 C 125.8125 207.589844 125.988281 207.140625 126.136719 206.679688 C 126.167969 206.59375 126.195312 206.507812 126.222656 206.417969 C 126.359375 205.957031 126.472656 205.480469 126.550781 204.992188 C 126.5625 204.910156 126.574219 204.828125 126.585938 204.742188 C 126.65625 204.226562 126.703125 203.703125 126.703125 203.164062 C 126.703125 202.625 126.65625 202.097656 126.585938 201.582031 C 126.570312 201.5 126.5625 201.414062 126.550781 201.332031 C 126.472656 200.84375 126.359375 200.367188 126.222656 199.90625 C 126.195312 199.820312 126.167969 199.734375 126.136719 199.644531 C 125.988281 199.183594 125.8125 198.734375 125.609375 198.308594 C 125.585938 198.261719 125.558594 198.21875 125.535156 198.171875 C 125.324219 197.757812 125.09375 197.363281 124.839844 196.988281 C 124.8125 196.945312 124.785156 196.902344 124.757812 196.859375 C 124.488281 196.484375 124.195312 196.132812 123.886719 195.804688 C 123.828125 195.742188 123.769531 195.683594 123.710938 195.621094 C 123.398438 195.308594 123.066406 195.015625 122.714844 194.753906 C 122.65625 194.710938 122.59375 194.671875 122.535156 194.628906 C 121.792969 194.101562 120.976562 193.703125 120.105469 193.449219 C 120.0625 193.4375 120.019531 193.414062 119.976562 193.402344 L 119.976562 181.265625 L 157.316406 195.675781 Z M 135.429688 176.148438 C 138.308594 172.460938 143.207031 169.554688 149.222656 167.972656 C 152.214844 169.636719 155.65625 170.589844 159.316406 170.589844 C 162.976562 170.589844 166.414062 169.636719 169.410156 167.972656 C 175.398438 169.550781 180.300781 172.472656 183.183594 176.15625 L 159.316406 191.910156 Z M 198.652344 226.707031 L 161.3125 241.113281 L 161.3125 195.675781 L 198.652344 181.269531 L 198.652344 193.414062 C 194.804688 194.453125 191.925781 198.425781 191.925781 203.164062 C 191.925781 207.902344 194.804688 211.871094 198.652344 212.910156 Z M 200.652344 209.191406 C 198.042969 209.191406 195.921875 206.488281 195.921875 203.164062 C 195.921875 199.835938 198.042969 197.132812 200.652344 197.132812 C 203.257812 197.132812 205.378906 199.839844 205.378906 203.164062 C 205.378906 206.488281 203.257812 209.191406 200.652344 209.191406 Z M 200.652344 209.191406 "/></g></g></svg>