<svg xmlns="http://www.w3.org/2000/svg" xmlns:xlink="http://www.w3.org/1999/xlink" width="500" zoomAndPan="magnify" viewBox="0 0 375 374.999991" height="500" preserveAspectRatio="xMidYMid meet" version="1.2"><defs><clipPath id="a137fedc27"><path d="M 127.230469 139.230469 L 247.980469 139.230469 L 247.980469 250.980469 L 127.230469 250.980469 Z M 127.230469 139.230469 "/></clipPath></defs><g id="359094a682"><rect x="0" width="375" y="0" height="374.999991" style="fill:#ffffff;fill-opacity:1;stroke:none;"/><rect x="0" width="375" y="0" height="374.999991" style="fill:#ffffff;fill-opacity:1;stroke:none;"/><path style=" stroke:none;fill-rule:nonzero;fill:#8a310d;fill-opacity:1;" d="M 189.480469 185.902344 C 184.453125 185.902344 180.359375 181.808594 180.359375 176.78125 C 180.359375 171.75 184.449219 167.660156 189.480469 167.660156 C 194.511719 167.660156 198.601562 171.75 198.601562 176.78125 C 198.601562 181.808594 194.507812 185.902344 189.480469 185.902344 Z M 189.480469 166.5625 C 183.847656 166.5625 179.261719 171.148438 179.261719 176.78125 C 179.261719 182.417969 183.847656 187 189.480469 187 C 195.113281 187 199.699219 182.417969 199.699219 176.78125 C 199.699219 171.148438 195.113281 166.5625 189.480469 166.5625 "/><path style=" stroke:none;fill-rule:nonzero;fill:#8a310d;fill-opacity:1;" d="M 189.335938 170.261719 C 187.550781 170.335938 185.90625 171.097656 184.699219 172.40625 C 183.488281 173.714844 182.863281 175.417969 182.933594 177.199219 C 182.945312 177.433594 183.140625 177.617188 183.375 177.617188 C 183.382812 177.617188 183.386719 177.617188 183.394531 177.617188 C 183.636719 177.609375 183.824219 177.40625 183.8125 177.164062 C 183.75 175.613281 184.292969 174.136719 185.34375 173 C 186.390625 171.863281 187.824219 171.203125 189.371094 171.140625 C 189.613281 171.132812 189.800781 170.925781 189.789062 170.683594 C 189.78125 170.441406 189.617188 170.246094 189.335938 170.261719 "/><path style=" stroke:none;fill-rule:nonzero;fill:#8a310d;fill-opacity:1;" d="M 153.019531 187.375 C 153.429688 187.554688 153.816406 187.722656 154.167969 187.941406 C 155.265625 188.617188 156.019531 189.847656 156.125 191.148438 C 156.183594 191.832031 156.082031 192.574219 155.980469 193.289062 C 155.796875 194.585938 155.609375 195.925781 156.292969 197.125 C 156.933594 198.246094 158.066406 198.734375 158.863281 199 C 159.414062 199.183594 160 199.324219 160.566406 199.460938 C 162.15625 199.84375 163.660156 200.203125 164.234375 201.464844 C 164.488281 202.03125 164.5 202.6875 164.511719 203.378906 C 164.519531 203.90625 164.527344 204.445312 164.644531 204.980469 C 164.691406 205.199219 164.886719 205.347656 165.101562 205.347656 C 165.132812 205.347656 165.164062 205.34375 165.199219 205.335938 C 165.453125 205.28125 165.613281 205.035156 165.558594 204.78125 C 165.464844 204.335938 165.453125 203.863281 165.445312 203.363281 C 165.433594 202.605469 165.421875 201.820312 165.082031 201.078125 C 164.320312 199.398438 162.523438 198.96875 160.789062 198.550781 C 160.234375 198.421875 159.679688 198.289062 159.164062 198.113281 C 158.113281 197.761719 157.476562 197.3125 157.105469 196.660156 C 156.578125 195.738281 156.738281 194.613281 156.90625 193.421875 C 157.011719 192.652344 157.125 191.855469 157.058594 191.066406 C 156.925781 189.480469 156.003906 187.976562 154.65625 187.144531 C 154.25 186.890625 153.8125 186.703125 153.390625 186.515625 C 152.691406 186.214844 152.03125 185.925781 151.589844 185.40625 C 151.421875 185.207031 151.132812 185.183594 150.933594 185.351562 C 150.734375 185.519531 150.710938 185.8125 150.878906 186.011719 C 151.460938 186.699219 152.25 187.042969 153.019531 187.375 "/><g clip-rule="nonzero" clip-path="url(#a137fedc27)"><path style=" stroke:none;fill-rule:nonzero;fill:#8a310d;fill-opacity:1;" d="M 244.890625 189.578125 C 242.585938 191.25 221.972656 206.296875 209.171875 219.894531 L 208.785156 220.304688 L 209.109375 220.761719 C 210.957031 223.363281 210.273438 227.691406 208.492188 229.636719 L 198.613281 238.734375 L 195.90625 241.558594 C 195.660156 241.816406 195.238281 241.8125 194.960938 241.546875 C 194.828125 241.421875 194.75 241.246094 194.738281 241.0625 C 194.734375 240.890625 194.796875 240.726562 194.914062 240.605469 L 206.761719 228.242188 L 206.800781 228.050781 C 206.953125 227.367188 206.753906 226.679688 206.285156 226.214844 C 205.910156 225.828125 205.40625 225.617188 204.867188 225.617188 C 204.863281 225.617188 204.859375 225.617188 204.855469 225.617188 C 204.316406 225.617188 203.8125 225.824219 203.429688 226.207031 L 197.019531 232.589844 L 192.007812 237.820312 C 191.769531 238.066406 191.367188 238.074219 191.144531 237.886719 C 190.898438 237.621094 190.886719 237.21875 191.121094 236.972656 L 196.148438 231.726562 L 202.238281 225.066406 C 202.605469 224.664062 202.796875 224.144531 202.773438 223.605469 C 202.746094 223.070312 202.511719 222.574219 202.117188 222.222656 C 201.628906 221.765625 200.929688 221.597656 200.257812 221.773438 L 200.066406 221.824219 L 188.21875 234.183594 C 188.101562 234.300781 187.945312 234.371094 187.773438 234.375 C 187.589844 234.351562 187.410156 234.308594 187.273438 234.175781 C 187.132812 234.042969 187.054688 233.871094 187.050781 233.6875 C 187.042969 233.515625 187.105469 233.351562 187.21875 233.230469 L 189.953125 230.375 L 198.558594 220.195312 C 200.464844 218.292969 204.761719 217.425781 207.441406 219.160156 L 207.914062 219.464844 L 208.304688 219.0625 C 221.296875 205.75 235.496094 184.488281 237.074219 182.105469 L 237.066406 182.101562 C 237.261719 181.949219 241.542969 178.828125 244.785156 181.785156 C 247.71875 185.140625 244.898438 189.578125 244.890625 189.578125 Z M 198.0625 227.59375 C 197.183594 227.996094 196.289062 228.367188 195.378906 228.695312 L 200.761719 223.078125 C 200.90625 223.074219 201.050781 223.101562 201.1875 223.234375 C 201.3125 223.347656 201.390625 223.503906 201.394531 223.671875 C 201.402344 223.84375 201.34375 224.011719 201.222656 224.140625 Z M 220.261719 194.375 C 220.257812 193.515625 220.210938 192.664062 220.144531 191.820312 C 222.664062 188.25 222.773438 183.316406 220.246094 180.203125 C 219.503906 179.285156 218.597656 178.570312 217.722656 177.878906 C 216.660156 177.042969 215.65625 176.25 215.054688 175.195312 C 213.824219 173.050781 213.460938 170.742188 214.085938 169.03125 C 215.902344 164.0625 214.433594 159.601562 210.160156 157.101562 C 205.761719 154.53125 199.882812 154.894531 197.320312 157.890625 C 196.855469 158.433594 196.394531 158.898438 195.925781 159.304688 C 191.714844 157.703125 187.214844 156.832031 182.570312 156.832031 L 182.414062 156.832031 C 172.347656 156.875 162.894531 160.832031 155.804688 167.980469 C 153.601562 170.199219 151.738281 172.65625 150.183594 175.273438 C 146.289062 177.664062 142.960938 179.5625 138.316406 181.929688 L 137.253906 182.46875 L 138.007812 183.394531 C 138.417969 183.898438 139.066406 184.296875 139.785156 184.488281 C 140.078125 184.566406 140.382812 184.621094 140.6875 184.671875 C 141.136719 184.753906 141.5625 184.824219 141.882812 185 C 142.816406 185.511719 143.035156 186.984375 142.929688 188.195312 C 142.898438 188.574219 142.84375 188.957031 142.792969 189.335938 C 142.625 190.582031 142.453125 191.871094 142.835938 193.179688 C 143.21875 194.484375 144.054688 195.472656 144.964844 196.382812 C 145.421875 205.804688 149.28125 214.601562 156.023438 221.289062 C 157.617188 222.871094 159.363281 224.242188 161.175781 225.488281 C 160.808594 226.828125 160.605469 228.308594 161.28125 229.667969 C 161.675781 230.453125 162.316406 231.105469 163.300781 231.710938 L 163.867188 232.066406 L 164.394531 231.65625 C 164.898438 231.269531 166.199219 230.355469 167.882812 229.203125 C 172.472656 231.152344 177.429688 232.21875 182.5625 232.21875 L 182.71875 232.21875 C 184.007812 232.214844 185.273438 232.105469 186.535156 231.960938 L 186.226562 232.28125 C 185.847656 232.675781 185.652344 233.191406 185.671875 233.738281 C 185.691406 234.285156 185.921875 234.789062 186.316406 235.167969 C 186.722656 235.554688 187.21875 235.773438 187.800781 235.75 C 188.339844 235.738281 188.835938 235.519531 189.203125 235.136719 L 193.679688 230.46875 C 194.550781 230.195312 195.410156 229.90625 196.257812 229.570312 L 195.140625 230.792969 L 190.125 236.023438 C 189.386719 236.796875 189.390625 238.03125 190.191406 238.878906 C 191.023438 239.59375 192.253906 239.546875 192.996094 238.773438 L 197.996094 233.550781 L 204.398438 227.183594 C 204.519531 227.058594 204.683594 226.992188 204.855469 226.992188 C 204.992188 227.011719 205.183594 227.058594 205.308594 227.1875 C 205.4375 227.316406 205.472656 227.46875 205.472656 227.59375 L 193.914062 239.652344 C 193.539062 240.046875 193.34375 240.5625 193.363281 241.113281 C 193.382812 241.65625 193.609375 242.160156 194.003906 242.539062 C 194.410156 242.929688 194.933594 243.121094 195.449219 243.121094 C 195.980469 243.121094 196.503906 242.917969 196.894531 242.511719 L 199.574219 239.714844 L 209.460938 230.605469 C 211.566406 228.3125 212.390625 223.621094 210.535156 220.449219 C 217.066406 213.578125 225.53125 206.378906 232.554688 200.75 C 230.019531 225.824219 208.8125 245.464844 183.082031 245.464844 C 155.644531 245.464844 133.320312 223.140625 133.320312 195.703125 C 133.320312 168.269531 155.644531 145.941406 183.082031 145.941406 C 207.558594 145.941406 227.929688 163.71875 232.050781 187.035156 C 228.859375 191.621094 224.066406 198.285156 218.730469 204.972656 C 219.722656 201.570312 220.277344 198.019531 220.261719 194.375 Z M 213.371094 176.15625 C 214.164062 177.539062 215.363281 178.484375 216.519531 179.398438 C 217.351562 180.054688 218.136719 180.675781 218.742188 181.421875 C 220.839844 184 220.570312 188.429688 218.152344 191.292969 C 215.988281 193.847656 212.261719 195.308594 208.214844 195.246094 C 207.09375 195.226562 205.945312 195.113281 204.730469 194.996094 C 200.800781 194.617188 196.734375 194.222656 193.730469 196.96875 C 192.578125 198.019531 191.824219 199.367188 191.097656 200.671875 C 190.308594 202.085938 189.5625 203.425781 188.382812 204.238281 C 186.394531 205.605469 183.257812 205.011719 181.539062 202.941406 C 179.9375 201.015625 179.46875 197.949219 180.34375 195.128906 C 180.441406 194.804688 180.558594 194.476562 180.675781 194.144531 C 181.179688 192.714844 181.753906 191.09375 181.226562 189.449219 C 180.414062 186.890625 177.824219 186.191406 175.539062 185.578125 C 174.660156 185.339844 173.832031 185.117188 173.105469 184.804688 C 168.839844 182.988281 167.472656 176.984375 168.324219 171.992188 C 168.71875 169.679688 169.722656 166.453125 172.25 164.230469 C 176.257812 160.703125 180.167969 161.605469 184.308594 162.554688 C 188.84375 163.597656 193.984375 164.777344 198.796875 159.152344 C 200.757812 156.859375 205.609375 156.6875 209.183594 158.777344 C 211.210938 159.960938 214.308594 162.785156 212.265625 168.367188 C 211.449219 170.605469 211.859375 173.523438 213.371094 176.15625 Z M 155.964844 173.929688 C 155.980469 173.957031 155.996094 173.976562 156.007812 174.003906 C 156.585938 175.082031 156.15625 176.558594 155.730469 178.027344 C 155.265625 179.625 154.808594 181.941406 156.199219 183.582031 C 156.855469 184.359375 157.738281 184.746094 158.523438 185.085938 C 158.894531 185.246094 159.265625 185.40625 159.609375 185.613281 C 160.578125 186.214844 161.238281 187.296875 161.339844 188.441406 C 161.390625 189.070312 161.292969 189.753906 161.191406 190.476562 C 161.007812 191.792969 160.796875 193.28125 161.566406 194.628906 C 162.542969 196.332031 164.464844 196.792969 166.15625 197.199219 C 167.691406 197.5625 169.015625 197.882812 169.484375 198.925781 C 169.699219 199.394531 169.707031 200 169.71875 200.640625 C 169.730469 201.1875 169.738281 201.753906 169.863281 202.335938 C 170.269531 204.203125 171.628906 205.414062 172.945312 206.585938 C 174.011719 207.542969 175.019531 208.441406 175.398438 209.59375 C 175.695312 210.503906 175.585938 211.539062 175.472656 212.640625 C 175.429688 213.050781 175.386719 213.464844 175.363281 213.875 C 175.226562 216.230469 176.042969 218.09375 177.550781 218.859375 C 178.039062 219.109375 178.546875 219.21875 179.019531 219.289062 C 177.753906 220.167969 175.914062 221.417969 174 222.71875 C 173.789062 222.53125 173.613281 222.324219 173.476562 222.09375 C 172.953125 221.171875 173.109375 220.042969 173.277344 218.851562 C 173.386719 218.082031 173.5 217.285156 173.433594 216.5 C 173.300781 214.910156 172.382812 213.40625 171.03125 212.574219 C 170.625 212.324219 170.1875 212.132812 169.765625 211.949219 C 169.066406 211.644531 168.40625 211.355469 167.964844 210.835938 C 167.796875 210.636719 167.503906 210.617188 167.308594 210.78125 C 167.109375 210.949219 167.085938 211.242188 167.253906 211.441406 C 167.832031 212.128906 168.625 212.472656 169.394531 212.808594 C 169.804688 212.984375 170.191406 213.15625 170.542969 213.375 C 171.640625 214.050781 172.394531 215.28125 172.503906 216.582031 C 172.5625 217.261719 172.457031 218.003906 172.355469 218.722656 C 172.171875 220.019531 171.984375 221.359375 172.667969 222.558594 C 172.816406 222.816406 173.007812 223.039062 173.21875 223.25 C 172.996094 223.402344 172.78125 223.550781 172.558594 223.699219 C 170.761719 224.917969 168.945312 226.148438 167.378906 227.21875 C 167.105469 226.960938 166.890625 226.695312 166.746094 226.40625 C 166.109375 225.132812 166.613281 223.570312 167.113281 222.019531 C 167.589844 220.546875 168.085938 218.414062 166.890625 216.910156 C 166.332031 216.207031 165.550781 215.835938 164.792969 215.480469 C 164.386719 215.289062 164.003906 215.105469 163.660156 214.882812 C 162.578125 214.167969 161.863281 212.914062 161.796875 211.613281 C 161.757812 210.929688 161.886719 210.191406 162.007812 209.476562 C 162.226562 208.1875 162.457031 206.851562 161.808594 205.636719 C 160.980469 204.089844 159.261719 203.621094 157.601562 203.171875 C 156.023438 202.738281 154.535156 202.332031 154 201.054688 C 153.761719 200.484375 153.769531 199.828125 153.777344 199.136719 C 153.785156 198.609375 153.792969 198.070312 153.691406 197.53125 C 153.375 195.8125 152.113281 194.617188 150.890625 193.457031 C 149.796875 192.425781 148.769531 191.453125 148.390625 190.160156 C 148.09375 189.140625 148.238281 188.054688 148.394531 186.90625 C 148.445312 186.503906 148.503906 186.097656 148.539062 185.699219 C 148.726562 183.550781 148.058594 181.84375 146.753906 181.125 C 146.226562 180.835938 145.660156 180.738281 145.113281 180.644531 C 145.046875 180.632812 144.980469 180.613281 144.910156 180.605469 C 148.492188 178.609375 151.667969 176.648438 155.964844 173.929688 Z M 148.5 204.226562 C 149.300781 206.148438 151.289062 206.6875 153.042969 207.167969 C 154.476562 207.554688 155.828125 207.925781 156.363281 208.925781 C 156.785156 209.714844 156.613281 210.707031 156.414062 211.855469 C 156.277344 212.648438 156.136719 213.464844 156.183594 214.3125 C 156.277344 216.054688 157.234375 217.738281 158.6875 218.691406 C 159.097656 218.960938 159.546875 219.179688 159.996094 219.390625 C 160.660156 219.703125 161.234375 219.972656 161.589844 220.417969 C 162.171875 221.152344 162.164062 222.355469 161.558594 224.238281 C 161.539062 224.292969 161.519531 224.355469 161.503906 224.410156 C 159.851562 223.242188 158.265625 221.957031 156.800781 220.503906 C 150.539062 214.296875 146.847656 206.214844 146.148438 197.523438 C 147.082031 198.421875 147.90625 199.3125 148.105469 200.40625 C 148.179688 200.808594 148.175781 201.257812 148.167969 201.730469 C 148.15625 202.503906 148.144531 203.378906 148.5 204.226562 Z M 163.09375 219.222656 C 162.460938 218.425781 161.589844 218.011719 160.816406 217.652344 C 160.449219 217.480469 160.078125 217.308594 159.746094 217.085938 C 158.792969 216.457031 158.164062 215.355469 158.101562 214.203125 C 158.070312 213.578125 158.1875 212.898438 158.308594 212.179688 C 158.53125 210.871094 158.785156 209.390625 158.058594 208.019531 C 157.132812 206.285156 155.230469 205.765625 153.546875 205.308594 C 152.027344 204.894531 150.710938 204.539062 150.273438 203.484375 C 150.070312 203.003906 150.078125 202.398438 150.089844 201.757812 C 150.097656 201.210938 150.101562 200.644531 149.996094 200.054688 C 149.648438 198.179688 148.324219 196.925781 147.046875 195.714844 C 146.007812 194.730469 145.027344 193.800781 144.683594 192.636719 C 144.414062 191.71875 144.554688 190.683594 144.699219 189.589844 C 144.757812 189.175781 144.8125 188.765625 144.847656 188.359375 C 145.054688 186.011719 144.292969 184.121094 142.808594 183.3125 C 142.210938 182.984375 141.578125 182.871094 141.019531 182.777344 C 140.984375 182.769531 140.945312 182.765625 140.910156 182.757812 C 141.910156 182.234375 142.839844 181.734375 143.75 181.242188 C 143.871094 181.289062 143.972656 181.359375 144.101562 181.390625 C 144.382812 181.46875 144.667969 181.515625 144.953125 181.566406 C 145.445312 181.652344 145.914062 181.730469 146.304688 181.945312 C 147.746094 182.734375 147.667969 184.957031 147.609375 185.617188 C 147.578125 186.003906 147.523438 186.394531 147.46875 186.78125 C 147.308594 187.976562 147.140625 189.210938 147.496094 190.421875 C 147.945312 191.957031 149.113281 193.066406 150.246094 194.136719 C 151.410156 195.238281 152.511719 196.28125 152.773438 197.703125 C 152.859375 198.148438 152.851562 198.625 152.84375 199.125 C 152.835938 199.882812 152.824219 200.664062 153.136719 201.417969 C 153.847656 203.117188 155.632812 203.601562 157.355469 204.074219 C 158.894531 204.492188 160.347656 204.886719 160.980469 206.078125 C 161.480469 207.011719 161.289062 208.136719 161.085938 209.324219 C 160.953125 210.085938 160.816406 210.878906 160.859375 211.667969 C 160.945312 213.261719 161.820312 214.789062 163.140625 215.660156 C 163.542969 215.925781 163.976562 216.128906 164.390625 216.328125 C 165.078125 216.652344 165.730469 216.960938 166.15625 217.496094 C 167.070312 218.644531 166.632812 220.464844 166.207031 221.773438 C 165.6875 223.386719 165.097656 225.210938 165.90625 226.828125 C 166.078125 227.160156 166.300781 227.472656 166.585938 227.765625 C 165.414062 228.566406 164.429688 229.253906 163.789062 229.714844 C 163.417969 229.425781 163.160156 229.125 163.003906 228.804688 C 162.457031 227.714844 162.929688 226.25 163.398438 224.792969 C 163.910156 223.210938 164.433594 220.90625 163.09375 219.222656 Z M 187.738281 230.707031 C 186.085938 230.945312 184.414062 231.113281 182.71875 231.121094 C 182.664062 231.121094 182.613281 231.121094 182.5625 231.121094 C 177.828125 231.121094 173.261719 230.160156 168.992188 228.449219 C 170.429688 227.464844 172.039062 226.375 173.636719 225.292969 C 177.445312 222.707031 181.042969 220.265625 181.800781 219.667969 L 182.84375 218.84375 L 181.730469 218.113281 C 181.375 217.875 180.960938 217.699219 180.53125 217.597656 C 180.230469 217.527344 179.929688 217.484375 179.625 217.441406 C 179.171875 217.378906 178.742188 217.316406 178.417969 217.152344 C 177.472656 216.667969 177.207031 215.203125 177.273438 213.992188 C 177.296875 213.609375 177.335938 213.226562 177.378906 212.84375 C 177.511719 211.59375 177.644531 210.300781 177.222656 209.003906 C 176.683594 207.355469 175.429688 206.238281 174.21875 205.15625 C 173.085938 204.144531 172.011719 203.1875 171.742188 201.933594 C 171.65625 201.535156 171.648438 201.089844 171.640625 200.613281 C 171.628906 199.839844 171.613281 198.964844 171.238281 198.132812 C 170.375 196.234375 168.371094 195.753906 166.605469 195.332031 C 165.160156 194.984375 163.796875 194.65625 163.234375 193.675781 C 162.792969 192.898438 162.933594 191.902344 163.097656 190.75 C 163.207031 189.953125 163.324219 189.128906 163.253906 188.285156 C 163.105469 186.542969 162.097656 184.894531 160.621094 183.980469 C 160.203125 183.722656 159.746094 183.519531 159.292969 183.320312 C 158.617188 183.027344 158.039062 182.773438 157.671875 182.34375 C 157.066406 181.628906 157.039062 180.425781 157.589844 178.523438 C 158.0625 176.890625 158.652344 174.859375 157.703125 173.09375 C 157.484375 172.683594 157.191406 172.316406 156.8125 171.964844 L 156.269531 171.460938 L 155.644531 171.859375 C 154.460938 172.613281 153.378906 173.292969 152.335938 173.945312 C 153.589844 172.109375 154.992188 170.363281 156.589844 168.753906 C 163.472656 161.816406 172.648438 157.972656 182.425781 157.933594 C 182.476562 157.933594 182.527344 157.933594 182.578125 157.933594 C 186.84375 157.933594 190.980469 158.707031 194.882812 160.105469 C 191.660156 162.246094 188.402344 161.507812 184.75 160.667969 C 180.515625 159.695312 175.726562 158.59375 170.972656 162.777344 C 168.019531 165.375 166.863281 169.046875 166.417969 171.667969 C 165.464844 177.230469 166.914062 184.277344 172.351562 186.589844 C 173.203125 186.953125 174.132812 187.203125 175.035156 187.445312 C 177.433594 188.09375 178.925781 188.589844 179.382812 190.035156 C 179.710938 191.066406 179.292969 192.246094 178.851562 193.5 C 178.726562 193.851562 178.605469 194.207031 178.492188 194.554688 C 177.410156 198.035156 178.007812 201.722656 180.046875 204.175781 C 181.527344 205.957031 183.730469 206.917969 185.863281 206.917969 C 187.152344 206.917969 188.417969 206.566406 189.484375 205.832031 C 191.035156 204.765625 191.925781 203.164062 192.789062 201.613281 C 193.472656 200.394531 194.117188 199.238281 195.035156 198.398438 C 197.410156 196.234375 200.875 196.574219 204.542969 196.925781 C 205.742188 197.042969 206.984375 197.164062 208.175781 197.1875 C 212.597656 197.269531 216.5 195.785156 219.09375 193.101562 C 219.113281 193.527344 219.160156 193.949219 219.164062 194.378906 C 219.183594 198.894531 218.347656 203.269531 216.804688 207.367188 C 213.824219 211.011719 210.730469 214.578125 207.695312 217.722656 C 204.445312 216.007812 199.792969 217.03125 197.550781 219.269531 L 188.9375 229.457031 Z M 237.074219 197.484375 C 236.496094 210.929688 231.015625 223.5 221.472656 233.117188 C 211.324219 243.351562 197.792969 249.019531 183.382812 249.078125 C 169.03125 249.117188 155.394531 243.578125 145.164062 233.425781 C 134.929688 223.277344 129.261719 209.746094 129.203125 195.335938 C 129.144531 180.921875 134.703125 167.347656 144.855469 157.113281 C 155.007812 146.882812 168.535156 141.214844 182.945312 141.15625 C 183.019531 141.15625 183.09375 141.15625 183.167969 141.15625 C 208.375 141.15625 229.613281 158.554688 235.492188 182.003906 C 234.929688 182.847656 233.964844 184.273438 232.699219 186.101562 C 228.195312 162.792969 207.6875 145.121094 183.082031 145.121094 C 155.191406 145.121094 132.5 167.8125 132.5 195.703125 C 132.5 223.597656 155.191406 246.289062 183.082031 246.289062 C 209.511719 246.289062 231.25 225.90625 233.457031 200.039062 C 234.78125 198.984375 236.050781 197.980469 237.238281 197.066406 C 237.179688 197.207031 237.136719 197.355469 237.074219 197.484375 Z M 245.765625 180.828125 C 244.332031 179.519531 242.613281 178.976562 240.664062 179.207031 C 239.234375 179.375 237.949219 179.941406 237.078125 180.460938 C 234.542969 171.074219 229.605469 162.472656 222.523438 155.441406 C 211.980469 144.980469 198.011719 139.230469 183.171875 139.230469 L 182.9375 139.230469 C 168.011719 139.292969 154 145.160156 143.488281 155.761719 C 132.976562 166.355469 127.222656 180.414062 127.28125 195.34375 C 127.34375 210.269531 133.214844 224.28125 143.8125 234.792969 C 154.351562 245.25 168.320312 251.003906 183.160156 251 L 183.394531 251 C 198.320312 250.941406 212.332031 245.070312 222.84375 234.472656 C 233.152344 224.082031 238.871094 210.363281 239.035156 195.757812 C 238.773438 196.046875 238.457031 196.238281 238.121094 196.386719 C 242.070312 193.339844 244.976562 191.214844 245.78125 190.632812 C 246.117188 190.386719 247.199219 188.5 247.441406 186.261719 C 247.660156 184.203125 247.097656 182.34375 245.765625 180.828125 "/></g></g></svg>