<svg xmlns="http://www.w3.org/2000/svg" xmlns:xlink="http://www.w3.org/1999/xlink" width="500" zoomAndPan="magnify" viewBox="0 0 375 374.999991" height="500" preserveAspectRatio="xMidYMid meet" version="1.2"><defs><clipPath id="aa23b29463"><path d="M 116 121.046875 L 259 121.046875 L 259 269 L 116 269 Z M 116 121.046875 "/></clipPath></defs><g id="379835b9a1"><rect x="0" width="375" y="0" height="374.999991" style="fill:#ffffff;fill-opacity:1;stroke:none;"/><rect x="0" width="375" y="0" height="374.999991" style="fill:#ffffff;fill-opacity:1;stroke:none;"/><g clip-rule="nonzero" clip-path="url(#aa23b29463)"><path style=" stroke:none;fill-rule:evenodd;fill:#8a310d;fill-opacity:1;" d="M 165.101562 228.136719 C 167.324219 238.765625 167.785156 249.917969 166.949219 262.597656 C 166.832031 264.417969 165.96875 266.035156 164.695312 267.132812 C 160.566406 271.003906 153.140625 267.449219 153.71875 261.703125 C 155.65625 232.414062 149.675781 217.796875 146.210938 219.789062 C 145.574219 220.078125 145.199219 220.6875 145.140625 221.351562 C 144.882812 223.574219 144.101562 230.824219 143.8125 232.644531 C 142.65625 240.242188 132.777344 264.011719 132.519531 264.675781 C 130.496094 270.105469 122.265625 269.992188 120.300781 264.675781 C 119.636719 263.085938 119.609375 261.269531 120.332031 259.5625 C 120.9375 258.121094 129.917969 236.339844 130.757812 230.679688 C 131.941406 221.4375 132.921875 211.183594 134.253906 201.390625 C 136.160156 203.585938 138.902344 204.886719 141.703125 204.714844 C 145.402344 208.46875 161.691406 224.757812 165.101562 228.136719 Z M 134.164062 196.105469 L 137.574219 199.515625 C 142.511719 204.25 149.675781 197.085938 144.9375 192.148438 C 144.160156 191.398438 135.523438 182.734375 134.511719 181.722656 C 133.875 181.058594 132.027344 179.296875 131.449219 178.601562 C 130.871094 177.765625 131.105469 176.609375 131.941406 176.03125 L 135.925781 173.316406 C 137.226562 172.277344 139.277344 173.605469 138.816406 175.25 C 138.441406 176.78125 138.121094 178.226562 137.804688 179.757812 L 146.035156 187.988281 C 148.492188 190.097656 150.457031 193.074219 150.167969 196.308594 L 162.125 208.265625 L 162.125 208.121094 L 156.289062 189.203125 C 156.203125 188.972656 156.175781 188.710938 156.175781 188.453125 L 156.898438 178.226562 C 157.070312 175.828125 160.738281 176.03125 160.59375 178.488281 C 160.59375 178.488281 159.902344 188.363281 159.902344 188.363281 L 165.734375 207.371094 C 166.253906 209.015625 167.265625 212.339844 167.757812 213.984375 L 172.03125 218.261719 C 175.730469 219.011719 179.109375 215.226562 177.925781 211.617188 L 170.964844 188.972656 C 170.878906 188.742188 170.847656 188.480469 170.847656 188.21875 L 172.265625 167.800781 C 171.398438 163.988281 166.542969 162.339844 161.230469 160.175781 C 154.730469 158.125 146.414062 155.726562 140.835938 157.402344 C 140.835938 157.402344 118.972656 172.277344 118.972656 172.277344 C 116.429688 173.980469 115.96875 177.5625 117.902344 179.902344 L 118.25 180.277344 L 122.902344 184.925781 C 125.097656 187.007812 131.914062 193.851562 134.164062 196.105469 Z M 145.75 203.558594 L 192.25 250.0625 L 198.664062 250.0625 L 148.953125 200.351562 C 148.203125 201.652344 147.019531 202.808594 145.75 203.558594 Z M 175.5 262.019531 L 172.292969 268.808594 L 222.203125 268.808594 L 218.996094 262.019531 Z M 220.992188 253.757812 C 220.992188 253.757812 203.140625 253.757812 203.140625 253.757812 C 196.207031 253.757812 180.496094 253.757812 173.449219 253.757812 C 169.925781 254.105469 170.734375 258.871094 174.3125 258.292969 L 220.992188 258.292969 C 223.9375 258.292969 223.964844 253.789062 220.992188 253.757812 Z M 253.949219 192.726562 C 251.953125 193.652344 249.960938 194.574219 248.777344 196.191406 C 247.5625 197.839844 247.304688 200.035156 247.015625 202.199219 C 246.785156 204.191406 246.523438 206.15625 245.65625 206.820312 C 243 208.0625 237.570312 205.289062 234.507812 206.621094 C 231.1875 207.457031 228.414062 213.03125 225.324219 213.464844 C 224.023438 213.464844 222.523438 211.90625 221.046875 210.375 C 219.519531 208.785156 218.015625 207.226562 216.109375 206.589844 C 214.144531 205.925781 211.980469 206.332031 209.785156 206.734375 C 204.816406 207.773438 204.066406 207.226562 203.574219 202.199219 C 203.3125 200.003906 203.023438 197.839844 201.8125 196.191406 C 200.628906 194.574219 198.636719 193.652344 196.640625 192.726562 C 191.847656 190.675781 191.617188 189.695312 194.128906 185.1875 C 195.167969 183.195312 196.207031 181.171875 196.207031 179.035156 C 196.207031 176.898438 195.167969 174.875 194.128906 172.882812 C 193.203125 171.09375 192.222656 169.214844 192.597656 168.144531 C 194.011719 165.546875 200.109375 164.707031 201.839844 161.878906 C 204.007812 159.394531 202.996094 153.386719 204.960938 151.25 C 207.617188 150.007812 213.046875 152.78125 216.109375 151.449219 C 219.429688 150.613281 222.203125 145.039062 225.292969 144.605469 C 228.386719 145.039062 231.15625 150.613281 234.480469 151.449219 C 237.542969 152.78125 242.972656 150.007812 245.628906 151.25 C 246.496094 151.882812 246.753906 153.878906 246.988281 155.871094 C 247.246094 158.066406 247.535156 160.230469 248.71875 161.878906 C 249.902344 163.496094 251.898438 164.421875 253.890625 165.34375 C 258.65625 167.394531 258.914062 168.378906 256.402344 172.882812 C 255.363281 174.875 254.292969 176.925781 254.324219 179.035156 C 254.324219 181.203125 255.421875 183.253906 256.460938 185.304688 C 259.03125 189.78125 258.597656 190.703125 253.949219 192.726562 Z M 236.011719 165.949219 L 222.289062 179.671875 C 222.289062 179.671875 214.695312 172.074219 214.695312 172.074219 C 210.535156 167.597656 202.503906 171.035156 202.707031 177.042969 C 202.707031 178.832031 203.402344 180.625 204.757812 182.011719 L 217.292969 194.546875 C 220.039062 197.289062 224.457031 197.261719 227.230469 194.546875 C 227.230469 194.546875 245.800781 175.972656 245.800781 175.972656 C 252.1875 169.445312 242.710938 159.769531 236.011719 165.949219 Z M 238.609375 168.636719 C 238.609375 168.636719 223.621094 183.628906 223.621094 183.628906 C 222.898438 184.351562 221.714844 184.351562 220.992188 183.628906 L 212.09375 174.730469 C 208.976562 171.726562 204.410156 176.261719 207.445312 179.382812 L 219.980469 191.917969 C 221.222656 193.1875 223.273438 193.21875 224.574219 192.003906 C 226.015625 190.445312 243.230469 173.34375 243.230469 173.34375 C 246.179688 170.371094 241.730469 165.75 238.609375 168.636719 Z M 170.15625 151.335938 C 190.144531 150.730469 190.113281 121.730469 170.15625 121.09375 C 150.167969 121.730469 150.195312 150.730469 170.15625 151.335938 Z M 170.15625 151.335938 "/></g></g></svg>