<svg xmlns="http://www.w3.org/2000/svg" xmlns:xlink="http://www.w3.org/1999/xlink" width="500" zoomAndPan="magnify" viewBox="0 0 375 374.999991" height="500" preserveAspectRatio="xMidYMid meet" version="1.2"><defs><clipPath id="051ed2401a"><path d="M 132.105469 137.925781 L 243 137.925781 L 243 248.925781 L 132.105469 248.925781 Z M 132.105469 137.925781 "/></clipPath></defs><g id="d5b217810e"><rect x="0" width="375" y="0" height="374.999991" style="fill:#ffffff;fill-opacity:1;stroke:none;"/><rect x="0" width="375" y="0" height="374.999991" style="fill:#ffffff;fill-opacity:1;stroke:none;"/><g clip-rule="nonzero" clip-path="url(#051ed2401a)"><path style=" stroke:none;fill-rule:nonzero;fill:#8a310d;fill-opacity:1;" d="M 194.988281 166.246094 L 213.507812 166.246094 L 228.988281 177.042969 C 229.257812 177.230469 229.570312 177.324219 229.882812 177.324219 C 230.191406 177.324219 230.5 177.234375 230.765625 177.054688 C 231.300781 176.691406 231.5625 176.035156 231.414062 175.402344 L 229.289062 166.246094 L 230.121094 166.246094 C 232.765625 166.246094 234.921875 163.71875 234.921875 160.617188 L 234.921875 143.550781 C 234.921875 140.449219 232.765625 137.925781 230.121094 137.925781 L 194.988281 137.925781 C 192.339844 137.925781 190.1875 140.449219 190.1875 143.550781 L 190.1875 160.617188 C 190.1875 163.71875 192.339844 166.246094 194.988281 166.246094 Z M 193.328125 143.550781 C 193.328125 142.085938 194.199219 141.0625 194.988281 141.0625 L 230.121094 141.0625 C 230.90625 141.0625 231.78125 142.085938 231.78125 143.550781 L 231.78125 160.617188 C 231.78125 162.082031 230.90625 163.105469 230.121094 163.105469 L 227.3125 163.105469 C 226.832031 163.105469 226.382812 163.324219 226.082031 163.699219 C 225.785156 164.074219 225.675781 164.5625 225.785156 165.03125 L 227.433594 172.128906 L 214.902344 163.386719 C 214.636719 163.203125 214.324219 163.105469 214.003906 163.105469 L 194.988281 163.105469 C 194.203125 163.105469 193.328125 162.082031 193.328125 160.617188 Z M 198.589844 148.585938 C 198.589844 147.71875 199.292969 147.015625 200.160156 147.015625 L 224.949219 147.015625 C 225.816406 147.015625 226.519531 147.71875 226.519531 148.585938 C 226.519531 149.453125 225.816406 150.15625 224.949219 150.15625 L 200.160156 150.15625 C 199.292969 150.15625 198.589844 149.453125 198.589844 148.585938 Z M 198.589844 155.582031 C 198.589844 154.714844 199.292969 154.011719 200.160156 154.011719 L 224.949219 154.011719 C 225.816406 154.011719 226.519531 154.714844 226.519531 155.582031 C 226.519531 156.449219 225.816406 157.152344 224.949219 157.152344 L 200.160156 157.152344 C 199.292969 157.152344 198.589844 156.449219 198.589844 155.582031 Z M 144.871094 166.246094 L 145.703125 166.246094 L 143.578125 175.402344 C 143.429688 176.035156 143.6875 176.691406 144.226562 177.054688 C 144.492188 177.234375 144.800781 177.324219 145.105469 177.324219 C 145.421875 177.324219 145.734375 177.230469 146.003906 177.042969 L 161.484375 166.246094 L 180.003906 166.246094 C 182.652344 166.246094 184.804688 163.71875 184.804688 160.617188 L 184.804688 143.550781 C 184.804688 140.449219 182.652344 137.925781 180.003906 137.925781 L 144.871094 137.925781 C 142.222656 137.925781 140.070312 140.449219 140.070312 143.550781 L 140.070312 160.617188 C 140.070312 163.71875 142.222656 166.246094 144.871094 166.246094 Z M 143.210938 143.550781 C 143.210938 142.085938 144.085938 141.0625 144.871094 141.0625 L 180.003906 141.0625 C 180.789062 141.0625 181.664062 142.085938 181.664062 143.550781 L 181.664062 160.617188 C 181.664062 162.082031 180.789062 163.105469 180.003906 163.105469 L 160.988281 163.105469 C 160.667969 163.105469 160.355469 163.203125 160.089844 163.386719 L 147.558594 172.128906 L 149.207031 165.03125 C 149.316406 164.5625 149.207031 164.074219 148.90625 163.699219 C 148.609375 163.324219 148.15625 163.105469 147.679688 163.105469 L 144.871094 163.105469 C 144.085938 163.105469 143.210938 162.082031 143.210938 160.617188 Z M 150.867188 152.316406 C 150.867188 151.203125 151.773438 150.296875 152.886719 150.296875 C 154 150.296875 154.90625 151.203125 154.90625 152.316406 C 154.90625 153.429688 154 154.335938 152.886719 154.335938 C 151.773438 154.335938 150.867188 153.429688 150.867188 152.316406 Z M 160.417969 152.316406 C 160.417969 151.203125 161.324219 150.296875 162.4375 150.296875 C 163.550781 150.296875 164.457031 151.203125 164.457031 152.316406 C 164.457031 153.429688 163.550781 154.335938 162.4375 154.335938 C 161.324219 154.335938 160.417969 153.429688 160.417969 152.316406 Z M 169.96875 152.316406 C 169.96875 151.203125 170.875 150.296875 171.988281 150.296875 C 173.101562 150.296875 174.007812 151.203125 174.007812 152.316406 C 174.007812 153.429688 173.101562 154.335938 171.988281 154.335938 C 170.875 154.335938 169.96875 153.429688 169.96875 152.316406 Z M 242.371094 236.386719 L 235.503906 210.75 C 234.640625 207.53125 232.566406 204.835938 229.660156 203.160156 C 226.757812 201.480469 223.382812 201.035156 220.164062 201.894531 C 214.683594 203.363281 212.5 208.109375 210.574219 212.296875 L 203.933594 226.707031 L 188.839844 228.246094 C 188.378906 228.292969 187.933594 228.394531 187.503906 228.539062 C 187.070312 228.394531 186.617188 228.292969 186.152344 228.246094 L 171.058594 226.707031 L 163.570312 210.457031 C 162.164062 207.414062 159.730469 203.210938 154.824219 201.894531 C 151.605469 201.035156 148.234375 201.480469 145.328125 203.160156 C 142.425781 204.835938 140.351562 207.53125 139.488281 210.75 L 132.617188 236.386719 C 132.265625 237.707031 132.105469 238.90625 132.105469 240.273438 L 132.105469 247.132812 C 132.105469 248 132.808594 248.703125 133.675781 248.703125 L 155.5 248.703125 C 156.367188 248.703125 157.070312 248 157.070312 247.132812 L 157.070312 241.90625 L 159.722656 232.011719 L 161.1875 235.191406 C 162.171875 237.3125 164.226562 238.695312 166.5625 238.808594 L 184.871094 240.679688 C 185.785156 240.773438 186.671875 240.664062 187.492188 240.386719 C 188.128906 240.601562 188.800781 240.710938 189.476562 240.710938 C 189.691406 240.710938 189.902344 240.699219 190.117188 240.679688 L 199.679688 239.703125 C 199.03125 241.027344 198.839844 242.585938 199.265625 244.117188 C 200.03125 246.882812 202.550781 248.703125 205.289062 248.703125 C 205.839844 248.703125 206.398438 248.628906 206.953125 248.476562 L 217.921875 245.453125 L 217.921875 247.132812 C 217.921875 248 218.621094 248.703125 219.488281 248.703125 L 241.316406 248.703125 C 242.179688 248.703125 242.882812 248 242.882812 247.132812 L 242.882812 240.273438 C 242.882812 238.90625 242.726562 237.707031 242.371094 236.386719 Z M 185.191406 237.554688 L 166.835938 235.683594 C 166.804688 235.679688 166.773438 235.675781 166.742188 235.675781 C 165.566406 235.628906 164.53125 234.933594 164.039062 233.875 L 160.757812 226.753906 C 160.480469 226.152344 159.855469 225.789062 159.199219 225.84375 C 158.539062 225.902344 157.984375 226.363281 157.8125 227.003906 L 153.984375 241.292969 C 153.949219 241.425781 153.933594 241.5625 153.933594 241.699219 L 153.933594 245.5625 L 135.246094 245.5625 L 135.246094 240.273438 C 135.246094 239.179688 135.367188 238.257812 135.652344 237.199219 L 142.519531 211.5625 C 143.164062 209.15625 144.722656 207.136719 146.898438 205.878906 C 149.078125 204.621094 151.605469 204.28125 154.015625 204.929688 C 156.777344 205.667969 158.910156 207.84375 160.71875 211.773438 L 168.582031 228.832031 C 168.8125 229.335938 169.296875 229.679688 169.847656 229.738281 L 185.832031 231.367188 C 187.535156 231.542969 188.78125 233.074219 188.605469 234.78125 C 188.429688 236.488281 186.894531 237.734375 185.191406 237.554688 Z M 239.746094 245.5625 L 221.058594 245.5625 L 221.058594 244.589844 L 224.699219 243.589844 C 226.980469 243.085938 228.777344 241.382812 229.394531 239.121094 L 232.65625 227.101562 C 232.882812 226.265625 232.390625 225.402344 231.550781 225.175781 C 230.714844 224.949219 229.855469 225.445312 229.625 226.28125 L 226.367188 238.296875 C 226.058594 239.429688 225.152344 240.285156 224 240.527344 L 223.953125 240.535156 L 206.117188 245.449219 C 204.464844 245.90625 202.746094 244.933594 202.289062 243.28125 C 201.835938 241.625 202.808594 239.910156 204.457031 239.453125 L 220.8125 234.949219 L 226.011719 215.789062 C 226.238281 214.953125 225.742188 214.089844 224.90625 213.863281 C 224.070312 213.636719 223.207031 214.132812 222.980469 214.96875 L 218.4375 231.714844 L 217.179688 227.007812 C 217.179688 227.003906 217.175781 227 217.175781 226.996094 L 216.542969 224.636719 C 216.320312 223.800781 215.457031 223.304688 214.621094 223.527344 C 213.785156 223.75 213.285156 224.613281 213.511719 225.449219 L 213.996094 227.265625 L 210.953125 233.871094 C 210.84375 234.105469 210.707031 234.320312 210.546875 234.519531 L 205.253906 235.976562 L 191.007812 237.433594 C 191.390625 236.730469 191.640625 235.945312 191.730469 235.101562 C 191.871094 233.71875 191.558594 232.359375 190.839844 231.195312 L 205.144531 229.738281 C 205.695312 229.679688 206.179688 229.335938 206.410156 228.832031 L 213.425781 213.605469 C 215.222656 209.703125 216.921875 206.015625 220.976562 204.929688 C 223.386719 204.28125 225.914062 204.621094 228.09375 205.875 C 230.269531 207.132812 231.824219 209.152344 232.472656 211.5625 L 239.339844 237.199219 C 239.625 238.257812 239.746094 239.175781 239.746094 240.273438 Z M 214.628906 233.398438 L 215.269531 232.011719 L 215.570312 233.136719 Z M 146.769531 188.785156 C 146.769531 195.167969 151.957031 200.355469 158.339844 200.355469 C 164.71875 200.355469 169.910156 195.167969 169.910156 188.785156 C 169.910156 182.40625 164.71875 177.214844 158.339844 177.214844 C 151.957031 177.214844 146.769531 182.40625 146.769531 188.785156 Z M 166.769531 188.785156 C 166.769531 193.433594 162.988281 197.21875 158.339844 197.21875 C 153.691406 197.21875 149.90625 193.433594 149.90625 188.785156 C 149.90625 184.136719 153.691406 180.355469 158.339844 180.355469 C 162.988281 180.355469 166.769531 184.136719 166.769531 188.785156 Z M 205.082031 188.785156 C 205.082031 195.167969 210.273438 200.355469 216.652344 200.355469 C 223.03125 200.355469 228.222656 195.167969 228.222656 188.785156 C 228.222656 182.40625 223.03125 177.214844 216.652344 177.214844 C 210.273438 177.214844 205.082031 182.40625 205.082031 188.785156 Z M 225.085938 188.785156 C 225.085938 193.433594 221.300781 197.21875 216.652344 197.21875 C 212.003906 197.21875 208.21875 193.433594 208.21875 188.785156 C 208.21875 184.136719 212.003906 180.355469 216.652344 180.355469 C 221.300781 180.355469 225.085938 184.136719 225.085938 188.785156 Z M 225.085938 188.785156 "/></g></g></svg>