<svg xmlns="http://www.w3.org/2000/svg" xmlns:xlink="http://www.w3.org/1999/xlink" width="500" zoomAndPan="magnify" viewBox="0 0 375 374.999991" height="500" preserveAspectRatio="xMidYMid meet" version="1.2"><defs><clipPath id="6cd505405b"><path d="M 173 135.015625 L 193 135.015625 L 193 255 L 173 255 Z M 173 135.015625 "/></clipPath><clipPath id="f102b7ca5d"><path d="M 200 135.015625 L 226.722656 135.015625 L 226.722656 255 L 200 255 Z M 200 135.015625 "/></clipPath><filter x="0%" y="0%" width="100%" filterUnits="objectBoundingBox" id="82399118b3" height="100%"><feColorMatrix values="0 0 0 0 1 0 0 0 0 1 0 0 0 0 1 0 0 0 1 0" type="matrix" in="SourceGraphic"/></filter><clipPath id="25cb828543"><path d="M 0.441406 0.359375 L 1 0.359375 L 1 1.558594 L 0.441406 1.558594 Z M 0.441406 0.359375 "/></clipPath><clipPath id="7276029661"><rect x="0" width="2" y="0" height="2"/></clipPath><clipPath id="0e3071c395"><path d="M 0.320312 0 L 10 0 L 10 26 L 0.320312 26 Z M 0.320312 0 "/></clipPath><clipPath id="e1cbbf4ede"><rect x="0" width="11" y="0" height="27"/></clipPath><clipPath id="d89fa726c0"><path d="M 1 0 L 10.640625 0 L 10.640625 26 L 1 26 Z M 1 0 "/></clipPath><clipPath id="6cf57f4f39"><rect x="0" width="11" y="0" height="27"/></clipPath></defs><g id="bb6730ab89"><rect x="0" width="375" y="0" height="374.999991" style="fill:#ffffff;fill-opacity:1;stroke:none;"/><rect x="0" width="375" y="0" height="374.999991" style="fill:#ffffff;fill-opacity:1;stroke:none;"/><g clip-rule="nonzero" clip-path="url(#6cd505405b)"><path style=" stroke:none;fill-rule:nonzero;fill:#8a310d;fill-opacity:1;" d="M 180.554688 185.363281 C 180.554688 191.546875 174.621094 234.550781 177.984375 250.167969 C 179.386719 256.695312 186.71875 255.84375 187.941406 250.167969 C 191.039062 235.757812 185.488281 222.492188 185.488281 185.023438 C 185.488281 179.894531 189.445312 179.761719 191.589844 173.144531 C 193.5 167.234375 190.800781 135.410156 189.933594 135.410156 C 188.9375 135.410156 189.425781 162.96875 187.542969 162.96875 C 185.644531 162.96875 186.605469 135.78125 185.40625 135.410156 C 184.203125 135.035156 185.085938 162.96875 182.863281 162.96875 C 180.621094 162.96875 182.078125 135.410156 180.875 135.410156 C 179.675781 135.410156 180.015625 162.96875 178.183594 162.96875 C 176.167969 162.96875 177.25 135.410156 176.347656 135.410156 C 174.820312 135.410156 173.027344 165.339844 173.976562 171.660156 C 174.929688 177.984375 180.554688 179.183594 180.554688 185.367188 Z M 180.554688 185.363281 "/></g><g clip-rule="nonzero" clip-path="url(#f102b7ca5d)"><path style=" stroke:none;fill-rule:nonzero;fill:#8a310d;fill-opacity:1;" d="M 211.007812 184.039062 C 211.007812 221.664062 204.960938 236.964844 208.433594 250.246094 C 210.089844 256.578125 217.171875 255.832031 218.390625 250.246094 C 221.207031 237.378906 215.941406 220.90625 215.941406 184.039062 C 215.941406 179.75 226.667969 180.484375 226.667969 165.816406 C 226.667969 147.460938 219.84375 135.304688 213.335938 135.304688 C 207.265625 135.304688 200.675781 148.628906 200.675781 165.816406 C 200.675781 179.589844 211.007812 180.503906 211.007812 184.039062 Z M 211.007812 184.039062 "/></g><path style=" stroke:none;fill-rule:nonzero;fill:#8a310d;fill-opacity:1;" d="M 154.027344 199.121094 C 154.027344 229 147.984375 239.460938 151.457031 250.011719 C 153.109375 255.039062 160.191406 254.445312 161.414062 250.011719 C 164.226562 239.792969 158.964844 232.289062 158.964844 199.523438 C 158.964844 195.515625 164.859375 189.925781 164.859375 179.597656 C 164.859375 161.234375 162.183594 136.269531 156.359375 136.269531 C 150.773438 136.269531 152.050781 168.453125 152.050781 186.054688 C 152.050781 193.613281 154.027344 195.582031 154.027344 199.121094 Z M 154.027344 199.121094 "/><g mask="url(#114acf5baf)" transform="matrix(1,0,0,1,175,159)"><g clip-path="url(#7276029661)"><g clip-rule="nonzero" clip-path="url(#25cb828543)"><path style=" stroke:none;fill-rule:nonzero;fill:#8a310d;fill-opacity:0.777;" d="M 0.976562 1.023438 C 0.964844 1.214844 0.871094 1.355469 0.773438 1.328125 C 0.671875 1.304688 0.601562 1.128906 0.613281 0.9375 C 0.625 0.742188 0.71875 0.605469 0.816406 0.628906 C 0.917969 0.652344 0.988281 0.828125 0.976562 1.023438 Z M 0.976562 1.023438 "/></g></g><mask id="114acf5baf"><g filter="url(#82399118b3)"><rect x="0" width="375" y="0" height="374.999991" style="fill:#000000;fill-opacity:0.3;stroke:none;"/></g></mask></g><g mask="url(#e40270a7ab)" transform="matrix(1,0,0,1,178,228)"><g clip-path="url(#e1cbbf4ede)"><g clip-rule="nonzero" clip-path="url(#0e3071c395)"><path style=" stroke:none;fill-rule:nonzero;fill:#8a310d;fill-opacity:1;" d="M 0.664062 21.964844 C 1.265625 24.667969 3.8125 26.570312 6.441406 25.339844 C 9.355469 23.972656 9.773438 19.453125 9.792969 17.003906 C 9.828125 12.664062 9.375 9.453125 8.851562 5.203125 C 8.6875 3.878906 8.425781 1.421875 8.15625 0.210938 C 8.148438 3.636719 8.683594 6.957031 8.042969 10.363281 C 7.09375 13.566406 8.152344 19.417969 5.085938 21.5625 C 3.566406 22.625 0.835938 20.519531 0.664062 21.960938 Z M 0.664062 21.964844 "/></g></g><mask id="e40270a7ab"><g filter="url(#82399118b3)"><rect x="0" width="375" y="0" height="374.999991" style="fill:#000000;fill-opacity:0.3;stroke:none;"/></g></mask></g><g mask="url(#34043b2603)" transform="matrix(1,0,0,1,208,228)"><g clip-path="url(#6cf57f4f39)"><g clip-rule="nonzero" clip-path="url(#d89fa726c0)"><path style=" stroke:none;fill-rule:nonzero;fill:#8a310d;fill-opacity:1;" d="M 1.316406 21.964844 C 1.917969 24.667969 4.464844 26.570312 7.089844 25.339844 C 10.003906 23.972656 10.421875 19.453125 10.441406 17.003906 C 10.480469 12.664062 10.023438 9.453125 9.5 5.203125 C 9.339844 3.878906 9.074219 1.421875 8.808594 0.210938 C 8.800781 3.636719 9.335938 6.957031 8.695312 10.363281 C 7.746094 13.566406 8.800781 19.417969 5.738281 21.5625 C 4.21875 22.625 1.484375 20.519531 1.316406 21.960938 Z M 1.316406 21.964844 "/></g></g><mask id="34043b2603"><g filter="url(#82399118b3)"><rect x="0" width="375" y="0" height="374.999991" style="fill:#000000;fill-opacity:0.3;stroke:none;"/></g></mask></g></g></svg>