<svg xmlns="http://www.w3.org/2000/svg" xmlns:xlink="http://www.w3.org/1999/xlink" width="500" zoomAndPan="magnify" viewBox="0 0 375 374.999991" height="500" preserveAspectRatio="xMidYMid meet" version="1.2"><defs><clipPath id="66b604b97e"><path d="M 181 201 L 194 201 L 194 247.695312 L 181 247.695312 Z M 181 201 "/></clipPath><clipPath id="58eae995ba"><path d="M 128.664062 159 L 175 159 L 175 247.695312 L 128.664062 247.695312 Z M 128.664062 159 "/></clipPath><clipPath id="93493baf09"><path d="M 199 159 L 246 159 L 246 247.695312 L 199 247.695312 Z M 199 159 "/></clipPath></defs><g id="18a8282d3f"><rect x="0" width="375" y="0" height="374.999991" style="fill:#ffffff;fill-opacity:1;stroke:none;"/><rect x="0" width="375" y="0" height="374.999991" style="fill:#ffffff;fill-opacity:1;stroke:none;"/><g clip-rule="nonzero" clip-path="url(#66b604b97e)"><path style=" stroke:none;fill-rule:nonzero;fill:#8a310d;fill-opacity:1;" d="M 181.007812 201.355469 L 193.570312 201.355469 L 193.570312 247.414062 L 181.007812 247.414062 Z M 181.007812 201.355469 "/></g><path style=" stroke:none;fill-rule:nonzero;fill:#8a310d;fill-opacity:1;" d="M 224.976562 188.792969 L 224.976562 197.167969 C 197.707031 197.167969 176.027344 197.167969 149.601562 197.167969 L 149.601562 188.792969 C 149.601562 186.480469 151.476562 184.605469 153.789062 184.605469 L 220.789062 184.605469 C 223.097656 184.605469 224.976562 186.480469 224.976562 188.792969 Z M 224.976562 188.792969 "/><g clip-rule="nonzero" clip-path="url(#58eae995ba)"><path style=" stroke:none;fill-rule:nonzero;fill:#8a310d;fill-opacity:1;" d="M 174.660156 247.414062 L 166.324219 247.414062 L 163.53125 222.292969 L 139.855469 222.292969 L 137.0625 247.414062 L 128.730469 247.414062 C 128.726562 245.957031 131.863281 218.539062 132.828125 209.6875 L 128.679688 164.042969 C 128.46875 161.738281 130.167969 159.703125 132.472656 159.496094 C 134.789062 159.339844 136.8125 160.980469 137.019531 163.289062 L 140.859375 205.542969 L 162.601562 205.542969 C 166.878906 205.542969 170.453125 208.746094 170.925781 212.992188 C 172.460938 227.078125 174.660156 245.984375 174.660156 247.414062 Z M 174.660156 247.414062 "/></g><g clip-rule="nonzero" clip-path="url(#93493baf09)"><path style=" stroke:none;fill-rule:nonzero;fill:#8a310d;fill-opacity:1;" d="M 203.648438 212.992188 C 204.121094 208.746094 207.703125 205.542969 211.972656 205.542969 L 233.714844 205.542969 L 237.554688 163.289062 C 237.761719 160.988281 239.785156 159.339844 242.101562 159.496094 C 244.40625 159.703125 246.105469 161.746094 245.894531 164.042969 L 241.746094 209.6875 C 242.714844 218.535156 245.847656 245.957031 245.84375 247.414062 L 237.511719 247.414062 L 234.71875 222.292969 L 211.039062 222.292969 L 208.246094 247.414062 L 199.914062 247.414062 C 199.917969 245.984375 202.117188 227.078125 203.648438 212.992188 Z M 203.648438 212.992188 "/></g><path style=" stroke:none;fill-rule:nonzero;fill:#8a310d;fill-opacity:1;" d="M 168.445312 167.574219 L 168.445312 176.230469 L 170.539062 176.230469 C 171.695312 176.230469 172.632812 177.167969 172.632812 178.324219 C 172.632812 179.476562 171.695312 180.417969 170.539062 180.417969 C 170.539062 180.417969 162.585938 180.417969 162.164062 180.417969 C 161.007812 180.417969 160.070312 179.476562 160.070312 178.324219 C 160.070312 177.167969 161.007812 176.230469 162.164062 176.230469 L 164.257812 176.230469 L 164.257812 167.574219 C 160.078125 166.496094 157.246094 162.304688 158.140625 157.839844 L 159.488281 151.105469 L 173.214844 151.105469 L 174.5625 157.839844 C 175.453125 162.304688 172.625 166.496094 168.445312 167.574219 Z M 168.445312 167.574219 "/><path style=" stroke:none;fill-rule:nonzero;fill:#8a310d;fill-opacity:1;" d="M 200.011719 157.839844 L 201.363281 151.105469 L 215.089844 151.105469 L 216.4375 157.839844 C 217.328125 162.304688 214.503906 166.496094 210.320312 167.574219 L 210.320312 176.230469 L 212.414062 176.230469 C 213.566406 176.230469 214.507812 177.167969 214.507812 178.324219 C 214.507812 179.476562 213.566406 180.417969 212.414062 180.417969 C 211.898438 180.417969 203.523438 180.417969 204.039062 180.417969 C 202.882812 180.417969 201.945312 179.476562 201.945312 178.324219 C 201.945312 177.167969 202.882812 176.230469 204.039062 176.230469 L 206.132812 176.230469 L 206.132812 167.574219 C 201.953125 166.496094 199.121094 162.304688 200.011719 157.839844 Z M 200.011719 157.839844 "/></g></svg>