<svg xmlns="http://www.w3.org/2000/svg" xmlns:xlink="http://www.w3.org/1999/xlink" width="500" zoomAndPan="magnify" viewBox="0 0 375 374.999991" height="500" preserveAspectRatio="xMidYMid meet" version="1.2"><defs><clipPath id="67b3acfb7d"><path d="M 125.859375 125.859375 L 248.859375 125.859375 L 248.859375 248.859375 L 125.859375 248.859375 Z M 125.859375 125.859375 "/></clipPath></defs><g id="274739b9e1"><rect x="0" width="375" y="0" height="374.999991" style="fill:#ffffff;fill-opacity:1;stroke:none;"/><rect x="0" width="375" y="0" height="374.999991" style="fill:#ffffff;fill-opacity:1;stroke:none;"/><g clip-rule="nonzero" clip-path="url(#67b3acfb7d)"><path style=" stroke:none;fill-rule:nonzero;fill:#8a310d;fill-opacity:1;" d="M 125.859375 228.359375 L 125.859375 214.691406 C 125.859375 210.914062 128.914062 207.859375 132.691406 207.859375 C 136.46875 207.859375 139.523438 210.914062 139.523438 214.691406 L 139.523438 228.359375 C 139.523438 232.128906 142.589844 235.191406 146.359375 235.191406 L 228.359375 235.191406 C 232.128906 235.191406 235.191406 232.128906 235.191406 228.359375 L 235.191406 214.691406 C 235.191406 210.914062 238.25 207.859375 242.023438 207.859375 C 245.800781 207.859375 248.859375 210.914062 248.859375 214.691406 L 248.859375 228.359375 C 248.859375 239.664062 239.664062 248.859375 228.359375 248.859375 L 146.359375 248.859375 C 135.054688 248.859375 125.859375 239.664062 125.859375 228.359375 Z M 148.359375 162.027344 C 145.691406 164.695312 145.691406 169.019531 148.359375 171.691406 L 182.527344 205.855469 C 183.863281 207.191406 185.609375 207.859375 187.359375 207.859375 C 189.105469 207.859375 190.855469 207.191406 192.191406 205.855469 L 226.355469 171.691406 C 229.027344 169.019531 229.027344 164.695312 226.355469 162.027344 C 223.6875 159.359375 219.363281 159.359375 216.695312 162.027344 L 194.191406 184.527344 L 194.191406 132.691406 C 194.191406 128.914062 191.136719 125.859375 187.359375 125.859375 C 183.582031 125.859375 180.523438 128.914062 180.523438 132.691406 L 180.523438 184.527344 L 158.023438 162.027344 C 155.355469 159.359375 151.03125 159.359375 148.359375 162.027344 Z M 148.359375 162.027344 "/></g></g></svg>