<svg xmlns="http://www.w3.org/2000/svg" xmlns:xlink="http://www.w3.org/1999/xlink" width="500" zoomAndPan="magnify" viewBox="0 0 375 374.999991" height="500" preserveAspectRatio="xMidYMid meet" version="1.2"><defs><clipPath id="d032be968a"><path d="M 229 156 L 262.5 156 L 262.5 261 L 229 261 Z M 229 156 "/></clipPath><clipPath id="1d2f03e1e2"><path d="M 112.5 129 L 129 129 L 129 144 L 112.5 144 Z M 112.5 129 "/></clipPath><clipPath id="8420c1b284"><path d="M 158 114.09375 L 175 114.09375 L 175 131 L 158 131 Z M 158 114.09375 "/></clipPath></defs><g id="aeb5d08eed"><rect x="0" width="375" y="0" height="374.999991" style="fill:#ffffff;fill-opacity:1;stroke:none;"/><rect x="0" width="375" y="0" height="374.999991" style="fill:#ffffff;fill-opacity:1;stroke:none;"/><path style=" stroke:none;fill-rule:nonzero;fill:#8a310d;fill-opacity:1;" d="M 198.96875 224.96875 L 151.726562 224.96875 L 151.726562 260.804688 L 226.660156 260.804688 L 226.660156 224.96875 Z M 166.386719 252.660156 L 159.871094 252.660156 L 159.871094 246.144531 L 166.386719 246.144531 Z M 166.386719 239.628906 L 159.871094 239.628906 L 159.871094 233.113281 L 166.386719 233.113281 Z M 176.160156 252.660156 L 169.644531 252.660156 L 169.644531 246.144531 L 176.160156 246.144531 Z M 176.160156 239.628906 L 169.644531 239.628906 L 169.644531 233.113281 L 176.160156 233.113281 Z M 185.9375 252.660156 L 179.417969 252.660156 L 179.417969 246.144531 L 185.9375 246.144531 Z M 185.9375 239.628906 L 179.417969 239.628906 L 179.417969 233.113281 L 185.9375 233.113281 Z M 195.710938 252.660156 L 189.195312 252.660156 L 189.195312 246.144531 L 195.710938 246.144531 Z M 195.710938 239.628906 L 189.195312 239.628906 L 189.195312 233.113281 L 195.710938 233.113281 Z M 200.597656 236.371094 C 200.597656 235.46875 201.328125 234.742188 202.226562 234.742188 L 215.257812 234.742188 C 216.160156 234.742188 216.886719 235.46875 216.886719 236.371094 L 216.886719 249.402344 C 216.886719 250.300781 216.160156 251.03125 215.257812 251.03125 L 202.226562 251.03125 C 201.328125 251.03125 200.597656 250.300781 200.597656 249.402344 Z M 200.597656 236.371094 "/><path style=" stroke:none;fill-rule:nonzero;fill:#8a310d;fill-opacity:1;" d="M 128.921875 231.484375 C 128.921875 233.28125 130.382812 234.742188 132.179688 234.742188 C 133.976562 234.742188 135.4375 233.28125 135.4375 231.484375 C 135.4375 229.6875 133.976562 228.226562 132.179688 228.226562 C 130.382812 228.226562 128.921875 229.6875 128.921875 231.484375 Z M 128.921875 231.484375 "/><path style=" stroke:none;fill-rule:nonzero;fill:#8a310d;fill-opacity:1;" d="M 132.179688 185.871094 C 135.773438 185.871094 138.695312 182.949219 138.695312 179.355469 C 138.695312 175.761719 135.773438 172.839844 132.179688 172.839844 C 128.585938 172.839844 125.664062 175.761719 125.664062 179.355469 C 125.664062 182.949219 128.585938 185.871094 132.179688 185.871094 Z M 132.179688 185.871094 "/><path style=" stroke:none;fill-rule:nonzero;fill:#8a310d;fill-opacity:1;" d="M 246.210938 211.933594 C 249.804688 211.933594 252.726562 209.011719 252.726562 205.417969 C 252.726562 201.828125 249.804688 198.902344 246.210938 198.902344 C 242.617188 198.902344 239.695312 201.828125 239.695312 205.417969 C 239.695312 209.011719 242.617188 211.933594 246.210938 211.933594 Z M 246.210938 211.933594 "/><path style=" stroke:none;fill-rule:nonzero;fill:#8a310d;fill-opacity:1;" d="M 213.628906 238 L 203.855469 238 L 203.855469 247.773438 L 213.628906 247.773438 Z M 213.628906 238 "/><path style=" stroke:none;fill-rule:nonzero;fill:#8a310d;fill-opacity:1;" d="M 132.179688 211.933594 C 135.773438 211.933594 138.695312 209.011719 138.695312 205.417969 C 138.695312 201.828125 135.773438 198.902344 132.179688 198.902344 C 128.585938 198.902344 125.664062 201.828125 125.664062 205.417969 C 125.664062 209.011719 128.585938 211.933594 132.179688 211.933594 Z M 132.179688 211.933594 "/><path style=" stroke:none;fill-rule:nonzero;fill:#8a310d;fill-opacity:1;" d="M 187.039062 208.675781 L 181.824219 221.710938 L 196.5625 221.710938 L 191.347656 208.675781 Z M 187.039062 208.675781 "/><g clip-rule="nonzero" clip-path="url(#d032be968a)"><path style=" stroke:none;fill-rule:nonzero;fill:#8a310d;fill-opacity:1;" d="M 246.210938 156.546875 C 237.226562 156.546875 229.917969 163.855469 229.917969 172.839844 L 229.917969 260.804688 L 262.5 260.804688 L 262.5 172.839844 C 262.5 163.855469 255.191406 156.546875 246.210938 156.546875 Z M 246.210938 195.644531 C 251.597656 195.644531 255.984375 200.03125 255.984375 205.417969 C 255.984375 210.808594 251.597656 215.191406 246.210938 215.191406 C 240.820312 215.191406 236.4375 210.808594 236.4375 205.417969 C 236.4375 200.03125 240.820312 195.644531 246.210938 195.644531 Z M 252.523438 231.484375 C 252.523438 234.964844 249.691406 237.796875 246.210938 237.796875 C 242.730469 237.796875 239.898438 234.964844 239.898438 231.484375 C 239.898438 228.003906 242.730469 225.171875 246.210938 225.171875 C 249.691406 225.171875 252.523438 228.003906 252.523438 231.484375 Z M 257.613281 252.660156 L 234.808594 252.660156 L 234.808594 246.144531 L 257.613281 246.144531 Z M 257.613281 252.660156 "/></g><path style=" stroke:none;fill-rule:nonzero;fill:#8a310d;fill-opacity:1;" d="M 184.308594 191.378906 L 192.066406 187.5 L 184.308594 183.621094 Z M 184.308594 191.378906 "/><path style=" stroke:none;fill-rule:nonzero;fill:#8a310d;fill-opacity:1;" d="M 243.15625 231.484375 C 243.15625 233.167969 244.527344 234.539062 246.210938 234.539062 C 247.894531 234.539062 249.265625 233.167969 249.265625 231.484375 C 249.265625 229.800781 247.894531 228.429688 246.210938 228.429688 C 244.527344 228.429688 243.15625 229.800781 243.15625 231.484375 Z M 243.15625 231.484375 "/><path style=" stroke:none;fill-rule:nonzero;fill:#8a310d;fill-opacity:1;" d="M 132.179688 156.546875 C 123.195312 156.546875 115.886719 163.855469 115.886719 172.839844 L 115.886719 260.804688 L 148.46875 260.804688 L 148.46875 172.839844 C 148.46875 163.855469 141.160156 156.546875 132.179688 156.546875 Z M 132.179688 169.582031 C 137.566406 169.582031 141.953125 173.964844 141.953125 179.355469 C 141.953125 184.746094 137.566406 189.128906 132.179688 189.128906 C 126.789062 189.128906 122.40625 184.746094 122.40625 179.355469 C 122.40625 173.964844 126.789062 169.582031 132.179688 169.582031 Z M 132.179688 195.644531 C 137.566406 195.644531 141.953125 200.03125 141.953125 205.417969 C 141.953125 210.808594 137.566406 215.191406 132.179688 215.191406 C 126.789062 215.191406 122.40625 210.808594 122.40625 205.417969 C 122.40625 200.03125 126.789062 195.644531 132.179688 195.644531 Z M 138.695312 231.484375 C 138.695312 235.078125 135.773438 238 132.179688 238 C 128.585938 238 125.664062 235.078125 125.664062 231.484375 C 125.664062 227.890625 128.585938 224.96875 132.179688 224.96875 C 135.773438 224.96875 138.695312 227.890625 138.695312 231.484375 Z M 143.582031 252.660156 L 120.777344 252.660156 L 120.777344 246.144531 L 143.582031 246.144531 Z M 143.582031 252.660156 "/><path style=" stroke:none;fill-rule:nonzero;fill:#8a310d;fill-opacity:1;" d="M 216.886719 169.582031 L 161.5 169.582031 L 161.5 205.417969 L 216.886719 205.417969 Z M 196.4375 188.957031 L 183.40625 195.472656 C 183.175781 195.589844 182.925781 195.644531 182.679688 195.644531 C 182.378906 195.644531 182.082031 195.5625 181.820312 195.402344 C 181.339844 195.105469 181.050781 194.582031 181.050781 194.015625 L 181.050781 180.984375 C 181.050781 180.417969 181.339844 179.894531 181.820312 179.597656 C 182.300781 179.300781 182.902344 179.273438 183.40625 179.527344 L 196.4375 186.042969 C 196.992188 186.320312 197.339844 186.882812 197.339844 187.5 C 197.339844 188.117188 196.992188 188.679688 196.4375 188.957031 Z M 196.4375 188.957031 "/><g clip-rule="nonzero" clip-path="url(#1d2f03e1e2)"><path style=" stroke:none;fill-rule:nonzero;fill:#8a310d;fill-opacity:1;" d="M 117.453125 138.5625 C 117.035156 138.980469 116.875 139.585938 117.035156 140.148438 C 117.191406 140.714844 117.640625 141.152344 118.207031 141.296875 L 126.898438 143.46875 C 127.027344 143.5 127.164062 143.515625 127.292969 143.515625 C 128.023438 143.515625 128.6875 143.023438 128.871094 142.28125 C 129.089844 141.410156 128.558594 140.523438 127.6875 140.308594 L 121.789062 138.832031 L 126.273438 134.351562 C 126.695312 133.925781 126.851562 133.300781 126.679688 132.726562 C 126.503906 132.152344 126.027344 131.71875 125.4375 131.601562 L 114.578125 129.429688 C 113.695312 129.253906 112.839844 129.824219 112.660156 130.707031 C 112.484375 131.589844 113.058594 132.449219 113.941406 132.625 L 121.816406 134.199219 Z M 117.453125 138.5625 "/></g><path style=" stroke:none;fill-rule:nonzero;fill:#8a310d;fill-opacity:1;" d="M 249.945312 137.339844 L 255.648438 143.039062 C 255.964844 143.359375 256.382812 143.515625 256.796875 143.515625 C 257.214844 143.515625 257.632812 143.359375 257.949219 143.039062 C 258.585938 142.402344 258.585938 141.371094 257.949219 140.734375 L 253.402344 136.1875 L 257.949219 131.636719 C 258.585938 131 258.585938 129.96875 257.949219 129.332031 L 253.402344 124.78125 L 257.949219 120.234375 C 258.585938 119.597656 258.585938 118.566406 257.949219 117.929688 C 257.316406 117.292969 256.28125 117.292969 255.648438 117.929688 L 249.945312 123.632812 C 249.308594 124.265625 249.308594 125.300781 249.945312 125.933594 L 254.496094 130.484375 L 249.945312 135.035156 C 249.308594 135.671875 249.308594 136.703125 249.945312 137.339844 Z M 249.945312 137.339844 "/><path style=" stroke:none;fill-rule:nonzero;fill:#8a310d;fill-opacity:1;" d="M 228.289062 132.113281 C 230.089844 132.113281 231.546875 130.65625 231.546875 128.855469 C 231.546875 127.054688 230.089844 125.597656 228.289062 125.597656 C 226.492188 125.597656 225.03125 127.054688 225.03125 128.855469 C 225.03125 130.65625 226.492188 132.113281 228.289062 132.113281 Z M 228.289062 132.113281 "/><path style=" stroke:none;fill-rule:nonzero;fill:#8a310d;fill-opacity:1;" d="M 198.96875 148.402344 C 200.769531 148.402344 202.226562 146.945312 202.226562 145.144531 C 202.226562 143.347656 200.769531 141.886719 198.96875 141.886719 C 197.167969 141.886719 195.710938 143.347656 195.710938 145.144531 C 195.710938 146.945312 197.167969 148.402344 198.96875 148.402344 Z M 198.96875 148.402344 "/><path style=" stroke:none;fill-rule:nonzero;fill:#8a310d;fill-opacity:1;" d="M 133.808594 125.597656 C 135.605469 125.597656 137.066406 124.136719 137.066406 122.339844 C 137.066406 120.539062 135.605469 119.082031 133.808594 119.082031 C 132.007812 119.082031 130.550781 120.539062 130.550781 122.339844 C 130.550781 124.136719 132.007812 125.597656 133.808594 125.597656 Z M 133.808594 125.597656 "/><path style=" stroke:none;fill-rule:nonzero;fill:#8a310d;fill-opacity:1;" d="M 159.871094 151.660156 C 161.671875 151.660156 163.128906 150.203125 163.128906 148.402344 C 163.128906 146.605469 161.671875 145.144531 159.871094 145.144531 C 158.070312 145.144531 156.613281 146.605469 156.613281 148.402344 C 156.613281 150.203125 158.070312 151.660156 159.871094 151.660156 Z M 159.871094 151.660156 "/><g clip-rule="nonzero" clip-path="url(#8420c1b284)"><path style=" stroke:none;fill-rule:nonzero;fill:#8a310d;fill-opacity:1;" d="M 166.386719 130.484375 C 170.878906 130.484375 174.53125 126.832031 174.53125 122.339844 C 174.53125 117.847656 170.878906 114.195312 166.386719 114.195312 C 161.898438 114.195312 158.242188 117.847656 158.242188 122.339844 C 158.242188 126.832031 161.898438 130.484375 166.386719 130.484375 Z M 166.386719 130.484375 "/></g></g></svg>