<svg xmlns="http://www.w3.org/2000/svg" xmlns:xlink="http://www.w3.org/1999/xlink" width="500" zoomAndPan="magnify" viewBox="0 0 375 374.999991" height="500" preserveAspectRatio="xMidYMid meet" version="1.2"><defs><clipPath id="68cea3f2c9"><path d="M 122 134.1875 L 241 134.1875 L 241 272 L 122 272 Z M 122 134.1875 "/></clipPath></defs><g id="cc1f7abd51"><rect x="0" width="375" y="0" height="374.999991" style="fill:#ffffff;fill-opacity:1;stroke:none;"/><rect x="0" width="375" y="0" height="374.999991" style="fill:#ffffff;fill-opacity:1;stroke:none;"/><g clip-rule="nonzero" clip-path="url(#68cea3f2c9)"><path style=" stroke:none;fill-rule:evenodd;fill:#8a310d;fill-opacity:1;" d="M 220.027344 235.640625 C 204.042969 253.304688 174.613281 267.40625 151.394531 267.40625 C 140.078125 267.40625 132.144531 264.039062 129.074219 257.921875 C 125.941406 251.660156 128.3125 242.902344 135.242188 233.832031 C 134.480469 238 134.925781 241.902344 136.625 245.324219 C 140.269531 252.617188 149.140625 256.589844 161.347656 256.589844 C 183.8125 256.589844 211.773438 243.199219 227.039062 226.117188 C 225.257812 229.234375 222.90625 232.445312 220.027344 235.640625 Z M 152.113281 214.082031 C 141.191406 224.722656 136.59375 235.964844 140.363281 243.460938 C 143.242188 249.203125 150.617188 252.386719 161.140625 252.429688 C 184.039062 252.472656 213.640625 237.644531 227.230469 219.300781 C 238.394531 204.234375 235.214844 191.589844 218.472656 188.851562 L 218.472656 189.441406 C 224.195312 190.328125 228.167969 192.722656 230.03125 196.441406 C 232.730469 201.820312 230.554688 209.070312 223.875 216.855469 C 210.910156 231.984375 184.585938 245.183594 164.703125 246.515625 C 155.921875 247.105469 147.71875 245.324219 144.671875 239.234375 C 141.777344 233.464844 144.417969 225.726562 152.113281 217.378906 Z M 148.390625 237.367188 C 149.089844 238.769531 150.363281 239.902344 152.113281 240.742188 L 152.113281 223.890625 C 148.136719 229.253906 146.753906 234.109375 148.390625 237.367188 Z M 183.511719 238.070312 L 183.511719 228.980469 C 183.511719 226.269531 181.300781 224.0625 178.597656 224.0625 L 177.722656 224.0625 C 175.003906 224.0625 172.796875 226.269531 172.796875 228.980469 L 172.796875 241.152344 C 176.261719 240.414062 179.855469 239.378906 183.511719 238.070312 Z M 178.421875 192.832031 L 156.261719 207.167969 L 156.261719 242.023438 C 160.082031 242.71875 164.425781 242.515625 168.644531 241.902344 L 168.644531 228.980469 C 168.644531 223.972656 172.714844 219.898438 177.722656 219.898438 L 178.597656 219.898438 C 183.605469 219.898438 187.675781 223.972656 187.675781 228.980469 L 187.675781 236.46875 C 192.085938 234.671875 196.417969 232.535156 200.570312 230.148438 L 200.570312 207.167969 Z M 160.886719 180.992188 L 166.148438 180.992188 L 166.148438 195.8125 L 160.886719 199.222656 Z M 145.738281 172.992188 C 144.6875 173.109375 143.875 174 143.875 175.058594 L 143.875 178.871094 L 138.21875 178.871094 L 138.21875 163.363281 L 143.875 163.363281 L 143.875 167.175781 C 143.875 168.296875 144.828125 169.277344 145.992188 169.257812 C 149.933594 169.199219 152.527344 168.25 156.339844 165.40625 L 176.546875 165.40625 C 177.117188 165.4375 177.992188 165.6875 178.597656 165.84375 C 183.890625 167.449219 189.757812 172.695312 192.046875 177.109375 C 192.160156 177.328125 192.285156 177.515625 192.398438 177.671875 C 192.382812 177.699219 192.367188 177.730469 192.335938 177.761719 C 187.199219 174.3125 178.644531 171.03125 172.128906 172.664062 C 170.246094 173.136719 169.789062 175.257812 169.21875 176.828125 L 156.453125 176.828125 C 153.289062 173.976562 150.410156 172.464844 145.738281 172.992188 Z M 170.316406 180.980469 C 172.671875 180.839844 173.09375 178.09375 173.71875 176.582031 C 174.703125 176.402344 175.816406 176.359375 176.992188 176.441406 L 176.992188 188.796875 L 170.316406 193.117188 Z M 181.890625 158.019531 C 181.492188 158.019531 181.15625 158.375 181.15625 158.796875 L 181.15625 162.324219 C 187.230469 164.675781 193.191406 170.257812 195.753906 175.195312 C 195.894531 175.496094 197.167969 176.605469 196.660156 178.40625 C 196.453125 179.152344 195.039062 181.75 193.320312 182.320312 C 192.542969 182.578125 191.730469 182.457031 191.109375 181.984375 C 188.136719 179.757812 184.558594 178.070312 181.15625 177.160156 L 181.15625 189.644531 L 203.78125 204.285156 C 204.371094 204.667969 204.71875 205.328125 204.71875 206.035156 L 204.71875 227.613281 C 208.234375 225.359375 211.460938 222.96875 214.320312 220.503906 L 214.320312 158.796875 C 214.320312 158.375 213.972656 158.019531 213.574219 158.019531 Z M 189.917969 145.828125 C 189.917969 145.261719 190.394531 144.785156 190.96875 144.785156 L 204.496094 144.785156 C 205.070312 144.785156 205.546875 145.261719 205.546875 145.828125 L 205.546875 153.859375 L 189.917969 153.859375 Z M 218.472656 193.65625 C 221.601562 194.230469 224.910156 195.511719 226.308594 198.304688 C 228.183594 202.035156 226.148438 207.808594 220.710938 214.144531 C 220.011719 214.964844 219.265625 215.78125 218.472656 216.59375 Z M 236.199219 195.417969 C 233.304688 189.617188 227.183594 185.914062 218.472656 184.636719 L 218.472656 158.800781 C 218.472656 156.074219 216.277344 153.859375 213.574219 153.859375 L 209.710938 153.859375 L 209.710938 145.828125 C 209.710938 142.957031 207.375 140.621094 204.496094 140.621094 L 199.824219 140.621094 L 199.824219 136.265625 C 199.824219 135.117188 198.882812 134.183594 197.738281 134.183594 C 196.578125 134.183594 195.65625 135.117188 195.65625 136.265625 L 195.65625 140.621094 L 190.96875 140.621094 C 188.089844 140.621094 185.753906 142.957031 185.753906 145.828125 L 185.753906 153.859375 L 181.890625 153.859375 C 179.1875 153.859375 176.992188 156.074219 176.992188 158.796875 L 176.992188 161.265625 L 172.636719 161.242188 L 155.640625 161.242188 C 155.179688 161.242188 154.734375 161.394531 154.371094 161.675781 C 151.617188 163.800781 149.902344 164.628906 148.042969 164.933594 L 148.042969 162.921875 C 148.042969 160.867188 146.371094 159.199219 144.320312 159.199219 L 137.773438 159.199219 C 135.722656 159.199219 134.050781 160.867188 134.050781 162.921875 L 134.050781 179.316406 C 134.050781 181.367188 135.71875 183.035156 137.773438 183.035156 L 144.320312 183.035156 C 146.371094 183.035156 148.042969 181.367188 148.042969 179.316406 L 148.042969 177.0625 C 150.15625 177.191406 151.777344 178.136719 154.210938 180.425781 C 154.957031 181.117188 155.75 180.992188 156.722656 180.992188 L 156.722656 201.917969 L 153.050781 204.285156 C 152.460938 204.667969 152.113281 205.328125 152.113281 206.035156 L 152.113281 208.402344 C 146.785156 213.101562 142.605469 217.96875 139.710938 222.742188 C 125.738281 235.992188 120.363281 249.820312 125.355469 259.785156 C 129.21875 267.492188 138.5625 271.597656 151.636719 271.570312 C 164.226562 271.519531 178.980469 267.578125 193.175781 260.464844 C 205.164062 254.460938 215.515625 246.839844 223.113281 238.429688 C 230.601562 230.15625 234.703125 221.917969 235.003906 214.570312 C 238.472656 207.464844 238.917969 200.832031 236.199219 195.417969 Z M 231.621094 172.34375 C 230.839844 170.839844 229.886719 169.550781 228.789062 168.542969 C 229.886719 167.535156 230.839844 166.246094 231.621094 164.742188 C 232.414062 166.246094 233.367188 167.535156 234.480469 168.542969 C 233.367188 169.550781 232.414062 170.839844 231.621094 172.34375 Z M 239.058594 166.578125 C 240.910156 167.214844 240.925781 169.863281 239.058594 170.507812 C 236.371094 171.445312 234.164062 175.363281 233.703125 180.03125 C 233.589844 181.09375 232.699219 181.90625 231.617188 181.90625 C 230.554688 181.90625 229.664062 181.09375 229.550781 180.03125 C 229.089844 175.363281 226.882812 171.445312 224.195312 170.507812 C 222.335938 169.867188 222.335938 167.222656 224.195312 166.578125 C 226.882812 165.640625 229.089844 161.722656 229.550781 157.058594 C 229.664062 155.992188 230.554688 155.183594 231.617188 155.183594 C 232.699219 155.183594 233.589844 155.992188 233.703125 157.058594 C 234.164062 161.722656 236.371094 165.640625 239.058594 166.578125 Z M 133.160156 197.882812 C 134.257812 200.113281 135.703125 201.980469 137.4375 203.34375 C 135.703125 204.707031 134.257812 206.574219 133.160156 208.800781 C 132.0625 206.574219 130.601562 204.707031 128.867188 203.34375 C 130.601562 201.980469 132.0625 200.113281 133.160156 197.882812 Z M 131.078125 216.558594 C 130.472656 210.996094 127.597656 206.480469 123.925781 205.328125 C 122.003906 204.722656 122.007812 201.960938 123.925781 201.355469 C 127.597656 200.199219 130.472656 195.691406 131.078125 190.125 C 131.207031 189.070312 132.097656 188.273438 133.160156 188.273438 C 134.210938 188.273438 135.101562 189.070312 135.226562 190.125 C 135.832031 195.691406 138.710938 200.203125 142.382812 201.355469 C 144.324219 201.964844 144.324219 204.71875 142.382812 205.328125 C 138.710938 206.484375 135.832031 210.996094 135.226562 216.558594 C 135.101562 217.613281 134.210938 218.414062 133.160156 218.414062 C 132.097656 218.414062 131.207031 217.613281 131.078125 216.558594 Z M 131.078125 216.558594 "/></g></g></svg>