<svg xmlns="http://www.w3.org/2000/svg" xmlns:xlink="http://www.w3.org/1999/xlink" width="500" zoomAndPan="magnify" viewBox="0 0 375 374.999991" height="500" preserveAspectRatio="xMidYMid meet" version="1.2"><defs><clipPath id="8af8f16102"><path d="M 129.382812 142.699219 L 245.632812 142.699219 L 245.632812 244.699219 L 129.382812 244.699219 Z M 129.382812 142.699219 "/></clipPath></defs><g id="050d31c00c"><rect x="0" width="375" y="0" height="374.999991" style="fill:#ffffff;fill-opacity:1;stroke:none;"/><rect x="0" width="375" y="0" height="374.999991" style="fill:#ffffff;fill-opacity:1;stroke:none;"/><g clip-rule="nonzero" clip-path="url(#8af8f16102)"><path style=" stroke:none;fill-rule:nonzero;fill:#8a310d;fill-opacity:1;" d="M 245.1875 203.777344 L 232.113281 194.648438 L 232.113281 179.597656 L 240.046875 179.597656 C 240.363281 179.597656 240.597656 179.457031 240.746094 179.175781 C 240.894531 178.894531 240.878906 178.621094 240.695312 178.359375 L 223.71875 153.679688 C 223.5625 153.453125 223.347656 153.335938 223.070312 153.335938 L 199.894531 153.335938 L 188.023438 142.957031 C 187.875 142.828125 187.703125 142.761719 187.503906 142.761719 C 187.304688 142.761719 187.132812 142.828125 186.984375 142.957031 L 175.113281 153.34375 L 151.921875 153.34375 C 151.648438 153.34375 151.429688 153.457031 151.273438 153.683594 L 134.300781 178.359375 C 134.121094 178.621094 134.101562 178.894531 134.25 179.175781 C 134.398438 179.457031 134.632812 179.597656 134.949219 179.597656 L 142.886719 179.597656 L 142.886719 194.644531 L 129.808594 203.777344 C 129.667969 203.875 129.570312 204.007812 129.515625 204.167969 C 129.457031 204.332031 129.457031 204.496094 129.507812 204.660156 C 129.558594 204.828125 129.65625 204.960938 129.792969 205.0625 C 129.933594 205.164062 130.089844 205.214844 130.261719 205.214844 L 134.15625 205.214844 L 134.15625 243.589844 C 134.15625 243.804688 134.234375 243.992188 134.390625 244.148438 C 134.542969 244.300781 134.730469 244.378906 134.949219 244.378906 L 162.082031 244.378906 C 162.132812 244.390625 162.183594 244.394531 162.234375 244.394531 L 168.125 244.394531 C 168.175781 244.394531 168.226562 244.390625 168.273438 244.378906 L 178.1875 244.378906 C 178.230469 244.386719 178.277344 244.390625 178.320312 244.390625 L 196.675781 244.390625 C 196.71875 244.390625 196.761719 244.386719 196.804688 244.378906 L 206.722656 244.378906 C 206.773438 244.390625 206.824219 244.394531 206.871094 244.394531 L 212.765625 244.394531 C 212.816406 244.394531 212.867188 244.390625 212.914062 244.378906 L 240.050781 244.378906 C 240.265625 244.378906 240.453125 244.300781 240.609375 244.148438 C 240.761719 243.992188 240.839844 243.804688 240.839844 243.589844 L 240.839844 205.214844 L 244.734375 205.214844 C 244.90625 205.214844 245.0625 205.164062 245.199219 205.0625 C 245.339844 204.960938 245.4375 204.828125 245.488281 204.660156 C 245.539062 204.496094 245.539062 204.332031 245.480469 204.167969 C 245.425781 204.007812 245.328125 203.875 245.1875 203.777344 Z M 155.304688 179.007812 L 187.496094 149.625 L 219.691406 179.007812 L 219.691406 194.390625 L 155.300781 194.390625 Z M 230.53125 194.390625 L 221.273438 194.390625 L 221.273438 179.597656 L 230.53125 179.597656 Z M 222.65625 154.921875 L 238.542969 178.019531 L 231.40625 178.019531 C 231.378906 178.019531 231.351562 178.019531 231.324219 178.019531 L 228.082031 178.019531 L 201.695312 154.921875 Z M 187.496094 144.601562 L 198.984375 154.652344 C 199.03125 154.707031 199.085938 154.753906 199.144531 154.792969 L 225.683594 178.007812 L 220.945312 178.007812 L 188.023438 147.96875 C 187.875 147.832031 187.695312 147.761719 187.492188 147.761719 C 187.289062 147.761719 187.109375 147.832031 186.960938 147.96875 L 154.050781 178.007812 L 149.3125 178.007812 L 175.871094 154.777344 C 175.914062 154.746094 175.957031 154.710938 175.992188 154.671875 Z M 152.339844 154.921875 L 173.304688 154.921875 L 146.917969 178.011719 L 143.675781 178.011719 C 143.644531 178.011719 143.617188 178.011719 143.59375 178.011719 L 136.449219 178.011719 Z M 153.726562 179.597656 L 153.726562 194.390625 L 144.464844 194.390625 L 144.464844 179.597656 Z M 135.738281 205.214844 L 161.445312 205.214844 L 161.445312 242.796875 L 135.738281 242.796875 Z M 211.972656 242.796875 L 207.660156 242.796875 L 207.660156 205.222656 L 211.972656 205.222656 Z M 206.078125 242.796875 L 197.464844 242.796875 L 197.464844 211.664062 C 197.464844 211.449219 197.386719 211.261719 197.234375 211.105469 C 197.078125 210.953125 196.894531 210.875 196.675781 210.875 L 178.320312 210.875 C 178.101562 210.875 177.917969 210.953125 177.761719 211.105469 C 177.609375 211.261719 177.53125 211.449219 177.53125 211.664062 L 177.53125 242.796875 L 168.917969 242.796875 L 168.917969 205.214844 L 206.078125 205.214844 Z M 179.109375 242.796875 L 179.109375 212.457031 L 195.882812 212.457031 L 195.882812 242.796875 Z M 163.023438 242.796875 L 163.023438 205.222656 L 167.335938 205.222656 L 167.335938 242.796875 Z M 239.257812 242.796875 L 213.550781 242.796875 L 213.550781 205.214844 L 239.257812 205.214844 Z M 240.136719 203.632812 C 240.105469 203.632812 240.078125 203.632812 240.050781 203.632812 L 134.949219 203.632812 C 134.917969 203.632812 134.890625 203.632812 134.859375 203.632812 L 132.773438 203.632812 L 143.746094 195.972656 L 231.25 195.972656 L 242.222656 203.632812 Z M 240.136719 203.632812 "/></g><path style=" stroke:none;fill-rule:nonzero;fill:#8a310d;fill-opacity:1;" d="M 195.363281 223.488281 C 195.207031 223.308594 195.007812 223.21875 194.769531 223.21875 L 191.910156 223.21875 C 191.792969 223.214844 191.683594 223.238281 191.578125 223.285156 C 191.476562 223.332031 191.386719 223.398438 191.308594 223.484375 C 191.234375 223.570312 191.179688 223.667969 191.144531 223.777344 C 191.113281 223.890625 191.101562 224 191.117188 224.113281 L 191.84375 229.394531 C 191.871094 229.589844 191.957031 229.753906 192.105469 229.882812 C 192.253906 230.011719 192.429688 230.078125 192.625 230.078125 L 194.058594 230.078125 C 194.253906 230.078125 194.425781 230.011719 194.574219 229.882812 C 194.722656 229.753906 194.8125 229.589844 194.839844 229.394531 L 195.554688 224.117188 C 195.585938 223.878906 195.523438 223.667969 195.363281 223.488281 Z M 193.363281 228.492188 L 193.3125 228.492188 L 192.8125 224.796875 L 193.867188 224.796875 Z M 193.363281 228.492188 "/><path style=" stroke:none;fill-rule:nonzero;fill:#8a310d;fill-opacity:1;" d="M 195.089844 178.800781 L 195.089844 165.015625 C 195.089844 164.796875 195.011719 164.609375 194.859375 164.457031 C 194.703125 164.300781 194.519531 164.222656 194.300781 164.222656 L 180.695312 164.222656 C 180.476562 164.222656 180.292969 164.300781 180.136719 164.457031 C 179.984375 164.609375 179.90625 164.796875 179.90625 165.015625 L 179.90625 178.785156 C 179.90625 178.785156 179.90625 178.796875 179.90625 178.800781 L 179.90625 183.628906 C 179.90625 183.84375 179.984375 184.03125 180.136719 184.1875 C 180.292969 184.339844 180.476562 184.417969 180.695312 184.417969 L 194.300781 184.417969 C 194.648438 184.417969 194.894531 184.257812 195.027344 183.933594 C 195.070312 183.835938 195.089844 183.734375 195.089844 183.625 Z M 193.511719 178.785156 C 193.511719 178.785156 193.511719 178.796875 193.511719 178.800781 L 193.511719 182.835938 L 188.289062 182.835938 L 188.289062 175.113281 L 193.511719 175.113281 Z M 186.707031 182.835938 L 181.488281 182.835938 L 181.488281 175.113281 L 186.707031 175.113281 Z M 193.511719 173.53125 L 188.289062 173.53125 L 188.289062 165.804688 L 193.511719 165.804688 Z M 186.707031 165.804688 L 186.707031 173.53125 L 181.488281 173.53125 L 181.488281 165.804688 Z M 186.707031 165.804688 "/><path style=" stroke:none;fill-rule:nonzero;fill:#8a310d;fill-opacity:1;" d="M 155.996094 209.105469 L 142.394531 209.105469 C 142.175781 209.105469 141.988281 209.183594 141.835938 209.339844 C 141.679688 209.492188 141.605469 209.679688 141.605469 209.898438 L 141.605469 228.511719 C 141.605469 228.730469 141.679688 228.914062 141.835938 229.070312 C 141.988281 229.222656 142.175781 229.300781 142.394531 229.300781 L 155.996094 229.300781 C 156.214844 229.300781 156.402344 229.222656 156.554688 229.070312 C 156.710938 228.914062 156.789062 228.730469 156.789062 228.511719 L 156.789062 209.898438 C 156.789062 209.679688 156.710938 209.492188 156.554688 209.339844 C 156.402344 209.183594 156.214844 209.105469 155.996094 209.105469 Z M 155.207031 218.414062 L 149.984375 218.414062 L 149.984375 210.6875 L 155.207031 210.6875 Z M 148.40625 210.6875 L 148.40625 218.414062 L 143.183594 218.414062 L 143.183594 210.6875 Z M 143.183594 219.996094 L 148.40625 219.996094 L 148.40625 227.722656 L 143.183594 227.722656 Z M 149.984375 227.722656 L 149.984375 219.996094 L 155.207031 219.996094 L 155.207031 227.722656 Z M 149.984375 227.722656 "/><path style=" stroke:none;fill-rule:nonzero;fill:#8a310d;fill-opacity:1;" d="M 218.996094 229.300781 L 232.601562 229.300781 C 232.820312 229.300781 233.007812 229.222656 233.160156 229.070312 C 233.316406 228.914062 233.394531 228.730469 233.394531 228.511719 L 233.394531 209.898438 C 233.394531 209.679688 233.316406 209.492188 233.160156 209.339844 C 233.007812 209.183594 232.820312 209.105469 232.601562 209.105469 L 218.996094 209.105469 C 218.78125 209.105469 218.59375 209.183594 218.4375 209.339844 C 218.285156 209.492188 218.207031 209.679688 218.207031 209.898438 L 218.207031 228.511719 C 218.207031 228.730469 218.285156 228.914062 218.4375 229.070312 C 218.59375 229.222656 218.78125 229.300781 218.996094 229.300781 Z M 219.789062 219.996094 L 225.011719 219.996094 L 225.011719 227.722656 L 219.789062 227.722656 Z M 226.589844 227.722656 L 226.589844 219.996094 L 231.8125 219.996094 L 231.8125 227.722656 Z M 231.8125 218.414062 L 226.589844 218.414062 L 226.589844 210.6875 L 231.8125 210.6875 Z M 225.011719 210.6875 L 225.011719 218.414062 L 219.789062 218.414062 L 219.789062 210.6875 Z M 225.011719 210.6875 "/></g></svg>