<svg xmlns="http://www.w3.org/2000/svg" xmlns:xlink="http://www.w3.org/1999/xlink" width="500" zoomAndPan="magnify" viewBox="0 0 375 374.999991" height="500" preserveAspectRatio="xMidYMid meet" version="1.2"><defs><clipPath id="f950911b7e"><path d="M 139.683594 127 L 215 127 L 215 177 L 139.683594 177 Z M 139.683594 127 "/></clipPath></defs><g id="3e9ce2c032"><rect x="0" width="375" y="0" height="374.999991" style="fill:#ffffff;fill-opacity:1;stroke:none;"/><rect x="0" width="375" y="0" height="374.999991" style="fill:#ffffff;fill-opacity:1;stroke:none;"/><path style=" stroke:none;fill-rule:nonzero;fill:#8a310d;fill-opacity:1;" d="M 234.589844 225.632812 C 235.226562 227.863281 233.878906 230.023438 231.585938 230.425781 L 210.765625 234.097656 C 208.476562 234.5 206.460938 232.9375 206.296875 230.617188 L 203.023438 184.632812 C 202.859375 182.3125 204.601562 180.085938 206.882812 179.683594 L 216.609375 177.964844 C 218.890625 177.5625 221.292969 179.058594 221.933594 181.300781 Z M 234.589844 225.632812 "/><g clip-rule="nonzero" clip-path="url(#f950911b7e)"><path style=" stroke:none;fill-rule:nonzero;fill:#8a310d;fill-opacity:1;" d="M 214.222656 175.6875 C 208.261719 150.21875 193.945312 140.242188 182.035156 136.46875 C 181.671875 131.375 177.429688 127.339844 172.242188 127.339844 C 170.515625 127.339844 168.898438 127.785156 167.488281 128.570312 L 139.683594 127.261719 C 139.683594 127.261719 142.085938 133.546875 147.09375 133.78125 C 150.0625 133.925781 157.339844 134.265625 162.789062 134.523438 C 162.679688 134.941406 162.589844 135.363281 162.527344 135.800781 C 156.726562 137.929688 149.75 140.503906 146.738281 141.613281 C 141.171875 143.65625 140.699219 151.613281 140.699219 151.613281 L 164.300781 142.925781 C 166.082031 145.382812 168.980469 146.992188 172.246094 146.992188 C 175.707031 146.992188 178.75 145.191406 180.5 142.476562 C 194.539062 147.046875 203.808594 158.558594 208.128906 176.757812 Z M 172.246094 140.828125 C 170.226562 140.828125 168.582031 139.183594 168.582031 137.164062 C 168.582031 135.144531 170.226562 133.507812 172.246094 133.507812 C 174.265625 133.507812 175.914062 135.148438 175.914062 137.167969 C 175.914062 139.1875 174.265625 140.828125 172.246094 140.828125 Z M 172.246094 140.828125 "/></g><path style=" stroke:none;fill-rule:nonzero;fill:#8a310d;fill-opacity:1;" d="M 192.273438 165.367188 C 192.273438 158.941406 191.332031 154.644531 184.574219 153.542969 C 179.847656 152.773438 179.183594 150.46875 179.183594 148.152344 C 179.183594 147.863281 179.183594 147.570312 179.183594 147.277344 C 177.210938 148.640625 174.824219 149.4375 172.246094 149.4375 C 169.667969 149.4375 167.285156 148.640625 165.304688 147.277344 C 165.304688 147.570312 165.304688 147.863281 165.304688 148.152344 C 165.304688 150.464844 164.644531 152.773438 159.914062 153.542969 C 153.148438 154.644531 152.214844 158.941406 152.214844 165.367188 C 152.214844 165.851562 152.203125 241.414062 152.203125 241.414062 C 152.207031 244.824219 154.964844 247.582031 158.375 247.582031 L 186.121094 247.582031 C 189.527344 247.582031 192.292969 244.824219 192.292969 241.410156 C 192.289062 241.410156 192.273438 165.851562 192.273438 165.367188 Z M 184.820312 215.429688 C 181.300781 224.582031 174.078125 224.136719 174.078125 224.136719 C 183.082031 211.535156 171.566406 204.382812 171.566406 204.382812 C 171.566406 204.382812 173.578125 208.066406 168.855469 213.8125 C 165.519531 217.851562 169.1875 224.128906 169.1875 224.128906 C 165.792969 224.183594 158.632812 218.511719 158.632812 210.800781 C 158.632812 203.089844 163.800781 198.03125 163.800781 198.03125 C 164.828125 200.160156 166.183594 201.253906 166.183594 201.253906 C 163.691406 188.632812 173.886719 184.574219 173.886719 184.574219 C 172.320312 191.832031 175.242188 195.613281 178.410156 199.144531 C 178.609375 197.234375 178.742188 194.320312 178.117188 191.742188 C 178.117188 191.746094 189.25 203.894531 184.820312 215.429688 Z M 184.820312 215.429688 "/></g></svg>