<svg xmlns="http://www.w3.org/2000/svg" xmlns:xlink="http://www.w3.org/1999/xlink" width="500" zoomAndPan="magnify" viewBox="0 0 375 374.999991" height="500" preserveAspectRatio="xMidYMid meet" version="1.2"><defs><clipPath id="776047aa02"><path d="M 125.628906 187 L 249.378906 187 L 249.378906 265.1875 L 125.628906 265.1875 Z M 125.628906 187 "/></clipPath><clipPath id="d53f2df031"><path d="M 125.628906 198 L 249.378906 198 L 249.378906 220 L 125.628906 220 Z M 125.628906 198 "/></clipPath><clipPath id="94ff759cbe"><path d="M 125.628906 214 L 249.378906 214 L 249.378906 235 L 125.628906 235 Z M 125.628906 214 "/></clipPath><clipPath id="5ada97abdc"><path d="M 125.628906 229 L 249.378906 229 L 249.378906 251 L 125.628906 251 Z M 125.628906 229 "/></clipPath><clipPath id="86cf91c5e0"><path d="M 184 243 L 191 243 L 191 265.1875 L 184 265.1875 Z M 184 243 "/></clipPath><clipPath id="3a2e75e83c"><path d="M 152 141.4375 L 224 141.4375 L 224 207 L 152 207 Z M 152 141.4375 "/></clipPath></defs><g id="5182529bb6"><rect x="0" width="375" y="0" height="374.999991" style="fill:#ffffff;fill-opacity:1;stroke:none;"/><rect x="0" width="375" y="0" height="374.999991" style="fill:#ffffff;fill-opacity:1;stroke:none;"/><g clip-rule="nonzero" clip-path="url(#776047aa02)"><path style=" stroke:none;fill-rule:nonzero;fill:#8a310d;fill-opacity:1;" d="M 187.5 265.175781 C 166.101562 265.175781 125.628906 261.546875 125.628906 247.808594 L 125.628906 202.21875 C 125.628906 195.265625 135.621094 190.1875 155.328125 187.128906 C 157.117188 186.859375 158.769531 188.070312 159.046875 189.847656 C 159.320312 191.621094 158.105469 193.285156 156.328125 193.5625 C 136.445312 196.652344 132.144531 201.25 132.144531 202.21875 L 132.144531 247.808594 C 132.144531 251.054688 150.976562 258.664062 187.5 258.664062 C 224.023438 258.664062 242.855469 251.054688 242.855469 247.808594 L 242.855469 202.21875 C 242.855469 201.675781 241.042969 199.109375 232.160156 196.46875 C 230.433594 195.953125 229.453125 194.140625 229.964844 192.417969 C 230.480469 190.695312 232.296875 189.714844 234.015625 190.226562 C 244.347656 193.300781 249.367188 197.222656 249.367188 202.21875 L 249.367188 247.808594 C 249.367188 261.546875 208.898438 265.175781 187.5 265.175781 Z M 187.5 265.175781 "/></g><g clip-rule="nonzero" clip-path="url(#d53f2df031)"><path style=" stroke:none;fill-rule:nonzero;fill:#8a310d;fill-opacity:1;" d="M 187.5 219.585938 C 166.101562 219.585938 125.628906 215.957031 125.628906 202.21875 C 125.628906 200.421875 127.089844 198.964844 128.886719 198.964844 C 130.683594 198.964844 132.144531 200.421875 132.144531 202.21875 C 132.144531 205.464844 150.976562 213.074219 187.5 213.074219 C 224.023438 213.074219 242.855469 205.464844 242.855469 202.21875 C 242.855469 200.421875 244.316406 198.964844 246.113281 198.964844 C 247.910156 198.964844 249.367188 200.421875 249.367188 202.21875 C 249.367188 215.957031 208.898438 219.585938 187.5 219.585938 Z M 187.5 219.585938 "/></g><g clip-rule="nonzero" clip-path="url(#94ff759cbe)"><path style=" stroke:none;fill-rule:nonzero;fill:#8a310d;fill-opacity:1;" d="M 187.5 234.839844 C 166.101562 234.839844 125.628906 231.207031 125.628906 217.472656 C 125.628906 215.671875 127.089844 214.214844 128.886719 214.214844 C 130.683594 214.214844 132.144531 215.671875 132.144531 217.472656 C 132.144531 220.71875 150.976562 228.324219 187.5 228.324219 C 224.023438 228.324219 242.855469 220.71875 242.855469 217.472656 C 242.855469 215.671875 244.316406 214.214844 246.113281 214.214844 C 247.910156 214.214844 249.367188 215.671875 249.367188 217.472656 C 249.367188 231.207031 208.898438 234.839844 187.5 234.839844 Z M 187.5 234.839844 "/></g><g clip-rule="nonzero" clip-path="url(#5ada97abdc)"><path style=" stroke:none;fill-rule:nonzero;fill:#8a310d;fill-opacity:1;" d="M 187.5 250.089844 C 166.101562 250.089844 125.628906 246.457031 125.628906 232.722656 C 125.628906 230.921875 127.089844 229.464844 128.886719 229.464844 C 130.683594 229.464844 132.144531 230.921875 132.144531 232.722656 C 132.144531 235.96875 150.976562 243.574219 187.5 243.574219 C 224.023438 243.574219 242.855469 235.96875 242.855469 232.722656 C 242.855469 230.921875 244.316406 229.464844 246.113281 229.464844 C 247.910156 229.464844 249.367188 230.921875 249.367188 232.722656 C 249.367188 246.457031 208.898438 250.089844 187.5 250.089844 Z M 187.5 250.089844 "/></g><path style=" stroke:none;fill-rule:nonzero;fill:#8a310d;fill-opacity:1;" d="M 187.5 234.839844 C 185.703125 234.839844 184.242188 233.378906 184.242188 231.582031 L 184.242188 216.332031 C 184.242188 214.53125 185.703125 213.074219 187.5 213.074219 C 189.296875 213.074219 190.753906 214.53125 190.753906 216.332031 L 190.753906 231.582031 C 190.753906 233.378906 189.296875 234.839844 187.5 234.839844 Z M 187.5 234.839844 "/><path style=" stroke:none;fill-rule:nonzero;fill:#8a310d;fill-opacity:1;" d="M 153.660156 232.25 C 151.863281 232.25 150.402344 230.792969 150.402344 228.992188 L 150.402344 213.742188 C 150.402344 211.945312 151.863281 210.484375 153.660156 210.484375 C 155.457031 210.484375 156.917969 211.945312 156.917969 213.742188 L 156.917969 228.992188 C 156.917969 230.792969 155.457031 232.25 153.660156 232.25 Z M 153.660156 232.25 "/><path style=" stroke:none;fill-rule:nonzero;fill:#8a310d;fill-opacity:1;" d="M 221.339844 232.25 C 219.539062 232.25 218.082031 230.792969 218.082031 228.992188 L 218.082031 213.742188 C 218.082031 211.945312 219.539062 210.484375 221.339844 210.484375 C 223.136719 210.484375 224.59375 211.945312 224.59375 213.742188 L 224.59375 228.992188 C 224.59375 230.792969 223.136719 232.25 221.339844 232.25 Z M 221.339844 232.25 "/><g clip-rule="nonzero" clip-path="url(#86cf91c5e0)"><path style=" stroke:none;fill-rule:nonzero;fill:#8a310d;fill-opacity:1;" d="M 187.5 265.175781 C 185.703125 265.175781 184.242188 263.71875 184.242188 261.917969 L 184.242188 246.667969 C 184.242188 244.867188 185.703125 243.410156 187.5 243.410156 C 189.296875 243.410156 190.753906 244.867188 190.753906 246.667969 L 190.753906 261.917969 C 190.753906 263.71875 189.296875 265.175781 187.5 265.175781 Z M 187.5 265.175781 "/></g><path style=" stroke:none;fill-rule:nonzero;fill:#8a310d;fill-opacity:1;" d="M 153.660156 262.585938 C 151.863281 262.585938 150.402344 261.128906 150.402344 259.332031 L 150.402344 244.082031 C 150.402344 242.28125 151.863281 240.824219 153.660156 240.824219 C 155.457031 240.824219 156.917969 242.28125 156.917969 244.082031 L 156.917969 259.332031 C 156.917969 261.128906 155.457031 262.585938 153.660156 262.585938 Z M 153.660156 262.585938 "/><path style=" stroke:none;fill-rule:nonzero;fill:#8a310d;fill-opacity:1;" d="M 221.339844 262.585938 C 219.539062 262.585938 218.082031 261.128906 218.082031 259.332031 L 218.082031 244.082031 C 218.082031 242.28125 219.539062 240.824219 221.339844 240.824219 C 223.136719 240.824219 224.59375 242.28125 224.59375 244.082031 L 224.59375 259.332031 C 224.59375 261.128906 223.136719 262.585938 221.339844 262.585938 Z M 221.339844 262.585938 "/><path style=" stroke:none;fill-rule:nonzero;fill:#8a310d;fill-opacity:1;" d="M 168.765625 249.351562 C 166.96875 249.351562 165.511719 247.894531 165.511719 246.09375 L 165.511719 230.84375 C 165.511719 229.046875 166.96875 227.585938 168.765625 227.585938 C 170.566406 227.585938 172.023438 229.046875 172.023438 230.84375 L 172.023438 246.09375 C 172.023438 247.894531 170.566406 249.351562 168.765625 249.351562 Z M 168.765625 249.351562 "/><path style=" stroke:none;fill-rule:nonzero;fill:#8a310d;fill-opacity:1;" d="M 141.25 244.644531 C 139.453125 244.644531 137.992188 243.1875 137.992188 241.390625 L 137.992188 226.140625 C 137.992188 224.339844 139.453125 222.882812 141.25 222.882812 C 143.046875 222.882812 144.507812 224.339844 144.507812 226.140625 L 144.507812 241.390625 C 144.507812 243.1875 143.046875 244.644531 141.25 244.644531 Z M 141.25 244.644531 "/><path style=" stroke:none;fill-rule:nonzero;fill:#8a310d;fill-opacity:1;" d="M 206.230469 249.351562 C 204.433594 249.351562 202.976562 247.894531 202.976562 246.09375 L 202.976562 230.84375 C 202.976562 229.046875 204.433594 227.585938 206.230469 227.585938 C 208.027344 227.585938 209.488281 229.046875 209.488281 230.84375 L 209.488281 246.09375 C 209.488281 247.894531 208.027344 249.351562 206.230469 249.351562 Z M 206.230469 249.351562 "/><path style=" stroke:none;fill-rule:nonzero;fill:#8a310d;fill-opacity:1;" d="M 233.75 244.644531 C 231.949219 244.644531 230.492188 243.1875 230.492188 241.390625 L 230.492188 226.140625 C 230.492188 224.339844 231.949219 222.882812 233.75 222.882812 C 235.546875 222.882812 237.003906 224.339844 237.003906 226.140625 L 237.003906 241.390625 C 237.003906 243.1875 235.546875 244.644531 233.75 244.644531 Z M 233.75 244.644531 "/><path style=" stroke:none;fill-rule:nonzero;fill:#ff914d;fill-opacity:1;" d="M 193.765625 186.3125 C 191.285156 193.703125 185.539062 195.671875 183.46875 196.148438 C 180.851562 196.746094 178.234375 196.542969 176.039062 195.6875 C 175.351562 201.804688 177.777344 206.875 177.808594 206.9375 C 177.878906 207.082031 177.925781 207.234375 177.976562 207.382812 C 181.179688 207.550781 184.390625 207.667969 187.613281 207.667969 C 190.90625 207.667969 194.210938 207.546875 197.519531 207.371094 C 198.6875 197.382812 196.25 190.480469 193.765625 186.3125 Z M 193.765625 186.3125 "/><g clip-rule="nonzero" clip-path="url(#3a2e75e83c)"><path style=" stroke:none;fill-rule:nonzero;fill:#ff914d;fill-opacity:1;" d="M 216.957031 165.96875 C 216.230469 165.125 215.117188 164.707031 214.027344 164.867188 C 212.929688 165.023438 211.984375 165.730469 211.523438 166.742188 C 210.777344 168.378906 209.75 169.597656 208.464844 170.355469 C 207.941406 170.667969 207.464844 170.5 207.226562 170.367188 C 206.984375 170.238281 206.578125 169.921875 206.550781 169.285156 C 205.679688 147.257812 187.769531 141.4375 178.425781 141.4375 C 177.199219 141.4375 176.082031 142.128906 175.527344 143.21875 C 174.96875 144.308594 175.078125 145.625 175.796875 146.617188 C 176.125 147.070312 183.820312 157.882812 177.5 168.605469 C 175.960938 171.222656 174.359375 172.59375 172.746094 172.679688 C 169.953125 172.824219 166.855469 169.5 165.980469 168.328125 C 164.929688 166.902344 162.925781 166.578125 161.480469 167.601562 C 147.714844 177.335938 152.347656 195.5 156.71875 203.746094 C 157.195312 204.648438 158.074219 205.277344 159.085938 205.4375 C 162.972656 206.050781 166.890625 206.507812 170.820312 206.871094 C 169.605469 203.074219 168.230469 196.128906 171.070312 188.835938 C 171.535156 187.636719 172.667969 186.820312 173.953125 186.765625 C 175.300781 186.714844 176.445312 187.414062 177.019531 188.566406 C 177.464844 189.457031 179.578125 190.359375 182.007812 189.800781 C 186.015625 188.878906 188.355469 184.824219 188.417969 178.675781 C 188.429688 177.4375 189.140625 176.316406 190.253906 175.777344 C 191.367188 175.238281 192.691406 175.378906 193.667969 176.136719 C 194.199219 176.546875 206.066406 186.078125 204.121094 206.914062 C 208.265625 206.546875 212.417969 206.074219 216.574219 205.4375 C 217.671875 205.269531 218.609375 204.554688 219.058594 203.535156 C 229.1875 180.613281 217.460938 166.554688 216.957031 165.96875 Z M 216.957031 165.96875 "/></g></g></svg>