<svg xmlns="http://www.w3.org/2000/svg" xmlns:xlink="http://www.w3.org/1999/xlink" width="500" zoomAndPan="magnify" viewBox="0 0 375 374.999991" height="500" preserveAspectRatio="xMidYMid meet" version="1.2"><defs><clipPath id="4746185b21"><path d="M 123.683594 138.222656 L 251.070312 138.222656 L 251.070312 257.472656 L 123.683594 257.472656 Z M 123.683594 138.222656 "/></clipPath></defs><g id="98e44c0d65"><rect x="0" width="375" y="0" height="374.999991" style="fill:#ffffff;fill-opacity:1;stroke:none;"/><rect x="0" width="375" y="0" height="374.999991" style="fill:#ffffff;fill-opacity:1;stroke:none;"/><g clip-rule="nonzero" clip-path="url(#4746185b21)"><path style=" stroke:none;fill-rule:nonzero;fill:#8a310d;fill-opacity:1;" d="M 223.746094 170.117188 C 223.714844 170.039062 223.628906 169.765625 223.835938 169.535156 L 225.960938 167.203125 L 226.660156 166.433594 C 226.730469 166.351562 226.824219 166.308594 226.914062 166.308594 L 230.421875 166.308594 C 230.566406 166.308594 230.679688 166.390625 230.753906 166.550781 C 230.792969 166.628906 230.890625 166.894531 230.691406 167.140625 L 230.628906 167.214844 L 228.144531 170.238281 L 227.972656 170.449219 C 227.898438 170.542969 227.792969 170.597656 227.6875 170.589844 L 224.074219 170.382812 C 223.957031 170.375 223.871094 170.3125 223.816406 170.238281 C 223.785156 170.199219 223.761719 170.15625 223.746094 170.117188 Z M 248.03125 240.394531 C 248.03125 248.136719 241.855469 254.4375 234.261719 254.4375 L 233.679688 254.4375 C 237.75 251.433594 240.425781 246.523438 240.425781 241.214844 L 240.425781 188.804688 C 240.425781 180.410156 233.667969 174.082031 224.710938 174.082031 L 139.386719 174.082031 C 137.785156 174.082031 136.253906 174.285156 134.816406 174.667969 C 134.828125 174.574219 134.839844 174.484375 134.851562 174.394531 C 136.992188 171.984375 140.199219 170.441406 143.9375 170.257812 C 143.949219 170.6875 144.039062 171.121094 144.207031 171.539062 C 144.71875 172.789062 145.855469 173.613281 147.175781 173.6875 L 150.789062 173.894531 C 150.851562 173.898438 150.914062 173.898438 150.976562 173.898438 C 151.980469 173.898438 152.945312 173.441406 153.597656 172.648438 L 155.574219 170.238281 L 159.214844 170.238281 L 159.214844 171.007812 L 174.453125 171.007812 L 174.453125 170.238281 L 204.3125 170.238281 L 204.3125 171.007812 L 219.554688 171.007812 L 219.554688 170.238281 L 220.679688 170.238281 C 220.714844 170.585938 220.800781 170.929688 220.933594 171.265625 C 221.445312 172.515625 222.582031 173.339844 223.902344 173.417969 L 227.515625 173.621094 C 227.578125 173.625 227.640625 173.628906 227.703125 173.628906 C 228.703125 173.628906 229.671875 173.167969 230.324219 172.378906 L 231.972656 170.367188 C 238.199219 171.1875 242.683594 175.882812 242.683594 181.925781 L 242.683594 237.628906 L 245.722656 237.628906 L 245.722656 181.925781 C 245.722656 174.753906 240.789062 169.089844 233.765625 167.59375 C 233.941406 166.824219 233.859375 166.007812 233.5 165.253906 C 232.925781 164.03125 231.742188 163.273438 230.421875 163.273438 L 226.914062 163.273438 C 225.96875 163.273438 225.058594 163.679688 224.414062 164.390625 L 221.851562 167.203125 L 219.554688 167.203125 L 219.554688 163.171875 L 234.261719 163.171875 C 242.113281 163.171875 248.03125 168.742188 248.03125 176.136719 Z M 139.304688 254.4375 C 139.179688 254.4375 139.058594 254.4375 138.9375 254.429688 C 132.128906 254.214844 126.722656 248.074219 126.722656 241.214844 L 126.722656 188.804688 C 126.722656 186.191406 127.558594 183.828125 129.015625 181.925781 C 129.757812 180.949219 130.664062 180.09375 131.703125 179.386719 C 131.929688 179.230469 132.160156 179.085938 132.402344 178.945312 C 133.128906 178.519531 133.910156 178.15625 134.738281 177.875 C 136.164062 177.382812 137.730469 177.121094 139.386719 177.121094 L 224.710938 177.121094 C 231.9375 177.121094 237.386719 182.140625 237.386719 188.804688 L 237.386719 241.214844 C 237.386719 248.199219 231.621094 254.4375 224.632812 254.4375 Z M 153.964844 167.414062 L 151.644531 170.238281 L 151.25 170.722656 C 151.171875 170.816406 151.066406 170.867188 150.960938 170.863281 L 147.347656 170.65625 C 147.164062 170.644531 147.070312 170.503906 147.019531 170.386719 C 147.011719 170.359375 146.992188 170.308594 146.984375 170.238281 C 146.964844 170.121094 146.976562 169.957031 147.113281 169.808594 L 149.480469 167.203125 L 149.933594 166.703125 C 150.007812 166.625 150.097656 166.582031 150.1875 166.582031 L 153.695312 166.582031 C 153.839844 166.582031 153.953125 166.664062 154.027344 166.824219 C 154.054688 166.875 154.113281 167.03125 154.070312 167.203125 C 154.054688 167.273438 154.023438 167.34375 153.964844 167.414062 Z M 148.496094 163.171875 L 159.214844 163.171875 L 159.214844 167.203125 L 157.125 167.203125 C 157.144531 166.636719 157.03125 166.0625 156.773438 165.523438 C 156.199219 164.304688 155.015625 163.542969 153.695312 163.542969 L 150.1875 163.542969 C 149.246094 163.542969 148.332031 163.949219 147.6875 164.660156 L 145.375 167.203125 L 144.683594 167.203125 C 141.789062 167.203125 139.125 167.863281 136.847656 169.042969 C 139.242188 165.457031 143.472656 163.171875 148.496094 163.171875 Z M 204.3125 163.171875 L 204.3125 167.203125 L 174.453125 167.203125 L 174.453125 163.171875 Z M 173.027344 159.671875 L 173.027344 155.183594 C 173.027344 152.226562 175.71875 149.53125 178.671875 149.53125 L 200.566406 149.53125 C 203.523438 149.53125 206.214844 152.226562 206.214844 155.183594 L 206.214844 159.671875 L 204.3125 159.671875 L 204.3125 160.132812 L 174.453125 160.132812 L 174.453125 159.671875 Z M 164.757812 155.183594 C 164.757812 147.507812 171 141.261719 178.671875 141.261719 L 200.566406 141.261719 C 208.246094 141.261719 214.492188 147.507812 214.492188 155.183594 L 214.492188 162.710938 L 216.515625 162.710938 L 216.515625 167.96875 L 207.351562 167.96875 L 207.351562 162.710938 L 209.253906 162.710938 L 209.253906 155.183594 C 209.253906 150.554688 205.191406 146.496094 200.566406 146.496094 L 178.671875 146.496094 C 174.046875 146.496094 169.992188 150.554688 169.992188 155.183594 L 169.992188 162.710938 L 171.414062 162.710938 L 171.414062 167.96875 L 162.25 167.96875 L 162.25 162.710938 L 164.757812 162.710938 Z M 234.261719 160.132812 L 219.554688 160.132812 L 219.554688 159.671875 L 217.53125 159.671875 L 217.53125 155.183594 C 217.53125 145.832031 209.917969 138.222656 200.566406 138.222656 L 178.671875 138.222656 C 169.324219 138.222656 161.71875 145.832031 161.71875 155.183594 L 161.71875 159.671875 L 159.214844 159.671875 L 159.214844 160.132812 L 148.496094 160.132812 C 140.039062 160.132812 133.417969 165.5 131.992188 173.039062 C 131.074219 174.210938 130.339844 175.53125 129.832031 176.960938 C 126.046875 179.597656 123.683594 183.839844 123.683594 188.804688 L 123.683594 241.214844 C 123.683594 249.875 130.648438 257.476562 139.304688 257.476562 L 234.261719 257.476562 C 243.527344 257.476562 251.070312 249.8125 251.070312 240.394531 L 251.070312 176.136719 C 251.070312 167.011719 243.84375 160.132812 234.261719 160.132812 "/></g><path style=" stroke:none;fill-rule:nonzero;fill:#8a310d;fill-opacity:1;" d="M 203.328125 207.519531 L 203.328125 219.46875 L 188.128906 219.46875 L 188.128906 234.675781 L 175.96875 234.675781 L 175.96875 219.488281 L 160.757812 219.28125 L 160.757812 207.519531 L 175.964844 207.519531 L 175.964844 192.324219 L 188.125 192.324219 L 188.125 207.519531 Z M 191.164062 189.285156 L 172.925781 189.285156 L 172.925781 204.480469 L 157.722656 204.480469 L 157.722656 222.277344 L 172.933594 222.484375 L 172.933594 237.714844 L 191.167969 237.714844 L 191.167969 222.507812 L 206.367188 222.507812 L 206.367188 204.480469 L 191.164062 204.480469 L 191.164062 189.285156 "/></g></svg>