<svg xmlns="http://www.w3.org/2000/svg" xmlns:xlink="http://www.w3.org/1999/xlink" width="500" zoomAndPan="magnify" viewBox="0 0 375 374.999991" height="500" preserveAspectRatio="xMidYMid meet" version="1.2"><defs><clipPath id="c591d0327d"><path d="M 124.351562 124.351562 L 250.351562 124.351562 L 250.351562 250.351562 L 124.351562 250.351562 Z M 124.351562 124.351562 "/></clipPath></defs><g id="1fcaa40764"><rect x="0" width="375" y="0" height="374.999991" style="fill:#ffffff;fill-opacity:1;stroke:none;"/><rect x="0" width="375" y="0" height="374.999991" style="fill:#ffffff;fill-opacity:1;stroke:none;"/><path style=" stroke:none;fill-rule:nonzero;fill:#8a310d;fill-opacity:1;" d="M 205.144531 212.253906 L 150.585938 212.253906 C 149.917969 212.253906 149.402344 211.714844 149.402344 211.074219 L 149.402344 195.816406 C 149.402344 193.109375 151.59375 190.917969 154.300781 190.917969 L 201.425781 190.917969 C 204.132812 190.917969 206.324219 193.109375 206.324219 195.816406 L 206.324219 211.074219 C 206.324219 211.714844 205.78125 212.253906 205.144531 212.253906 Z M 151.765625 209.894531 L 203.9375 209.894531 L 203.9375 195.816406 C 203.9375 194.4375 202.804688 193.304688 201.425781 193.304688 L 154.300781 193.304688 C 152.921875 193.304688 151.789062 194.4375 151.789062 195.816406 L 151.789062 209.894531 Z M 151.765625 209.894531 "/><path style=" stroke:none;fill-rule:nonzero;fill:#8a310d;fill-opacity:1;" d="M 161.3125 218.1875 L 156.367188 218.1875 C 154.496094 218.1875 152.945312 216.660156 152.945312 214.765625 L 152.945312 211.050781 C 152.945312 210.386719 153.488281 209.867188 154.128906 209.867188 L 163.527344 209.867188 C 164.191406 209.867188 164.710938 210.410156 164.710938 211.050781 L 164.710938 214.765625 C 164.734375 216.660156 163.183594 218.1875 161.3125 218.1875 Z M 155.332031 212.253906 L 155.332031 214.765625 C 155.332031 215.332031 155.800781 215.800781 156.367188 215.800781 L 161.3125 215.800781 C 161.878906 215.800781 162.347656 215.332031 162.347656 214.765625 L 162.347656 212.253906 Z M 155.332031 212.253906 "/><path style=" stroke:none;fill-rule:nonzero;fill:#8a310d;fill-opacity:1;" d="M 199.261719 218.1875 L 194.316406 218.1875 C 192.445312 218.1875 190.894531 216.660156 190.894531 214.765625 L 190.894531 211.050781 C 190.894531 210.386719 191.4375 209.867188 192.074219 209.867188 L 201.476562 209.867188 C 202.140625 209.867188 202.65625 210.410156 202.65625 211.050781 L 202.65625 214.765625 C 202.683594 216.660156 201.132812 218.1875 199.261719 218.1875 Z M 193.28125 212.253906 L 193.28125 214.765625 C 193.28125 215.332031 193.75 215.800781 194.316406 215.800781 L 199.261719 215.800781 C 199.828125 215.800781 200.296875 215.332031 200.296875 214.765625 L 200.296875 212.253906 Z M 193.28125 212.253906 "/><path style=" stroke:none;fill-rule:nonzero;fill:#8a310d;fill-opacity:1;" d="M 202.335938 193.378906 C 201.871094 193.378906 201.425781 193.109375 201.230469 192.640625 L 195.445312 178.320312 C 195.445312 178.292969 195.421875 178.269531 195.421875 178.246094 C 194.882812 176.597656 193.355469 175.488281 191.609375 175.488281 L 164.121094 175.488281 C 162.371094 175.488281 160.847656 176.597656 160.304688 178.246094 C 160.304688 178.269531 160.28125 178.292969 160.28125 178.320312 L 154.496094 192.640625 C 154.25 193.257812 153.5625 193.550781 152.945312 193.304688 C 152.332031 193.058594 152.035156 192.371094 152.28125 191.753906 L 158.039062 177.480469 C 158.902344 174.875 161.339844 173.125 164.09375 173.125 L 191.609375 173.125 C 194.363281 173.125 196.800781 174.875 197.660156 177.480469 L 203.421875 191.753906 C 203.667969 192.371094 203.371094 193.058594 202.757812 193.304688 C 202.632812 193.355469 202.484375 193.378906 202.335938 193.378906 Z M 202.335938 193.378906 "/><path style=" stroke:none;fill-rule:nonzero;fill:#8a310d;fill-opacity:1;" d="M 158.1875 193.28125 C 158.039062 193.28125 157.894531 193.257812 157.746094 193.183594 C 157.128906 192.9375 156.835938 192.246094 157.082031 191.632812 L 161.265625 181.246094 C 161.953125 179.203125 163.847656 177.851562 165.988281 177.851562 L 189.714844 177.851562 C 191.878906 177.851562 193.773438 179.230469 194.4375 181.246094 L 198.621094 191.632812 C 198.867188 192.246094 198.574219 192.9375 197.957031 193.183594 C 197.34375 193.429688 196.652344 193.132812 196.40625 192.519531 L 192.199219 182.109375 C 192.199219 182.085938 192.175781 182.058594 192.175781 182.035156 C 191.828125 180.953125 190.820312 180.214844 189.6875 180.214844 L 165.964844 180.214844 C 164.832031 180.214844 163.824219 180.953125 163.480469 182.035156 C 163.480469 182.058594 163.453125 182.085938 163.453125 182.109375 L 159.246094 192.519531 C 159.097656 193.011719 158.65625 193.28125 158.1875 193.28125 Z M 158.1875 193.28125 "/><path style=" stroke:none;fill-rule:nonzero;fill:#8a310d;fill-opacity:1;" d="M 211.074219 175.488281 C 210.410156 175.488281 209.894531 174.949219 209.894531 174.308594 L 209.894531 162.445312 C 209.894531 161.78125 210.433594 161.265625 211.074219 161.265625 L 215.234375 161.265625 C 217.523438 161.265625 219.390625 163.136719 219.390625 165.421875 C 219.390625 167.710938 217.523438 169.582031 215.234375 169.582031 L 212.28125 169.582031 L 212.28125 174.308594 C 212.253906 174.972656 211.714844 175.488281 211.074219 175.488281 Z M 212.253906 167.195312 L 215.207031 167.195312 C 216.191406 167.195312 216.980469 166.40625 216.980469 165.421875 C 216.980469 164.4375 216.191406 163.652344 215.207031 163.652344 L 212.253906 163.652344 Z M 212.253906 167.195312 "/><path style=" stroke:none;fill-rule:nonzero;fill:#8a310d;fill-opacity:1;" d="M 213.4375 213.4375 C 212.773438 213.4375 212.253906 212.894531 212.253906 212.253906 L 212.253906 179.058594 C 212.253906 178.394531 212.796875 177.875 213.4375 177.875 C 214.078125 177.875 214.617188 178.417969 214.617188 179.058594 L 214.617188 212.253906 C 214.617188 212.917969 214.101562 213.4375 213.4375 213.4375 Z M 213.4375 213.4375 "/><path style=" stroke:none;fill-rule:nonzero;fill:#8a310d;fill-opacity:1;" d="M 218.1875 218.1875 L 208.6875 218.1875 C 208.023438 218.1875 207.503906 217.644531 207.503906 217.003906 L 207.503906 212.253906 C 207.503906 211.589844 208.046875 211.074219 208.6875 211.074219 L 218.1875 211.074219 C 218.851562 211.074219 219.367188 211.617188 219.367188 212.253906 L 219.367188 217.003906 C 219.367188 217.644531 218.851562 218.1875 218.1875 218.1875 Z M 209.894531 215.824219 L 217.003906 215.824219 L 217.003906 213.4375 L 209.894531 213.4375 Z M 209.894531 215.824219 "/><path style=" stroke:none;fill-rule:nonzero;fill:#8a310d;fill-opacity:1;" d="M 213.4375 180.238281 C 206.890625 180.238281 201.574219 174.921875 201.574219 168.375 C 201.574219 161.832031 206.890625 156.515625 213.4375 156.515625 C 219.984375 156.515625 225.296875 161.832031 225.296875 168.375 C 225.296875 174.921875 219.984375 180.238281 213.4375 180.238281 Z M 213.4375 158.878906 C 208.195312 158.878906 203.9375 163.136719 203.9375 168.375 C 203.9375 173.617188 208.195312 177.875 213.4375 177.875 C 218.679688 177.875 222.9375 173.617188 222.9375 168.375 C 222.9375 163.136719 218.679688 158.878906 213.4375 158.878906 Z M 213.4375 158.878906 "/><path style=" stroke:none;fill-rule:nonzero;fill:#8a310d;fill-opacity:1;" d="M 161.265625 202.757812 L 156.515625 202.757812 C 155.851562 202.757812 155.332031 202.214844 155.332031 201.574219 L 155.332031 196.824219 C 155.332031 196.160156 155.875 195.644531 156.515625 195.644531 L 161.265625 195.644531 C 161.929688 195.644531 162.445312 196.183594 162.445312 196.824219 L 162.445312 201.574219 C 162.445312 202.238281 161.90625 202.757812 161.265625 202.757812 Z M 157.695312 200.394531 L 160.058594 200.394531 L 160.058594 198.03125 L 157.695312 198.03125 Z M 157.695312 200.394531 "/><path style=" stroke:none;fill-rule:nonzero;fill:#8a310d;fill-opacity:1;" d="M 199.210938 202.757812 L 194.460938 202.757812 C 193.796875 202.757812 193.28125 202.214844 193.28125 201.574219 L 193.28125 196.824219 C 193.28125 196.160156 193.824219 195.644531 194.460938 195.644531 L 199.210938 195.644531 C 199.875 195.644531 200.394531 196.183594 200.394531 196.824219 L 200.394531 201.574219 C 200.394531 202.238281 199.851562 202.757812 199.210938 202.757812 Z M 195.644531 200.394531 L 198.007812 200.394531 L 198.007812 198.03125 L 195.644531 198.03125 Z M 195.644531 200.394531 "/><path style=" stroke:none;fill-rule:nonzero;fill:#8a310d;fill-opacity:1;" d="M 187.351562 212.253906 L 168.375 212.253906 C 167.710938 212.253906 167.195312 211.714844 167.195312 211.074219 L 167.195312 206.324219 C 167.195312 205.660156 167.738281 205.144531 168.375 205.144531 L 187.351562 205.144531 C 188.015625 205.144531 188.53125 205.683594 188.53125 206.324219 L 188.53125 211.074219 C 188.53125 211.714844 188.015625 212.253906 187.351562 212.253906 Z M 169.558594 209.894531 L 186.167969 209.894531 L 186.167969 207.53125 L 169.558594 207.53125 Z M 169.558594 209.894531 "/><path style=" stroke:none;fill-rule:nonzero;fill:#8a310d;fill-opacity:1;" d="M 189.714844 198.03125 L 165.988281 198.03125 C 165.324219 198.03125 164.808594 197.488281 164.808594 196.851562 C 164.808594 196.210938 165.351562 195.667969 165.988281 195.667969 L 189.714844 195.667969 C 190.378906 195.667969 190.894531 196.210938 190.894531 196.851562 C 190.894531 197.488281 190.378906 198.03125 189.714844 198.03125 Z M 189.714844 198.03125 "/><path style=" stroke:none;fill-rule:nonzero;fill:#8a310d;fill-opacity:1;" d="M 189.714844 202.757812 L 165.988281 202.757812 C 165.324219 202.757812 164.808594 202.214844 164.808594 201.574219 C 164.808594 200.910156 165.351562 200.394531 165.988281 200.394531 L 189.714844 200.394531 C 190.378906 200.394531 190.894531 200.933594 190.894531 201.574219 C 190.917969 202.238281 190.378906 202.757812 189.714844 202.757812 Z M 189.714844 202.757812 "/><g clip-rule="nonzero" clip-path="url(#c591d0327d)"><path style=" stroke:none;fill-rule:nonzero;fill:#8a310d;fill-opacity:1;" d="M 245.402344 162.839844 C 242.230469 155.332031 237.703125 148.589844 231.894531 142.808594 C 226.109375 137.023438 219.367188 132.472656 211.863281 129.296875 C 204.109375 126 195.867188 124.351562 187.351562 124.351562 C 178.835938 124.351562 170.589844 126 162.839844 129.296875 C 155.332031 132.472656 148.589844 137 142.808594 142.808594 C 137.023438 148.589844 132.496094 155.332031 129.296875 162.839844 C 126 170.589844 124.351562 178.835938 124.351562 187.351562 C 124.351562 195.867188 126 204.109375 129.296875 211.863281 C 132.472656 219.367188 137 226.109375 142.808594 231.894531 C 148.589844 237.675781 155.332031 242.203125 162.839844 245.402344 C 170.617188 248.703125 178.859375 250.351562 187.351562 250.351562 C 195.839844 250.351562 204.109375 248.703125 211.863281 245.402344 C 219.367188 242.230469 226.109375 237.675781 231.894531 231.894531 C 237.675781 226.109375 242.203125 219.367188 245.402344 211.863281 C 248.703125 204.085938 250.351562 195.839844 250.351562 187.351562 C 250.351562 178.859375 248.703125 170.589844 245.402344 162.839844 Z M 247.964844 187.351562 C 247.964844 220.769531 220.769531 247.964844 187.351562 247.964844 C 153.929688 247.964844 126.738281 220.769531 126.738281 187.351562 C 126.738281 153.929688 153.929688 126.738281 187.351562 126.738281 C 220.769531 126.738281 247.964844 153.929688 247.964844 187.351562 Z M 247.964844 187.351562 "/></g></g></svg>