<svg xmlns="http://www.w3.org/2000/svg" xmlns:xlink="http://www.w3.org/1999/xlink" width="500" zoomAndPan="magnify" viewBox="0 0 375 374.999991" height="500" preserveAspectRatio="xMidYMid meet" version="1.2"><defs><clipPath id="a7e0acccc1"><path d="M 149.4375 129.261719 L 225.1875 129.261719 L 225.1875 265.761719 L 149.4375 265.761719 Z M 149.4375 129.261719 "/></clipPath><clipPath id="f379b4d790"><path d="M 149.4375 175 L 225.1875 175 L 225.1875 178 L 149.4375 178 Z M 149.4375 175 "/></clipPath><clipPath id="589ded4d89"><path d="M 149.4375 257 L 225.1875 257 L 225.1875 260 L 149.4375 260 Z M 149.4375 257 "/></clipPath></defs><g id="717a70c23d"><rect x="0" width="375" y="0" height="374.999991" style="fill:#ffffff;fill-opacity:1;stroke:none;"/><rect x="0" width="375" y="0" height="374.999991" style="fill:#ffffff;fill-opacity:1;stroke:none;"/><g clip-rule="nonzero" clip-path="url(#a7e0acccc1)"><path style=" stroke:none;fill-rule:nonzero;fill:#8a310d;fill-opacity:1;" d="M 156.125 131.378906 C 153.605469 131.378906 151.550781 133.429688 151.550781 135.953125 L 151.550781 258.472656 C 151.550781 260.992188 153.605469 263.046875 156.125 263.046875 L 218.519531 263.046875 C 221.042969 263.046875 223.09375 260.992188 223.09375 258.472656 L 223.09375 135.953125 C 223.09375 133.429688 221.042969 131.378906 218.519531 131.378906 Z M 218.519531 265.148438 L 156.125 265.148438 C 152.445312 265.148438 149.449219 262.152344 149.449219 258.472656 L 149.449219 135.953125 C 149.449219 132.273438 152.445312 129.277344 156.125 129.277344 L 218.519531 129.277344 C 222.203125 129.277344 225.199219 132.273438 225.199219 135.953125 L 225.199219 258.472656 C 225.199219 262.152344 222.203125 265.148438 218.519531 265.148438 "/></g><g clip-rule="nonzero" clip-path="url(#f379b4d790)"><path style=" stroke:none;fill-rule:nonzero;fill:#8a310d;fill-opacity:1;" d="M 224.144531 177.800781 L 150.5 177.800781 C 149.917969 177.800781 149.449219 177.332031 149.449219 176.75 C 149.449219 176.167969 149.917969 175.699219 150.5 175.699219 L 224.144531 175.699219 C 224.726562 175.699219 225.199219 176.167969 225.199219 176.75 C 225.199219 177.332031 224.726562 177.800781 224.144531 177.800781 "/></g><path style=" stroke:none;fill-rule:nonzero;fill:#8a310d;fill-opacity:1;" d="M 157.9375 154.128906 C 157.066406 154.128906 156.359375 154.839844 156.359375 155.707031 L 156.359375 170.175781 C 156.359375 171.042969 157.066406 171.753906 157.9375 171.753906 C 158.808594 171.753906 159.515625 171.042969 159.515625 170.175781 L 159.515625 155.707031 C 159.515625 154.839844 158.808594 154.128906 157.9375 154.128906 Z M 157.9375 173.855469 C 155.90625 173.855469 154.257812 172.203125 154.257812 170.175781 L 154.257812 155.707031 C 154.257812 153.679688 155.90625 152.027344 157.9375 152.027344 C 159.96875 152.027344 161.621094 153.679688 161.621094 155.707031 L 161.621094 170.175781 C 161.621094 172.203125 159.96875 173.855469 157.9375 173.855469 "/><path style=" stroke:none;fill-rule:nonzero;fill:#8a310d;fill-opacity:1;" d="M 157.9375 181.46875 C 157.066406 181.46875 156.359375 182.175781 156.359375 183.046875 L 156.359375 205.226562 C 156.359375 206.097656 157.066406 206.804688 157.9375 206.804688 C 158.808594 206.804688 159.515625 206.097656 159.515625 205.226562 L 159.515625 183.046875 C 159.515625 182.175781 158.808594 181.46875 157.9375 181.46875 Z M 157.9375 208.910156 C 155.90625 208.910156 154.257812 207.257812 154.257812 205.226562 L 154.257812 183.046875 C 154.257812 181.015625 155.90625 179.363281 157.9375 179.363281 C 159.96875 179.363281 161.621094 181.015625 161.621094 183.046875 L 161.621094 205.226562 C 161.621094 207.257812 159.96875 208.910156 157.9375 208.910156 "/><g clip-rule="nonzero" clip-path="url(#589ded4d89)"><path style=" stroke:none;fill-rule:nonzero;fill:#8a310d;fill-opacity:1;" d="M 224.144531 259.339844 L 150.5 259.339844 C 149.917969 259.339844 149.449219 258.867188 149.449219 258.285156 C 149.449219 257.703125 149.917969 257.234375 150.5 257.234375 L 224.144531 257.234375 C 224.726562 257.234375 225.199219 257.703125 225.199219 258.285156 C 225.199219 258.867188 224.726562 259.339844 224.144531 259.339844 "/></g></g></svg>