<svg xmlns="http://www.w3.org/2000/svg" xmlns:xlink="http://www.w3.org/1999/xlink" width="500" zoomAndPan="magnify" viewBox="0 0 375 374.999991" height="500" preserveAspectRatio="xMidYMid meet" version="1.2"><defs><clipPath id="1bc9440b1d"><path d="M 142 181 L 233 181 L 233 241.710938 L 142 241.710938 Z M 142 181 "/></clipPath><clipPath id="722a89e0f4"><path d="M 165 132.960938 L 211 132.960938 L 211 179 L 165 179 Z M 165 132.960938 "/></clipPath><clipPath id="0591c92903"><path d="M 142 181 L 233 181 L 233 241.710938 L 142 241.710938 Z M 142 181 "/></clipPath><clipPath id="18b39628e6"><path d="M 205 182 L 261.171875 182 L 261.171875 227 L 205 227 Z M 205 182 "/></clipPath><clipPath id="fc13790edc"><path d="M 114.171875 182 L 170 182 L 170 227 L 114.171875 227 Z M 114.171875 182 "/></clipPath></defs><g id="8b0451adf0"><rect x="0" width="375" y="0" height="374.999991" style="fill:#ffffff;fill-opacity:1;stroke:none;"/><rect x="0" width="375" y="0" height="374.999991" style="fill:#ffffff;fill-opacity:1;stroke:none;"/><g clip-rule="nonzero" clip-path="url(#1bc9440b1d)"><path style=" stroke:none;fill-rule:nonzero;fill:#8a310d;fill-opacity:1;" d="M 226.851562 226.867188 C 216.382812 232.644531 202.714844 235.816406 188.140625 235.816406 C 173.597656 235.816406 159.542969 232.515625 149.144531 226.707031 C 148.921875 226.582031 148.703125 226.460938 148.488281 226.335938 C 148.488281 226.285156 148.488281 226.234375 148.488281 226.1875 C 148.488281 224.445312 148.601562 222.730469 148.828125 221.046875 C 150.269531 210.1875 156.226562 200.726562 164.753906 194.589844 C 166.351562 193.4375 168.039062 192.402344 169.808594 191.5 C 175.167969 188.757812 181.242188 187.210938 187.671875 187.210938 C 194.101562 187.210938 200.175781 188.757812 205.535156 191.5 C 207.304688 192.402344 208.992188 193.4375 210.59375 194.589844 C 219.113281 200.722656 225.066406 210.175781 226.515625 221.027344 C 226.738281 222.714844 226.855469 224.4375 226.855469 226.1875 C 226.855469 226.359375 226.855469 226.53125 226.851562 226.707031 C 226.851562 226.757812 226.851562 226.8125 226.851562 226.867188 Z M 232.484375 220.957031 C 231.324219 210.949219 226.839844 201.6875 219.570312 194.457031 C 218.355469 193.25 217.085938 192.121094 215.765625 191.070312 C 214.113281 189.757812 212.378906 188.566406 210.578125 187.507812 C 203.710938 183.46875 195.859375 181.3125 187.671875 181.3125 C 179.484375 181.3125 171.632812 183.46875 164.765625 187.507812 C 162.964844 188.566406 161.230469 189.757812 159.578125 191.070312 C 158.257812 192.121094 156.988281 193.25 155.773438 194.457031 C 148.515625 201.675781 144.035156 210.921875 142.867188 220.914062 C 142.664062 222.648438 142.558594 224.410156 142.558594 226.1875 C 142.558594 226.316406 142.558594 226.445312 142.5625 226.574219 C 142.566406 227.089844 142.578125 227.617188 142.601562 228.148438 L 142.667969 229.703125 L 143.996094 230.527344 C 149.667969 234.042969 156.339844 236.800781 163.820312 238.730469 C 171.507812 240.707031 179.6875 241.710938 188.140625 241.710938 C 204.414062 241.710938 219.730469 237.960938 231.265625 231.144531 L 232.617188 230.34375 L 232.707031 228.78125 C 232.75 228.066406 232.773438 227.339844 232.78125 226.617188 C 232.785156 226.472656 232.785156 226.328125 232.785156 226.1875 C 232.785156 224.425781 232.683594 222.679688 232.484375 220.957031 "/></g><g clip-rule="nonzero" clip-path="url(#722a89e0f4)"><path style=" stroke:none;fill-rule:nonzero;fill:#8a310d;fill-opacity:1;" d="M 202.15625 163.804688 C 199.171875 168.9375 193.621094 172.121094 187.671875 172.121094 C 181.78125 172.121094 176.261719 168.984375 173.265625 163.933594 C 171.75 161.386719 170.949219 158.46875 170.949219 155.492188 C 170.949219 146.320312 178.449219 138.859375 187.671875 138.859375 C 196.890625 138.859375 204.390625 146.320312 204.390625 155.492188 C 204.390625 158.414062 203.617188 161.289062 202.15625 163.804688 Z M 187.671875 132.960938 C 175.183594 132.960938 165.023438 143.070312 165.023438 155.492188 C 165.023438 159.519531 166.109375 163.476562 168.160156 166.929688 C 170.128906 170.246094 172.933594 173.023438 176.273438 174.960938 C 179.722656 176.960938 183.660156 178.019531 187.671875 178.019531 C 195.730469 178.019531 203.25 173.703125 207.285156 166.757812 C 209.269531 163.347656 210.320312 159.449219 210.320312 155.492188 C 210.320312 143.070312 200.160156 132.960938 187.671875 132.960938 "/></g><g clip-rule="nonzero" clip-path="url(#0591c92903)"><path style=" stroke:none;fill-rule:nonzero;fill:#8a310d;fill-opacity:1;" d="M 226.851562 226.867188 C 216.382812 232.644531 202.714844 235.816406 188.140625 235.816406 C 173.597656 235.816406 159.542969 232.515625 149.144531 226.707031 C 148.921875 226.582031 148.703125 226.460938 148.488281 226.335938 C 148.488281 226.285156 148.488281 226.234375 148.488281 226.1875 C 148.488281 224.445312 148.601562 222.730469 148.828125 221.046875 C 150.269531 210.1875 156.226562 200.726562 164.753906 194.589844 C 166.351562 193.4375 168.039062 192.402344 169.808594 191.5 C 175.167969 188.757812 181.242188 187.210938 187.671875 187.210938 C 194.101562 187.210938 200.175781 188.757812 205.535156 191.5 C 207.304688 192.402344 208.992188 193.4375 210.59375 194.589844 C 219.113281 200.722656 225.066406 210.175781 226.515625 221.027344 C 226.738281 222.714844 226.855469 224.4375 226.855469 226.1875 C 226.855469 226.359375 226.855469 226.53125 226.851562 226.707031 C 226.851562 226.757812 226.851562 226.8125 226.851562 226.867188 Z M 232.484375 220.957031 C 231.324219 210.949219 226.839844 201.6875 219.570312 194.457031 C 218.355469 193.25 217.085938 192.121094 215.765625 191.070312 C 214.113281 189.757812 212.378906 188.566406 210.578125 187.507812 C 203.710938 183.46875 195.859375 181.3125 187.671875 181.3125 C 179.484375 181.3125 171.632812 183.46875 164.765625 187.507812 C 162.964844 188.566406 161.230469 189.757812 159.578125 191.070312 C 158.257812 192.121094 156.988281 193.25 155.773438 194.457031 C 148.515625 201.675781 144.035156 210.921875 142.867188 220.914062 C 142.664062 222.648438 142.558594 224.410156 142.558594 226.1875 C 142.558594 226.316406 142.558594 226.445312 142.5625 226.574219 C 142.566406 227.089844 142.578125 227.617188 142.601562 228.148438 L 142.667969 229.703125 L 143.996094 230.527344 C 149.667969 234.042969 156.339844 236.800781 163.820312 238.730469 C 171.507812 240.707031 179.6875 241.710938 188.140625 241.710938 C 204.414062 241.710938 219.730469 237.960938 231.265625 231.144531 L 232.617188 230.34375 L 232.707031 228.78125 C 232.75 228.066406 232.773438 227.339844 232.78125 226.617188 C 232.785156 226.472656 232.785156 226.328125 232.785156 226.1875 C 232.785156 224.425781 232.683594 222.679688 232.484375 220.957031 "/></g><path style=" stroke:none;fill-rule:nonzero;fill:#8a310d;fill-opacity:1;" d="M 238.003906 170.238281 C 236.019531 173.660156 232.316406 175.78125 228.351562 175.78125 C 224.425781 175.78125 220.746094 173.691406 218.746094 170.324219 C 217.738281 168.625 217.207031 166.683594 217.207031 164.699219 C 217.207031 158.585938 222.207031 153.613281 228.351562 153.613281 C 234.496094 153.613281 239.496094 158.585938 239.496094 164.699219 C 239.496094 166.648438 238.980469 168.5625 238.003906 170.238281 Z M 228.351562 147.945312 C 219.066406 147.945312 211.511719 155.460938 211.511719 164.699219 C 211.511719 167.695312 212.316406 170.636719 213.84375 173.207031 C 215.304688 175.667969 217.390625 177.734375 219.875 179.175781 C 222.4375 180.664062 225.371094 181.449219 228.351562 181.449219 C 234.34375 181.449219 239.933594 178.242188 242.9375 173.078125 C 244.410156 170.539062 245.191406 167.644531 245.191406 164.699219 C 245.191406 155.460938 237.636719 147.945312 228.351562 147.945312 "/><g clip-rule="nonzero" clip-path="url(#18b39628e6)"><path style=" stroke:none;fill-rule:nonzero;fill:#8a310d;fill-opacity:1;" d="M 251.550781 191.875 C 245.355469 185.710938 237.117188 182.316406 228.351562 182.316406 C 221.949219 182.316406 215.828125 184.128906 210.578125 187.507812 C 208.789062 188.660156 207.097656 189.992188 205.535156 191.5 C 207.304688 192.402344 208.992188 193.4375 210.59375 194.589844 C 212.167969 193.226562 213.902344 192.042969 215.765625 191.070312 C 219.527344 189.101562 223.8125 187.984375 228.351562 187.984375 C 243.304688 187.984375 255.464844 200.082031 255.464844 214.953125 L 255.464844 215 C 249.121094 218.414062 241.082031 220.488281 232.484375 220.957031 C 231.226562 221.027344 229.960938 221.0625 228.683594 221.0625 C 227.960938 221.0625 227.238281 221.050781 226.515625 221.027344 C 226.738281 222.714844 226.855469 224.4375 226.855469 226.1875 C 226.855469 226.359375 226.855469 226.53125 226.851562 226.707031 C 227.460938 226.71875 228.070312 226.726562 228.683594 226.726562 C 230.0625 226.726562 231.425781 226.691406 232.78125 226.617188 C 242.941406 226.0625 252.386719 223.445312 259.71875 219.109375 L 261.019531 218.339844 L 261.105469 216.839844 C 261.144531 216.222656 261.160156 215.585938 261.160156 214.953125 C 261.160156 206.238281 257.75 198.039062 251.550781 191.875 "/></g><path style=" stroke:none;fill-rule:nonzero;fill:#8a310d;fill-opacity:1;" d="M 156.644531 170.238281 C 154.65625 173.660156 150.957031 175.78125 146.992188 175.78125 C 143.066406 175.78125 139.386719 173.691406 137.386719 170.324219 C 136.378906 168.625 135.847656 166.683594 135.847656 164.699219 C 135.847656 158.585938 140.84375 153.613281 146.992188 153.613281 C 153.136719 153.613281 158.136719 158.585938 158.136719 164.699219 C 158.136719 166.648438 157.621094 168.5625 156.644531 170.238281 Z M 146.992188 147.945312 C 137.707031 147.945312 130.152344 155.460938 130.152344 164.699219 C 130.152344 167.695312 130.957031 170.640625 132.484375 173.207031 C 133.945312 175.667969 136.03125 177.734375 138.515625 179.175781 C 141.078125 180.664062 144.011719 181.449219 146.992188 181.449219 C 152.984375 181.449219 158.574219 178.242188 161.578125 173.078125 C 163.050781 170.539062 163.832031 167.644531 163.832031 164.699219 C 163.832031 155.460938 156.277344 147.945312 146.992188 147.945312 "/><g clip-rule="nonzero" clip-path="url(#fc13790edc)"><path style=" stroke:none;fill-rule:nonzero;fill:#8a310d;fill-opacity:1;" d="M 164.765625 187.507812 C 159.515625 184.128906 153.394531 182.316406 146.992188 182.316406 C 138.226562 182.316406 129.988281 185.710938 123.792969 191.875 C 117.59375 198.039062 114.179688 206.238281 114.179688 214.953125 C 114.179688 215.414062 114.191406 215.894531 114.210938 216.378906 L 114.277344 217.875 L 115.550781 218.667969 C 119.648438 221.203125 124.457031 223.191406 129.851562 224.585938 C 133.917969 225.632812 138.175781 226.296875 142.5625 226.574219 C 144.132812 226.679688 145.722656 226.726562 147.324219 226.726562 C 147.933594 226.726562 148.539062 226.71875 149.144531 226.707031 C 148.921875 226.582031 148.703125 226.460938 148.488281 226.335938 C 148.488281 226.285156 148.488281 226.234375 148.488281 226.1875 C 148.488281 224.445312 148.601562 222.730469 148.828125 221.046875 C 148.328125 221.058594 147.828125 221.0625 147.324219 221.0625 C 145.832031 221.0625 144.339844 221.011719 142.867188 220.914062 C 134.265625 220.339844 126.09375 218.125 119.878906 214.632812 C 120.050781 199.90625 132.148438 187.984375 146.992188 187.984375 C 151.53125 187.984375 155.8125 189.101562 159.578125 191.070312 C 161.441406 192.046875 163.175781 193.230469 164.753906 194.589844 C 166.351562 193.4375 168.039062 192.402344 169.808594 191.5 C 168.246094 189.992188 166.554688 188.660156 164.765625 187.507812 "/></g></g></svg>