<svg xmlns="http://www.w3.org/2000/svg" xmlns:xlink="http://www.w3.org/1999/xlink" width="500" zoomAndPan="magnify" viewBox="0 0 375 374.999991" height="500" preserveAspectRatio="xMidYMid meet" version="1.2"><defs><clipPath id="c668e8a5e4"><path d="M 112.5 219 L 262 219 L 262 235.703125 L 112.5 235.703125 Z M 112.5 219 "/></clipPath></defs><g id="d672f898da"><rect x="0" width="375" y="0" height="374.999991" style="fill:#ffffff;fill-opacity:1;stroke:none;"/><rect x="0" width="375" y="0" height="374.999991" style="fill:#ffffff;fill-opacity:1;stroke:none;"/><path style=" stroke:none;fill-rule:nonzero;fill:#8a310d;fill-opacity:1;" d="M 162.238281 222.679688 C 161.429688 222.679688 160.703125 222.441406 160.050781 221.960938 C 149.824219 214.285156 139.5625 205.03125 141.011719 194.613281 C 141.785156 189.050781 146.449219 184.527344 150.957031 180.15625 C 154.664062 176.578125 158.472656 172.875 158.773438 169.621094 C 159.191406 165.167969 156.316406 154.34375 142.453125 145.253906 C 142.269531 145.140625 142.101562 145.007812 141.945312 144.859375 C 141.789062 144.710938 141.652344 144.546875 141.53125 144.371094 C 141.410156 144.195312 141.308594 144.003906 141.226562 143.808594 C 141.144531 143.609375 141.082031 143.402344 141.042969 143.191406 C 141.003906 142.980469 140.988281 142.765625 140.992188 142.550781 C 141 142.335938 141.027344 142.125 141.074219 141.917969 C 141.125 141.707031 141.195312 141.503906 141.289062 141.3125 C 141.378906 141.117188 141.492188 140.933594 141.621094 140.761719 C 141.902344 140.40625 142.242188 140.117188 142.632812 139.886719 C 143.027344 139.65625 143.445312 139.507812 143.894531 139.4375 C 144.34375 139.363281 144.789062 139.375 145.234375 139.472656 C 145.679688 139.566406 146.089844 139.738281 146.46875 139.988281 C 162.878906 150.753906 166.28125 164.039062 165.707031 170.191406 C 165.1875 175.710938 160.511719 180.253906 155.984375 184.640625 C 152.25 188.257812 148.390625 192 147.914062 195.457031 C 146.882812 202.828125 156.84375 211.242188 164.417969 216.917969 C 164.59375 217.042969 164.757812 217.1875 164.902344 217.34375 C 165.050781 217.503906 165.179688 217.675781 165.292969 217.863281 C 165.402344 218.050781 165.492188 218.246094 165.5625 218.449219 C 165.632812 218.65625 165.679688 218.867188 165.703125 219.082031 C 165.730469 219.296875 165.730469 219.515625 165.710938 219.730469 C 165.691406 219.945312 165.644531 220.15625 165.582031 220.363281 C 165.515625 220.570312 165.429688 220.769531 165.320312 220.957031 C 165.214844 221.144531 165.089844 221.320312 164.945312 221.484375 C 164.601562 221.867188 164.195312 222.164062 163.722656 222.375 C 163.25 222.582031 162.753906 222.683594 162.238281 222.679688 Z M 162.238281 222.679688 "/><path style=" stroke:none;fill-rule:nonzero;fill:#8a310d;fill-opacity:1;" d="M 191.511719 222.679688 C 190.703125 222.679688 189.976562 222.441406 189.324219 221.960938 C 179.097656 214.285156 168.835938 205.03125 170.285156 194.613281 C 171.058594 189.050781 175.722656 184.527344 180.230469 180.15625 C 183.9375 176.578125 187.746094 172.875 188.046875 169.621094 C 188.464844 165.167969 185.589844 154.34375 171.726562 145.253906 C 171.542969 145.140625 171.375 145.007812 171.21875 144.859375 C 171.066406 144.710938 170.925781 144.546875 170.804688 144.371094 C 170.683594 144.191406 170.582031 144.003906 170.5 143.804688 C 170.421875 143.605469 170.359375 143.402344 170.320312 143.191406 C 170.28125 142.980469 170.265625 142.765625 170.269531 142.550781 C 170.277344 142.335938 170.304688 142.125 170.355469 141.914062 C 170.402344 141.707031 170.472656 141.503906 170.566406 141.3125 C 170.660156 141.117188 170.769531 140.933594 170.898438 140.761719 C 171.183594 140.40625 171.519531 140.117188 171.914062 139.886719 C 172.304688 139.65625 172.726562 139.507812 173.171875 139.4375 C 173.621094 139.363281 174.070312 139.375 174.511719 139.472656 C 174.957031 139.566406 175.367188 139.738281 175.75 139.988281 C 192.15625 150.753906 195.558594 164.039062 194.984375 170.191406 C 194.46875 175.710938 189.789062 180.253906 185.265625 184.640625 C 181.53125 188.257812 177.671875 192 177.191406 195.457031 C 176.164062 202.835938 186.125 211.253906 193.707031 216.941406 C 193.882812 217.066406 194.042969 217.210938 194.1875 217.367188 C 194.332031 217.527344 194.460938 217.699219 194.570312 217.886719 C 194.679688 218.070312 194.769531 218.265625 194.835938 218.46875 C 194.90625 218.675781 194.953125 218.882812 194.976562 219.097656 C 195 219.3125 195 219.527344 194.980469 219.742188 C 194.960938 219.953125 194.917969 220.164062 194.851562 220.371094 C 194.789062 220.574219 194.703125 220.773438 194.597656 220.960938 C 194.488281 221.148438 194.367188 221.320312 194.222656 221.484375 C 193.878906 221.867188 193.472656 222.167969 192.996094 222.375 C 192.523438 222.582031 192.03125 222.683594 191.511719 222.679688 Z M 191.511719 222.679688 "/><path style=" stroke:none;fill-rule:nonzero;fill:#8a310d;fill-opacity:1;" d="M 220.796875 222.679688 C 219.988281 222.679688 219.257812 222.441406 218.609375 221.960938 C 208.382812 214.285156 198.117188 205.03125 199.566406 194.613281 C 200.34375 189.050781 205.007812 184.527344 209.515625 180.15625 C 213.222656 176.578125 217.03125 172.875 217.332031 169.621094 C 217.75 165.167969 214.875 154.34375 201.011719 145.253906 C 200.828125 145.140625 200.660156 145.007812 200.503906 144.859375 C 200.347656 144.710938 200.210938 144.546875 200.089844 144.371094 C 199.96875 144.195312 199.867188 144.003906 199.785156 143.808594 C 199.703125 143.609375 199.640625 143.402344 199.601562 143.191406 C 199.5625 142.980469 199.546875 142.765625 199.550781 142.550781 C 199.554688 142.335938 199.585938 142.125 199.632812 141.917969 C 199.683594 141.707031 199.753906 141.503906 199.847656 141.3125 C 199.9375 141.117188 200.046875 140.933594 200.179688 140.761719 C 200.460938 140.40625 200.800781 140.117188 201.191406 139.886719 C 201.582031 139.65625 202.003906 139.507812 202.453125 139.4375 C 202.902344 139.363281 203.347656 139.375 203.792969 139.472656 C 204.234375 139.566406 204.648438 139.738281 205.027344 139.988281 C 221.4375 150.753906 224.839844 164.039062 224.261719 170.191406 C 223.746094 175.710938 219.070312 180.253906 214.542969 184.640625 C 210.808594 188.257812 206.949219 192 206.46875 195.457031 C 205.445312 202.835938 215.402344 211.253906 222.984375 216.941406 C 223.160156 217.066406 223.320312 217.210938 223.464844 217.367188 C 223.613281 217.527344 223.738281 217.699219 223.847656 217.886719 C 223.957031 218.070312 224.046875 218.265625 224.117188 218.46875 C 224.183594 218.675781 224.230469 218.882812 224.253906 219.097656 C 224.277344 219.3125 224.28125 219.527344 224.261719 219.742188 C 224.238281 219.953125 224.195312 220.164062 224.132812 220.371094 C 224.066406 220.574219 223.980469 220.773438 223.875 220.960938 C 223.769531 221.148438 223.644531 221.320312 223.5 221.484375 C 223.160156 221.867188 222.75 222.164062 222.28125 222.375 C 221.808594 222.582031 221.3125 222.683594 220.796875 222.679688 Z M 220.796875 222.679688 "/><g clip-rule="nonzero" clip-path="url(#c668e8a5e4)"><path style=" stroke:none;fill-rule:nonzero;fill:#8a310d;fill-opacity:1;" d="M 238.671875 219.074219 C 235.734375 219.074219 233.117188 223.011719 238.359375 223.742188 C 246.578125 224.542969 252.382812 225.480469 255.417969 226.371094 C 247.914062 228.578125 223.5625 231.0625 187.285156 231.0625 L 187.183594 231.0625 C 150.90625 231.0625 126.554688 228.578125 119.050781 226.371094 C 122.085938 225.480469 127.890625 224.542969 136.109375 223.742188 C 141.355469 223.011719 138.734375 219.0625 135.800781 219.074219 C 122.621094 220.4375 112.535156 222.675781 112.535156 226.371094 C 112.535156 234.792969 164.734375 235.703125 187.183594 235.703125 L 187.285156 235.703125 C 209.730469 235.703125 261.933594 234.792969 261.933594 226.371094 C 261.933594 222.675781 251.84375 220.4375 238.671875 219.074219 Z M 238.671875 219.074219 "/></g></g></svg>