<svg xmlns="http://www.w3.org/2000/svg" xmlns:xlink="http://www.w3.org/1999/xlink" width="500" zoomAndPan="magnify" viewBox="0 0 375 374.999991" height="500" preserveAspectRatio="xMidYMid meet" version="1.2"><defs><clipPath id="c3ba24acfe"><path d="M 130.160156 192 L 244.910156 192 L 244.910156 206 L 130.160156 206 Z M 130.160156 192 "/></clipPath><clipPath id="9148bab418"><path d="M 160 153.429688 L 169 153.429688 L 169 188 L 160 188 Z M 160 153.429688 "/></clipPath><clipPath id="23c333d5cb"><path d="M 175 153.429688 L 185 153.429688 L 185 188 L 175 188 Z M 175 153.429688 "/></clipPath><clipPath id="2b37207ae5"><path d="M 190 153.429688 L 200 153.429688 L 200 188 L 190 188 Z M 190 153.429688 "/></clipPath><clipPath id="c99cfd7006"><path d="M 206 153.429688 L 215 153.429688 L 215 188 L 206 188 Z M 206 153.429688 "/></clipPath></defs><g id="10c254da8d"><rect x="0" width="375" y="0" height="374.999991" style="fill:#ffffff;fill-opacity:1;stroke:none;"/><rect x="0" width="375" y="0" height="374.999991" style="fill:#ffffff;fill-opacity:1;stroke:none;"/><path style=" stroke:none;fill-rule:nonzero;fill:#8a310d;fill-opacity:1;" d="M 208.945312 264.960938 L 166.054688 264.960938 C 157.09375 264.960938 149.414062 258.5625 147.796875 249.746094 L 139.539062 204.746094 C 139.46875 204.355469 139.574219 203.949219 139.828125 203.644531 C 140.085938 203.335938 140.460938 203.160156 140.859375 203.160156 L 234.136719 203.160156 C 234.535156 203.160156 234.914062 203.335938 235.171875 203.644531 C 235.425781 203.949219 235.53125 204.355469 235.460938 204.746094 L 227.203125 249.746094 C 225.585938 258.5625 217.90625 264.960938 208.945312 264.960938 Z M 142.472656 205.847656 L 150.441406 249.261719 C 151.824219 256.800781 158.390625 262.269531 166.054688 262.269531 L 208.945312 262.269531 C 216.609375 262.269531 223.175781 256.800781 224.558594 249.261719 L 232.523438 205.847656 Z M 142.472656 205.847656 "/><g clip-rule="nonzero" clip-path="url(#c3ba24acfe)"><path style=" stroke:none;fill-rule:nonzero;fill:#8a310d;fill-opacity:1;" d="M 239.125 205.847656 L 135.875 205.847656 C 132.722656 205.847656 130.164062 203.285156 130.164062 200.136719 L 130.164062 198.296875 C 130.164062 195.148438 132.722656 192.585938 135.875 192.585938 L 239.125 192.585938 C 242.273438 192.585938 244.835938 195.148438 244.835938 198.296875 L 244.835938 200.136719 C 244.835938 203.285156 242.273438 205.847656 239.125 205.847656 Z M 135.875 195.273438 C 134.207031 195.273438 132.851562 196.628906 132.851562 198.296875 L 132.851562 200.136719 C 132.851562 201.804688 134.207031 203.160156 135.875 203.160156 L 239.125 203.160156 C 240.792969 203.160156 242.148438 201.804688 242.148438 200.136719 L 242.148438 198.296875 C 242.148438 196.628906 240.792969 195.273438 239.125 195.273438 Z M 135.875 195.273438 "/></g><path style=" stroke:none;fill-rule:nonzero;fill:#8a310d;fill-opacity:1;" d="M 157.894531 231.699219 L 155.421875 231.699219 C 153.480469 231.699219 151.738281 230.691406 150.765625 229.007812 C 149.796875 227.328125 149.796875 225.316406 150.765625 223.632812 L 155.492188 215.445312 C 155.734375 215.03125 156.175781 214.773438 156.65625 214.773438 C 157.136719 214.773438 157.582031 215.03125 157.820312 215.445312 L 162.546875 223.632812 C 163.519531 225.316406 163.519531 227.328125 162.546875 229.007812 C 161.578125 230.691406 159.835938 231.699219 157.894531 231.699219 Z M 156.65625 218.808594 L 153.09375 224.976562 C 152.609375 225.820312 152.609375 226.824219 153.09375 227.664062 C 153.582031 228.507812 154.449219 229.007812 155.421875 229.007812 L 157.894531 229.007812 C 158.863281 229.007812 159.734375 228.507812 160.222656 227.664062 C 160.707031 226.824219 160.707031 225.820312 160.222656 224.976562 Z M 156.65625 218.808594 "/><path style=" stroke:none;fill-rule:nonzero;fill:#8a310d;fill-opacity:1;" d="M 178.453125 231.699219 L 175.984375 231.699219 C 174.039062 231.699219 172.300781 230.691406 171.328125 229.007812 C 170.355469 227.328125 170.355469 225.316406 171.328125 223.632812 L 176.054688 215.445312 C 176.296875 215.03125 176.738281 214.773438 177.21875 214.773438 C 177.699219 214.773438 178.140625 215.03125 178.382812 215.445312 L 183.109375 223.632812 C 184.082031 225.316406 184.082031 227.328125 183.109375 229.007812 C 182.136719 230.691406 180.398438 231.699219 178.453125 231.699219 Z M 177.21875 218.808594 L 173.65625 224.976562 C 173.167969 225.820312 173.167969 226.824219 173.65625 227.664062 C 174.140625 228.507812 175.011719 229.007812 175.984375 229.007812 L 178.453125 229.007812 C 179.425781 229.007812 180.296875 228.507812 180.78125 227.664062 C 181.269531 226.824219 181.269531 225.820312 180.78125 224.976562 Z M 177.21875 218.808594 "/><path style=" stroke:none;fill-rule:nonzero;fill:#8a310d;fill-opacity:1;" d="M 199.015625 231.699219 L 196.542969 231.699219 C 194.601562 231.699219 192.859375 230.691406 191.890625 229.007812 C 190.917969 227.328125 190.917969 225.316406 191.890625 223.632812 L 196.617188 215.445312 C 196.855469 215.03125 197.300781 214.773438 197.78125 214.773438 C 198.261719 214.773438 198.703125 215.03125 198.945312 215.445312 L 203.671875 223.632812 C 204.640625 225.316406 204.640625 227.328125 203.671875 229.007812 C 202.699219 230.691406 200.960938 231.699219 199.015625 231.699219 Z M 197.78125 218.808594 L 194.214844 224.976562 C 193.730469 225.820312 193.730469 226.824219 194.214844 227.664062 C 194.703125 228.507812 195.574219 229.007812 196.542969 229.007812 L 199.015625 229.007812 C 199.988281 229.007812 200.859375 228.507812 201.34375 227.664062 C 201.828125 226.824219 201.828125 225.820312 201.34375 224.976562 Z M 197.78125 218.808594 "/><path style=" stroke:none;fill-rule:nonzero;fill:#8a310d;fill-opacity:1;" d="M 219.578125 231.699219 L 217.105469 231.699219 C 215.164062 231.699219 213.421875 230.691406 212.449219 229.007812 C 211.480469 227.328125 211.480469 225.316406 212.449219 223.632812 L 217.175781 215.445312 C 217.417969 215.03125 217.859375 214.773438 218.339844 214.773438 C 218.820312 214.773438 219.265625 215.03125 219.503906 215.445312 L 224.230469 223.632812 C 225.203125 225.316406 225.203125 227.328125 224.230469 229.007812 C 223.261719 230.691406 221.519531 231.699219 219.578125 231.699219 Z M 218.339844 218.808594 L 214.777344 224.976562 C 214.292969 225.820312 214.292969 226.824219 214.777344 227.664062 C 215.261719 228.507812 216.132812 229.007812 217.105469 229.007812 L 219.578125 229.007812 C 220.546875 229.007812 221.417969 228.507812 221.90625 227.664062 C 222.390625 226.824219 222.390625 225.820312 221.90625 224.976562 Z M 218.339844 218.808594 "/><path style=" stroke:none;fill-rule:nonzero;fill:#8a310d;fill-opacity:1;" d="M 168.175781 253.050781 L 165.703125 253.050781 C 163.757812 253.050781 162.019531 252.042969 161.046875 250.363281 C 160.074219 248.679688 160.074219 246.667969 161.046875 244.988281 L 165.773438 236.800781 C 166.015625 236.382812 166.457031 236.128906 166.9375 236.128906 C 167.417969 236.128906 167.863281 236.382812 168.101562 236.800781 L 172.828125 244.988281 C 173.800781 246.667969 173.800781 248.679688 172.828125 250.363281 C 171.859375 252.042969 170.117188 253.050781 168.175781 253.050781 Z M 166.9375 240.160156 L 163.375 246.332031 C 162.890625 247.171875 162.890625 248.175781 163.375 249.019531 C 163.859375 249.859375 164.730469 250.363281 165.703125 250.363281 L 168.175781 250.363281 C 169.144531 250.363281 170.015625 249.859375 170.5 249.019531 C 170.988281 248.175781 170.988281 247.171875 170.5 246.332031 Z M 166.9375 240.160156 "/><path style=" stroke:none;fill-rule:nonzero;fill:#8a310d;fill-opacity:1;" d="M 188.734375 253.050781 L 186.265625 253.050781 C 184.320312 253.050781 182.582031 252.042969 181.609375 250.363281 C 180.636719 248.679688 180.636719 246.667969 181.609375 244.988281 L 186.335938 236.800781 C 186.574219 236.382812 187.019531 236.128906 187.5 236.128906 C 187.980469 236.128906 188.421875 236.382812 188.664062 236.800781 L 193.390625 244.988281 C 194.363281 246.667969 194.363281 248.679688 193.390625 250.363281 C 192.417969 252.042969 190.679688 253.050781 188.734375 253.050781 Z M 187.5 240.160156 L 183.9375 246.332031 C 183.449219 247.171875 183.449219 248.175781 183.9375 249.019531 C 184.421875 249.859375 185.292969 250.363281 186.265625 250.363281 L 188.734375 250.363281 C 189.707031 250.363281 190.578125 249.859375 191.0625 249.019531 C 191.546875 248.175781 191.546875 247.171875 191.0625 246.332031 Z M 187.5 240.160156 "/><path style=" stroke:none;fill-rule:nonzero;fill:#8a310d;fill-opacity:1;" d="M 209.296875 253.050781 L 206.824219 253.050781 C 204.882812 253.050781 203.140625 252.042969 202.167969 250.363281 C 201.199219 248.679688 201.199219 246.667969 202.167969 244.988281 L 206.898438 236.800781 C 207.136719 236.382812 207.582031 236.128906 208.058594 236.128906 C 208.539062 236.128906 208.984375 236.382812 209.222656 236.800781 L 213.949219 244.988281 C 214.921875 246.667969 214.921875 248.679688 213.949219 250.363281 C 212.980469 252.042969 211.238281 253.050781 209.296875 253.050781 Z M 208.058594 240.160156 L 204.496094 246.332031 C 204.011719 247.171875 204.011719 248.175781 204.496094 249.019531 C 204.984375 249.859375 205.851562 250.363281 206.824219 250.363281 L 209.296875 250.363281 C 210.269531 250.363281 211.136719 249.859375 211.625 249.019531 C 212.109375 248.175781 212.109375 247.171875 211.625 246.332031 Z M 208.058594 240.160156 "/><g clip-rule="nonzero" clip-path="url(#9148bab418)"><path style=" stroke:none;fill-rule:nonzero;fill:#8a310d;fill-opacity:1;" d="M 164.589844 187.554688 C 164.0625 187.554688 163.5625 187.242188 163.347656 186.722656 C 162.242188 184.039062 163.535156 181.539062 164.671875 179.332031 C 166.257812 176.265625 167.304688 174.242188 163.777344 171.671875 C 158.378906 167.75 160.511719 163.621094 162.070312 160.609375 C 163.070312 158.675781 163.929688 157.007812 163.300781 155.476562 C 163.015625 154.789062 163.34375 154.003906 164.027344 153.71875 C 164.714844 153.4375 165.5 153.765625 165.785156 154.449219 C 166.890625 157.136719 165.597656 159.636719 164.457031 161.84375 C 162.875 164.90625 161.828125 166.933594 165.355469 169.5 C 170.753906 173.425781 168.617188 177.550781 167.0625 180.566406 C 166.0625 182.496094 165.199219 184.164062 165.832031 185.699219 C 166.117188 186.382812 165.789062 187.167969 165.101562 187.453125 C 164.933594 187.523438 164.761719 187.554688 164.589844 187.554688 Z M 164.589844 187.554688 "/></g><g clip-rule="nonzero" clip-path="url(#23c333d5cb)"><path style=" stroke:none;fill-rule:nonzero;fill:#8a310d;fill-opacity:1;" d="M 179.878906 187.554688 C 179.351562 187.554688 178.851562 187.242188 178.636719 186.722656 C 177.53125 184.039062 178.824219 181.539062 179.960938 179.332031 C 181.546875 176.265625 182.59375 174.242188 179.0625 171.671875 C 173.667969 167.75 175.800781 163.621094 177.359375 160.609375 C 178.359375 158.675781 179.21875 157.007812 178.589844 155.476562 C 178.304688 154.789062 178.632812 154.003906 179.316406 153.71875 C 180.003906 153.4375 180.789062 153.765625 181.074219 154.449219 C 182.179688 157.136719 180.886719 159.636719 179.746094 161.84375 C 178.164062 164.90625 177.117188 166.933594 180.644531 169.5 C 186.042969 173.425781 183.90625 177.550781 182.351562 180.566406 C 181.351562 182.496094 180.488281 184.164062 181.121094 185.699219 C 181.40625 186.382812 181.078125 187.167969 180.390625 187.453125 C 180.222656 187.523438 180.050781 187.554688 179.878906 187.554688 Z M 179.878906 187.554688 "/></g><g clip-rule="nonzero" clip-path="url(#2b37207ae5)"><path style=" stroke:none;fill-rule:nonzero;fill:#8a310d;fill-opacity:1;" d="M 195.167969 187.554688 C 194.640625 187.554688 194.140625 187.242188 193.925781 186.722656 C 192.820312 184.039062 194.109375 181.539062 195.25 179.332031 C 196.835938 176.265625 197.882812 174.242188 194.351562 171.671875 C 188.957031 167.75 191.089844 163.621094 192.648438 160.609375 C 193.648438 158.675781 194.507812 157.007812 193.875 155.476562 C 193.59375 154.789062 193.921875 154.003906 194.605469 153.71875 C 195.292969 153.4375 196.078125 153.765625 196.363281 154.449219 C 197.46875 157.136719 196.175781 159.636719 195.035156 161.84375 C 193.453125 164.90625 192.40625 166.933594 195.933594 169.5 C 201.332031 173.425781 199.195312 177.550781 197.640625 180.566406 C 196.640625 182.496094 195.777344 184.164062 196.410156 185.699219 C 196.695312 186.382812 196.367188 187.171875 195.679688 187.453125 C 195.511719 187.523438 195.339844 187.554688 195.167969 187.554688 Z M 195.167969 187.554688 "/></g><g clip-rule="nonzero" clip-path="url(#c99cfd7006)"><path style=" stroke:none;fill-rule:nonzero;fill:#8a310d;fill-opacity:1;" d="M 210.457031 187.554688 C 209.929688 187.554688 209.429688 187.242188 209.214844 186.722656 C 208.109375 184.039062 209.398438 181.539062 210.539062 179.332031 C 212.125 176.265625 213.171875 174.242188 209.640625 171.671875 C 204.246094 167.75 206.378906 163.621094 207.9375 160.609375 C 208.9375 158.675781 209.796875 157.007812 209.164062 155.476562 C 208.882812 154.789062 209.210938 154.003906 209.894531 153.71875 C 210.582031 153.4375 211.367188 153.765625 211.652344 154.449219 C 212.757812 157.136719 211.464844 159.636719 210.324219 161.84375 C 208.742188 164.90625 207.695312 166.933594 211.222656 169.5 C 216.621094 173.425781 214.484375 177.550781 212.929688 180.566406 C 211.929688 182.496094 211.066406 184.164062 211.699219 185.699219 C 211.984375 186.382812 211.65625 187.167969 210.96875 187.453125 C 210.800781 187.523438 210.628906 187.554688 210.457031 187.554688 Z M 210.457031 187.554688 "/></g></g></svg>