<svg xmlns="http://www.w3.org/2000/svg" xmlns:xlink="http://www.w3.org/1999/xlink" width="500" zoomAndPan="magnify" viewBox="0 0 375 374.999991" height="500" preserveAspectRatio="xMidYMid meet" version="1.2"><defs><clipPath id="43273d75b6"><path d="M 129.40625 139.949219 L 235.15625 139.949219 L 235.15625 245.699219 L 129.40625 245.699219 Z M 129.40625 139.949219 "/></clipPath><clipPath id="7d1778635a"><path d="M 235.15625 192.824219 C 235.15625 194.554688 235.070312 196.28125 234.902344 198.007812 C 234.730469 199.730469 234.476562 201.441406 234.140625 203.140625 C 233.800781 204.835938 233.382812 206.515625 232.878906 208.171875 C 232.375 209.828125 231.792969 211.457031 231.128906 213.058594 C 230.46875 214.65625 229.726562 216.222656 228.910156 217.75 C 228.09375 219.277344 227.207031 220.757812 226.246094 222.199219 C 225.28125 223.640625 224.25 225.027344 223.152344 226.367188 C 222.054688 227.707031 220.894531 228.988281 219.667969 230.210938 C 218.445312 231.4375 217.164062 232.597656 215.824219 233.695312 C 214.484375 234.796875 213.097656 235.824219 211.65625 236.789062 C 210.214844 237.75 208.734375 238.640625 207.207031 239.457031 C 205.679688 240.273438 204.113281 241.011719 202.515625 241.671875 C 200.914062 242.335938 199.285156 242.917969 197.628906 243.421875 C 195.972656 243.925781 194.292969 244.34375 192.597656 244.683594 C 190.898438 245.019531 189.1875 245.273438 187.464844 245.445312 C 185.738281 245.613281 184.011719 245.699219 182.28125 245.699219 C 180.546875 245.699219 178.820312 245.613281 177.097656 245.445312 C 175.375 245.273438 173.664062 245.019531 171.964844 244.683594 C 170.265625 244.34375 168.589844 243.925781 166.929688 243.421875 C 165.273438 242.917969 163.644531 242.335938 162.046875 241.671875 C 160.445312 241.011719 158.882812 240.273438 157.355469 239.457031 C 155.828125 238.640625 154.34375 237.75 152.90625 236.789062 C 151.464844 235.824219 150.074219 234.796875 148.738281 233.695312 C 147.398438 232.597656 146.117188 231.4375 144.890625 230.210938 C 143.667969 228.988281 142.507812 227.707031 141.40625 226.367188 C 140.308594 225.027344 139.277344 223.640625 138.316406 222.199219 C 137.355469 220.757812 136.464844 219.277344 135.648438 217.75 C 134.832031 216.222656 134.09375 214.65625 133.429688 213.058594 C 132.769531 211.457031 132.183594 209.828125 131.683594 208.171875 C 131.179688 206.515625 130.757812 204.835938 130.421875 203.140625 C 130.082031 201.441406 129.828125 199.730469 129.660156 198.007812 C 129.492188 196.28125 129.40625 194.554688 129.40625 192.824219 C 129.40625 191.09375 129.492188 189.363281 129.660156 187.640625 C 129.828125 185.917969 130.082031 184.207031 130.421875 182.507812 C 130.757812 180.808594 131.179688 179.132812 131.683594 177.476562 C 132.183594 175.816406 132.769531 174.1875 133.429688 172.589844 C 134.09375 170.988281 134.832031 169.425781 135.648438 167.898438 C 136.464844 166.371094 137.355469 164.886719 138.316406 163.449219 C 139.277344 162.007812 140.308594 160.617188 141.40625 159.28125 C 142.507812 157.941406 143.667969 156.660156 144.890625 155.433594 C 146.117188 154.210938 147.398438 153.050781 148.738281 151.949219 C 150.074219 150.851562 151.464844 149.820312 152.90625 148.859375 C 154.34375 147.898438 155.828125 147.007812 157.355469 146.191406 C 158.882812 145.375 160.445312 144.636719 162.046875 143.972656 C 163.644531 143.3125 165.273438 142.726562 166.929688 142.226562 C 168.589844 141.722656 170.265625 141.300781 171.964844 140.964844 C 173.664062 140.625 175.375 140.371094 177.097656 140.203125 C 178.820312 140.035156 180.546875 139.949219 182.28125 139.949219 C 184.011719 139.949219 185.738281 140.035156 187.464844 140.203125 C 189.1875 140.371094 190.898438 140.625 192.597656 140.964844 C 194.292969 141.300781 195.972656 141.722656 197.628906 142.226562 C 199.285156 142.726562 200.914062 143.3125 202.515625 143.972656 C 204.113281 144.636719 205.679688 145.375 207.207031 146.191406 C 208.734375 147.007812 210.214844 147.898438 211.65625 148.859375 C 213.097656 149.820312 214.484375 150.851562 215.824219 151.949219 C 217.164062 153.050781 218.445312 154.210938 219.667969 155.433594 C 220.894531 156.660156 222.054688 157.941406 223.152344 159.28125 C 224.25 160.617188 225.28125 162.007812 226.246094 163.449219 C 227.207031 164.886719 228.09375 166.371094 228.910156 167.898438 C 229.726562 169.425781 230.46875 170.988281 231.128906 172.589844 C 231.792969 174.1875 232.375 175.816406 232.878906 177.476562 C 233.382812 179.132812 233.800781 180.808594 234.140625 182.507812 C 234.476562 184.207031 234.730469 185.917969 234.902344 187.640625 C 235.070312 189.363281 235.15625 191.09375 235.15625 192.824219 Z M 235.15625 192.824219 "/></clipPath><linearGradient x1="0.0499099" gradientTransform="matrix(0.344463,0,0,0.344463,129.405442,139.948597)" y1="307.049883" x2="307.050604" gradientUnits="userSpaceOnUse" y2="0.0506016" id="751aff72a8"><stop style="stop-color:#fec053;stop-opacity:1;" offset="0"/><stop style="stop-color:#fec053;stop-opacity:1;" offset="0.125"/><stop style="stop-color:#fec053;stop-opacity:1;" offset="0.140625"/><stop style="stop-color:#fec053;stop-opacity:1;" offset="0.144531"/><stop style="stop-color:#febf53;stop-opacity:1;" offset="0.148438"/><stop style="stop-color:#febd52;stop-opacity:1;" offset="0.152344"/><stop style="stop-color:#febb52;stop-opacity:1;" offset="0.15625"/><stop style="stop-color:#fdb952;stop-opacity:1;" offset="0.160156"/><stop style="stop-color:#fdb852;stop-opacity:1;" offset="0.164063"/><stop style="stop-color:#fdb652;stop-opacity:1;" offset="0.167969"/><stop style="stop-color:#fdb451;stop-opacity:1;" offset="0.171875"/><stop style="stop-color:#fdb251;stop-opacity:1;" offset="0.175781"/><stop style="stop-color:#fdb051;stop-opacity:1;" offset="0.179688"/><stop style="stop-color:#fdae51;stop-opacity:1;" offset="0.183594"/><stop style="stop-color:#fcac50;stop-opacity:1;" offset="0.1875"/><stop style="stop-color:#fcaa50;stop-opacity:1;" offset="0.191406"/><stop style="stop-color:#fca950;stop-opacity:1;" offset="0.195312"/><stop style="stop-color:#fca750;stop-opacity:1;" offset="0.199219"/><stop style="stop-color:#fca54f;stop-opacity:1;" offset="0.203125"/><stop style="stop-color:#fca34f;stop-opacity:1;" offset="0.207031"/><stop style="stop-color:#fca14f;stop-opacity:1;" offset="0.210938"/><stop style="stop-color:#fc9f4f;stop-opacity:1;" offset="0.214844"/><stop style="stop-color:#fb9d4e;stop-opacity:1;" offset="0.21875"/><stop style="stop-color:#fb9b4e;stop-opacity:1;" offset="0.222656"/><stop style="stop-color:#fb9a4e;stop-opacity:1;" offset="0.226563"/><stop style="stop-color:#fb984e;stop-opacity:1;" offset="0.230469"/><stop style="stop-color:#fb964d;stop-opacity:1;" offset="0.234375"/><stop style="stop-color:#fb944d;stop-opacity:1;" offset="0.238281"/><stop style="stop-color:#fb924d;stop-opacity:1;" offset="0.242188"/><stop style="stop-color:#fa904d;stop-opacity:1;" offset="0.246094"/><stop style="stop-color:#fa8e4c;stop-opacity:1;" offset="0.25"/><stop style="stop-color:#fa8c4c;stop-opacity:1;" offset="0.253906"/><stop style="stop-color:#fa8b4c;stop-opacity:1;" offset="0.257812"/><stop style="stop-color:#fa894c;stop-opacity:1;" offset="0.261719"/><stop style="stop-color:#fa874b;stop-opacity:1;" offset="0.265625"/><stop style="stop-color:#fa854b;stop-opacity:1;" offset="0.269531"/><stop style="stop-color:#f9834b;stop-opacity:1;" offset="0.273438"/><stop style="stop-color:#f9814b;stop-opacity:1;" offset="0.277344"/><stop style="stop-color:#f97f4a;stop-opacity:1;" offset="0.28125"/><stop style="stop-color:#f97d4a;stop-opacity:1;" offset="0.285156"/><stop style="stop-color:#f97c4a;stop-opacity:1;" offset="0.289062"/><stop style="stop-color:#f97a4a;stop-opacity:1;" offset="0.292969"/><stop style="stop-color:#f97849;stop-opacity:1;" offset="0.296875"/><stop style="stop-color:#f87649;stop-opacity:1;" offset="0.300781"/><stop style="stop-color:#f87449;stop-opacity:1;" offset="0.304688"/><stop style="stop-color:#f87249;stop-opacity:1;" offset="0.308594"/><stop style="stop-color:#f87048;stop-opacity:1;" offset="0.3125"/><stop style="stop-color:#f86e48;stop-opacity:1;" offset="0.316406"/><stop style="stop-color:#f86d48;stop-opacity:1;" offset="0.320312"/><stop style="stop-color:#f86b48;stop-opacity:1;" offset="0.324219"/><stop style="stop-color:#f76947;stop-opacity:1;" offset="0.328125"/><stop style="stop-color:#f76747;stop-opacity:1;" offset="0.332031"/><stop style="stop-color:#f76547;stop-opacity:1;" offset="0.335938"/><stop style="stop-color:#f76347;stop-opacity:1;" offset="0.339844"/><stop style="stop-color:#f76147;stop-opacity:1;" offset="0.34375"/><stop style="stop-color:#f75f46;stop-opacity:1;" offset="0.347656"/><stop style="stop-color:#f75e46;stop-opacity:1;" offset="0.351562"/><stop style="stop-color:#f65c46;stop-opacity:1;" offset="0.355469"/><stop style="stop-color:#f65a46;stop-opacity:1;" offset="0.359375"/><stop style="stop-color:#f65845;stop-opacity:1;" offset="0.363281"/><stop style="stop-color:#f65645;stop-opacity:1;" offset="0.367188"/><stop style="stop-color:#f65445;stop-opacity:1;" offset="0.371094"/><stop style="stop-color:#f65245;stop-opacity:1;" offset="0.375"/><stop style="stop-color:#f65044;stop-opacity:1;" offset="0.378906"/><stop style="stop-color:#f54e44;stop-opacity:1;" offset="0.382813"/><stop style="stop-color:#f54d44;stop-opacity:1;" offset="0.386719"/><stop style="stop-color:#f54b44;stop-opacity:1;" offset="0.390625"/><stop style="stop-color:#f54943;stop-opacity:1;" offset="0.394531"/><stop style="stop-color:#f54743;stop-opacity:1;" offset="0.398438"/><stop style="stop-color:#f54543;stop-opacity:1;" offset="0.402344"/><stop style="stop-color:#f54343;stop-opacity:1;" offset="0.40625"/><stop style="stop-color:#f44142;stop-opacity:1;" offset="0.410156"/><stop style="stop-color:#f43f42;stop-opacity:1;" offset="0.414063"/><stop style="stop-color:#f43e42;stop-opacity:1;" offset="0.417969"/><stop style="stop-color:#f43c42;stop-opacity:1;" offset="0.421875"/><stop style="stop-color:#f43a41;stop-opacity:1;" offset="0.425781"/><stop style="stop-color:#f43841;stop-opacity:1;" offset="0.429688"/><stop style="stop-color:#f43641;stop-opacity:1;" offset="0.433594"/><stop style="stop-color:#f43441;stop-opacity:1;" offset="0.4375"/><stop style="stop-color:#f33240;stop-opacity:1;" offset="0.441406"/><stop style="stop-color:#f33040;stop-opacity:1;" offset="0.445313"/><stop style="stop-color:#f32f40;stop-opacity:1;" offset="0.449219"/><stop style="stop-color:#f32d40;stop-opacity:1;" offset="0.453125"/><stop style="stop-color:#f32b3f;stop-opacity:1;" offset="0.457031"/><stop style="stop-color:#f3293f;stop-opacity:1;" offset="0.460938"/><stop style="stop-color:#f3273f;stop-opacity:1;" offset="0.464844"/><stop style="stop-color:#f2253f;stop-opacity:1;" offset="0.46875"/><stop style="stop-color:#f2233e;stop-opacity:1;" offset="0.472656"/><stop style="stop-color:#f2213e;stop-opacity:1;" offset="0.476562"/><stop style="stop-color:#f1213f;stop-opacity:1;" offset="0.480469"/><stop style="stop-color:#f02041;stop-opacity:1;" offset="0.484375"/><stop style="stop-color:#ef2043;stop-opacity:1;" offset="0.488281"/><stop style="stop-color:#ee2046;stop-opacity:1;" offset="0.492188"/><stop style="stop-color:#ec2048;stop-opacity:1;" offset="0.496094"/><stop style="stop-color:#eb204a;stop-opacity:1;" offset="0.5"/><stop style="stop-color:#ea204d;stop-opacity:1;" offset="0.503906"/><stop style="stop-color:#e8204f;stop-opacity:1;" offset="0.507812"/><stop style="stop-color:#e72052;stop-opacity:1;" offset="0.511719"/><stop style="stop-color:#e62054;stop-opacity:1;" offset="0.515625"/><stop style="stop-color:#e42057;stop-opacity:1;" offset="0.519531"/><stop style="stop-color:#e32059;stop-opacity:1;" offset="0.523438"/><stop style="stop-color:#e2205b;stop-opacity:1;" offset="0.527344"/><stop style="stop-color:#e0205e;stop-opacity:1;" offset="0.53125"/><stop style="stop-color:#df2060;stop-opacity:1;" offset="0.535156"/><stop style="stop-color:#de2063;stop-opacity:1;" offset="0.539062"/><stop style="stop-color:#dc2065;stop-opacity:1;" offset="0.542969"/><stop style="stop-color:#db2068;stop-opacity:1;" offset="0.546875"/><stop style="stop-color:#d9206a;stop-opacity:1;" offset="0.550781"/><stop style="stop-color:#d8206d;stop-opacity:1;" offset="0.554688"/><stop style="stop-color:#d7206f;stop-opacity:1;" offset="0.558594"/><stop style="stop-color:#d52071;stop-opacity:1;" offset="0.5625"/><stop style="stop-color:#d41f74;stop-opacity:1;" offset="0.566406"/><stop style="stop-color:#d31f76;stop-opacity:1;" offset="0.570312"/><stop style="stop-color:#d11f79;stop-opacity:1;" offset="0.574219"/><stop style="stop-color:#d01f7b;stop-opacity:1;" offset="0.578125"/><stop style="stop-color:#cf1f7e;stop-opacity:1;" offset="0.582031"/><stop style="stop-color:#cd1f80;stop-opacity:1;" offset="0.585938"/><stop style="stop-color:#cc1f82;stop-opacity:1;" offset="0.589844"/><stop style="stop-color:#cb1f85;stop-opacity:1;" offset="0.59375"/><stop style="stop-color:#c91f87;stop-opacity:1;" offset="0.597656"/><stop style="stop-color:#c81f8a;stop-opacity:1;" offset="0.601562"/><stop style="stop-color:#c71f8c;stop-opacity:1;" offset="0.605469"/><stop style="stop-color:#c51f8f;stop-opacity:1;" offset="0.609375"/><stop style="stop-color:#c41f91;stop-opacity:1;" offset="0.613281"/><stop style="stop-color:#c31f93;stop-opacity:1;" offset="0.617188"/><stop style="stop-color:#c11f96;stop-opacity:1;" offset="0.621094"/><stop style="stop-color:#c01f98;stop-opacity:1;" offset="0.625"/><stop style="stop-color:#be1f9b;stop-opacity:1;" offset="0.628906"/><stop style="stop-color:#bd1f9d;stop-opacity:1;" offset="0.632812"/><stop style="stop-color:#bc1fa0;stop-opacity:1;" offset="0.636719"/><stop style="stop-color:#ba1fa2;stop-opacity:1;" offset="0.640625"/><stop style="stop-color:#b91fa4;stop-opacity:1;" offset="0.644531"/><stop style="stop-color:#b81fa7;stop-opacity:1;" offset="0.648438"/><stop style="stop-color:#b620a8;stop-opacity:1;" offset="0.652344"/><stop style="stop-color:#b421a9;stop-opacity:1;" offset="0.65625"/><stop style="stop-color:#b222aa;stop-opacity:1;" offset="0.660156"/><stop style="stop-color:#b023ab;stop-opacity:1;" offset="0.664062"/><stop style="stop-color:#ae23ac;stop-opacity:1;" offset="0.667969"/><stop style="stop-color:#ac24ad;stop-opacity:1;" offset="0.671875"/><stop style="stop-color:#aa25ae;stop-opacity:1;" offset="0.675781"/><stop style="stop-color:#a926af;stop-opacity:1;" offset="0.679688"/><stop style="stop-color:#a727b0;stop-opacity:1;" offset="0.683594"/><stop style="stop-color:#a528b0;stop-opacity:1;" offset="0.6875"/><stop style="stop-color:#a329b1;stop-opacity:1;" offset="0.691406"/><stop style="stop-color:#a12ab2;stop-opacity:1;" offset="0.695312"/><stop style="stop-color:#9f2bb3;stop-opacity:1;" offset="0.699219"/><stop style="stop-color:#9d2cb4;stop-opacity:1;" offset="0.703125"/><stop style="stop-color:#9b2db5;stop-opacity:1;" offset="0.707031"/><stop style="stop-color:#992eb6;stop-opacity:1;" offset="0.710938"/><stop style="stop-color:#972fb7;stop-opacity:1;" offset="0.714844"/><stop style="stop-color:#9530b8;stop-opacity:1;" offset="0.71875"/><stop style="stop-color:#9331b8;stop-opacity:1;" offset="0.722656"/><stop style="stop-color:#9132b9;stop-opacity:1;" offset="0.726562"/><stop style="stop-color:#8f33ba;stop-opacity:1;" offset="0.730469"/><stop style="stop-color:#8e34bb;stop-opacity:1;" offset="0.734375"/><stop style="stop-color:#8c35bc;stop-opacity:1;" offset="0.738281"/><stop style="stop-color:#8a36bd;stop-opacity:1;" offset="0.742188"/><stop style="stop-color:#8837be;stop-opacity:1;" offset="0.746094"/><stop style="stop-color:#8638bf;stop-opacity:1;" offset="0.75"/><stop style="stop-color:#8439bf;stop-opacity:1;" offset="0.753906"/><stop style="stop-color:#823ac0;stop-opacity:1;" offset="0.757812"/><stop style="stop-color:#803bc1;stop-opacity:1;" offset="0.761719"/><stop style="stop-color:#7e3cc2;stop-opacity:1;" offset="0.765625"/><stop style="stop-color:#7c3cc3;stop-opacity:1;" offset="0.769531"/><stop style="stop-color:#7a3dc4;stop-opacity:1;" offset="0.773438"/><stop style="stop-color:#783ec5;stop-opacity:1;" offset="0.777344"/><stop style="stop-color:#763fc6;stop-opacity:1;" offset="0.78125"/><stop style="stop-color:#7440c7;stop-opacity:1;" offset="0.785156"/><stop style="stop-color:#7341c7;stop-opacity:1;" offset="0.789062"/><stop style="stop-color:#7142c8;stop-opacity:1;" offset="0.792969"/><stop style="stop-color:#6f43c9;stop-opacity:1;" offset="0.796875"/><stop style="stop-color:#6d44ca;stop-opacity:1;" offset="0.800781"/><stop style="stop-color:#6b45cb;stop-opacity:1;" offset="0.804687"/><stop style="stop-color:#6946cc;stop-opacity:1;" offset="0.808594"/><stop style="stop-color:#6747cd;stop-opacity:1;" offset="0.8125"/><stop style="stop-color:#6548ce;stop-opacity:1;" offset="0.816406"/><stop style="stop-color:#6349cf;stop-opacity:1;" offset="0.820312"/><stop style="stop-color:#614acf;stop-opacity:1;" offset="0.824219"/><stop style="stop-color:#5f4bd0;stop-opacity:1;" offset="0.828125"/><stop style="stop-color:#5d4cd1;stop-opacity:1;" offset="0.832031"/><stop style="stop-color:#5b4dd2;stop-opacity:1;" offset="0.835937"/><stop style="stop-color:#594ed3;stop-opacity:1;" offset="0.839844"/><stop style="stop-color:#574fd4;stop-opacity:1;" offset="0.84375"/><stop style="stop-color:#5650d5;stop-opacity:1;" offset="0.847656"/><stop style="stop-color:#5451d6;stop-opacity:1;" offset="0.851562"/><stop style="stop-color:#5351d6;stop-opacity:1;" offset="0.859375"/><stop style="stop-color:#5351d6;stop-opacity:1;" offset="0.875"/><stop style="stop-color:#5351d6;stop-opacity:1;" offset="1"/></linearGradient></defs><g id="c79ef0d098"><rect x="0" width="375" y="0" height="374.999991" style="fill:#ffffff;fill-opacity:1;stroke:none;"/><rect x="0" width="375" y="0" height="374.999991" style="fill:#ffffff;fill-opacity:1;stroke:none;"/><g clip-rule="nonzero" clip-path="url(#43273d75b6)"><g clip-rule="nonzero" clip-path="url(#7d1778635a)"><path style=" stroke:none;fill-rule:nonzero;fill:url(#linear0);" d="M 129.40625 139.949219 L 129.40625 245.699219 L 235.15625 245.699219 L 235.15625 139.949219 Z M 129.40625 139.949219 "/></g></g><path style=" stroke:none;fill-rule:nonzero;fill:#ffffff;fill-opacity:1;" d="M 196.46875 224.734375 L 168.277344 224.734375 C 158.503906 224.734375 150.554688 216.785156 150.554688 207.011719 L 150.554688 178.820312 C 150.554688 169.046875 158.503906 161.097656 168.277344 161.097656 L 196.46875 161.097656 C 206.238281 161.097656 214.191406 169.046875 214.191406 178.820312 L 214.191406 207.011719 C 214.191406 216.785156 206.238281 224.734375 196.46875 224.734375 Z M 168.277344 165.40625 C 160.882812 165.40625 154.863281 171.425781 154.863281 178.820312 L 154.863281 207.011719 C 154.863281 214.40625 160.882812 220.425781 168.277344 220.425781 L 196.46875 220.425781 C 203.863281 220.425781 209.882812 214.40625 209.882812 207.011719 L 209.882812 178.820312 C 209.882812 171.425781 203.863281 165.40625 196.46875 165.40625 Z M 168.277344 165.40625 "/><path style=" stroke:none;fill-rule:nonzero;fill:#ffffff;fill-opacity:1;" d="M 182.375 208.679688 C 173.683594 208.679688 166.613281 201.609375 166.613281 192.917969 C 166.613281 184.226562 173.683594 177.15625 182.375 177.15625 C 191.066406 177.15625 198.136719 184.226562 198.136719 192.917969 C 198.136719 201.609375 191.066406 208.679688 182.375 208.679688 Z M 182.375 181.460938 C 176.058594 181.460938 170.921875 186.601562 170.921875 192.914062 C 170.921875 199.230469 176.058594 204.367188 182.375 204.367188 C 188.6875 204.367188 193.828125 199.230469 193.828125 192.914062 C 193.828125 186.601562 188.691406 181.460938 182.375 181.460938 Z M 182.375 181.460938 "/></g></svg>