<svg xmlns="http://www.w3.org/2000/svg" xmlns:xlink="http://www.w3.org/1999/xlink" width="500" zoomAndPan="magnify" viewBox="0 0 375 374.999991" height="500" preserveAspectRatio="xMidYMid meet" version="1.2"><defs><clipPath id="82a35090fd"><path d="M 112.5 152.34375 L 262.5 152.34375 L 262.5 222.84375 L 112.5 222.84375 Z M 112.5 152.34375 "/></clipPath></defs><g id="4d66c2da76"><rect x="0" width="375" y="0" height="374.999991" style="fill:#ffffff;fill-opacity:1;stroke:none;"/><rect x="0" width="375" y="0" height="374.999991" style="fill:#ffffff;fill-opacity:1;stroke:none;"/><path style=" stroke:none;fill-rule:evenodd;fill:#8a310d;fill-opacity:1;" d="M 146.234375 190.171875 L 140.863281 190.171875 L 140.863281 195.558594 L 146.234375 195.558594 Z M 146.984375 181.277344 L 170.714844 195.101562 L 146.984375 179.347656 L 122.9375 195.316406 Z M 147.644531 195.558594 L 153.03125 195.558594 L 153.03125 190.171875 L 147.644531 190.171875 Z M 147.644531 196.96875 L 147.644531 202.339844 L 153.03125 202.339844 L 153.03125 196.96875 Z M 146.234375 196.96875 L 140.863281 196.96875 L 140.863281 202.339844 L 146.234375 202.339844 Z M 146.234375 196.96875 "/><g clip-rule="nonzero" clip-path="url(#82a35090fd)"><path style=" stroke:none;fill-rule:evenodd;fill:#8a310d;fill-opacity:1;" d="M 146.984375 176.929688 L 170.714844 192.667969 L 170.714844 185.777344 L 163.734375 181.140625 L 163.734375 174.679688 L 157.902344 174.679688 L 157.902344 177.28125 L 146.984375 170.039062 L 119.996094 187.9375 L 112.910156 192.636719 C 115.402344 209.613281 130.023438 222.65625 147.691406 222.65625 C 163.382812 222.65625 176.652344 212.382812 181.183594 198.191406 L 189.054688 199.769531 L 189.054688 191.226562 L 208.097656 191.226562 L 212.367188 186.957031 L 216.640625 191.226562 L 230.433594 191.226562 L 234.382812 187.292969 L 240.292969 187.292969 L 246.539062 193.539062 L 252.769531 193.539062 L 262.457031 183.847656 L 262.457031 177.433594 L 181.382812 177.433594 C 177.050781 162.921875 163.609375 152.34375 147.691406 152.34375 C 128.417969 152.34375 112.769531 167.851562 112.542969 187.0625 L 120.59375 181.707031 C 123.257812 169.199219 134.371094 159.800781 147.691406 159.800781 C 162.984375 159.800781 175.382812 172.199219 175.382812 187.492188 C 175.382812 202.800781 162.984375 215.199219 147.691406 215.199219 C 134.738281 215.199219 123.855469 206.292969 120.839844 194.273438 Z M 182.027344 179.929688 L 257.421875 179.929688 C 257.882812 179.929688 258.265625 180.296875 258.265625 180.757812 C 258.265625 181.214844 257.882812 181.582031 257.421875 181.582031 L 182.347656 181.582031 C 182.257812 181.03125 182.148438 180.480469 182.027344 179.929688 Z M 182.027344 179.929688 "/></g></g></svg>