<svg xmlns="http://www.w3.org/2000/svg" xmlns:xlink="http://www.w3.org/1999/xlink" width="500" zoomAndPan="magnify" viewBox="0 0 375 374.999991" height="500" preserveAspectRatio="xMidYMid meet" version="1.2"><defs><clipPath id="e72f6dcf0d"><path d="M 121.140625 206 L 253.890625 206 L 253.890625 255.433594 L 121.140625 255.433594 Z M 121.140625 206 "/></clipPath><clipPath id="e4586e3ef4"><path d="M 208 148 L 253.890625 148 L 253.890625 210 L 208 210 Z M 208 148 "/></clipPath><clipPath id="650d8cdf97"><path d="M 165 206 L 169 206 L 169 255.433594 L 165 255.433594 Z M 165 206 "/></clipPath><clipPath id="709f8a3edc"><path d="M 208 206 L 212 206 L 212 255.433594 L 208 255.433594 Z M 208 206 "/></clipPath><clipPath id="a893f60ab0"><path d="M 121.140625 220 L 169 220 L 169 225 L 121.140625 225 Z M 121.140625 220 "/></clipPath><clipPath id="a1a3420d55"><path d="M 142 220 L 147 220 L 147 255.433594 L 142 255.433594 Z M 142 220 "/></clipPath><clipPath id="2ef53c6e1d"><path d="M 208 177 L 253.890625 177 L 253.890625 181 L 208 181 Z M 208 177 "/></clipPath><clipPath id="5fb0e3224c"><path d="M 163 144.433594 L 205 144.433594 L 205 183 L 163 183 Z M 163 144.433594 "/></clipPath></defs><g id="66486a702d"><rect x="0" width="375" y="0" height="374.999991" style="fill:#ffffff;fill-opacity:1;stroke:none;"/><rect x="0" width="375" y="0" height="374.999991" style="fill:#ffffff;fill-opacity:1;stroke:none;"/><g clip-rule="nonzero" clip-path="url(#e72f6dcf0d)"><path style=" stroke:none;fill-rule:nonzero;fill:#8a310d;fill-opacity:1;" d="M 209.683594 209.519531 C 210.542969 209.519531 211.238281 208.824219 211.238281 207.964844 C 211.238281 207.105469 210.542969 206.410156 209.683594 206.410156 L 122.699219 206.410156 C 121.839844 206.410156 121.144531 207.105469 121.144531 207.964844 L 121.144531 253.511719 C 121.144531 254.371094 121.839844 255.070312 122.699219 255.070312 L 252.292969 255.070312 C 253.152344 255.070312 253.847656 254.371094 253.847656 253.511719 L 253.847656 207.964844 C 253.847656 207.105469 253.152344 206.410156 252.292969 206.410156 C 251.433594 206.410156 250.738281 207.105469 250.738281 207.964844 L 250.738281 251.957031 L 124.253906 251.957031 L 124.253906 209.519531 Z M 209.683594 209.519531 "/></g><g clip-rule="nonzero" clip-path="url(#e4586e3ef4)"><path style=" stroke:none;fill-rule:nonzero;fill:#8a310d;fill-opacity:1;" d="M 250.738281 207.945312 L 250.738281 151.628906 L 211.238281 151.628906 L 211.238281 207.964844 C 211.238281 208.824219 210.542969 209.519531 209.683594 209.519531 C 208.824219 209.519531 208.128906 208.824219 208.128906 207.964844 L 208.128906 150.074219 C 208.128906 149.214844 208.824219 148.515625 209.683594 148.515625 L 252.292969 148.515625 C 253.152344 148.515625 253.847656 149.214844 253.847656 150.074219 L 253.847656 207.964844 C 253.847656 210.011719 250.738281 210.011719 250.738281 207.964844 L 250.738281 207.945312 L 250.738281 207.964844 C 253.46875 205.234375 250.753906 206.722656 250.738281 207.945312 Z M 250.738281 207.945312 "/></g><g clip-rule="nonzero" clip-path="url(#650d8cdf97)"><path style=" stroke:none;fill-rule:nonzero;fill:#8a310d;fill-opacity:1;" d="M 168.921875 207.964844 C 168.921875 207.105469 168.222656 206.410156 167.367188 206.410156 C 166.507812 206.410156 165.8125 207.105469 165.8125 207.964844 L 165.8125 253.511719 C 165.8125 254.371094 166.507812 255.070312 167.367188 255.070312 C 168.222656 255.070312 168.921875 254.371094 168.921875 253.511719 Z M 168.921875 207.964844 "/></g><g clip-rule="nonzero" clip-path="url(#709f8a3edc)"><path style=" stroke:none;fill-rule:nonzero;fill:#8a310d;fill-opacity:1;" d="M 211.238281 207.964844 C 211.238281 207.105469 210.542969 206.410156 209.683594 206.410156 C 208.824219 206.410156 208.128906 207.105469 208.128906 207.964844 L 208.128906 253.511719 C 208.128906 254.371094 208.824219 255.070312 209.683594 255.070312 C 210.542969 255.070312 211.238281 254.371094 211.238281 253.511719 Z M 211.238281 207.964844 "/></g><path style=" stroke:none;fill-rule:nonzero;fill:#8a310d;fill-opacity:1;" d="M 174.683594 248.339844 L 202.144531 248.339844 C 202.363281 248.339844 202.566406 248.25 202.710938 248.101562 C 202.859375 247.953125 202.949219 247.753906 202.949219 247.535156 L 202.949219 229.226562 C 202.949219 229.007812 202.859375 228.804688 202.710938 228.660156 C 202.566406 228.511719 202.363281 228.421875 202.144531 228.421875 L 174.683594 228.421875 C 174.464844 228.421875 174.265625 228.511719 174.117188 228.660156 C 173.96875 228.804688 173.878906 229.007812 173.878906 229.226562 L 173.878906 247.535156 C 173.878906 247.753906 173.96875 247.953125 174.117188 248.101562 C 174.265625 248.25 174.464844 248.339844 174.683594 248.339844 Z M 202.144531 251.449219 L 174.683594 251.449219 C 173.605469 251.449219 172.625 251.007812 171.917969 250.300781 C 171.210938 249.59375 170.769531 248.613281 170.769531 247.535156 L 170.769531 229.226562 C 170.769531 228.148438 171.210938 227.167969 171.917969 226.460938 C 172.625 225.75 173.605469 225.3125 174.683594 225.3125 L 202.144531 225.3125 C 203.222656 225.3125 204.203125 225.75 204.910156 226.460938 C 205.621094 227.167969 206.058594 228.148438 206.058594 229.226562 L 206.058594 247.535156 C 206.058594 248.613281 205.621094 249.59375 204.910156 250.300781 C 204.203125 251.007812 203.222656 251.449219 202.144531 251.449219 Z M 202.144531 251.449219 "/><path style=" stroke:none;fill-rule:nonzero;fill:#8a310d;fill-opacity:1;" d="M 177.078125 210.820312 C 178.183594 210.820312 179.1875 211.269531 179.921875 212 L 179.921875 212.003906 L 179.925781 212.003906 L 179.925781 212 C 179.964844 212.035156 179.996094 212.074219 180.027344 212.113281 C 180.699219 212.835938 181.105469 213.796875 181.105469 214.847656 C 181.105469 215.960938 180.65625 216.96875 179.925781 217.695312 C 179.199219 218.425781 178.191406 218.875 177.078125 218.875 C 175.972656 218.875 174.964844 218.425781 174.238281 217.695312 L 175.332031 216.597656 L 174.230469 217.695312 C 174.195312 217.660156 174.164062 217.625 174.132812 217.589844 C 173.460938 216.867188 173.050781 215.90625 173.050781 214.847656 C 173.050781 213.734375 173.503906 212.730469 174.230469 212 C 174.960938 211.273438 175.96875 210.820312 177.078125 210.820312 Z M 178.828125 213.101562 L 177.726562 214.191406 C 177.566406 214.03125 177.335938 213.929688 177.078125 213.929688 C 176.824219 213.929688 176.597656 214.035156 176.429688 214.199219 C 176.265625 214.363281 176.160156 214.59375 176.160156 214.847656 C 176.160156 215.078125 176.246094 215.289062 176.382812 215.449219 L 176.429688 215.496094 L 176.425781 215.5 C 176.59375 215.664062 176.824219 215.765625 177.078125 215.765625 C 177.332031 215.765625 177.5625 215.660156 177.726562 215.496094 C 177.894531 215.332031 177.996094 215.101562 177.996094 214.847656 C 177.996094 214.617188 177.914062 214.40625 177.78125 214.25 L 177.726562 214.199219 Z M 178.828125 213.101562 "/><path style=" stroke:none;fill-rule:nonzero;fill:#8a310d;fill-opacity:1;" d="M 198.296875 211.40625 C 199.246094 211.40625 200.105469 211.789062 200.730469 212.414062 C 201.351562 213.035156 201.738281 213.898438 201.738281 214.847656 C 201.738281 215.796875 201.351562 216.660156 200.730469 217.28125 C 200.105469 217.90625 199.246094 218.289062 198.296875 218.289062 C 197.34375 218.289062 196.484375 217.90625 195.863281 217.28125 C 195.238281 216.660156 194.851562 215.796875 194.851562 214.847656 C 194.851562 213.898438 195.238281 213.035156 195.863281 212.414062 C 196.484375 211.789062 197.34375 211.40625 198.296875 211.40625 Z M 198.53125 214.613281 C 198.472656 214.554688 198.386719 214.515625 198.296875 214.515625 C 198.203125 214.515625 198.121094 214.554688 198.0625 214.613281 C 198 214.671875 197.964844 214.757812 197.964844 214.847656 C 197.964844 214.941406 198 215.023438 198.0625 215.082031 C 198.121094 215.140625 198.203125 215.179688 198.296875 215.179688 C 198.386719 215.179688 198.472656 215.140625 198.53125 215.082031 C 198.589844 215.023438 198.628906 214.941406 198.628906 214.847656 C 198.628906 214.757812 198.589844 214.671875 198.53125 214.613281 Z M 198.53125 214.613281 "/><path style=" stroke:none;fill-rule:nonzero;fill:#8a310d;fill-opacity:1;" d="M 167.367188 219.332031 C 166.507812 219.332031 165.8125 220.027344 165.8125 220.886719 C 165.8125 221.742188 166.507812 222.441406 167.367188 222.441406 L 209.683594 222.441406 C 210.542969 222.441406 211.238281 221.742188 211.238281 220.886719 C 211.238281 220.027344 210.542969 219.332031 209.683594 219.332031 Z M 167.367188 219.332031 "/><path style=" stroke:none;fill-rule:nonzero;fill:#8a310d;fill-opacity:1;" d="M 185.042969 210.070312 L 190.226562 210.070312 C 191.085938 210.070312 191.785156 210.765625 191.785156 211.625 L 191.785156 216.808594 C 191.785156 217.667969 191.085938 218.363281 190.226562 218.363281 L 185.042969 218.363281 C 184.1875 218.363281 183.488281 217.667969 183.488281 216.808594 L 183.488281 211.625 C 183.488281 210.765625 184.1875 210.070312 185.042969 210.070312 Z M 188.671875 213.179688 L 186.601562 213.179688 L 186.601562 215.253906 L 188.671875 215.253906 Z M 188.671875 213.179688 "/><g clip-rule="nonzero" clip-path="url(#a893f60ab0)"><path style=" stroke:none;fill-rule:nonzero;fill:#8a310d;fill-opacity:1;" d="M 122.699219 220.949219 C 121.839844 220.949219 121.144531 221.644531 121.144531 222.503906 C 121.144531 223.363281 121.839844 224.058594 122.699219 224.058594 L 167.367188 224.058594 C 168.226562 224.058594 168.921875 223.363281 168.921875 222.503906 C 168.921875 221.644531 168.226562 220.949219 167.367188 220.949219 Z M 122.699219 220.949219 "/></g><g clip-rule="nonzero" clip-path="url(#a1a3420d55)"><path style=" stroke:none;fill-rule:nonzero;fill:#8a310d;fill-opacity:1;" d="M 142.957031 253.511719 C 142.957031 254.371094 143.65625 255.070312 144.515625 255.070312 C 145.371094 255.070312 146.070312 254.371094 146.070312 253.511719 L 146.070312 222.503906 C 146.070312 221.644531 145.371094 220.949219 144.515625 220.949219 C 143.65625 220.949219 142.957031 221.644531 142.957031 222.503906 Z M 142.957031 253.511719 "/></g><path style=" stroke:none;fill-rule:nonzero;fill:#8a310d;fill-opacity:1;" d="M 137.289062 192.636719 C 137.289062 193.496094 137.988281 194.191406 138.84375 194.191406 C 139.703125 194.191406 140.402344 193.496094 140.402344 192.636719 C 140.402344 190.199219 141.699219 188.648438 143.359375 187.980469 C 144.039062 187.710938 144.777344 187.574219 145.511719 187.574219 L 145.511719 187.578125 C 146.253906 187.578125 146.992188 187.714844 147.660156 187.980469 C 149.320312 188.648438 150.621094 190.199219 150.621094 192.636719 L 150.621094 208.070312 C 150.621094 208.929688 151.316406 209.625 152.175781 209.625 C 153.03125 209.625 153.730469 208.929688 153.730469 208.070312 L 153.730469 192.636719 C 153.730469 188.726562 151.574219 186.210938 148.8125 185.101562 C 147.761719 184.679688 146.632812 184.46875 145.511719 184.46875 L 145.511719 184.472656 C 144.378906 184.476562 143.246094 184.683594 142.207031 185.101562 C 139.445312 186.210938 137.289062 188.726562 137.289062 192.636719 Z M 137.289062 192.636719 "/><path style=" stroke:none;fill-rule:nonzero;fill:#8a310d;fill-opacity:1;" d="M 140.207031 191.886719 L 143.757812 197.109375 L 143.765625 197.109375 C 143.945312 197.375 144.035156 197.679688 144.03125 197.980469 L 144.03125 199.84375 C 144.03125 200.703125 143.335938 201.398438 142.476562 201.398438 L 135.210938 201.398438 C 134.355469 201.398438 133.65625 200.703125 133.65625 199.84375 L 133.65625 197.921875 C 133.65625 197.539062 133.796875 197.1875 134.027344 196.917969 L 137.570312 191.761719 L 138.84375 192.636719 L 137.5625 191.753906 C 138.050781 191.046875 139.019531 190.867188 139.726562 191.355469 C 139.933594 191.496094 140.09375 191.679688 140.207031 191.886719 Z M 140.8125 198.289062 L 138.835938 195.378906 L 136.839844 198.289062 Z M 140.8125 198.289062 "/><g clip-rule="nonzero" clip-path="url(#2ef53c6e1d)"><path style=" stroke:none;fill-rule:nonzero;fill:#8a310d;fill-opacity:1;" d="M 209.683594 177.464844 C 208.824219 177.464844 208.128906 178.160156 208.128906 179.019531 C 208.128906 179.878906 208.824219 180.574219 209.683594 180.574219 L 252.292969 180.574219 C 253.152344 180.574219 253.847656 179.878906 253.847656 179.019531 C 253.847656 178.160156 253.152344 177.464844 252.292969 177.464844 Z M 209.683594 177.464844 "/></g><path style=" stroke:none;fill-rule:nonzero;fill:#8a310d;fill-opacity:1;" d="M 213.894531 210.195312 C 213.035156 210.195312 212.339844 210.890625 212.339844 211.75 C 212.339844 212.609375 213.035156 213.304688 213.894531 213.304688 C 215.636719 213.304688 217 211.328125 217.796875 208.140625 C 218.441406 205.5625 218.839844 202.035156 218.839844 198.183594 C 218.839844 195.925781 218.863281 194.457031 218.886719 192.910156 C 218.921875 190.539062 218.960938 188.019531 218.941406 184.667969 C 218.9375 183.8125 218.242188 183.121094 217.386719 183.125 C 216.53125 183.128906 215.839844 183.824219 215.84375 184.679688 C 215.863281 187.996094 215.824219 190.511719 215.789062 192.871094 C 215.757812 194.839844 215.730469 196.71875 215.730469 198.183594 C 215.730469 201.792969 215.367188 205.050781 214.785156 207.386719 C 214.351562 209.121094 214.019531 210.195312 213.894531 210.195312 Z M 215.703125 175.328125 C 215.734375 176.183594 216.453125 176.855469 217.308594 176.824219 C 218.164062 176.792969 218.832031 176.074219 218.800781 175.21875 C 218.652344 171.347656 218.355469 167.851562 217.8125 165.316406 C 217.121094 162.097656 215.898438 160.117188 213.894531 160.117188 C 213.035156 160.117188 212.339844 160.8125 212.339844 161.671875 C 212.339844 162.53125 213.035156 163.226562 213.894531 163.226562 C 214.105469 163.226562 214.410156 164.269531 214.773438 165.960938 C 215.28125 168.332031 215.558594 171.640625 215.703125 175.328125 Z M 215.703125 175.328125 "/><path style=" stroke:none;fill-rule:nonzero;fill:#8a310d;fill-opacity:1;" d="M 150.976562 232.949219 C 150.976562 232.089844 150.277344 231.394531 149.421875 231.394531 C 148.5625 231.394531 147.867188 232.089844 147.867188 232.949219 L 147.867188 240.726562 C 147.867188 241.585938 148.5625 242.28125 149.421875 242.28125 C 150.277344 242.28125 150.976562 241.585938 150.976562 240.726562 Z M 150.976562 232.949219 "/><path style=" stroke:none;fill-rule:nonzero;fill:#8a310d;fill-opacity:1;" d="M 141.257812 232.949219 C 141.257812 232.089844 140.558594 231.394531 139.699219 231.394531 C 138.84375 231.394531 138.144531 232.089844 138.144531 232.949219 L 138.144531 240.726562 C 138.144531 241.585938 138.84375 242.28125 139.699219 242.28125 C 140.558594 242.28125 141.257812 241.585938 141.257812 240.726562 Z M 141.257812 232.949219 "/><path style=" stroke:none;fill-rule:nonzero;fill:#8a310d;fill-opacity:1;" d="M 136.785156 213.574219 C 135.925781 213.574219 135.230469 214.273438 135.230469 215.128906 C 135.230469 215.988281 135.925781 216.6875 136.785156 216.6875 L 155.253906 216.6875 C 156.109375 216.6875 156.808594 215.988281 156.808594 215.128906 C 156.808594 214.273438 156.109375 213.574219 155.253906 213.574219 Z M 136.785156 213.574219 "/><g clip-rule="nonzero" clip-path="url(#5fb0e3224c)"><path style=" stroke:none;fill-rule:nonzero;fill:#8a310d;fill-opacity:1;" d="M 191.089844 145.984375 C 191.089844 145.128906 190.390625 144.429688 189.535156 144.429688 C 188.675781 144.429688 187.980469 145.128906 187.980469 145.984375 L 187.980469 161.214844 C 187.980469 161.644531 188.152344 162.03125 188.433594 162.3125 L 201.101562 174.980469 L 201.101562 179.421875 L 166.304688 179.421875 L 166.304688 174.980469 L 178.96875 162.3125 C 179.25 162.03125 179.425781 161.644531 179.425781 161.214844 L 179.425781 145.984375 C 179.425781 145.128906 178.726562 144.429688 177.871094 144.429688 C 177.011719 144.429688 176.3125 145.128906 176.3125 145.984375 L 176.3125 160.570312 L 163.648438 173.234375 C 163.34375 173.539062 163.191406 173.9375 163.191406 174.335938 L 163.191406 180.976562 C 163.191406 181.835938 163.890625 182.53125 164.75 182.53125 L 202.65625 182.53125 C 203.515625 182.53125 204.210938 181.835938 204.210938 180.976562 L 204.210938 174.335938 C 204.210938 173.9375 204.058594 173.539062 203.753906 173.234375 L 191.089844 160.570312 Z M 191.089844 145.984375 "/></g><path style=" stroke:none;fill-rule:nonzero;fill:#8a310d;fill-opacity:1;" d="M 164.75 172.78125 C 163.890625 172.78125 163.191406 173.476562 163.191406 174.335938 C 163.191406 175.195312 163.890625 175.890625 164.75 175.890625 L 202.65625 175.890625 C 203.515625 175.890625 204.210938 175.195312 204.210938 174.335938 C 204.210938 173.476562 203.515625 172.78125 202.65625 172.78125 Z M 164.75 172.78125 "/></g></svg>