<svg xmlns="http://www.w3.org/2000/svg" xmlns:xlink="http://www.w3.org/1999/xlink" width="500" zoomAndPan="magnify" viewBox="0 0 375 374.999991" height="500" preserveAspectRatio="xMidYMid meet" version="1.2"><g id="30befe08be"><rect x="0" width="375" y="0" height="374.999991" style="fill:#ffffff;fill-opacity:1;stroke:none;"/><rect x="0" width="375" y="0" height="374.999991" style="fill:#ffffff;fill-opacity:1;stroke:none;"/><path style=" stroke:none;fill-rule:nonzero;fill:#8a310d;fill-opacity:1;" d="M 241.949219 148.71875 C 231.015625 146.761719 219.917969 145.867188 208.984375 143.945312 C 203.941406 140.199219 199.972656 135.113281 195.394531 130.816406 C 193.617188 129.355469 191.992188 126.699219 189.351562 127.175781 C 186.355469 128.667969 184.339844 131.503906 181.9375 133.753906 C 180.042969 131.832031 176.480469 129.355469 174.363281 132.429688 C 172.0625 134.816406 174.675781 137.589844 176.242188 139.484375 C 173.988281 141.992188 170.796875 143.945312 169.632812 147.214844 C 169.78125 151.179688 174.703125 152.792969 175.957031 156.175781 C 167.351562 165.214844 158.339844 173.871094 149.570312 182.726562 C 145.675781 181.371094 141.140625 180.742188 137.425781 182.996094 C 131.160156 186.1875 128.777344 194.898438 132.636719 200.792969 C 135.292969 205.566406 141.007812 207.460938 146.199219 206.890625 C 152.867188 218.660156 159.355469 230.519531 165.992188 242.304688 C 161.515625 242.394531 156.386719 241.765625 152.804688 245.0625 C 148.152344 248.761719 148.226562 255.296875 148.945312 260.636719 C 149.808594 262.394531 151.746094 263.113281 153.613281 262.933594 C 174.453125 262.917969 195.289062 262.980469 216.128906 262.902344 C 218.277344 263.1875 220.621094 261.472656 220.53125 259.203125 C 220.886719 254.355469 220.785156 248.65625 216.695312 245.269531 C 212.058594 241.035156 205.269531 242.644531 199.585938 242.378906 C 199.570312 239.660156 198.945312 235.648438 195.320312 235.917969 C 191.964844 236.097656 191.667969 239.78125 191.53125 242.347656 C 185.9375 242.332031 180.359375 242.347656 174.78125 242.363281 C 167.484375 229.324219 160.222656 216.269531 152.941406 203.21875 C 156.402344 198.925781 157.074219 193.195312 155.027344 188.121094 C 163.921875 179.144531 172.898438 170.238281 181.820312 161.289062 C 183.460938 163.300781 186.25 164.75 186.667969 167.523438 C 188.339844 178.144531 189.386719 188.871094 191.21875 199.476562 C 191.519531 202.25 195.5 203.890625 197.382812 201.546875 C 201.421875 197.9375 205.003906 193.863281 208.941406 190.152344 C 215.550781 193.941406 224.511719 193.417969 229.941406 187.808594 C 235.835938 182.4375 236.597656 173.1875 232.628906 166.460938 C 236.417969 162.328125 240.820312 158.761719 244.339844 154.390625 C 246.125 152.34375 244.589844 149.03125 241.949219 148.71875 Z M 241.949219 148.71875 "/></g></svg>