<svg xmlns="http://www.w3.org/2000/svg" xmlns:xlink="http://www.w3.org/1999/xlink" width="500" zoomAndPan="magnify" viewBox="0 0 375 374.999991" height="500" preserveAspectRatio="xMidYMid meet" version="1.2"><defs><clipPath id="a68f2a5663"><path d="M 129.683594 145.355469 L 245.183594 145.355469 L 245.183594 260.855469 L 129.683594 260.855469 Z M 129.683594 145.355469 "/></clipPath></defs><g id="e431631391"><rect x="0" width="375" y="0" height="374.999991" style="fill:#ffffff;fill-opacity:1;stroke:none;"/><rect x="0" width="375" y="0" height="374.999991" style="fill:#ffffff;fill-opacity:1;stroke:none;"/><g clip-rule="nonzero" clip-path="url(#a68f2a5663)"><path style=" stroke:none;fill-rule:nonzero;fill:#8a310d;fill-opacity:1;" d="M 245.183594 145.355469 L 129.683594 145.355469 L 129.683594 260.855469 L 245.183594 260.855469 Z M 155.09375 253.257812 L 155.09375 168.886719 L 186.855469 168.886719 L 186.855469 253.257812 Z M 237.585938 253.257812 L 220.929688 253.257812 L 220.929688 208.691406 C 220.539062 208.824219 220.15625 208.925781 219.773438 209 L 219.773438 253.257812 L 188.011719 253.257812 L 188.011719 168.886719 L 219.773438 168.886719 L 219.773438 201.589844 C 220.082031 201.394531 220.464844 201.117188 220.929688 200.734375 L 220.929688 167.734375 L 153.9375 167.734375 L 153.9375 253.257812 L 137.28125 253.257812 L 137.28125 152.953125 L 237.585938 152.953125 Z M 237.585938 253.257812 "/></g><path style=" stroke:none;fill-rule:nonzero;fill:#8a310d;fill-opacity:1;" d="M 207.429688 160.152344 L 167.4375 160.152344 L 167.4375 165.640625 L 207.429688 165.640625 Z M 172.128906 163.957031 C 171.542969 163.957031 171.070312 163.480469 171.070312 162.898438 C 171.070312 162.3125 171.542969 161.839844 172.128906 161.839844 C 172.714844 161.839844 173.1875 162.3125 173.1875 162.898438 C 173.1875 163.480469 172.714844 163.957031 172.128906 163.957031 Z M 179.78125 163.957031 C 179.195312 163.957031 178.722656 163.480469 178.722656 162.898438 C 178.722656 162.3125 179.195312 161.839844 179.78125 161.839844 C 180.367188 161.839844 180.839844 162.3125 180.839844 162.898438 C 180.839844 163.480469 180.367188 163.957031 179.78125 163.957031 Z M 187.433594 163.957031 C 186.847656 163.957031 186.375 163.480469 186.375 162.898438 C 186.375 162.3125 186.847656 161.839844 187.433594 161.839844 C 188.015625 161.839844 188.492188 162.3125 188.492188 162.898438 C 188.492188 163.480469 188.015625 163.957031 187.433594 163.957031 Z M 195.085938 163.957031 C 194.5 163.957031 194.027344 163.480469 194.027344 162.898438 C 194.027344 162.3125 194.5 161.839844 195.085938 161.839844 C 195.667969 161.839844 196.144531 162.3125 196.144531 162.898438 C 196.144531 163.480469 195.667969 163.957031 195.085938 163.957031 Z M 202.738281 163.957031 C 202.152344 163.957031 201.675781 163.480469 201.675781 162.898438 C 201.675781 162.3125 202.152344 161.839844 202.738281 161.839844 C 203.320312 161.839844 203.796875 162.3125 203.796875 162.898438 C 203.796875 163.480469 203.320312 163.957031 202.738281 163.957031 Z M 202.738281 163.957031 "/><path style=" stroke:none;fill-rule:nonzero;fill:#8a310d;fill-opacity:1;" d="M 227.515625 198.96875 L 228.246094 198.96875 L 228.246094 199.921875 C 228.761719 200.917969 228.761719 202.117188 228.246094 203.113281 L 228.246094 204.0625 L 227.527344 204.0625 C 226.246094 205.351562 225.054688 206.371094 223.914062 207.15625 L 223.914062 221.527344 L 234.695312 221.527344 L 234.695312 188.222656 L 223.914062 188.222656 L 223.914062 198.289062 C 224.308594 198.136719 224.734375 198.050781 225.171875 198.050781 C 226.046875 198.050781 226.875 198.378906 227.515625 198.96875 Z M 228.246094 214.136719 L 226.511719 214.136719 L 226.511719 212.40625 L 228.246094 212.40625 Z M 228.246094 210.777344 L 226.511719 210.777344 L 226.511719 209.046875 L 228.246094 209.046875 Z M 228.246094 207.417969 L 226.511719 207.417969 L 226.511719 205.6875 L 228.246094 205.6875 Z M 230.363281 195.609375 L 232.09375 195.609375 L 232.09375 197.34375 L 230.363281 197.34375 Z M 230.363281 198.96875 L 232.09375 198.96875 L 232.09375 200.703125 L 230.363281 200.703125 Z M 230.363281 202.328125 L 232.09375 202.328125 L 232.09375 204.0625 L 230.363281 204.0625 Z M 230.363281 205.6875 L 232.09375 205.6875 L 232.09375 207.417969 L 230.363281 207.417969 Z M 230.363281 209.046875 L 232.09375 209.046875 L 232.09375 210.777344 L 230.363281 210.777344 Z M 230.363281 212.40625 L 232.09375 212.40625 L 232.09375 214.136719 L 230.363281 214.136719 Z M 226.511719 195.609375 L 228.246094 195.609375 L 228.246094 197.34375 L 226.511719 197.34375 Z M 226.511719 195.609375 "/><path style=" stroke:none;fill-rule:nonzero;fill:#8a310d;fill-opacity:1;" d="M 226.820312 203.136719 C 227.714844 202.222656 227.699219 200.761719 226.789062 199.867188 C 225.878906 198.976562 224.417969 198.988281 223.523438 199.898438 C 222.105469 201.347656 220.941406 202.257812 220.070312 202.761719 C 219.191406 203.269531 218.648438 203.371094 218.332031 203.371094 C 217.984375 203.359375 217.757812 203.285156 217.335938 202.988281 C 216.714844 202.550781 215.949219 201.558594 215.007812 200.488281 C 214.527344 199.953125 213.984375 199.390625 213.25 198.90625 C 212.617188 198.480469 211.785156 198.121094 210.855469 198.042969 C 210.753906 198.03125 210.648438 198.019531 210.539062 198.019531 L 199.382812 198.019531 C 199.347656 198.019531 199.308594 198.023438 199.269531 198.027344 C 198.75 198.035156 197.886719 198.148438 196.90625 198.640625 C 195.355469 199.410156 193.679688 201.097656 192.507812 204.082031 C 191.320312 207.078125 190.523438 211.410156 190.523438 217.953125 C 190.523438 219.644531 190.574219 221.484375 190.695312 223.488281 C 190.765625 224.714844 191.785156 225.660156 193 225.660156 C 193.042969 225.660156 193.089844 225.660156 193.136719 225.65625 C 194.410156 225.582031 195.378906 224.488281 195.304688 223.214844 C 195.191406 221.296875 195.140625 219.546875 195.140625 217.953125 C 195.132812 210.960938 196.152344 207.03125 197.152344 204.984375 L 197.152344 248.296875 C 197.152344 250.269531 198.753906 251.867188 200.722656 251.867188 C 202.695312 251.867188 204.292969 250.269531 204.292969 248.296875 L 204.292969 222.230469 L 205.632812 222.230469 L 205.632812 248.296875 C 205.632812 250.269531 207.230469 251.867188 209.203125 251.867188 C 211.171875 251.867188 212.773438 250.269531 212.773438 248.296875 L 212.773438 204.96875 C 212.953125 205.171875 213.144531 205.382812 213.34375 205.597656 C 213.890625 206.15625 214.53125 206.738281 215.363281 207.203125 C 216.179688 207.664062 217.203125 207.992188 218.308594 207.992188 C 218.316406 207.992188 218.324219 207.992188 218.332031 207.992188 C 219.667969 207.992188 221.027344 207.554688 222.394531 206.753906 C 223.769531 205.953125 225.203125 204.78125 226.820312 203.136719 Z M 226.820312 203.136719 "/><path style=" stroke:none;fill-rule:nonzero;fill:#8a310d;fill-opacity:1;" d="M 211.460938 189.878906 C 211.460938 190.304688 211.417969 190.726562 211.335938 191.144531 C 211.25 191.5625 211.128906 191.96875 210.964844 192.363281 C 210.800781 192.757812 210.601562 193.132812 210.363281 193.488281 C 210.128906 193.839844 209.859375 194.167969 209.558594 194.472656 C 209.253906 194.773438 208.925781 195.042969 208.570312 195.28125 C 208.21875 195.515625 207.84375 195.714844 207.449219 195.878906 C 207.054688 196.042969 206.648438 196.167969 206.230469 196.25 C 205.8125 196.332031 205.390625 196.375 204.960938 196.375 C 204.535156 196.375 204.113281 196.332031 203.695312 196.25 C 203.277344 196.167969 202.871094 196.042969 202.476562 195.878906 C 202.082031 195.714844 201.707031 195.515625 201.351562 195.28125 C 201 195.042969 200.671875 194.773438 200.367188 194.472656 C 200.066406 194.167969 199.796875 193.839844 199.5625 193.488281 C 199.324219 193.132812 199.125 192.757812 198.960938 192.363281 C 198.796875 191.96875 198.675781 191.5625 198.589844 191.144531 C 198.507812 190.726562 198.464844 190.304688 198.464844 189.878906 C 198.464844 189.449219 198.507812 189.027344 198.589844 188.609375 C 198.675781 188.191406 198.796875 187.785156 198.960938 187.390625 C 199.125 186.996094 199.324219 186.621094 199.5625 186.269531 C 199.796875 185.914062 200.066406 185.585938 200.367188 185.285156 C 200.671875 184.980469 201 184.710938 201.351562 184.476562 C 201.707031 184.238281 202.082031 184.039062 202.476562 183.875 C 202.871094 183.710938 203.277344 183.589844 203.695312 183.503906 C 204.113281 183.421875 204.535156 183.378906 204.960938 183.378906 C 205.390625 183.378906 205.8125 183.421875 206.230469 183.503906 C 206.648438 183.589844 207.054688 183.710938 207.449219 183.875 C 207.84375 184.039062 208.21875 184.238281 208.570312 184.476562 C 208.925781 184.710938 209.253906 184.980469 209.558594 185.285156 C 209.859375 185.585938 210.128906 185.914062 210.363281 186.269531 C 210.601562 186.621094 210.800781 186.996094 210.964844 187.390625 C 211.128906 187.785156 211.25 188.191406 211.335938 188.609375 C 211.417969 189.027344 211.460938 189.449219 211.460938 189.878906 Z M 211.460938 189.878906 "/></g></svg>