<svg xmlns="http://www.w3.org/2000/svg" xmlns:xlink="http://www.w3.org/1999/xlink" width="500" zoomAndPan="magnify" viewBox="0 0 375 374.999991" height="500" preserveAspectRatio="xMidYMid meet" version="1.2"><defs><clipPath id="d9dd7416ee"><path d="M 190 178 L 249 178 L 249 229.914062 L 190 229.914062 Z M 190 178 "/></clipPath><clipPath id="9868f66471"><path d="M 125 182 L 210 182 L 210 229.914062 L 125 229.914062 Z M 125 182 "/></clipPath><clipPath id="34f76b7e0b"><path d="M 125 170 L 240 170 L 240 229.914062 L 125 229.914062 Z M 125 170 "/></clipPath><clipPath id="7123028188"><path d="M 157 117.414062 L 218 117.414062 L 218 195 L 157 195 Z M 157 117.414062 "/></clipPath></defs><g id="bba3bd3d0e"><rect x="0" width="375" y="0" height="374.999991" style="fill:#ffffff;fill-opacity:1;stroke:none;"/><rect x="0" width="375" y="0" height="374.999991" style="fill:#ffffff;fill-opacity:1;stroke:none;"/><path style=" stroke:none;fill-rule:nonzero;fill:#1976d2;fill-opacity:1;" d="M 238.710938 181.546875 L 235.117188 169.84375 C 234.917969 169.183594 234.664062 168.542969 234.363281 167.921875 C 234.058594 167.304688 233.710938 166.710938 233.3125 166.148438 C 232.914062 165.582031 232.476562 165.054688 231.996094 164.5625 C 231.511719 164.070312 230.996094 163.617188 230.441406 163.207031 C 229.886719 162.796875 229.304688 162.433594 228.691406 162.117188 C 228.082031 161.800781 227.445312 161.535156 226.792969 161.324219 C 226.136719 161.109375 225.472656 160.945312 224.789062 160.839844 C 224.109375 160.730469 223.425781 160.679688 222.738281 160.683594 L 151.796875 160.683594 C 151.109375 160.679688 150.425781 160.730469 149.742188 160.839844 C 149.0625 160.945312 148.394531 161.109375 147.742188 161.324219 C 147.085938 161.539062 146.453125 161.804688 145.839844 162.121094 C 145.230469 162.4375 144.644531 162.796875 144.09375 163.207031 C 143.539062 163.617188 143.019531 164.070312 142.539062 164.5625 C 142.058594 165.058594 141.617188 165.585938 141.21875 166.148438 C 140.824219 166.710938 140.472656 167.304688 140.171875 167.925781 C 139.867188 168.542969 139.617188 169.183594 139.414062 169.84375 L 137.515625 176.039062 C 137.375 176.503906 137.3125 176.980469 137.328125 177.464844 C 137.347656 177.953125 137.445312 178.421875 137.621094 178.875 C 137.796875 179.328125 138.042969 179.742188 138.355469 180.113281 C 138.671875 180.484375 139.039062 180.792969 139.457031 181.039062 L 202.765625 218.359375 C 203.1875 218.609375 203.640625 218.78125 204.121094 218.878906 C 204.605469 218.972656 205.085938 218.984375 205.574219 218.914062 C 206.058594 218.84375 206.519531 218.695312 206.953125 218.464844 C 207.390625 218.238281 207.773438 217.941406 208.109375 217.582031 L 237.738281 185.769531 C 238.265625 185.203125 238.613281 184.542969 238.789062 183.789062 C 238.960938 183.035156 238.9375 182.285156 238.710938 181.546875 Z M 238.710938 181.546875 "/><path style=" stroke:none;fill-rule:nonzero;fill:#689f38;fill-opacity:1;" d="M 160.773438 183.566406 L 143.835938 173.582031 C 143.554688 173.414062 143.257812 173.28125 142.945312 173.183594 C 142.636719 173.085938 142.320312 173.023438 141.992188 172.996094 C 141.667969 172.972656 141.34375 172.980469 141.023438 173.027344 C 140.699219 173.074219 140.386719 173.15625 140.082031 173.277344 C 139.777344 173.394531 139.492188 173.546875 139.222656 173.730469 C 138.953125 173.910156 138.707031 174.125 138.484375 174.363281 C 138.261719 174.601562 138.070312 174.863281 137.90625 175.144531 C 137.742188 175.429688 137.613281 175.726562 137.519531 176.039062 L 128.960938 203.910156 C 128.828125 204.339844 128.765625 204.78125 128.769531 205.230469 C 128.777344 205.683594 128.847656 206.121094 128.992188 206.546875 C 129.132812 206.976562 129.335938 207.371094 129.601562 207.734375 C 129.867188 208.097656 130.183594 208.414062 130.546875 208.679688 C 130.910156 208.945312 131.304688 209.148438 131.730469 209.289062 C 132.160156 209.429688 132.597656 209.503906 133.046875 209.507812 C 133.496094 209.511719 133.9375 209.449219 134.367188 209.3125 C 134.792969 209.179688 135.195312 208.984375 135.5625 208.726562 L 161.054688 190.839844 C 161.351562 190.632812 161.617188 190.394531 161.855469 190.117188 C 162.089844 189.84375 162.289062 189.542969 162.449219 189.21875 C 162.609375 188.894531 162.726562 188.554688 162.800781 188.203125 C 162.878906 187.847656 162.910156 187.488281 162.894531 187.125 C 162.878906 186.765625 162.820312 186.410156 162.71875 186.0625 C 162.617188 185.714844 162.472656 185.386719 162.285156 185.074219 C 162.101562 184.765625 161.878906 184.480469 161.625 184.226562 C 161.367188 183.972656 161.082031 183.75 160.773438 183.566406 Z M 160.773438 183.566406 "/><g clip-rule="nonzero" clip-path="url(#d9dd7416ee)"><path style=" stroke:none;fill-rule:nonzero;fill:#689f38;fill-opacity:1;" d="M 248.402344 213.113281 L 238.707031 181.546875 C 238.652344 181.363281 238.585938 181.1875 238.507812 181.015625 C 238.429688 180.84375 238.339844 180.679688 238.238281 180.519531 C 238.140625 180.359375 238.027344 180.207031 237.910156 180.0625 C 237.789062 179.914062 237.660156 179.777344 237.523438 179.648438 C 237.382812 179.519531 237.238281 179.402344 237.085938 179.292969 C 236.929688 179.183594 236.769531 179.082031 236.605469 178.996094 C 236.4375 178.90625 236.265625 178.828125 236.089844 178.761719 C 235.914062 178.695312 235.734375 178.644531 235.550781 178.601562 C 235.367188 178.558594 235.179688 178.527344 234.992188 178.511719 C 234.804688 178.492188 234.617188 178.488281 234.429688 178.492188 C 234.242188 178.5 234.054688 178.519531 233.867188 178.550781 C 233.683594 178.582031 233.5 178.625 233.320312 178.679688 C 233.136719 178.734375 232.960938 178.800781 232.789062 178.878906 C 232.621094 178.957031 232.453125 179.046875 232.292969 179.148438 C 232.132812 179.25 231.980469 179.359375 231.835938 179.480469 C 231.691406 179.597656 231.554688 179.726562 231.425781 179.867188 L 191.59375 222.632812 C 191.308594 222.941406 191.070312 223.285156 190.886719 223.664062 C 190.699219 224.039062 190.570312 224.4375 190.496094 224.851562 C 190.425781 225.269531 190.414062 225.683594 190.464844 226.101562 C 190.515625 226.523438 190.625 226.925781 190.792969 227.308594 C 190.960938 227.695312 191.179688 228.050781 191.449219 228.375 C 191.722656 228.695312 192.03125 228.972656 192.382812 229.203125 C 192.734375 229.433594 193.113281 229.609375 193.515625 229.730469 C 193.917969 229.851562 194.332031 229.914062 194.75 229.914062 L 236.019531 229.914062 C 236.527344 229.914062 237.03125 229.882812 237.53125 229.824219 C 238.03125 229.765625 238.527344 229.675781 239.019531 229.558594 C 239.511719 229.441406 239.996094 229.296875 240.46875 229.125 C 240.941406 228.949219 241.40625 228.75 241.855469 228.519531 C 242.308594 228.292969 242.742188 228.039062 243.164062 227.761719 C 243.585938 227.480469 243.988281 227.179688 244.375 226.851562 C 244.761719 226.527344 245.125 226.179688 245.472656 225.808594 C 245.816406 225.4375 246.140625 225.050781 246.441406 224.644531 C 246.738281 224.238281 247.015625 223.8125 247.265625 223.375 C 247.515625 222.933594 247.742188 222.480469 247.9375 222.015625 C 248.136719 221.550781 248.304688 221.074219 248.449219 220.589844 C 248.589844 220.105469 248.703125 219.613281 248.789062 219.113281 C 248.875 218.613281 248.929688 218.113281 248.957031 217.605469 C 248.980469 217.101562 248.980469 216.597656 248.945312 216.089844 C 248.914062 215.585938 248.851562 215.085938 248.761719 214.585938 C 248.667969 214.089844 248.550781 213.597656 248.402344 213.113281 Z M 248.402344 213.113281 "/></g><g clip-rule="nonzero" clip-path="url(#9868f66471)"><path style=" stroke:none;fill-rule:nonzero;fill:#1976d2;fill-opacity:1;" d="M 207.140625 210.902344 L 160.769531 183.566406 C 160.414062 183.355469 160.035156 183.203125 159.632812 183.101562 C 159.230469 183 158.824219 182.957031 158.410156 182.972656 C 157.996094 182.988281 157.59375 183.0625 157.203125 183.195312 C 156.8125 183.328125 156.445312 183.515625 156.105469 183.75 L 130.613281 201.636719 C 129.800781 202.203125 129.25 202.960938 128.960938 203.910156 L 126.132812 213.113281 C 125.984375 213.597656 125.867188 214.085938 125.773438 214.585938 C 125.683594 215.082031 125.621094 215.585938 125.589844 216.089844 C 125.554688 216.59375 125.550781 217.097656 125.578125 217.605469 C 125.605469 218.109375 125.660156 218.613281 125.746094 219.113281 C 125.828125 219.609375 125.941406 220.101562 126.085938 220.589844 C 126.226562 221.074219 126.398438 221.550781 126.59375 222.015625 C 126.792969 222.480469 127.015625 222.933594 127.269531 223.375 C 127.519531 223.8125 127.792969 224.234375 128.09375 224.644531 C 128.394531 225.050781 128.714844 225.4375 129.0625 225.808594 C 129.40625 226.175781 129.773438 226.523438 130.160156 226.851562 C 130.542969 227.179688 130.949219 227.480469 131.371094 227.761719 C 131.789062 228.039062 132.226562 228.292969 132.679688 228.519531 C 133.128906 228.75 133.589844 228.949219 134.066406 229.125 C 134.539062 229.296875 135.023438 229.441406 135.515625 229.558594 C 136.003906 229.675781 136.503906 229.765625 137.003906 229.824219 C 137.503906 229.882812 138.007812 229.914062 138.511719 229.914062 L 194.75 229.914062 C 195.351562 229.914062 195.921875 229.792969 196.472656 229.554688 C 197.019531 229.316406 197.5 228.976562 197.90625 228.539062 L 208.109375 217.582031 C 208.328125 217.347656 208.523438 217.085938 208.683594 216.808594 C 208.847656 216.527344 208.976562 216.234375 209.074219 215.925781 C 209.171875 215.613281 209.230469 215.296875 209.257812 214.976562 C 209.28125 214.652344 209.273438 214.332031 209.226562 214.011719 C 209.179688 213.6875 209.097656 213.378906 208.980469 213.074219 C 208.867188 212.773438 208.71875 212.488281 208.535156 212.21875 C 208.355469 211.949219 208.148438 211.703125 207.914062 211.480469 C 207.675781 211.257812 207.421875 211.066406 207.140625 210.902344 Z M 207.140625 210.902344 "/></g><g clip-rule="nonzero" clip-path="url(#34f76b7e0b)"><path style=" stroke:none;fill-rule:nonzero;fill:#ffb300;fill-opacity:1;" d="M 239.421875 183.917969 L 196.59375 229.914062 L 184.804688 229.914062 L 198.105469 215.632812 L 158.773438 192.441406 L 125.570312 215.71875 C 125.652344 214.832031 125.839844 213.96875 126.132812 213.125 L 129.414062 202.480469 L 150.613281 187.59375 L 136.535156 179.289062 L 139.125 170.808594 L 204.148438 209.144531 L 235.925781 175.046875 C 236.097656 174.839844 236.296875 174.664062 236.53125 174.527344 Z M 239.421875 183.917969 "/></g><g clip-rule="nonzero" clip-path="url(#7123028188)"><path style=" stroke:none;fill-rule:nonzero;fill:#f44336;fill-opacity:1;" d="M 208.34375 126.457031 C 206.902344 125.035156 205.332031 123.773438 203.632812 122.671875 C 201.933594 121.574219 200.144531 120.65625 198.261719 119.917969 C 196.375 119.179688 194.4375 118.640625 192.445312 118.300781 C 190.453125 117.960938 188.445312 117.820312 186.425781 117.886719 C 185.464844 117.921875 184.503906 118.003906 183.550781 118.128906 C 182.597656 118.257812 181.652344 118.425781 180.714844 118.640625 C 179.777344 118.859375 178.851562 119.117188 177.9375 119.421875 C 177.027344 119.722656 176.128906 120.070312 175.25 120.457031 C 174.367188 120.847656 173.507812 121.277344 172.667969 121.746094 C 171.828125 122.214844 171.011719 122.726562 170.222656 123.273438 C 169.429688 123.820312 168.664062 124.402344 167.929688 125.023438 C 167.191406 125.644531 166.488281 126.296875 165.8125 126.984375 C 165.136719 127.667969 164.496094 128.386719 163.886719 129.132812 C 163.28125 129.882812 162.710938 130.65625 162.175781 131.457031 C 161.640625 132.261719 161.148438 133.085938 160.691406 133.933594 C 160.234375 134.78125 159.820312 135.652344 159.445312 136.539062 C 159.070312 137.425781 158.738281 138.332031 158.449219 139.25 C 158.160156 140.167969 157.917969 141.101562 157.714844 142.042969 C 157.515625 142.984375 157.359375 143.9375 157.246094 144.894531 C 157.136719 145.851562 157.070312 146.8125 157.050781 147.777344 C 156.992188 151.082031 157.472656 154.308594 158.492188 157.453125 C 159.507812 160.601562 161.007812 163.496094 162.988281 166.140625 C 163.535156 166.960938 177.144531 185.925781 181.492188 191.964844 C 181.652344 192.1875 181.824219 192.394531 182.007812 192.597656 C 182.191406 192.796875 182.382812 192.984375 182.589844 193.160156 C 182.796875 193.339844 183.011719 193.503906 183.234375 193.65625 C 183.460938 193.808594 183.691406 193.945312 183.933594 194.070312 C 184.175781 194.195312 184.421875 194.304688 184.675781 194.398438 C 184.929688 194.492188 185.1875 194.574219 185.453125 194.636719 C 185.714844 194.703125 185.980469 194.75 186.25 194.785156 C 186.519531 194.816406 186.789062 194.832031 187.058594 194.835938 C 187.332031 194.835938 187.601562 194.820312 187.871094 194.789062 C 188.140625 194.761719 188.40625 194.714844 188.671875 194.652344 C 188.933594 194.589844 189.195312 194.511719 189.449219 194.417969 C 189.703125 194.324219 189.953125 194.21875 190.195312 194.097656 C 190.4375 193.972656 190.667969 193.839844 190.894531 193.6875 C 191.121094 193.539062 191.339844 193.375 191.546875 193.199219 C 191.753906 193.027344 191.949219 192.839844 192.132812 192.640625 C 192.320312 192.441406 192.492188 192.234375 192.652344 192.015625 C 192.816406 191.796875 210.773438 167.1875 211.472656 166.296875 C 213.414062 163.671875 214.898438 160.8125 215.929688 157.710938 C 216.957031 154.613281 217.476562 151.429688 217.492188 148.164062 C 217.496094 146.140625 217.300781 144.132812 216.902344 142.148438 C 216.507812 140.164062 215.914062 138.238281 215.128906 136.375 C 214.34375 134.507812 213.378906 132.742188 212.234375 131.070312 C 211.09375 129.402344 209.796875 127.863281 208.34375 126.457031 Z M 208.34375 126.457031 "/></g><path style=" stroke:none;fill-rule:nonzero;fill:#eeeeee;fill-opacity:1;" d="M 200.21875 148.566406 C 200.21875 149.417969 200.136719 150.261719 199.972656 151.097656 C 199.804688 151.933594 199.558594 152.746094 199.234375 153.535156 C 198.910156 154.320312 198.507812 155.070312 198.039062 155.777344 C 197.566406 156.488281 197.027344 157.144531 196.425781 157.746094 C 195.824219 158.347656 195.171875 158.886719 194.464844 159.359375 C 193.757812 159.832031 193.011719 160.234375 192.222656 160.558594 C 191.4375 160.886719 190.628906 161.132812 189.792969 161.296875 C 188.960938 161.464844 188.117188 161.546875 187.265625 161.546875 C 186.417969 161.546875 185.574219 161.464844 184.742188 161.296875 C 183.90625 161.132812 183.097656 160.886719 182.3125 160.558594 C 181.523438 160.234375 180.777344 159.832031 180.070312 159.359375 C 179.363281 158.886719 178.710938 158.347656 178.109375 157.746094 C 177.507812 157.144531 176.96875 156.488281 176.496094 155.777344 C 176.023438 155.070312 175.625 154.320312 175.300781 153.535156 C 174.976562 152.746094 174.730469 151.933594 174.5625 151.097656 C 174.398438 150.261719 174.316406 149.417969 174.316406 148.566406 C 174.316406 147.714844 174.398438 146.871094 174.5625 146.035156 C 174.730469 145.199219 174.976562 144.386719 175.300781 143.597656 C 175.625 142.8125 176.023438 142.0625 176.496094 141.355469 C 176.96875 140.644531 177.507812 139.992188 178.109375 139.386719 C 178.710938 138.785156 179.363281 138.246094 180.070312 137.773438 C 180.777344 137.300781 181.523438 136.898438 182.3125 136.574219 C 183.097656 136.246094 183.90625 136 184.742188 135.835938 C 185.574219 135.667969 186.417969 135.585938 187.265625 135.585938 C 188.117188 135.585938 188.960938 135.667969 189.792969 135.835938 C 190.628906 136 191.4375 136.246094 192.222656 136.574219 C 193.011719 136.898438 193.757812 137.300781 194.464844 137.773438 C 195.171875 138.246094 195.824219 138.785156 196.425781 139.386719 C 197.027344 139.992188 197.566406 140.644531 198.039062 141.355469 C 198.507812 142.0625 198.910156 142.8125 199.234375 143.597656 C 199.558594 144.386719 199.804688 145.199219 199.972656 146.035156 C 200.136719 146.871094 200.21875 147.714844 200.21875 148.566406 Z M 200.21875 148.566406 "/></g></svg>