<svg xmlns="http://www.w3.org/2000/svg" xmlns:xlink="http://www.w3.org/1999/xlink" width="500" zoomAndPan="magnify" viewBox="0 0 375 374.999991" height="500" preserveAspectRatio="xMidYMid meet" version="1.2"><defs><clipPath id="0be0391e58"><path d="M 131.441406 131.441406 L 243.191406 131.441406 L 243.191406 243.191406 L 131.441406 243.191406 Z M 131.441406 131.441406 "/></clipPath></defs><g id="6210bb5ab3"><rect x="0" width="375" y="0" height="374.999991" style="fill:#ffffff;fill-opacity:1;stroke:none;"/><rect x="0" width="375" y="0" height="374.999991" style="fill:#ffffff;fill-opacity:1;stroke:none;"/><g clip-rule="nonzero" clip-path="url(#0be0391e58)"><path style=" stroke:none;fill-rule:nonzero;fill:#8a310d;fill-opacity:1;" d="M 187.316406 131.441406 C 185.488281 131.441406 183.660156 131.53125 181.839844 131.710938 C 180.019531 131.890625 178.210938 132.160156 176.417969 132.515625 C 174.621094 132.871094 172.847656 133.316406 171.097656 133.847656 C 169.347656 134.378906 167.625 134.996094 165.933594 135.695312 C 164.242188 136.394531 162.589844 137.175781 160.976562 138.039062 C 159.363281 138.902344 157.796875 139.84375 156.273438 140.859375 C 154.753906 141.875 153.285156 142.964844 151.871094 144.125 C 150.457031 145.285156 149.101562 146.511719 147.808594 147.808594 C 146.511719 149.101562 145.285156 150.457031 144.125 151.871094 C 142.964844 153.285156 141.875 154.753906 140.859375 156.273438 C 139.84375 157.796875 138.902344 159.363281 138.039062 160.976562 C 137.175781 162.589844 136.394531 164.242188 135.695312 165.933594 C 134.996094 167.625 134.378906 169.347656 133.847656 171.097656 C 133.316406 172.847656 132.871094 174.621094 132.515625 176.417969 C 132.160156 178.210938 131.890625 180.019531 131.710938 181.839844 C 131.53125 183.660156 131.441406 185.488281 131.441406 187.316406 C 131.441406 189.148438 131.53125 190.972656 131.710938 192.792969 C 131.890625 194.613281 132.160156 196.421875 132.515625 198.21875 C 132.871094 200.011719 133.316406 201.785156 133.847656 203.535156 C 134.378906 205.289062 134.996094 207.007812 135.695312 208.699219 C 136.394531 210.390625 137.175781 212.042969 138.039062 213.65625 C 138.902344 215.269531 139.84375 216.835938 140.859375 218.359375 C 141.875 219.882812 142.964844 221.347656 144.125 222.765625 C 145.285156 224.179688 146.511719 225.53125 147.808594 226.828125 C 149.101562 228.121094 150.457031 229.347656 151.871094 230.507812 C 153.285156 231.667969 154.753906 232.757812 156.273438 233.773438 C 157.796875 234.792969 159.363281 235.730469 160.976562 236.59375 C 162.589844 237.457031 164.242188 238.238281 165.933594 238.9375 C 167.625 239.640625 169.347656 240.253906 171.097656 240.785156 C 172.847656 241.316406 174.621094 241.761719 176.417969 242.117188 C 178.210938 242.476562 180.019531 242.742188 181.839844 242.921875 C 183.660156 243.101562 185.488281 243.191406 187.316406 243.191406 C 189.148438 243.191406 190.972656 243.101562 192.792969 242.921875 C 194.613281 242.742188 196.421875 242.476562 198.21875 242.117188 C 200.011719 241.761719 201.785156 241.316406 203.535156 240.785156 C 205.289062 240.253906 207.007812 239.640625 208.699219 238.9375 C 210.390625 238.238281 212.042969 237.457031 213.65625 236.59375 C 215.269531 235.730469 216.835938 234.792969 218.359375 233.773438 C 219.882812 232.757812 221.347656 231.667969 222.761719 230.507812 C 224.179688 229.347656 225.53125 228.121094 226.828125 226.828125 C 228.121094 225.53125 229.347656 224.179688 230.507812 222.765625 C 231.667969 221.347656 232.757812 219.882812 233.773438 218.359375 C 234.792969 216.835938 235.730469 215.269531 236.59375 213.65625 C 237.457031 212.042969 238.238281 210.390625 238.9375 208.699219 C 239.640625 207.007812 240.253906 205.289062 240.785156 203.535156 C 241.316406 201.785156 241.761719 200.011719 242.117188 198.21875 C 242.476562 196.421875 242.742188 194.613281 242.921875 192.792969 C 243.101562 190.972656 243.191406 189.148438 243.191406 187.316406 C 243.191406 185.488281 243.097656 183.664062 242.917969 181.84375 C 242.734375 180.023438 242.464844 178.214844 242.109375 176.421875 C 241.75 174.625 241.304688 172.855469 240.773438 171.105469 C 240.238281 169.355469 239.621094 167.632812 238.921875 165.945312 C 238.21875 164.253906 237.4375 162.601562 236.574219 160.988281 C 235.710938 159.378906 234.773438 157.808594 233.753906 156.289062 C 232.738281 154.769531 231.648438 153.300781 230.488281 151.886719 C 229.328125 150.472656 228.101562 149.121094 226.808594 147.824219 C 225.515625 146.53125 224.160156 145.304688 222.746094 144.144531 C 221.332031 142.984375 219.863281 141.894531 218.34375 140.878906 C 216.824219 139.859375 215.257812 138.921875 213.644531 138.058594 C 212.03125 137.195312 210.378906 136.414062 208.691406 135.710938 C 207 135.011719 205.28125 134.394531 203.53125 133.863281 C 201.777344 133.328125 200.007812 132.882812 198.214844 132.527344 C 196.417969 132.167969 194.613281 131.898438 192.792969 131.714844 C 190.972656 131.535156 189.144531 131.445312 187.316406 131.441406 Z M 187.316406 238.332031 C 185.644531 238.332031 183.980469 238.25 182.316406 238.085938 C 180.652344 237.925781 179.003906 237.679688 177.363281 237.351562 C 175.726562 237.027344 174.105469 236.621094 172.507812 236.136719 C 170.910156 235.652344 169.335938 235.089844 167.792969 234.449219 C 166.25 233.808594 164.742188 233.097656 163.269531 232.308594 C 161.792969 231.523438 160.363281 230.664062 158.972656 229.734375 C 157.585938 228.808594 156.242188 227.8125 154.953125 226.753906 C 153.660156 225.691406 152.425781 224.574219 151.242188 223.390625 C 150.0625 222.210938 148.941406 220.972656 147.878906 219.679688 C 146.820312 218.390625 145.828125 217.050781 144.898438 215.660156 C 143.96875 214.269531 143.113281 212.839844 142.324219 211.367188 C 141.535156 209.890625 140.824219 208.382812 140.183594 206.839844 C 139.542969 205.296875 138.980469 203.726562 138.496094 202.125 C 138.011719 200.527344 137.605469 198.910156 137.28125 197.269531 C 136.953125 195.632812 136.710938 193.980469 136.546875 192.316406 C 136.382812 190.65625 136.300781 188.988281 136.300781 187.316406 C 136.300781 185.644531 136.382812 183.980469 136.546875 182.316406 C 136.710938 180.652344 136.953125 179.003906 137.28125 177.363281 C 137.605469 175.726562 138.011719 174.105469 138.496094 172.507812 C 138.980469 170.910156 139.542969 169.335938 140.183594 167.792969 C 140.824219 166.25 141.535156 164.742188 142.324219 163.269531 C 143.113281 161.792969 143.96875 160.363281 144.898438 158.972656 C 145.828125 157.585938 146.820312 156.242188 147.878906 154.953125 C 148.941406 153.660156 150.0625 152.425781 151.242188 151.242188 C 152.425781 150.0625 153.660156 148.941406 154.953125 147.878906 C 156.242188 146.820312 157.585938 145.828125 158.972656 144.898438 C 160.363281 143.96875 161.792969 143.113281 163.269531 142.324219 C 164.742188 141.535156 166.25 140.824219 167.792969 140.183594 C 169.335938 139.542969 170.910156 138.980469 172.507812 138.496094 C 174.105469 138.011719 175.726562 137.605469 177.363281 137.28125 C 179.003906 136.953125 180.652344 136.710938 182.316406 136.546875 C 183.980469 136.382812 185.644531 136.300781 187.316406 136.300781 C 188.988281 136.300781 190.65625 136.382812 192.316406 136.546875 C 193.980469 136.710938 195.632812 136.953125 197.269531 137.28125 C 198.910156 137.605469 200.527344 138.011719 202.125 138.496094 C 203.726562 138.980469 205.296875 139.542969 206.839844 140.183594 C 208.382812 140.824219 209.890625 141.535156 211.367188 142.324219 C 212.839844 143.113281 214.269531 143.96875 215.660156 144.898438 C 217.050781 145.828125 218.390625 146.820312 219.679688 147.878906 C 220.972656 148.941406 222.210938 150.0625 223.390625 151.242188 C 224.574219 152.425781 225.691406 153.660156 226.753906 154.953125 C 227.8125 156.242188 228.808594 157.585938 229.734375 158.972656 C 230.664062 160.363281 231.523438 161.792969 232.308594 163.269531 C 233.097656 164.742188 233.808594 166.25 234.449219 167.792969 C 235.089844 169.335938 235.652344 170.910156 236.136719 172.507812 C 236.621094 174.105469 237.027344 175.726562 237.351562 177.363281 C 237.679688 179.003906 237.921875 180.652344 238.085938 182.316406 C 238.25 183.980469 238.332031 185.644531 238.332031 187.316406 C 238.332031 188.988281 238.246094 190.652344 238.082031 192.316406 C 237.917969 193.976562 237.671875 195.628906 237.34375 197.265625 C 237.015625 198.902344 236.609375 200.523438 236.125 202.121094 C 235.636719 203.71875 235.074219 205.289062 234.433594 206.832031 C 233.792969 208.375 233.082031 209.882812 232.292969 211.355469 C 231.503906 212.828125 230.644531 214.257812 229.71875 215.648438 C 228.789062 217.035156 227.796875 218.375 226.734375 219.664062 C 225.675781 220.957031 224.554688 222.191406 223.375 223.375 C 222.191406 224.554688 220.957031 225.675781 219.664062 226.734375 C 218.375 227.796875 217.035156 228.789062 215.648438 229.71875 C 214.257812 230.644531 212.828125 231.503906 211.355469 232.292969 C 209.882812 233.082031 208.375 233.792969 206.832031 234.433594 C 205.289062 235.074219 203.71875 235.636719 202.121094 236.125 C 200.523438 236.609375 198.902344 237.015625 197.265625 237.34375 C 195.628906 237.671875 193.976562 237.917969 192.316406 238.082031 C 190.652344 238.246094 188.988281 238.332031 187.316406 238.332031 Z M 187.316406 238.332031 "/></g><path style=" stroke:none;fill-rule:nonzero;fill:#8a310d;fill-opacity:1;" d="M 201.894531 155.734375 L 172.742188 155.734375 C 171.945312 155.734375 171.152344 155.816406 170.371094 155.972656 C 169.589844 156.128906 168.832031 156.359375 168.09375 156.664062 C 167.359375 156.96875 166.660156 157.34375 165.996094 157.785156 C 165.332031 158.230469 164.71875 158.734375 164.15625 159.296875 C 163.589844 159.859375 163.089844 160.472656 162.644531 161.136719 C 162.203125 161.800781 161.828125 162.5 161.523438 163.234375 C 161.214844 163.972656 160.984375 164.730469 160.828125 165.511719 C 160.671875 166.296875 160.59375 167.085938 160.59375 167.882812 C 160.59375 168.203125 160.65625 168.515625 160.777344 168.8125 C 160.902344 169.109375 161.078125 169.371094 161.304688 169.601562 C 161.535156 169.828125 161.796875 170.003906 162.09375 170.125 C 162.390625 170.25 162.703125 170.3125 163.023438 170.3125 C 163.34375 170.3125 163.65625 170.25 163.953125 170.125 C 164.25 170.003906 164.511719 169.828125 164.742188 169.601562 C 164.96875 169.371094 165.144531 169.109375 165.269531 168.8125 C 165.390625 168.515625 165.453125 168.203125 165.453125 167.882812 C 165.453125 167.402344 165.5 166.929688 165.59375 166.460938 C 165.6875 165.992188 165.828125 165.535156 166.011719 165.09375 C 166.191406 164.652344 166.417969 164.234375 166.683594 163.835938 C 166.949219 163.4375 167.25 163.070312 167.589844 162.730469 C 167.929688 162.394531 168.296875 162.089844 168.695312 161.824219 C 169.089844 161.558594 169.511719 161.335938 169.953125 161.152344 C 170.394531 160.96875 170.851562 160.828125 171.320312 160.734375 C 171.789062 160.640625 172.261719 160.59375 172.742188 160.59375 L 201.894531 160.59375 C 202.371094 160.59375 202.84375 160.640625 203.3125 160.734375 C 203.785156 160.828125 204.238281 160.96875 204.679688 161.152344 C 205.121094 161.335938 205.542969 161.558594 205.941406 161.824219 C 206.335938 162.089844 206.707031 162.394531 207.042969 162.730469 C 207.382812 163.070312 207.683594 163.4375 207.949219 163.835938 C 208.214844 164.234375 208.441406 164.652344 208.625 165.09375 C 208.808594 165.535156 208.945312 165.992188 209.039062 166.460938 C 209.132812 166.929688 209.179688 167.402344 209.179688 167.882812 L 209.179688 206.75 C 209.179688 207.230469 209.132812 207.703125 209.039062 208.171875 C 208.945312 208.640625 208.808594 209.097656 208.625 209.539062 C 208.441406 209.980469 208.214844 210.402344 207.949219 210.796875 C 207.683594 211.195312 207.382812 211.566406 207.042969 211.902344 C 206.707031 212.242188 206.335938 212.542969 205.941406 212.808594 C 205.542969 213.074219 205.121094 213.300781 204.679688 213.484375 C 204.238281 213.667969 203.785156 213.804688 203.3125 213.898438 C 202.84375 213.992188 202.371094 214.039062 201.894531 214.039062 L 172.742188 214.039062 C 172.261719 214.039062 171.789062 213.992188 171.320312 213.898438 C 170.851562 213.804688 170.394531 213.667969 169.953125 213.484375 C 169.511719 213.300781 169.089844 213.074219 168.695312 212.808594 C 168.296875 212.542969 167.929688 212.242188 167.589844 211.902344 C 167.25 211.566406 166.949219 211.195312 166.683594 210.796875 C 166.417969 210.402344 166.191406 209.980469 166.011719 209.539062 C 165.828125 209.097656 165.6875 208.640625 165.59375 208.171875 C 165.5 207.703125 165.453125 207.230469 165.453125 206.75 C 165.453125 206.429688 165.390625 206.121094 165.269531 205.820312 C 165.144531 205.523438 164.96875 205.261719 164.742188 205.035156 C 164.511719 204.804688 164.25 204.628906 163.953125 204.507812 C 163.65625 204.382812 163.34375 204.324219 163.023438 204.324219 C 162.703125 204.324219 162.390625 204.382812 162.09375 204.507812 C 161.796875 204.628906 161.535156 204.804688 161.304688 205.035156 C 161.078125 205.261719 160.902344 205.523438 160.777344 205.820312 C 160.65625 206.121094 160.59375 206.429688 160.59375 206.75 C 160.59375 207.550781 160.671875 208.339844 160.828125 209.121094 C 160.984375 209.902344 161.214844 210.660156 161.523438 211.398438 C 161.828125 212.132812 162.203125 212.835938 162.644531 213.496094 C 163.089844 214.160156 163.589844 214.773438 164.15625 215.335938 C 164.71875 215.902344 165.332031 216.40625 165.996094 216.847656 C 166.660156 217.289062 167.359375 217.664062 168.09375 217.96875 C 168.832031 218.277344 169.589844 218.507812 170.371094 218.664062 C 171.152344 218.820312 171.945312 218.898438 172.742188 218.898438 L 201.894531 218.898438 C 202.691406 218.898438 203.480469 218.820312 204.261719 218.664062 C 205.042969 218.507812 205.804688 218.277344 206.539062 217.96875 C 207.277344 217.664062 207.976562 217.289062 208.636719 216.847656 C 209.300781 216.40625 209.914062 215.902344 210.476562 215.335938 C 211.042969 214.773438 211.546875 214.160156 211.988281 213.496094 C 212.433594 212.835938 212.804688 212.132812 213.113281 211.398438 C 213.417969 210.660156 213.648438 209.902344 213.804688 209.121094 C 213.960938 208.339844 214.039062 207.550781 214.039062 206.75 L 214.039062 167.882812 C 214.039062 167.085938 213.960938 166.296875 213.804688 165.511719 C 213.648438 164.730469 213.417969 163.972656 213.113281 163.234375 C 212.804688 162.5 212.433594 161.800781 211.988281 161.136719 C 211.546875 160.472656 211.042969 159.859375 210.476562 159.296875 C 209.914062 158.734375 209.300781 158.230469 208.636719 157.785156 C 207.976562 157.34375 207.277344 156.96875 206.539062 156.664062 C 205.804688 156.359375 205.042969 156.128906 204.261719 155.972656 C 203.480469 155.816406 202.691406 155.734375 201.894531 155.734375 Z M 201.894531 155.734375 "/><path style=" stroke:none;fill-rule:nonzero;fill:#8a310d;fill-opacity:1;" d="M 175.882812 195.316406 C 175.648438 195.542969 175.464844 195.804688 175.335938 196.105469 C 175.207031 196.40625 175.144531 196.71875 175.140625 197.042969 C 175.136719 197.367188 175.199219 197.683594 175.320312 197.984375 C 175.445312 198.285156 175.621094 198.550781 175.851562 198.78125 C 176.082031 199.011719 176.347656 199.1875 176.648438 199.3125 C 176.953125 199.4375 177.265625 199.496094 177.589844 199.492188 C 177.917969 199.492188 178.230469 199.425781 178.527344 199.296875 C 178.828125 199.167969 179.089844 198.984375 179.316406 198.75 L 189.03125 189.039062 C 189.257812 188.808594 189.433594 188.546875 189.558594 188.246094 C 189.679688 187.949219 189.742188 187.640625 189.742188 187.316406 C 189.742188 186.996094 189.679688 186.683594 189.558594 186.386719 C 189.433594 186.089844 189.257812 185.824219 189.03125 185.597656 L 179.316406 175.882812 C 179.089844 175.660156 178.824219 175.492188 178.53125 175.375 C 178.234375 175.253906 177.925781 175.199219 177.609375 175.199219 C 177.289062 175.203125 176.984375 175.265625 176.691406 175.390625 C 176.394531 175.511719 176.136719 175.6875 175.910156 175.910156 C 175.6875 176.136719 175.511719 176.394531 175.390625 176.691406 C 175.265625 176.984375 175.203125 177.289062 175.199219 177.609375 C 175.199219 177.925781 175.253906 178.234375 175.375 178.53125 C 175.492188 178.824219 175.660156 179.089844 175.882812 179.316406 L 181.453125 184.886719 L 158.164062 184.886719 C 157.84375 184.886719 157.53125 184.949219 157.234375 185.074219 C 156.9375 185.195312 156.675781 185.371094 156.445312 185.597656 C 156.21875 185.828125 156.042969 186.089844 155.921875 186.386719 C 155.796875 186.683594 155.734375 186.996094 155.734375 187.316406 C 155.734375 187.640625 155.796875 187.949219 155.921875 188.246094 C 156.042969 188.542969 156.21875 188.808594 156.445312 189.035156 C 156.675781 189.261719 156.9375 189.4375 157.234375 189.5625 C 157.53125 189.683594 157.84375 189.746094 158.164062 189.746094 L 181.453125 189.746094 Z M 175.882812 195.316406 "/></g></svg>