<svg xmlns="http://www.w3.org/2000/svg" xmlns:xlink="http://www.w3.org/1999/xlink" width="500" zoomAndPan="magnify" viewBox="0 0 375 374.999991" height="500" preserveAspectRatio="xMidYMid meet" version="1.2"><defs><clipPath id="a467a6bdfa"><path d="M 132.878906 141.546875 L 242.378906 141.546875 L 242.378906 256.296875 L 132.878906 256.296875 Z M 132.878906 141.546875 "/></clipPath></defs><g id="0fcde88b32"><rect x="0" width="375" y="0" height="374.999991" style="fill:#ffffff;fill-opacity:1;stroke:none;"/><rect x="0" width="375" y="0" height="374.999991" style="fill:#ffffff;fill-opacity:1;stroke:none;"/><path style=" stroke:none;fill-rule:nonzero;fill:#8a310d;fill-opacity:1;" d="M 187.457031 169.949219 C 175.398438 169.949219 165.625 180.214844 165.625 192.878906 C 165.625 205.542969 175.398438 215.808594 187.457031 215.808594 C 199.515625 215.808594 209.289062 205.542969 209.289062 192.878906 C 209.289062 180.214844 199.515625 169.949219 187.457031 169.949219 "/><g clip-rule="nonzero" clip-path="url(#a467a6bdfa)"><path style=" stroke:none;fill-rule:nonzero;fill:#8a310d;fill-opacity:1;" d="M 223.714844 238.496094 C 218.878906 226.695312 208.730469 219.3125 187.421875 219.3125 C 166.144531 219.3125 155.996094 226.675781 151.152344 238.449219 C 141.296875 228.460938 135.164062 214.445312 135.164062 198.921875 C 135.164062 168.585938 158.578125 143.996094 187.457031 143.996094 C 216.335938 143.996094 239.75 168.585938 239.75 198.921875 C 239.75 214.46875 233.597656 228.503906 223.714844 238.496094 Z M 187.457031 141.59375 C 157.3125 141.59375 132.878906 167.261719 132.878906 198.921875 C 132.878906 215.480469 139.5625 230.402344 150.253906 240.867188 C 160 250.410156 173.078125 256.25 187.457031 256.25 C 201.808594 256.25 214.867188 250.429688 224.613281 240.914062 C 235.332031 230.445312 242.035156 215.507812 242.035156 198.921875 C 242.035156 167.261719 217.601562 141.59375 187.457031 141.59375 "/></g></g></svg>