<svg xmlns="http://www.w3.org/2000/svg" xmlns:xlink="http://www.w3.org/1999/xlink" width="500" zoomAndPan="magnify" viewBox="0 0 375 374.999991" height="500" preserveAspectRatio="xMidYMid meet" version="1.2"><defs><clipPath id="2c273f8ab2"><path d="M 129 125.519531 L 239.855469 125.519531 L 239.855469 247 L 129 247 Z M 129 125.519531 "/></clipPath></defs><g id="aee4cb39ab"><rect x="0" width="375" y="0" height="374.999991" style="fill:#ffffff;fill-opacity:1;stroke:none;"/><rect x="0" width="375" y="0" height="374.999991" style="fill:#ffffff;fill-opacity:1;stroke:none;"/><g clip-rule="nonzero" clip-path="url(#2c273f8ab2)"><path style=" stroke:none;fill-rule:nonzero;fill:#8a310d;fill-opacity:1;" d="M 239.210938 191.34375 C 239.214844 192.988281 239.144531 194.628906 239 196.265625 C 238.855469 197.902344 238.640625 199.53125 238.347656 201.148438 C 238.058594 202.765625 237.695312 204.367188 237.257812 205.953125 C 236.824219 207.539062 236.316406 209.101562 235.738281 210.640625 C 235.164062 212.179688 234.519531 213.6875 233.804688 215.171875 C 233.09375 216.652344 232.316406 218.097656 231.472656 219.507812 C 230.628906 220.917969 229.722656 222.289062 228.757812 223.617188 C 227.789062 224.945312 226.765625 226.230469 225.679688 227.46875 C 224.597656 228.703125 223.460938 229.890625 222.273438 231.023438 C 221.082031 232.15625 219.84375 233.234375 218.558594 234.257812 C 217.269531 235.28125 215.941406 236.242188 214.566406 237.144531 C 213.191406 238.046875 211.78125 238.886719 210.332031 239.660156 C 208.882812 240.433594 207.398438 241.144531 205.886719 241.785156 C 204.371094 242.425781 202.832031 242.996094 201.269531 243.5 C 199.703125 244 198.117188 244.433594 196.515625 244.792969 C 194.910156 245.152344 193.292969 245.4375 191.664062 245.648438 C 190.035156 245.863281 188.398438 246.003906 186.753906 246.070312 C 185.113281 246.132812 183.472656 246.125 181.828125 246.042969 C 180.1875 245.960938 178.554688 245.804688 176.925781 245.574219 C 175.296875 245.34375 173.683594 245.039062 172.085938 244.664062 C 170.484375 244.289062 168.902344 243.84375 167.34375 243.324219 C 165.785156 242.804688 164.25 242.21875 162.746094 241.5625 C 161.238281 240.902344 159.761719 240.179688 158.320312 239.390625 C 156.878906 238.601562 155.476562 237.746094 154.113281 236.832031 C 152.75 235.914062 151.429688 234.9375 150.152344 233.902344 C 148.875 232.867188 147.648438 231.777344 146.46875 230.628906 C 145.292969 229.484375 144.167969 228.285156 143.097656 227.039062 C 142.027344 225.789062 141.015625 224.496094 140.0625 223.160156 C 139.109375 221.820312 138.21875 220.441406 137.390625 219.019531 C 136.5625 217.601562 135.800781 216.148438 135.101562 214.660156 C 134.40625 213.167969 133.777344 211.652344 133.214844 210.109375 C 132.65625 208.5625 132.164062 206.996094 131.746094 205.40625 C 131.328125 203.816406 130.980469 202.210938 130.707031 200.589844 C 130.429688 198.96875 130.230469 197.339844 130.105469 195.703125 C 129.976562 194.0625 129.921875 192.421875 129.945312 190.777344 C 129.964844 189.132812 130.058594 187.496094 130.230469 185.859375 C 130.398438 184.226562 130.640625 182.601562 130.957031 180.988281 C 131.273438 179.375 131.660156 177.777344 132.117188 176.199219 C 132.578125 174.621094 133.109375 173.070312 133.707031 171.539062 C 134.308594 170.007812 134.976562 168.507812 135.710938 167.039062 C 136.445312 165.566406 137.246094 164.132812 138.109375 162.734375 C 138.976562 161.335938 139.902344 159.980469 140.886719 158.667969 C 141.875 157.351562 142.917969 156.085938 144.019531 154.867188 C 145.121094 153.644531 146.277344 152.476562 147.484375 151.363281 C 148.691406 150.246094 149.945312 149.1875 151.246094 148.183594 C 152.550781 147.179688 153.894531 146.238281 155.28125 145.359375 C 156.671875 144.476562 158.09375 143.660156 159.554688 142.90625 C 161.015625 142.152344 162.507812 141.46875 164.03125 140.851562 C 164.359375 140.742188 164.695312 140.664062 165.039062 140.617188 C 165.382812 140.570312 165.726562 140.554688 166.070312 140.574219 C 166.417969 140.59375 166.757812 140.644531 167.09375 140.726562 C 167.429688 140.808594 167.753906 140.921875 168.070312 141.066406 C 168.382812 141.210938 168.679688 141.382812 168.964844 141.585938 C 169.246094 141.785156 169.503906 142.011719 169.746094 142.261719 C 169.984375 142.511719 170.195312 142.78125 170.382812 143.074219 C 170.574219 143.363281 170.730469 143.667969 170.863281 143.988281 C 170.992188 144.3125 171.089844 144.640625 171.15625 144.980469 C 171.226562 145.320312 171.261719 145.664062 171.261719 146.007812 C 171.265625 146.355469 171.234375 146.699219 171.171875 147.039062 C 171.113281 147.378906 171.019531 147.710938 170.894531 148.03125 C 170.769531 148.355469 170.613281 148.664062 170.429688 148.957031 C 170.246094 149.25 170.039062 149.523438 169.804688 149.777344 C 169.566406 150.03125 169.3125 150.261719 169.03125 150.46875 C 168.753906 150.671875 168.457031 150.847656 168.144531 151 C 167.371094 151.3125 166.609375 151.652344 165.851562 152.007812 C 165.097656 152.367188 164.355469 152.75 163.621094 153.148438 C 162.890625 153.550781 162.167969 153.972656 161.460938 154.417969 C 160.75 154.859375 160.054688 155.324219 159.375 155.804688 C 158.691406 156.289062 158.023438 156.789062 157.371094 157.3125 C 156.71875 157.832031 156.078125 158.371094 155.457031 158.929688 C 154.835938 159.488281 154.230469 160.0625 153.640625 160.65625 C 153.050781 161.25 152.480469 161.855469 151.925781 162.484375 C 151.371094 163.109375 150.835938 163.75 150.316406 164.40625 C 149.800781 165.0625 149.300781 165.730469 148.824219 166.417969 C 148.34375 167.101562 147.882812 167.800781 147.445312 168.511719 C 147.007812 169.222656 146.589844 169.945312 146.191406 170.679688 C 145.792969 171.414062 145.417969 172.160156 145.0625 172.917969 C 144.707031 173.675781 144.375 174.441406 144.066406 175.214844 C 143.753906 175.992188 143.46875 176.777344 143.203125 177.566406 C 142.9375 178.359375 142.691406 179.160156 142.472656 179.964844 C 142.253906 180.773438 142.058594 181.585938 141.882812 182.402344 C 141.710938 183.21875 141.5625 184.042969 141.4375 184.867188 C 141.308594 185.695312 141.207031 186.523438 141.128906 187.355469 C 141.050781 188.1875 140.996094 189.019531 140.96875 189.855469 C 140.9375 190.691406 140.929688 191.527344 140.949219 192.359375 C 140.964844 193.195312 141.007812 194.03125 141.074219 194.863281 C 141.136719 195.695312 141.226562 196.527344 141.339844 197.355469 C 141.453125 198.183594 141.589844 199.007812 141.75 199.828125 C 141.910156 200.648438 142.09375 201.460938 142.300781 202.273438 C 142.507812 203.082031 142.738281 203.882812 142.992188 204.679688 C 143.246094 205.476562 143.523438 206.265625 143.820312 207.046875 C 144.121094 207.828125 144.441406 208.597656 144.785156 209.359375 C 145.125 210.121094 145.492188 210.875 145.875 211.613281 C 146.261719 212.355469 146.667969 213.085938 147.097656 213.804688 C 147.527344 214.519531 147.972656 215.226562 148.441406 215.917969 C 148.910156 216.609375 149.398438 217.289062 149.90625 217.953125 C 150.414062 218.617188 150.9375 219.265625 151.484375 219.898438 C 152.027344 220.53125 152.589844 221.152344 153.171875 221.753906 C 153.75 222.355469 154.347656 222.9375 154.960938 223.503906 C 155.574219 224.074219 156.203125 224.621094 156.847656 225.152344 C 157.496094 225.683594 158.15625 226.195312 158.828125 226.691406 C 159.503906 227.183594 160.191406 227.65625 160.894531 228.109375 C 161.59375 228.5625 162.308594 228.996094 163.035156 229.410156 C 163.761719 229.824219 164.5 230.214844 165.25 230.585938 C 166 230.953125 166.757812 231.304688 167.527344 231.628906 C 168.296875 231.957031 169.074219 232.261719 169.859375 232.542969 C 170.648438 232.824219 171.441406 233.085938 172.242188 233.320312 C 173.042969 233.558594 173.851562 233.773438 174.664062 233.960938 C 175.480469 234.152344 176.296875 234.320312 177.121094 234.460938 C 177.945312 234.605469 178.769531 234.726562 179.601562 234.820312 C 180.429688 234.917969 181.261719 234.988281 182.097656 235.035156 C 182.933594 235.082031 183.765625 235.109375 184.601562 235.109375 C 185.4375 235.109375 186.273438 235.082031 187.109375 235.035156 C 187.941406 234.988281 188.773438 234.917969 189.605469 234.820312 C 190.433594 234.726562 191.261719 234.605469 192.085938 234.460938 C 192.90625 234.320312 193.726562 234.152344 194.539062 233.960938 C 195.355469 233.773438 196.160156 233.558594 196.960938 233.320312 C 197.765625 233.085938 198.558594 232.824219 199.34375 232.542969 C 200.132812 232.261719 200.910156 231.957031 201.679688 231.628906 C 202.449219 231.304688 203.207031 230.953125 203.957031 230.585938 C 204.703125 230.214844 205.441406 229.824219 206.167969 229.410156 C 206.894531 228.996094 207.609375 228.5625 208.3125 228.109375 C 209.011719 227.65625 209.703125 227.183594 210.375 226.691406 C 211.050781 226.195312 211.710938 225.683594 212.355469 225.152344 C 213 224.621094 213.628906 224.074219 214.242188 223.503906 C 214.859375 222.9375 215.453125 222.355469 216.035156 221.753906 C 216.613281 221.152344 217.175781 220.53125 217.722656 219.898438 C 218.265625 219.265625 218.792969 218.617188 219.300781 217.953125 C 219.808594 217.289062 220.292969 216.609375 220.761719 215.917969 C 221.230469 215.226562 221.679688 214.519531 222.105469 213.804688 C 222.535156 213.085938 222.941406 212.355469 223.328125 211.613281 C 223.714844 210.875 224.078125 210.121094 224.421875 209.359375 C 224.765625 208.597656 225.085938 207.828125 225.382812 207.046875 C 225.683594 206.265625 225.957031 205.476562 226.210938 204.679688 C 226.464844 203.882812 226.695312 203.082031 226.902344 202.273438 C 227.109375 201.460938 227.292969 200.648438 227.453125 199.828125 C 227.613281 199.007812 227.75 198.183594 227.863281 197.355469 C 227.976562 196.527344 228.066406 195.695312 228.132812 194.863281 C 228.199219 194.03125 228.238281 193.195312 228.257812 192.359375 C 228.273438 191.527344 228.269531 190.691406 228.238281 189.855469 C 228.207031 189.019531 228.152344 188.1875 228.074219 187.355469 C 227.996094 186.523438 227.894531 185.695312 227.769531 184.867188 C 227.644531 184.042969 227.492188 183.21875 227.320312 182.402344 C 227.148438 181.585938 226.949219 180.773438 226.730469 179.964844 C 226.511719 179.160156 226.269531 178.359375 226.003906 177.566406 C 225.738281 176.777344 225.449219 175.992188 225.140625 175.214844 C 224.828125 174.441406 224.496094 173.675781 224.140625 172.917969 C 223.789062 172.160156 223.410156 171.414062 223.015625 170.679688 C 222.617188 169.945312 222.199219 169.222656 221.757812 168.511719 C 221.320312 167.800781 220.863281 167.101562 220.382812 166.417969 C 219.902344 165.730469 219.40625 165.0625 218.886719 164.40625 C 218.371094 163.75 217.835938 163.109375 217.28125 162.484375 C 216.726562 161.855469 216.15625 161.25 215.566406 160.65625 C 214.976562 160.0625 214.371094 159.488281 213.746094 158.929688 C 213.125 158.371094 212.488281 157.832031 211.835938 157.3125 C 211.179688 156.789062 210.515625 156.289062 209.832031 155.804688 C 209.148438 155.324219 208.453125 154.859375 207.746094 154.417969 C 207.035156 153.972656 206.316406 153.550781 205.582031 153.148438 C 204.851562 152.75 204.105469 152.367188 203.351562 152.007812 C 202.597656 151.652344 201.832031 151.3125 201.058594 151 C 200.703125 150.878906 200.363281 150.726562 200.042969 150.539062 C 199.71875 150.347656 199.417969 150.128906 199.140625 149.878906 C 198.859375 149.628906 198.609375 149.351562 198.386719 149.050781 C 198.167969 148.75 197.976562 148.429688 197.820312 148.089844 C 197.664062 147.75 197.542969 147.398438 197.460938 147.03125 C 197.375 146.667969 197.328125 146.296875 197.320312 145.925781 C 197.3125 145.550781 197.339844 145.179688 197.410156 144.808594 C 197.476562 144.441406 197.582031 144.085938 197.722656 143.738281 C 197.863281 143.390625 198.035156 143.0625 198.242188 142.75 C 198.453125 142.4375 198.691406 142.152344 198.957031 141.890625 C 199.222656 141.628906 199.511719 141.394531 199.828125 141.191406 C 200.140625 140.988281 200.472656 140.820312 200.824219 140.683594 C 201.171875 140.546875 201.53125 140.449219 201.902344 140.386719 C 202.269531 140.328125 202.640625 140.304688 203.015625 140.316406 C 203.390625 140.332031 203.757812 140.382812 204.121094 140.472656 C 204.484375 140.5625 204.835938 140.6875 205.171875 140.851562 C 206.421875 141.355469 207.652344 141.902344 208.863281 142.496094 C 210.070312 143.089844 211.257812 143.730469 212.417969 144.414062 C 213.578125 145.09375 214.714844 145.820312 215.820312 146.585938 C 216.929688 147.355469 218.007812 148.160156 219.054688 149.007812 C 220.101562 149.855469 221.117188 150.742188 222.097656 151.664062 C 223.082031 152.585938 224.027344 153.542969 224.9375 154.539062 C 225.847656 155.53125 226.71875 156.558594 227.554688 157.613281 C 228.386719 158.671875 229.183594 159.761719 229.933594 160.878906 C 230.6875 161.996094 231.398438 163.140625 232.066406 164.308594 C 232.734375 165.480469 233.359375 166.671875 233.9375 167.890625 C 234.515625 169.105469 235.050781 170.34375 235.535156 171.597656 C 236.023438 172.855469 236.464844 174.128906 236.855469 175.417969 C 237.25 176.703125 237.59375 178.007812 237.886719 179.320312 C 238.183594 180.636719 238.429688 181.960938 238.628906 183.292969 C 238.824219 184.625 238.972656 185.964844 239.070312 187.308594 C 239.164062 188.652344 239.214844 189.996094 239.210938 191.34375 Z M 184.574219 187.777344 C 184.933594 187.777344 185.292969 187.742188 185.644531 187.671875 C 186 187.601562 186.339844 187.5 186.675781 187.363281 C 187.007812 187.222656 187.324219 187.054688 187.621094 186.855469 C 187.921875 186.65625 188.199219 186.425781 188.453125 186.171875 C 188.707031 185.917969 188.9375 185.640625 189.136719 185.339844 C 189.335938 185.042969 189.503906 184.726562 189.644531 184.394531 C 189.78125 184.058594 189.886719 183.71875 189.957031 183.363281 C 190.027344 183.011719 190.0625 182.652344 190.0625 182.292969 L 190.0625 131.003906 C 190.0625 130.644531 190.027344 130.289062 189.957031 129.933594 C 189.886719 129.582031 189.78125 129.238281 189.644531 128.90625 C 189.503906 128.574219 189.335938 128.257812 189.136719 127.957031 C 188.9375 127.65625 188.707031 127.378906 188.453125 127.125 C 188.199219 126.871094 187.921875 126.644531 187.621094 126.441406 C 187.324219 126.242188 187.007812 126.074219 186.675781 125.9375 C 186.339844 125.796875 186 125.695312 185.644531 125.625 C 185.292969 125.554688 184.933594 125.519531 184.574219 125.519531 C 184.214844 125.519531 183.859375 125.554688 183.503906 125.625 C 183.152344 125.695312 182.808594 125.796875 182.476562 125.9375 C 182.144531 126.074219 181.828125 126.242188 181.527344 126.441406 C 181.226562 126.644531 180.949219 126.871094 180.695312 127.125 C 180.441406 127.378906 180.214844 127.65625 180.015625 127.957031 C 179.8125 128.257812 179.644531 128.574219 179.507812 128.90625 C 179.371094 129.238281 179.265625 129.582031 179.195312 129.933594 C 179.125 130.289062 179.089844 130.644531 179.089844 131.003906 L 179.089844 182.292969 C 179.089844 182.652344 179.125 183.011719 179.195312 183.363281 C 179.265625 183.71875 179.371094 184.058594 179.507812 184.394531 C 179.644531 184.726562 179.8125 185.042969 180.015625 185.339844 C 180.214844 185.640625 180.441406 185.917969 180.695312 186.171875 C 180.949219 186.425781 181.226562 186.65625 181.527344 186.855469 C 181.828125 187.054688 182.144531 187.222656 182.476562 187.363281 C 182.808594 187.5 183.152344 187.601562 183.503906 187.671875 C 183.859375 187.742188 184.214844 187.777344 184.574219 187.777344 Z M 184.574219 187.777344 "/></g></g></svg>