<svg xmlns="http://www.w3.org/2000/svg" xmlns:xlink="http://www.w3.org/1999/xlink" width="500" zoomAndPan="magnify" viewBox="0 0 375 374.999991" height="500" preserveAspectRatio="xMidYMid meet" version="1.2"><defs><clipPath id="fee0c435d9"><path d="M 135 189 L 203 189 L 203 228.242188 L 135 228.242188 Z M 135 189 "/></clipPath></defs><g id="335ee014e8"><rect x="0" width="375" y="0" height="374.999991" style="fill:#ffffff;fill-opacity:1;stroke:none;"/><rect x="0" width="375" y="0" height="374.999991" style="fill:#ffffff;fill-opacity:1;stroke:none;"/><path style=" stroke:none;fill-rule:nonzero;fill:#8a310d;fill-opacity:1;" d="M 161.867188 175.957031 C 161.992188 177.675781 166.777344 190.957031 175.75 190.957031 C 184.722656 190.957031 189.28125 175.707031 189.28125 175.707031 C 189.28125 175.707031 192.613281 172.511719 192.238281 169.191406 C 191.875 165.871094 190.136719 166.972656 190.136719 166.972656 C 190.136719 166.972656 191.488281 161.195312 190.136719 155.546875 C 188.78125 149.894531 180.050781 144.230469 173.292969 146.574219 C 166.527344 148.902344 167.144531 151.484375 167.144531 151.484375 C 167.144531 151.484375 162.71875 149.644531 160.75 155.296875 C 158.785156 160.949219 160.75 166.972656 160.75 166.972656 C 155.953125 169.191406 161.742188 175.8125 161.742188 175.8125 C 161.742188 175.8125 161.742188 174.238281 161.867188 175.957031 Z M 161.867188 175.957031 "/><g clip-rule="nonzero" clip-path="url(#fee0c435d9)"><path style=" stroke:none;fill-rule:nonzero;fill:#8a310d;fill-opacity:1;" d="M 202.679688 227.148438 C 195.027344 222.796875 189.867188 214.585938 189.867188 205.152344 C 189.867188 200.679688 191.03125 196.472656 193.082031 192.820312 L 187.441406 190.59375 C 187.441406 190.59375 183.328125 195.152344 175.5625 194.902344 C 167.808594 194.652344 164.820312 189.914062 164.820312 189.914062 L 149.6875 195.597656 C 143.492188 197.910156 138.933594 203.25 137.613281 209.722656 L 135.699219 219.144531 C 134.738281 223.828125 138.332031 228.21875 143.109375 228.21875 L 202.398438 228.21875 C 202.992188 228.21875 203.1875 227.441406 202.679688 227.148438 Z M 202.679688 227.148438 "/></g><path style=" stroke:none;fill-rule:nonzero;fill:#8a310d;fill-opacity:1;" d="M 236.207031 203.4375 C 235.394531 193.195312 227.097656 184.898438 216.855469 184.097656 C 203.835938 183.066406 193.0625 193.851562 194.082031 206.871094 C 194.894531 217.113281 203.1875 225.410156 213.421875 226.210938 C 226.453125 227.242188 237.238281 216.457031 236.207031 203.4375 Z M 224.328125 212.511719 C 225.027344 213.273438 225.027344 214.523438 224.226562 215.167969 C 223.902344 215.425781 223.507812 215.550781 223.121094 215.550781 C 222.644531 215.550781 222.175781 215.363281 221.832031 214.980469 L 215.148438 207.734375 L 208.464844 214.980469 C 208.121094 215.355469 207.644531 215.550781 207.175781 215.550781 C 206.789062 215.550781 206.394531 215.425781 206.074219 215.167969 C 205.269531 214.523438 205.269531 213.261719 205.96875 212.511719 L 212.753906 205.152344 L 205.949219 197.761719 C 205.355469 197.117188 205.238281 196.109375 205.78125 195.421875 C 206.46875 194.535156 207.75 194.527344 208.464844 195.308594 L 215.148438 202.550781 L 221.769531 195.371094 C 222.363281 194.722656 223.351562 194.535156 224.089844 195.015625 C 225.027344 195.628906 225.152344 196.898438 224.421875 197.691406 L 217.542969 205.152344 Z M 224.328125 212.511719 "/></g></svg>