<svg xmlns="http://www.w3.org/2000/svg" xmlns:xlink="http://www.w3.org/1999/xlink" width="500" zoomAndPan="magnify" viewBox="0 0 375 374.999991" height="500" preserveAspectRatio="xMidYMid meet" version="1.2"><defs><clipPath id="b58a7794a2"><path d="M 123.5 155.042969 L 251.75 155.042969 L 251.75 241.292969 L 123.5 241.292969 Z M 123.5 155.042969 "/></clipPath></defs><g id="f3d7089954"><rect x="0" width="375" y="0" height="374.999991" style="fill:#ffffff;fill-opacity:1;stroke:none;"/><rect x="0" width="375" y="0" height="374.999991" style="fill:#ffffff;fill-opacity:1;stroke:none;"/><g clip-rule="nonzero" clip-path="url(#b58a7794a2)"><path style=" stroke:none;fill-rule:evenodd;fill:#8a310d;fill-opacity:1;" d="M 224.074219 185.609375 L 251.285156 241.136719 L 123.703125 241.136719 L 150.90625 185.609375 L 156.9375 185.609375 C 158.550781 188.253906 160.246094 190.816406 162.003906 193.21875 L 155.671875 193.21875 L 135.917969 233.527344 L 239.058594 233.527344 L 219.3125 193.21875 L 212.980469 193.21875 C 214.738281 190.832031 216.433594 188.269531 218.039062 185.609375 Z M 181.78125 155.042969 L 200.878906 155.042969 C 203.332031 155.042969 206.136719 157.273438 207.253906 160.113281 L 210.851562 169.273438 C 210.945312 169.261719 211.035156 169.242188 211.136719 169.242188 L 213.902344 169.242188 C 215.460938 169.238281 216.734375 170.675781 216.734375 172.453125 C 216.734375 174.230469 215.460938 175.667969 213.902344 175.667969 L 213.207031 175.667969 C 213.207031 175.671875 213.207031 175.675781 213.207031 175.679688 C 213.585938 176.789062 213.796875 178 213.796875 179.273438 L 213.796875 183.039062 C 213.796875 186.71875 212.898438 189.898438 210.863281 191.445312 L 210.863281 195.582031 C 210.863281 197.660156 209.375 199.34375 207.546875 199.34375 L 204.507812 199.34375 C 202.679688 199.34375 201.191406 197.65625 201.191406 195.582031 L 201.191406 192.445312 L 174.25 192.445312 L 174.25 195.582031 C 174.25 197.660156 172.761719 199.34375 170.933594 199.34375 L 167.890625 199.34375 C 166.058594 199.34375 164.574219 197.65625 164.574219 195.582031 L 164.574219 191.445312 C 162.542969 189.898438 161.644531 186.722656 161.644531 183.039062 L 161.644531 179.273438 C 161.644531 178.003906 161.851562 176.792969 162.222656 175.6875 C 162.222656 175.679688 162.226562 175.675781 162.226562 175.667969 L 161.53125 175.667969 C 159.96875 175.667969 158.699219 174.230469 158.699219 172.457031 C 158.699219 170.679688 159.96875 169.242188 161.53125 169.242188 L 164.296875 169.242188 C 164.394531 169.242188 164.488281 169.261719 164.582031 169.273438 L 168.179688 160.117188 C 169.316406 157.226562 172.058594 155.042969 174.554688 155.042969 Z M 168.914062 171.476562 C 168.914062 174.375 207.054688 174.375 207.054688 171.476562 C 207.054688 171.101562 206.984375 170.636719 206.976562 170.605469 C 206.304688 167.886719 203.707031 162.269531 203.707031 162.269531 C 203.078125 160.671875 201.503906 159.429688 200.566406 159.429688 L 175.410156 159.429688 C 174.472656 159.429688 172.898438 160.671875 172.269531 162.273438 C 172.269531 162.273438 169.984375 167.492188 168.992188 170.609375 C 168.984375 170.636719 168.914062 171.105469 168.914062 171.476562 Z M 176.316406 183.945312 C 176.316406 181.667969 174.460938 179.808594 172.171875 179.808594 C 169.882812 179.808594 168.027344 181.664062 168.027344 183.945312 C 168.027344 186.226562 169.882812 188.078125 172.171875 188.078125 C 174.460938 188.082031 176.316406 186.230469 176.316406 183.945312 Z M 208.441406 183.945312 C 208.441406 181.667969 206.589844 179.808594 204.296875 179.808594 C 202.011719 179.808594 200.152344 181.664062 200.152344 183.945312 C 200.152344 186.226562 202.007812 188.078125 204.296875 188.078125 C 206.589844 188.078125 208.441406 186.230469 208.441406 183.945312 Z M 181.570312 182.910156 C 181.203125 182.910156 180.90625 183.207031 180.90625 183.574219 C 180.90625 183.941406 181.203125 184.238281 181.570312 184.238281 L 194.453125 184.238281 C 194.820312 184.238281 195.117188 183.941406 195.117188 183.574219 C 195.117188 183.207031 194.820312 182.910156 194.453125 182.910156 Z M 181.570312 186.011719 C 181.203125 186.011719 180.90625 186.308594 180.90625 186.675781 C 180.90625 187.042969 181.203125 187.339844 181.570312 187.339844 L 194.453125 187.339844 C 194.820312 187.339844 195.117188 187.042969 195.117188 186.675781 C 195.117188 186.308594 194.820312 186.011719 194.453125 186.011719 Z M 181.570312 186.011719 "/></g></g></svg>