<svg xmlns="http://www.w3.org/2000/svg" xmlns:xlink="http://www.w3.org/1999/xlink" width="500" zoomAndPan="magnify" viewBox="0 0 375 374.999991" height="500" preserveAspectRatio="xMidYMid meet" version="1.2"><defs><clipPath id="08d63537da"><path d="M 122 112.5 L 253 112.5 L 253 262.5 L 122 262.5 Z M 122 112.5 "/></clipPath><clipPath id="ee951508b3"><path d="M 116.0625 177 L 151 177 L 151 262.5 L 116.0625 262.5 Z M 116.0625 177 "/></clipPath><clipPath id="19cc48f58e"><path d="M 224 177 L 259 177 L 259 262.5 L 224 262.5 Z M 224 177 "/></clipPath></defs><g id="01bd869f72"><rect x="0" width="375" y="0" height="374.999991" style="fill:#ffffff;fill-opacity:1;stroke:none;"/><rect x="0" width="375" y="0" height="374.999991" style="fill:#ffffff;fill-opacity:1;stroke:none;"/><g clip-rule="nonzero" clip-path="url(#08d63537da)"><path style=" stroke:none;fill-rule:nonzero;fill:#8a310d;fill-opacity:1;" d="M 138.152344 203.835938 C 140.679688 201.761719 158.332031 198.960938 186.105469 198.867188 L 186.105469 202.8125 C 186.105469 203.582031 186.726562 204.203125 187.496094 204.203125 C 188.261719 204.203125 188.882812 203.582031 188.882812 202.8125 L 188.882812 198.867188 C 216.65625 198.960938 234.308594 201.761719 236.835938 203.835938 C 234.265625 205.949219 216.070312 208.8125 187.496094 208.8125 C 158.917969 208.8125 140.722656 205.949219 138.152344 203.835938 Z M 150.835938 161.769531 C 152.648438 139.15625 174.382812 123.410156 183.804688 117.601562 C 180.195312 124.726562 173.964844 140.039062 173.421875 161.734375 C 170.03125 159.085938 166.375 157.746094 162.515625 157.746094 C 157.511719 157.746094 153.332031 160.007812 150.835938 161.769531 Z M 125.476562 161.703125 C 128.300781 141.304688 158.53125 126.453125 175.863281 119.546875 C 173.242188 121.449219 170.363281 123.734375 167.46875 126.386719 C 155.636719 137.230469 148.976562 149.414062 148.046875 161.796875 C 144.636719 159.109375 140.957031 157.746094 137.066406 157.746094 C 132.125 157.746094 127.984375 159.953125 125.476562 161.703125 Z M 249.488281 161.519531 C 246.175781 159.011719 242.613281 157.746094 238.863281 157.746094 C 233.699219 157.746094 229.417969 160.152344 226.953125 161.933594 C 226.0625 149.503906 219.390625 137.269531 207.519531 126.386719 C 204.625 123.734375 201.746094 121.449219 199.125 119.546875 C 216.402344 126.433594 246.507812 141.210938 249.488281 161.519531 Z M 201.574219 161.882812 C 201.050781 140.109375 194.800781 124.742188 191.179688 117.601562 C 200.578125 123.394531 222.226562 139.078125 224.136719 161.597656 C 220.800781 159.039062 217.203125 157.746094 213.414062 157.746094 C 208.300781 157.746094 204.050781 160.105469 201.574219 161.882812 Z M 187.496094 157.753906 C 187.457031 157.753906 187.425781 157.761719 187.390625 157.765625 C 182.585938 157.929688 178.589844 160.125 176.195312 161.828125 C 176.804688 138.15625 184.523438 122 187.496094 116.625 C 190.460938 121.988281 198.148438 138.085938 198.785156 161.667969 C 195.417969 159.0625 191.792969 157.746094 187.964844 157.746094 C 187.824219 157.746094 187.6875 157.753906 187.542969 157.757812 C 187.527344 157.757812 187.511719 157.753906 187.496094 157.753906 Z M 223.65625 209.714844 C 239.78125 207.699219 239.78125 205.09375 239.78125 203.835938 C 239.78125 202.585938 239.78125 199.976562 223.65625 197.960938 C 214.316406 196.792969 202.015625 196.132812 188.882812 196.089844 L 188.882812 160.558594 C 192.542969 160.808594 196.019531 162.554688 199.234375 165.769531 C 199.300781 165.832031 199.371094 165.894531 199.449219 165.945312 C 199.46875 165.960938 199.488281 165.964844 199.507812 165.980469 C 199.566406 166.011719 199.628906 166.046875 199.691406 166.074219 C 199.714844 166.082031 199.738281 166.085938 199.761719 166.097656 C 199.824219 166.117188 199.886719 166.140625 199.953125 166.152344 C 199.964844 166.15625 199.980469 166.15625 199.996094 166.15625 C 200.070312 166.167969 200.144531 166.179688 200.21875 166.179688 C 200.296875 166.179688 200.371094 166.167969 200.445312 166.15625 C 200.457031 166.15625 200.46875 166.15625 200.484375 166.152344 C 200.554688 166.140625 200.621094 166.117188 200.6875 166.089844 C 200.707031 166.085938 200.722656 166.082031 200.742188 166.074219 C 200.8125 166.046875 200.875 166.011719 200.9375 165.972656 C 200.953125 165.964844 200.96875 165.957031 200.984375 165.949219 C 201.0625 165.894531 201.136719 165.835938 201.203125 165.769531 C 201.300781 165.675781 206.59375 160.523438 213.414062 160.523438 C 217.410156 160.523438 221.199219 162.289062 224.683594 165.769531 C 224.75 165.835938 224.820312 165.894531 224.898438 165.945312 C 224.929688 165.964844 224.96875 165.984375 225.003906 166 C 225.046875 166.027344 225.089844 166.050781 225.136719 166.070312 C 225.183594 166.089844 225.230469 166.101562 225.277344 166.117188 C 225.316406 166.125 225.355469 166.144531 225.394531 166.148438 C 225.574219 166.1875 225.761719 166.1875 225.941406 166.148438 C 225.980469 166.144531 226.019531 166.125 226.058594 166.117188 C 226.105469 166.101562 226.152344 166.089844 226.199219 166.070312 C 226.246094 166.050781 226.289062 166.027344 226.332031 166 C 226.367188 165.984375 226.40625 165.964844 226.4375 165.945312 C 226.515625 165.894531 226.585938 165.835938 226.652344 165.769531 C 226.714844 165.707031 231.984375 160.523438 238.863281 160.523438 C 242.859375 160.523438 246.652344 162.289062 250.136719 165.769531 C 250.398438 166.039062 250.757812 166.179688 251.117188 166.179688 C 251.121094 166.179688 251.125 166.179688 251.128906 166.179688 C 251.894531 166.179688 252.515625 165.554688 252.515625 164.789062 C 252.515625 164.726562 252.511719 164.667969 252.503906 164.605469 C 252.410156 150.9375 241.464844 138.011719 219.972656 126.195312 C 204.125 117.476562 188.054688 112.609375 187.894531 112.558594 C 187.886719 112.558594 187.882812 112.558594 187.875 112.558594 C 187.855469 112.550781 187.832031 112.546875 187.8125 112.539062 C 187.792969 112.539062 187.777344 112.53125 187.761719 112.527344 C 187.746094 112.523438 187.726562 112.523438 187.707031 112.519531 C 187.679688 112.515625 187.65625 112.515625 187.632812 112.511719 C 187.601562 112.511719 187.574219 112.507812 187.542969 112.507812 C 187.527344 112.507812 187.515625 112.5 187.496094 112.5 C 187.496094 112.5 187.496094 112.5 187.492188 112.5 C 187.476562 112.5 187.457031 112.507812 187.441406 112.507812 C 187.414062 112.507812 187.386719 112.511719 187.359375 112.511719 C 187.332031 112.515625 187.304688 112.515625 187.277344 112.519531 C 187.261719 112.523438 187.246094 112.523438 187.226562 112.527344 C 187.210938 112.53125 187.191406 112.539062 187.175781 112.542969 C 187.152344 112.546875 187.132812 112.550781 187.109375 112.558594 C 187.105469 112.558594 187.101562 112.558594 187.09375 112.558594 C 186.933594 112.609375 170.867188 117.476562 155.011719 126.195312 C 133.425781 138.066406 122.480469 151.050781 122.480469 164.789062 C 122.480469 165.351562 122.820312 165.855469 123.339844 166.070312 C 123.511719 166.144531 123.691406 166.179688 123.871094 166.179688 C 124.234375 166.179688 124.589844 166.039062 124.855469 165.769531 C 124.90625 165.71875 130.183594 160.523438 137.066406 160.523438 C 141.066406 160.523438 144.855469 162.289062 148.335938 165.769531 C 148.402344 165.835938 148.472656 165.894531 148.550781 165.945312 C 148.585938 165.96875 148.621094 165.984375 148.65625 166.003906 C 148.699219 166.027344 148.742188 166.050781 148.789062 166.070312 C 148.835938 166.089844 148.882812 166.101562 148.933594 166.117188 C 148.972656 166.128906 149.007812 166.144531 149.050781 166.148438 C 149.136719 166.167969 149.230469 166.179688 149.320312 166.179688 C 149.324219 166.179688 149.324219 166.179688 149.324219 166.179688 C 149.414062 166.175781 149.503906 166.167969 149.59375 166.148438 C 149.636719 166.140625 149.675781 166.125 149.71875 166.113281 C 149.761719 166.101562 149.808594 166.089844 149.851562 166.070312 C 149.902344 166.050781 149.945312 166.023438 149.992188 166 C 150.027344 165.980469 150.058594 165.964844 150.089844 165.945312 C 150.167969 165.894531 150.238281 165.835938 150.304688 165.769531 C 150.371094 165.707031 155.640625 160.523438 162.515625 160.523438 C 166.511719 160.523438 170.304688 162.289062 173.785156 165.769531 C 173.851562 165.832031 173.925781 165.894531 174.003906 165.945312 C 174.019531 165.960938 174.042969 165.964844 174.0625 165.980469 C 174.121094 166.011719 174.179688 166.046875 174.242188 166.074219 C 174.265625 166.082031 174.292969 166.085938 174.316406 166.097656 C 174.375 166.117188 174.4375 166.140625 174.5 166.152344 C 174.515625 166.15625 174.53125 166.15625 174.546875 166.15625 C 174.617188 166.167969 174.691406 166.179688 174.769531 166.179688 C 174.847656 166.179688 174.921875 166.167969 174.996094 166.15625 C 175.007812 166.15625 175.023438 166.15625 175.035156 166.152344 C 175.105469 166.140625 175.171875 166.117188 175.238281 166.089844 C 175.257812 166.085938 175.277344 166.082031 175.292969 166.074219 C 175.363281 166.046875 175.425781 166.011719 175.488281 165.972656 C 175.503906 165.964844 175.523438 165.957031 175.535156 165.949219 C 175.617188 165.894531 175.6875 165.835938 175.753906 165.769531 C 175.839844 165.683594 180.207031 161.453125 186.105469 160.660156 L 186.105469 196.089844 C 172.976562 196.132812 160.671875 196.792969 151.332031 197.960938 C 135.207031 199.976562 135.207031 202.585938 135.207031 203.835938 C 135.207031 205.09375 135.207031 207.699219 151.332031 209.714844 C 160.671875 210.882812 172.976562 211.539062 186.105469 211.585938 L 186.105469 259.710938 L 168.40625 259.710938 C 167.640625 259.710938 167.019531 260.328125 167.019531 261.097656 C 167.019531 261.863281 167.640625 262.488281 168.40625 262.488281 L 206.582031 262.488281 C 207.347656 262.488281 207.972656 261.863281 207.972656 261.097656 C 207.972656 260.328125 207.347656 259.710938 206.582031 259.710938 L 188.882812 259.710938 L 188.882812 211.585938 C 202.015625 211.539062 214.316406 210.882812 223.65625 209.714844 "/></g><g clip-rule="nonzero" clip-path="url(#ee951508b3)"><path style=" stroke:none;fill-rule:nonzero;fill:#8a310d;fill-opacity:1;" d="M 118.898438 252.789062 L 118.898438 234.96875 L 147.929688 234.96875 L 147.929688 252.789062 Z M 147.929688 224.378906 L 147.929688 227.832031 L 118.898438 227.832031 L 118.898438 224.378906 Z M 118.898438 230.613281 L 147.929688 230.613281 L 147.929688 232.191406 L 118.898438 232.191406 Z M 149.320312 221.601562 L 118.898438 221.601562 L 118.898438 178.390625 C 118.898438 177.621094 118.277344 177 117.511719 177 C 116.742188 177 116.121094 177.621094 116.121094 178.390625 L 116.121094 261.097656 C 116.121094 261.863281 116.742188 262.488281 117.511719 262.488281 C 118.277344 262.488281 118.898438 261.863281 118.898438 261.097656 L 118.898438 255.566406 L 147.929688 255.566406 L 147.929688 261.097656 C 147.929688 261.863281 148.554688 262.488281 149.320312 262.488281 C 150.089844 262.488281 150.710938 261.863281 150.710938 261.097656 L 150.710938 229.289062 C 150.710938 229.273438 150.707031 229.265625 150.707031 229.253906 C 150.707031 229.246094 150.710938 229.234375 150.710938 229.222656 L 150.710938 222.988281 C 150.710938 222.222656 150.089844 221.601562 149.320312 221.601562 "/></g><g clip-rule="nonzero" clip-path="url(#19cc48f58e)"><path style=" stroke:none;fill-rule:nonzero;fill:#8a310d;fill-opacity:1;" d="M 227.058594 252.789062 L 227.058594 234.96875 L 256.089844 234.96875 L 256.089844 252.789062 Z M 227.058594 224.378906 L 256.089844 224.378906 L 256.089844 227.832031 L 227.058594 227.832031 Z M 227.058594 230.613281 L 256.089844 230.613281 L 256.089844 232.191406 L 227.058594 232.191406 Z M 257.480469 177 C 256.710938 177 256.089844 177.621094 256.089844 178.390625 L 256.089844 221.601562 L 225.667969 221.601562 C 224.898438 221.601562 224.277344 222.222656 224.277344 222.988281 L 224.277344 229.222656 C 224.277344 229.234375 224.28125 229.246094 224.28125 229.253906 C 224.28125 229.265625 224.277344 229.273438 224.277344 229.289062 L 224.277344 261.097656 C 224.277344 261.863281 224.898438 262.488281 225.667969 262.488281 C 226.433594 262.488281 227.058594 261.863281 227.058594 261.097656 L 227.058594 255.566406 L 256.089844 255.566406 L 256.089844 261.097656 C 256.089844 261.863281 256.710938 262.488281 257.480469 262.488281 C 258.246094 262.488281 258.867188 261.863281 258.867188 261.097656 L 258.867188 178.390625 C 258.867188 177.621094 258.246094 177 257.480469 177 "/></g></g></svg>