<svg xmlns="http://www.w3.org/2000/svg" xmlns:xlink="http://www.w3.org/1999/xlink" width="500" zoomAndPan="magnify" viewBox="0 0 375 374.999991" height="500" preserveAspectRatio="xMidYMid meet" version="1.2"><defs><clipPath id="dcd7e8cad0"><path d="M 124.566406 132.226562 L 250.566406 132.226562 L 250.566406 258.226562 L 124.566406 258.226562 Z M 124.566406 132.226562 "/></clipPath></defs><g id="bb5ee69f3a"><rect x="0" width="375" y="0" height="374.999991" style="fill:#ffffff;fill-opacity:1;stroke:none;"/><rect x="0" width="375" y="0" height="374.999991" style="fill:#ffffff;fill-opacity:1;stroke:none;"/><g clip-rule="nonzero" clip-path="url(#dcd7e8cad0)"><path style=" stroke:none;fill-rule:nonzero;fill:#8a310d;fill-opacity:1;" d="M 187.496094 132.226562 C 222.195312 132.226562 250.425781 160.457031 250.425781 195.15625 C 250.425781 229.859375 222.195312 258.085938 187.496094 258.085938 C 152.796875 258.085938 124.566406 229.859375 124.566406 195.15625 C 124.566406 160.457031 152.796875 132.226562 187.496094 132.226562 Z M 171.828125 241.695312 C 176.746094 243.371094 182.015625 244.28125 187.496094 244.28125 C 214.585938 244.28125 236.621094 222.246094 236.621094 195.15625 C 236.621094 189.75 235.730469 184.546875 234.097656 179.683594 C 229.332031 165.375 218.148438 153.96875 203.976562 148.90625 C 203.734375 148.816406 203.492188 148.730469 203.25 148.648438 C 203.226562 148.640625 203.203125 148.632812 203.179688 148.625 C 198.257812 146.945312 192.984375 146.03125 187.496094 146.03125 C 160.410156 146.03125 138.367188 168.070312 138.367188 195.15625 C 138.367188 200.574219 139.261719 205.777344 140.898438 210.644531 C 140.941406 210.773438 140.984375 210.898438 141.027344 211.027344 C 141.050781 211.089844 141.074219 211.15625 141.09375 211.21875 C 146.0625 225.527344 157.46875 236.847656 171.828125 241.695312 "/></g><path style=" stroke:none;fill-rule:nonzero;fill:#8a310d;fill-opacity:1;" d="M 157.257812 180.550781 C 159.054688 180.550781 164.628906 180.550781 164.628906 180.550781 L 165.386719 183.886719 L 179.21875 178.808594 L 179.21875 178.75 L 173.167969 167.210938 L 172.1875 161.5625 C 171.816406 159.378906 170.871094 158.601562 169.386719 158.601562 L 167.738281 162.753906 C 167.394531 160.785156 166.617188 160.058594 165.414062 160.058594 L 163.085938 166.988281 L 151.289062 171.390625 C 150.519531 171.699219 150.179688 172.554688 150.519531 173.296875 L 151.355469 174.914062 C 152.964844 179.269531 154.269531 180.550781 157.257812 180.550781 Z M 176.644531 229.644531 L 174.867188 229.667969 L 174.867188 213.859375 L 172.828125 221.480469 C 171.277344 227.273438 169.738281 230.175781 162.683594 229.597656 L 169.75 203.234375 L 166.042969 186.796875 L 180.628906 181.445312 L 181.925781 183.921875 L 212.902344 184.050781 L 214.382812 184.050781 C 216.011719 184.046875 217.335938 182.726562 217.339844 181.089844 C 217.335938 179.460938 216.011719 178.136719 214.382812 178.128906 C 210.421875 178.128906 210.285156 174.625 210.285156 172.210938 L 214.382812 172.210938 C 219.285156 172.214844 223.261719 176.1875 223.261719 181.089844 C 223.261719 185.171875 220.507812 188.59375 216.757812 189.636719 L 216.757812 209.046875 C 217.277344 212.484375 219.296875 213.449219 220.300781 213.714844 L 220.300781 221.390625 C 220.300781 228.292969 218.011719 229.664062 214.0625 229.667969 L 212.601562 229.589844 L 212.601562 220 C 212.601562 218.101562 211.835938 216.832031 210.578125 215.085938 L 208.867188 221.480469 C 207.3125 227.273438 205.78125 230.175781 198.722656 229.597656 L 204.769531 207.03125 C 203.929688 205.738281 203.050781 204.234375 202.148438 202.410156 C 202.101562 202.3125 202.066406 202.21875 202.019531 202.125 L 201.84375 201.835938 L 182.570312 208.765625 L 182.570312 219.929688 C 182.570312 225.925781 181.582031 229.644531 176.644531 229.644531 "/><path style=" stroke:none;fill-rule:nonzero;fill:#8a310d;fill-opacity:1;" d="M 179.21875 178.808594 L 180.671875 181.5 L 210.414062 151.746094 C 209.628906 151.332031 208.5625 150.796875 207.585938 150.359375 L 179.21875 178.75 "/></g></svg>