<svg xmlns="http://www.w3.org/2000/svg" xmlns:xlink="http://www.w3.org/1999/xlink" width="500" zoomAndPan="magnify" viewBox="0 0 375 374.999991" height="500" preserveAspectRatio="xMidYMid meet" version="1.2"><defs><clipPath id="fa55b9c7ee"><path d="M 130.117188 118.777344 L 244.867188 118.777344 L 244.867188 256.027344 L 130.117188 256.027344 Z M 130.117188 118.777344 "/></clipPath></defs><g id="cd44281467"><rect x="0" width="375" y="0" height="374.999991" style="fill:#ffffff;fill-opacity:1;stroke:none;"/><rect x="0" width="375" y="0" height="374.999991" style="fill:#ffffff;fill-opacity:1;stroke:none;"/><g clip-rule="nonzero" clip-path="url(#fa55b9c7ee)"><path style=" stroke:none;fill-rule:evenodd;fill:#8a310d;fill-opacity:1;" d="M 203.285156 206.5625 L 193.417969 218.882812 L 195.660156 210.644531 C 195.976562 209.523438 195.273438 208.347656 194.121094 208.070312 L 185.324219 206.054688 L 194.804688 193.492188 L 193.488281 201.570312 C 193.332031 202.585938 193.925781 203.566406 194.910156 203.882812 Z M 200.269531 185.867188 C 200.589844 183.722656 197.851562 182.570312 196.554688 184.273438 L 180.066406 206.109375 C 179.179688 207.285156 179.765625 209.039062 181.257812 209.382812 L 191.089844 211.644531 L 186.777344 227.449219 C 186.207031 229.601562 188.980469 231.0625 190.421875 229.289062 L 208.417969 206.792969 C 209.320312 205.683594 208.832031 203.964844 207.4375 203.515625 L 197.886719 200.464844 Z M 134.296875 140.992188 L 134.296875 131.269531 L 152.222656 131.269531 L 152.222656 140.992188 C 152.222656 145.933594 148.191406 149.964844 143.25 149.964844 C 138.308594 149.964844 134.296875 145.933594 134.296875 140.992188 Z M 192.964844 152.472656 C 182.292969 152.472656 172.058594 155.675781 163.351562 161.757812 C 162.390625 162.433594 159.214844 164.71875 157.234375 166.59375 L 158.460938 162.984375 C 158.828125 161.898438 158.25 160.722656 157.164062 160.355469 C 156.078125 159.96875 154.90625 160.546875 154.535156 161.652344 L 150.523438 173.359375 C 150 174.875 151.320312 176.375 152.890625 176.074219 L 165.03125 173.691406 C 166.152344 173.464844 166.890625 172.375 166.679688 171.238281 C 166.453125 170.117188 165.367188 169.378906 164.226562 169.609375 L 158.96875 170.640625 C 159.617188 170.046875 160.300781 169.414062 161.003906 168.820312 C 170.316406 160.808594 181.070312 156.625 192.964844 156.625 C 219.210938 156.625 240.574219 177.984375 240.574219 204.25 C 240.574219 230.5 219.210938 251.859375 192.964844 251.859375 C 166.695312 251.859375 145.335938 230.5 145.335938 204.25 L 145.335938 153.941406 C 151.59375 152.945312 156.375 147.527344 156.375 140.992188 L 156.375 129.183594 C 156.375 128.042969 155.449219 127.117188 154.308594 127.117188 L 151.46875 127.117188 L 151.46875 120.859375 C 151.46875 119.703125 150.542969 118.773438 149.382812 118.773438 C 148.246094 118.773438 147.316406 119.703125 147.316406 120.859375 L 147.316406 127.113281 L 139.203125 127.113281 L 139.203125 120.859375 C 139.203125 119.703125 138.273438 118.773438 137.117188 118.773438 C 135.960938 118.773438 135.035156 119.703125 135.035156 120.859375 L 135.035156 127.113281 L 132.210938 127.113281 C 131.054688 127.113281 130.125 128.042969 130.125 129.183594 L 130.125 140.992188 C 130.125 147.527344 134.929688 152.945312 141.167969 153.941406 L 141.167969 204.25 C 141.167969 232.792969 164.402344 256.03125 192.964844 256.03125 C 221.507812 256.03125 244.742188 232.792969 244.742188 204.25 C 244.742188 175.6875 221.507812 152.472656 192.964844 152.472656 Z M 213.640625 179.734375 C 213.640625 178.703125 212.800781 177.859375 211.765625 177.859375 L 176.773438 177.859375 C 175.738281 177.859375 174.898438 178.703125 174.898438 179.734375 L 174.898438 233.792969 C 174.898438 234.828125 175.738281 235.667969 176.773438 235.667969 L 211.765625 235.667969 C 212.800781 235.667969 213.640625 234.828125 213.640625 233.792969 Z M 189.195312 168.765625 C 189.195312 167.890625 189.914062 167.171875 190.789062 167.171875 L 197.730469 167.171875 C 198.625 167.171875 199.339844 167.890625 199.339844 168.765625 L 199.339844 173.691406 L 189.195312 173.691406 Z M 197.730469 163.019531 L 190.789062 163.019531 C 187.621094 163.019531 185.027344 165.59375 185.027344 168.765625 L 185.027344 173.691406 L 176.773438 173.691406 C 173.441406 173.691406 170.726562 176.40625 170.726562 179.734375 L 170.726562 233.792969 C 170.726562 237.121094 173.441406 239.839844 176.773438 239.839844 L 211.765625 239.839844 C 215.09375 239.839844 217.792969 237.121094 217.792969 233.792969 L 217.792969 179.734375 C 217.792969 176.40625 215.09375 173.691406 211.765625 173.691406 L 203.496094 173.691406 L 203.496094 168.765625 C 203.496094 165.59375 200.917969 163.019531 197.730469 163.019531 Z M 197.730469 163.019531 "/></g></g></svg>