<svg xmlns="http://www.w3.org/2000/svg" xmlns:xlink="http://www.w3.org/1999/xlink" width="500" zoomAndPan="magnify" viewBox="0 0 375 374.999991" height="500" preserveAspectRatio="xMidYMid meet" version="1.2"><defs><clipPath id="36a2685c5a"><path d="M 123.746094 150 L 210 150 L 210 234 L 123.746094 234 Z M 123.746094 150 "/></clipPath><clipPath id="e7be71745e"><path d="M 206 143.867188 L 251.246094 143.867188 L 251.246094 180 L 206 180 Z M 206 143.867188 "/></clipPath></defs><g id="2ee7d603d0"><rect x="0" width="375" y="0" height="374.999991" style="fill:#ffffff;fill-opacity:1;stroke:none;"/><rect x="0" width="375" y="0" height="374.999991" style="fill:#ffffff;fill-opacity:1;stroke:none;"/><g clip-rule="nonzero" clip-path="url(#36a2685c5a)"><path style=" stroke:none;fill-rule:nonzero;fill:#8a310d;fill-opacity:1;" d="M 129.507812 214.773438 L 144.121094 230.375 C 147.894531 234.402344 154.234375 234.605469 158.257812 230.839844 L 205.171875 186.890625 L 206.902344 175.996094 C 203.144531 174.015625 200.296875 171.460938 198.570312 168.511719 C 198.507812 168.515625 198.441406 168.515625 198.375 168.515625 C 196.613281 168.515625 194.855469 167.816406 193.558594 166.433594 C 191.5625 164.296875 191.199219 161.164062 192.65625 158.636719 C 192.972656 158.082031 193.378906 157.566406 193.867188 157.113281 C 196.160156 154.960938 199.675781 154.734375 202.226562 156.574219 C 202.5625 156.816406 202.894531 157.105469 203.191406 157.421875 C 205.667969 160.066406 205.535156 164.25 202.878906 166.738281 C 202.5625 167.035156 202.226562 167.292969 201.871094 167.511719 C 203.148438 169.375 205.058594 171.082031 207.457031 172.496094 L 209.875 157.261719 C 210.152344 155.535156 209.617188 153.800781 208.410156 152.515625 C 207.210938 151.230469 205.515625 150.589844 203.773438 150.753906 L 173.898438 153.511719 L 126.988281 197.457031 C 125.039062 199.28125 123.914062 201.757812 123.828125 204.429688 C 123.742188 207.097656 124.699219 209.640625 126.527344 211.59375 L 129.460938 214.726562 C 129.476562 214.738281 129.492188 214.757812 129.507812 214.773438 Z M 168.996094 167.824219 C 169.664062 167.199219 170.71875 167.234375 171.34375 167.902344 L 191.144531 189.101562 C 191.773438 189.773438 191.734375 190.824219 191.066406 191.453125 C 190.746094 191.75 190.335938 191.902344 189.933594 191.902344 C 189.488281 191.902344 189.042969 191.722656 188.714844 191.371094 L 168.914062 170.171875 C 168.289062 169.503906 168.324219 168.449219 168.996094 167.824219 Z M 159.9375 176.285156 C 160.605469 175.65625 161.660156 175.695312 162.285156 176.363281 L 182.089844 197.566406 C 182.714844 198.234375 182.679688 199.289062 182.007812 199.914062 C 181.6875 200.214844 181.28125 200.359375 180.875 200.359375 C 180.429688 200.359375 179.984375 200.183594 179.660156 199.832031 L 159.855469 178.636719 C 159.230469 177.960938 159.265625 176.910156 159.9375 176.285156 Z M 150.878906 184.746094 C 151.550781 184.121094 152.601562 184.15625 153.226562 184.824219 L 173.03125 206.023438 C 173.65625 206.695312 173.621094 207.746094 172.949219 208.375 C 172.628906 208.671875 172.222656 208.824219 171.8125 208.824219 C 171.371094 208.824219 170.929688 208.644531 170.601562 208.292969 L 150.796875 187.09375 C 150.171875 186.425781 150.207031 185.371094 150.878906 184.746094 Z M 141.820312 193.207031 C 142.492188 192.578125 143.542969 192.617188 144.167969 193.285156 L 163.972656 214.488281 C 164.597656 215.15625 164.5625 216.210938 163.890625 216.835938 C 163.570312 217.136719 163.164062 217.28125 162.757812 217.28125 C 162.3125 217.28125 161.871094 217.109375 161.542969 216.757812 L 141.742188 195.558594 C 141.113281 194.882812 141.152344 193.835938 141.820312 193.207031 Z M 132.761719 201.667969 C 133.433594 201.042969 134.484375 201.078125 135.113281 201.75 L 154.914062 222.945312 C 155.539062 223.621094 155.503906 224.667969 154.835938 225.296875 C 154.511719 225.59375 154.105469 225.746094 153.699219 225.746094 C 153.253906 225.746094 152.8125 225.566406 152.484375 225.21875 L 132.683594 204.015625 C 132.054688 203.347656 132.09375 202.292969 132.761719 201.667969 Z M 132.761719 201.667969 "/></g><path style=" stroke:none;fill-rule:nonzero;fill:#8a310d;fill-opacity:1;" d="M 198.371094 158.65625 C 197.5625 158.65625 196.761719 158.953125 196.136719 159.539062 C 195.898438 159.765625 195.695312 160.015625 195.542969 160.285156 C 194.824219 161.53125 195.011719 163.121094 195.984375 164.160156 C 197.21875 165.472656 199.292969 165.542969 200.609375 164.3125 C 201.925781 163.078125 201.992188 161.003906 200.761719 159.691406 C 200.613281 159.53125 200.457031 159.394531 200.289062 159.277344 C 199.714844 158.859375 199.039062 158.65625 198.371094 158.65625 Z M 198.371094 158.65625 "/><g clip-rule="nonzero" clip-path="url(#e7be71745e)"><path style=" stroke:none;fill-rule:nonzero;fill:#8a310d;fill-opacity:1;" d="M 242.980469 148.96875 C 237.875 145.714844 231.132812 143.921875 223.980469 143.921875 C 217.78125 143.921875 211.78125 145.296875 206.980469 147.808594 C 208.257812 148.210938 209.445312 148.898438 210.445312 149.847656 C 214.417969 148.15625 219.121094 147.246094 223.980469 147.246094 C 230.503906 147.246094 236.617188 148.851562 241.1875 151.769531 C 245.53125 154.542969 247.921875 158.144531 247.921875 161.921875 C 247.921875 165.703125 245.53125 169.308594 241.1875 172.078125 C 236.617188 174.996094 230.503906 176.605469 223.980469 176.605469 C 220.761719 176.605469 217.640625 176.210938 214.6875 175.441406 C 215.425781 175.632812 215.953125 176.320312 215.925781 177.109375 L 215.851562 179.121094 C 218.472656 179.65625 221.199219 179.929688 223.980469 179.929688 C 231.128906 179.929688 237.875 178.132812 242.980469 174.878906 C 248.308594 171.476562 251.246094 166.875 251.246094 161.921875 C 251.246094 156.972656 248.308594 152.371094 242.980469 148.96875 Z M 242.980469 148.96875 "/></g><path style=" stroke:none;fill-rule:nonzero;fill:#8a310d;fill-opacity:1;" d="M 208.363281 187.976562 C 208.304688 188.339844 208.128906 188.675781 207.859375 188.929688 L 160.53125 233.265625 C 157.964844 235.667969 154.691406 236.859375 151.425781 236.859375 C 147.863281 236.859375 144.3125 235.445312 141.695312 232.648438 L 128.523438 218.585938 C 127.964844 219.816406 127.617188 221.347656 127.546875 222.976562 C 127.71875 225.9375 129.117188 228.730469 131.398438 230.644531 L 152.5 248.339844 C 157.070312 252.171875 163.910156 251.570312 167.746094 247 L 211.964844 194.253906 L 212.554688 178.292969 C 211.695312 178.035156 210.855469 177.746094 210.039062 177.425781 Z M 208.363281 187.976562 "/></g></svg>