<svg xmlns="http://www.w3.org/2000/svg" xmlns:xlink="http://www.w3.org/1999/xlink" width="500" zoomAndPan="magnify" viewBox="0 0 375 374.999991" height="500" preserveAspectRatio="xMidYMid meet" version="1.2"><defs><clipPath id="e48c3ab083"><path d="M 155 213 L 175 213 L 175 243.410156 L 155 243.410156 Z M 155 213 "/></clipPath><clipPath id="faf405c2d5"><path d="M 178 194 L 220 194 L 220 243.410156 L 178 243.410156 Z M 178 194 "/></clipPath><clipPath id="9349421f6a"><path d="M 175 156.410156 L 200 156.410156 L 200 181 L 175 181 Z M 175 156.410156 "/></clipPath></defs><g id="73d919e347"><rect x="0" width="375" y="0" height="374.999991" style="fill:#ffffff;fill-opacity:1;stroke:none;"/><rect x="0" width="375" y="0" height="374.999991" style="fill:#ffffff;fill-opacity:1;stroke:none;"/><g clip-rule="nonzero" clip-path="url(#e48c3ab083)"><path style=" stroke:none;fill-rule:nonzero;fill:#8a310d;fill-opacity:1;" d="M 163.988281 238.679688 C 163.988281 239.652344 163.199219 240.4375 162.230469 240.4375 L 160.09375 240.4375 C 159.121094 240.4375 158.332031 239.652344 158.332031 238.679688 L 158.332031 236.542969 C 158.332031 235.574219 159.121094 234.785156 160.09375 234.785156 L 162.230469 234.785156 C 163.199219 234.785156 163.988281 235.574219 163.988281 236.542969 Z M 170.84375 213.253906 L 159.515625 213.253906 C 157.375 213.253906 155.640625 214.992188 155.640625 217.132812 L 155.640625 239.28125 C 155.640625 241.421875 157.375 243.160156 159.515625 243.160156 L 170.84375 243.160156 C 172.984375 243.160156 174.722656 241.421875 174.722656 239.28125 L 174.722656 217.132812 C 174.722656 214.992188 172.984375 213.253906 170.84375 213.253906 "/></g><g clip-rule="nonzero" clip-path="url(#faf405c2d5)"><path style=" stroke:none;fill-rule:nonzero;fill:#8a310d;fill-opacity:1;" d="M 215.980469 221.089844 C 217.707031 221.953125 219.246094 223.789062 218.644531 225.824219 C 218.152344 227.503906 216.550781 228.628906 214.867188 228.691406 L 214.824219 228.691406 C 214.835938 228.707031 214.855469 228.707031 214.867188 228.722656 C 218.121094 230.417969 218.089844 234.761719 214.867188 235.964844 C 214.546875 236.089844 214.191406 236.183594 213.804688 236.226562 C 214.253906 236.550781 214.609375 236.984375 214.867188 237.460938 C 215.53125 238.632812 215.59375 240.125 214.867188 241.296875 C 214.867188 241.3125 214.867188 241.3125 214.867188 241.3125 C 214.792969 241.453125 214.699219 241.558594 214.609375 241.683594 C 213.3125 243.289062 210.847656 243.378906 208.964844 243.332031 L 201.910156 242.824219 L 192.226562 242.128906 C 190.316406 241.992188 187.328125 241.253906 185.570312 240.480469 C 183.410156 239.527344 181.070312 239.03125 178.695312 239.03125 L 178.695312 217.378906 L 182.269531 216.589844 C 188.714844 213.941406 192.9375 205.09375 192.566406 199.390625 C 192.445312 197.496094 192.539062 195.644531 194.648438 194.953125 C 197.191406 194.121094 199.78125 196.847656 199.949219 199.082031 C 200.304688 203.628906 198.054688 208.945312 198.53125 211.550781 C 198.703125 212.550781 199.285156 213.152344 200.582031 213.152344 L 214.605469 213.152344 C 214.683594 213.152344 214.777344 213.171875 214.855469 213.183594 C 217.011719 213.339844 218.90625 214.21875 219.308594 216.636719 C 219.417969 217.332031 219.339844 217.964844 219.109375 218.503906 C 218.554688 219.84375 217.503906 220.769531 215.980469 221.089844 "/></g><g clip-rule="nonzero" clip-path="url(#9349421f6a)"><path style=" stroke:none;fill-rule:nonzero;fill:#8a310d;fill-opacity:1;" d="M 188.554688 157.511719 L 190.707031 164.144531 C 190.859375 164.601562 191.285156 164.914062 191.765625 164.914062 L 198.738281 164.914062 C 199.8125 164.914062 200.261719 166.289062 199.390625 166.921875 L 193.75 171.019531 C 193.359375 171.300781 193.195312 171.804688 193.347656 172.261719 L 195.5 178.894531 C 195.832031 179.917969 194.660156 180.769531 193.792969 180.132812 L 188.152344 176.039062 C 187.761719 175.753906 187.234375 175.753906 186.84375 176.039062 L 181.203125 180.132812 C 180.335938 180.769531 179.164062 179.917969 179.496094 178.894531 L 181.648438 172.261719 C 181.800781 171.804688 181.636719 171.300781 181.246094 171.019531 L 175.605469 166.921875 C 174.734375 166.289062 175.183594 164.914062 176.257812 164.914062 L 183.230469 164.914062 C 183.710938 164.914062 184.136719 164.601562 184.289062 164.144531 L 186.441406 157.511719 C 186.773438 156.488281 188.222656 156.488281 188.554688 157.511719 "/></g><path style=" stroke:none;fill-rule:nonzero;fill:#8a310d;fill-opacity:1;" d="M 213.261719 167.019531 L 215.414062 173.648438 C 215.5625 174.105469 215.988281 174.417969 216.472656 174.417969 L 223.445312 174.417969 C 224.519531 174.417969 224.96875 175.792969 224.097656 176.425781 L 218.457031 180.523438 C 218.066406 180.804688 217.90625 181.308594 218.050781 181.765625 L 220.207031 188.398438 C 220.539062 189.417969 219.367188 190.269531 218.496094 189.636719 L 212.855469 185.539062 C 212.46875 185.257812 211.941406 185.257812 211.550781 185.539062 L 205.910156 189.636719 C 205.039062 190.269531 203.867188 189.417969 204.203125 188.398438 L 206.355469 181.765625 C 206.503906 181.308594 206.34375 180.804688 205.953125 180.523438 L 200.308594 176.425781 C 199.441406 175.792969 199.886719 174.417969 200.964844 174.417969 L 207.9375 174.417969 C 208.417969 174.417969 208.84375 174.105469 208.992188 173.648438 L 211.148438 167.019531 C 211.480469 165.992188 212.925781 165.992188 213.261719 167.019531 "/><path style=" stroke:none;fill-rule:nonzero;fill:#8a310d;fill-opacity:1;" d="M 228.613281 187.390625 L 230.765625 194.023438 C 230.917969 194.480469 231.34375 194.792969 231.824219 194.792969 L 238.796875 194.792969 C 239.871094 194.792969 240.320312 196.167969 239.449219 196.800781 L 233.808594 200.898438 C 233.417969 201.183594 233.253906 201.683594 233.40625 202.140625 L 235.5625 208.773438 C 235.890625 209.796875 234.71875 210.644531 233.851562 210.015625 L 228.210938 205.914062 C 227.820312 205.632812 227.292969 205.632812 226.902344 205.914062 L 221.261719 210.015625 C 220.394531 210.644531 219.222656 209.796875 219.554688 208.773438 L 221.707031 202.140625 C 221.859375 201.683594 221.691406 201.183594 221.304688 200.898438 L 215.664062 196.800781 C 214.792969 196.167969 215.242188 194.792969 216.316406 194.792969 L 223.289062 194.792969 C 223.769531 194.792969 224.195312 194.480469 224.347656 194.023438 L 226.5 187.390625 C 226.832031 186.371094 228.28125 186.371094 228.613281 187.390625 "/><path style=" stroke:none;fill-rule:nonzero;fill:#8a310d;fill-opacity:1;" d="M 161.734375 167.019531 L 159.582031 173.648438 C 159.433594 174.105469 159.003906 174.417969 158.523438 174.417969 L 151.550781 174.417969 C 150.476562 174.417969 150.027344 175.792969 150.898438 176.425781 L 156.539062 180.523438 C 156.929688 180.804688 157.089844 181.308594 156.945312 181.765625 L 154.789062 188.398438 C 154.457031 189.417969 155.625 190.269531 156.496094 189.636719 L 162.140625 185.539062 C 162.527344 185.257812 163.054688 185.257812 163.445312 185.539062 L 169.085938 189.636719 C 169.957031 190.269531 171.128906 189.417969 170.792969 188.398438 L 168.640625 181.765625 C 168.492188 181.308594 168.652344 180.804688 169.042969 180.523438 L 174.683594 176.425781 C 175.554688 175.792969 175.109375 174.417969 174.03125 174.417969 L 167.058594 174.417969 C 166.578125 174.417969 166.152344 174.105469 166.003906 173.648438 L 163.847656 167.019531 C 163.515625 165.992188 162.070312 165.992188 161.734375 167.019531 "/><path style=" stroke:none;fill-rule:nonzero;fill:#8a310d;fill-opacity:1;" d="M 146.382812 187.390625 L 144.230469 194.023438 C 144.078125 194.480469 143.652344 194.792969 143.171875 194.792969 L 136.199219 194.792969 C 135.121094 194.792969 134.675781 196.167969 135.546875 196.800781 L 141.1875 200.898438 C 141.578125 201.183594 141.742188 201.683594 141.589844 202.140625 L 139.4375 208.773438 C 139.105469 209.796875 140.277344 210.644531 141.144531 210.015625 L 146.785156 205.914062 C 147.175781 205.632812 147.703125 205.632812 148.09375 205.914062 L 153.734375 210.015625 C 154.601562 210.644531 155.773438 209.796875 155.441406 208.773438 L 153.289062 202.140625 C 153.136719 201.683594 153.300781 201.183594 153.691406 200.898438 L 159.332031 196.800781 C 160.203125 196.167969 159.753906 194.792969 158.679688 194.792969 L 151.707031 194.792969 C 151.226562 194.792969 150.800781 194.480469 150.648438 194.023438 L 148.496094 187.390625 C 148.164062 186.371094 146.714844 186.371094 146.382812 187.390625 "/></g></svg>