<svg xmlns="http://www.w3.org/2000/svg" xmlns:xlink="http://www.w3.org/1999/xlink" width="500" zoomAndPan="magnify" viewBox="0 0 375 374.999991" height="500" preserveAspectRatio="xMidYMid meet" version="1.2"><defs><clipPath id="dfdc6fa8df"><path d="M 135 153.554688 L 227 153.554688 L 227 256 L 135 256 Z M 135 153.554688 "/></clipPath></defs><g id="be9e6606e5"><rect x="0" width="375" y="0" height="374.999991" style="fill:#ffffff;fill-opacity:1;stroke:none;"/><rect x="0" width="375" y="0" height="374.999991" style="fill:#ffffff;fill-opacity:1;stroke:none;"/><g clip-rule="nonzero" clip-path="url(#dfdc6fa8df)"><path style=" stroke:none;fill-rule:nonzero;fill:#8a310d;fill-opacity:1;" d="M 213.605469 248.679688 L 209.964844 247.769531 L 209.964844 165.648438 C 209.964844 164.710938 209.203125 163.945312 208.261719 163.945312 L 154.070312 163.945312 L 155.179688 157.277344 L 223.40625 163.769531 Z M 206.558594 252.503906 L 138.4375 252.503906 L 138.4375 167.351562 L 206.558594 167.351562 Z M 153.925781 153.734375 C 153.019531 153.625 152.226562 154.269531 152.089844 155.148438 L 150.617188 163.945312 L 136.734375 163.945312 C 135.796875 163.945312 135.03125 164.710938 135.03125 165.648438 L 135.03125 254.207031 C 135.03125 255.144531 135.796875 255.910156 136.734375 255.910156 L 208.261719 255.910156 C 209.203125 255.910156 209.964844 255.144531 209.964844 254.207031 L 209.964844 251.28125 L 214.664062 252.453125 C 214.804688 252.484375 214.9375 252.503906 215.074219 252.503906 C 215.421875 252.503906 215.761719 252.398438 216.046875 252.207031 C 216.445312 251.917969 216.710938 251.480469 216.765625 250.996094 L 226.984375 162.433594 C 227.039062 161.980469 226.902344 161.53125 226.617188 161.171875 C 226.332031 160.8125 225.914062 160.589844 225.453125 160.542969 L 153.925781 153.734375 "/></g><path style=" stroke:none;fill-rule:nonzero;fill:#8a310d;fill-opacity:1;" d="M 145.25 180.976562 L 141.84375 180.976562 L 141.84375 208.226562 L 203.152344 208.226562 L 203.152344 204.820312 L 145.25 204.820312 L 145.25 180.976562 "/><path style=" stroke:none;fill-rule:nonzero;fill:#8a310d;fill-opacity:1;" d="M 182.84375 190.929688 L 172.277344 183.894531 L 162.28125 193.894531 L 157.171875 188.785156 L 147.449219 198.503906 L 149.859375 200.914062 L 157.171875 193.601562 L 162.28125 198.710938 L 172.71875 188.273438 L 182.589844 194.867188 L 203.917969 184.203125 L 202.390625 181.15625 L 182.84375 190.929688 "/><path style=" stroke:none;fill-rule:nonzero;fill:#8a310d;fill-opacity:1;" d="M 145.25 177.570312 C 147.125 177.570312 148.65625 176.039062 148.65625 174.164062 C 148.65625 172.285156 147.125 170.757812 145.25 170.757812 C 143.371094 170.757812 141.84375 172.285156 141.84375 174.164062 C 141.84375 176.039062 143.371094 177.570312 145.25 177.570312 "/><path style=" stroke:none;fill-rule:nonzero;fill:#8a310d;fill-opacity:1;" d="M 199.746094 177.570312 C 201.625 177.570312 203.152344 176.039062 203.152344 174.164062 C 203.152344 172.285156 201.625 170.757812 199.746094 170.757812 C 197.871094 170.757812 196.339844 172.285156 196.339844 174.164062 C 196.339844 176.039062 197.871094 177.570312 199.746094 177.570312 "/><path style=" stroke:none;fill-rule:nonzero;fill:#8a310d;fill-opacity:1;" d="M 145.25 242.285156 C 143.371094 242.285156 141.84375 243.816406 141.84375 245.691406 C 141.84375 247.570312 143.371094 249.097656 145.25 249.097656 C 147.125 249.097656 148.65625 247.570312 148.65625 245.691406 C 148.65625 243.816406 147.125 242.285156 145.25 242.285156 "/><path style=" stroke:none;fill-rule:nonzero;fill:#8a310d;fill-opacity:1;" d="M 199.746094 242.285156 C 197.871094 242.285156 196.339844 243.816406 196.339844 245.691406 C 196.339844 247.570312 197.871094 249.097656 199.746094 249.097656 C 201.625 249.097656 203.152344 247.570312 203.152344 245.691406 C 203.152344 243.816406 201.625 242.285156 199.746094 242.285156 "/><path style=" stroke:none;fill-rule:nonzero;fill:#8a310d;fill-opacity:1;" d="M 141.84375 215.039062 L 162.28125 215.039062 L 162.28125 211.632812 L 141.84375 211.632812 L 141.84375 215.039062 "/><path style=" stroke:none;fill-rule:nonzero;fill:#8a310d;fill-opacity:1;" d="M 172.5 249.097656 L 192.9375 249.097656 L 192.9375 245.691406 L 172.5 245.691406 L 172.5 249.097656 "/><path style=" stroke:none;fill-rule:nonzero;fill:#8a310d;fill-opacity:1;" d="M 141.84375 221.847656 L 162.28125 221.847656 L 162.28125 218.441406 L 141.84375 218.441406 L 141.84375 221.847656 "/><path style=" stroke:none;fill-rule:nonzero;fill:#8a310d;fill-opacity:1;" d="M 141.84375 228.660156 L 162.28125 228.660156 L 162.28125 225.253906 L 141.84375 225.253906 L 141.84375 228.660156 "/><path style=" stroke:none;fill-rule:nonzero;fill:#8a310d;fill-opacity:1;" d="M 145.25 232.066406 L 141.84375 232.066406 L 141.84375 235.472656 L 145.25 235.472656 L 145.25 232.066406 "/><path style=" stroke:none;fill-rule:nonzero;fill:#8a310d;fill-opacity:1;" d="M 148.65625 235.472656 L 152.0625 235.472656 L 152.0625 232.066406 L 148.65625 232.066406 L 148.65625 235.472656 "/><path style=" stroke:none;fill-rule:nonzero;fill:#8a310d;fill-opacity:1;" d="M 158.875 232.066406 L 155.46875 232.066406 L 155.46875 235.472656 L 158.875 235.472656 L 158.875 232.066406 "/><path style=" stroke:none;fill-rule:nonzero;fill:#8a310d;fill-opacity:1;" d="M 169.09375 226.957031 C 169.09375 220.964844 173.542969 215.988281 179.3125 215.15625 L 179.3125 228.660156 L 192.816406 228.660156 C 191.984375 234.429688 187.007812 238.878906 181.015625 238.878906 C 174.441406 238.878906 169.09375 233.53125 169.09375 226.957031 Z M 196.339844 226.957031 L 196.339844 225.253906 L 182.71875 225.253906 L 182.71875 211.632812 L 181.015625 211.632812 C 172.558594 211.632812 165.6875 218.503906 165.6875 226.957031 C 165.6875 235.414062 172.558594 242.285156 181.015625 242.285156 C 189.46875 242.285156 196.339844 235.414062 196.339844 226.957031 "/><path style=" stroke:none;fill-rule:nonzero;fill:#8a310d;fill-opacity:1;" d="M 184.539062 221.21875 L 187.707031 222.480469 L 190.679688 215.039062 L 203.152344 215.039062 L 203.152344 211.632812 L 188.378906 211.632812 L 184.539062 221.21875 "/><path style=" stroke:none;fill-rule:nonzero;fill:#8a310d;fill-opacity:1;" d="M 165.6875 249.097656 L 169.09375 249.097656 L 169.09375 245.691406 L 165.6875 245.691406 L 165.6875 249.097656 "/><path style=" stroke:none;fill-rule:nonzero;fill:#8a310d;fill-opacity:1;" d="M 158.875 249.097656 L 162.28125 249.097656 L 162.28125 245.691406 L 158.875 245.691406 L 158.875 249.097656 "/></g></svg>