<svg xmlns="http://www.w3.org/2000/svg" xmlns:xlink="http://www.w3.org/1999/xlink" width="500" zoomAndPan="magnify" viewBox="0 0 375 374.999991" height="500" preserveAspectRatio="xMidYMid meet" version="1.2"><defs><clipPath id="27b20af4a2"><path d="M 138.675781 184.101562 L 247.425781 184.101562 L 247.425781 202.007812 L 138.675781 202.007812 Z M 138.675781 184.101562 "/></clipPath></defs><g id="9133b924f5"><rect x="0" width="375" y="0" height="374.999991" style="fill:#ffffff;fill-opacity:1;stroke:none;"/><rect x="0" width="375" y="0" height="374.999991" style="fill:#ffffff;fill-opacity:1;stroke:none;"/><g clip-rule="nonzero" clip-path="url(#27b20af4a2)"><path style=" stroke:none;fill-rule:nonzero;fill:#0f0f0f;fill-opacity:1;" d="M 238.632812 200.8125 L 147.464844 200.8125 C 143.265625 200.8125 139.851562 197.332031 139.851562 193.054688 C 139.851562 188.777344 143.265625 185.296875 147.464844 185.296875 L 238.632812 185.296875 C 242.832031 185.296875 246.25 188.777344 246.25 193.054688 C 246.25 197.332031 242.832031 200.8125 238.632812 200.8125 Z M 238.632812 184.097656 L 147.464844 184.097656 C 142.617188 184.097656 138.675781 188.117188 138.675781 193.054688 C 138.675781 197.992188 142.617188 202.007812 147.464844 202.007812 L 238.632812 202.007812 C 243.480469 202.007812 247.425781 197.992188 247.425781 193.054688 C 247.425781 188.117188 243.480469 184.097656 238.632812 184.097656 "/></g><path style=" stroke:none;fill-rule:nonzero;fill:#0f0f0f;fill-opacity:1;" d="M 145.828125 192.933594 C 145.828125 191.753906 146.769531 190.796875 147.925781 190.796875 C 149.082031 190.796875 150.023438 191.753906 150.023438 192.933594 C 150.023438 194.113281 149.082031 195.070312 147.925781 195.070312 C 146.769531 195.070312 145.828125 194.113281 145.828125 192.933594 Z M 150.617188 194.828125 C 150.984375 194.289062 151.199219 193.636719 151.199219 192.933594 C 151.199219 191.09375 149.730469 189.597656 147.925781 189.597656 C 146.121094 189.597656 144.652344 191.09375 144.652344 192.933594 C 144.652344 194.773438 146.121094 196.269531 147.925781 196.269531 C 148.617188 196.269531 149.257812 196.050781 149.785156 195.675781 L 151.792969 197.71875 C 151.910156 197.835938 152.058594 197.894531 152.210938 197.894531 C 152.359375 197.894531 152.511719 197.835938 152.625 197.71875 C 152.855469 197.488281 152.855469 197.105469 152.625 196.875 L 150.617188 194.828125 "/><path style=" stroke:none;fill-rule:nonzero;fill:#0f0f0f;fill-opacity:1;" d="M 240.5625 191.769531 C 240.398438 191.769531 240.261719 191.902344 240.261719 192.070312 L 240.261719 193.101562 C 240.261719 194.273438 239.324219 195.230469 238.171875 195.230469 C 237.019531 195.230469 236.085938 194.273438 236.085938 193.101562 L 236.085938 192.070312 C 236.085938 191.902344 235.949219 191.769531 235.785156 191.769531 C 235.621094 191.769531 235.488281 191.902344 235.488281 192.070312 L 235.488281 193.101562 C 235.488281 194.507812 236.535156 195.667969 237.875 195.820312 L 237.875 197.117188 L 237.167969 197.117188 C 237 197.117188 236.867188 197.253906 236.867188 197.421875 C 236.867188 197.589844 237 197.726562 237.167969 197.726562 L 239.179688 197.726562 C 239.34375 197.726562 239.476562 197.589844 239.476562 197.421875 C 239.476562 197.253906 239.34375 197.117188 239.179688 197.117188 L 238.472656 197.117188 L 238.472656 195.820312 C 239.8125 195.667969 240.859375 194.507812 240.859375 193.101562 L 240.859375 192.070312 C 240.859375 191.902344 240.726562 191.769531 240.5625 191.769531 "/><path style=" stroke:none;fill-rule:nonzero;fill:#0f0f0f;fill-opacity:1;" d="M 238.171875 194.53125 C 238.941406 194.53125 239.5625 193.898438 239.5625 193.117188 L 239.5625 191.027344 C 239.5625 190.246094 238.941406 189.613281 238.171875 189.613281 C 237.40625 189.613281 236.785156 190.246094 236.785156 191.027344 L 236.785156 193.117188 C 236.785156 193.898438 237.40625 194.53125 238.171875 194.53125 "/></g></svg>