<svg xmlns="http://www.w3.org/2000/svg" xmlns:xlink="http://www.w3.org/1999/xlink" width="500" zoomAndPan="magnify" viewBox="0 0 375 374.999991" height="500" preserveAspectRatio="xMidYMid meet" version="1.2"><defs><clipPath id="d8802e7975"><path d="M 120.355469 190 L 142 190 L 142 229 L 120.355469 229 Z M 120.355469 190 "/></clipPath><clipPath id="e98b3cc0ef"><path d="M 166.769531 228.34375 L 176.953125 228.34375 L 176.953125 234.3125 L 166.769531 234.3125 Z M 166.769531 228.34375 "/></clipPath><clipPath id="da94257a63"><path d="M 215.65625 161.847656 L 254.523438 161.847656 L 254.523438 197.933594 L 215.65625 197.933594 Z M 215.65625 161.847656 "/></clipPath><clipPath id="46f5a4ffe0"><path d="M 141 140.582031 L 241 140.582031 L 241 194 L 141 194 Z M 141 140.582031 "/></clipPath></defs><g id="84173b01bf"><rect x="0" width="375" y="0" height="374.999991" style="fill:#ffffff;fill-opacity:1;stroke:none;"/><rect x="0" width="375" y="0" height="374.999991" style="fill:#ffffff;fill-opacity:1;stroke:none;"/><path style=" stroke:none;fill-rule:nonzero;fill:#8a310d;fill-opacity:1;" d="M 182.074219 210.828125 L 182.074219 212.65625 C 183.5625 211.910156 184.660156 210.203125 185.007812 208.113281 C 183.550781 208.136719 182.308594 209.289062 182.074219 210.828125 "/><g clip-rule="nonzero" clip-path="url(#d8802e7975)"><path style=" stroke:none;fill-rule:nonzero;fill:#8a310d;fill-opacity:1;" d="M 128.140625 216.867188 L 127.988281 216.796875 C 126.558594 216.148438 125.636719 214.714844 125.636719 213.148438 L 125.636719 205.183594 C 125.636719 202.972656 127.433594 201.175781 129.644531 201.175781 L 139.089844 201.175781 C 139.945312 201.175781 140.773438 201.355469 141.546875 201.710938 C 141.640625 201.753906 141.757812 201.804688 141.898438 201.863281 L 141.898438 195.550781 C 141.898438 192.894531 139.746094 190.742188 137.09375 190.742188 L 125.160156 190.742188 C 122.503906 190.742188 120.355469 192.894531 120.355469 195.550781 L 120.355469 223.289062 C 120.355469 225.941406 122.503906 228.09375 125.160156 228.09375 L 137.09375 228.09375 C 139.746094 228.09375 141.898438 225.941406 141.898438 223.289062 L 141.898438 220.53125 L 128.308594 216.910156 L 128.140625 216.867188 "/></g><path style=" stroke:none;fill-rule:nonzero;fill:#8a310d;fill-opacity:1;" d="M 161.730469 213.839844 C 160.585938 212.894531 159.6875 211.472656 159.214844 209.792969 C 153.070312 207.851562 145.277344 205.34375 141.898438 204.058594 C 141.394531 203.867188 140.984375 203.703125 140.699219 203.570312 C 140.191406 203.339844 139.644531 203.21875 139.089844 203.21875 L 129.644531 203.21875 C 129.238281 203.21875 128.859375 203.34375 128.546875 203.554688 C 128.441406 203.625 128.34375 203.707031 128.257812 203.792969 C 128.167969 203.882812 128.085938 203.980469 128.015625 204.085938 C 127.875 204.292969 127.773438 204.53125 127.722656 204.789062 C 127.695312 204.914062 127.679688 205.046875 127.679688 205.183594 L 127.679688 213.148438 C 127.679688 213.339844 127.710938 213.527344 127.761719 213.707031 C 127.816406 213.886719 127.894531 214.054688 127.992188 214.210938 C 128.195312 214.523438 128.480469 214.777344 128.832031 214.9375 L 141.898438 218.417969 L 161.808594 223.726562 L 161.730469 213.839844 "/><path style=" stroke:none;fill-rule:nonzero;fill:#8a310d;fill-opacity:1;" d="M 166.003906 210.183594 C 165.886719 210.394531 165.757812 210.582031 165.617188 210.753906 C 165.589844 210.785156 165.558594 210.8125 165.53125 210.84375 C 165.414062 210.972656 165.292969 211.09375 165.160156 211.195312 C 165.078125 211.257812 164.996094 211.3125 164.910156 211.363281 C 164.820312 211.414062 164.726562 211.457031 164.632812 211.496094 C 164.546875 211.527344 164.457031 211.558594 164.367188 211.578125 C 164.273438 211.601562 164.179688 211.617188 164.082031 211.625 C 164.011719 211.628906 163.9375 211.625 163.867188 211.621094 C 163.820312 211.621094 163.777344 211.617188 163.730469 211.613281 C 163.683594 211.605469 163.632812 211.597656 163.582031 211.585938 C 163.539062 211.578125 163.496094 211.570312 163.449219 211.558594 C 163.402344 211.542969 163.351562 211.527344 163.304688 211.511719 C 163.261719 211.496094 163.21875 211.480469 163.175781 211.460938 C 163.128906 211.441406 163.082031 211.417969 163.035156 211.394531 C 162.992188 211.371094 162.949219 211.351562 162.910156 211.328125 C 162.863281 211.300781 162.816406 211.269531 162.769531 211.238281 C 162.757812 211.230469 162.742188 211.222656 162.726562 211.210938 C 162.699219 211.195312 162.675781 211.175781 162.652344 211.15625 C 162.605469 211.125 162.5625 211.085938 162.519531 211.050781 C 162.480469 211.019531 162.441406 210.984375 162.402344 210.953125 C 162.359375 210.910156 162.320312 210.871094 162.277344 210.828125 C 162.242188 210.792969 162.210938 210.761719 162.179688 210.726562 C 162.128906 210.667969 162.089844 210.621094 162.050781 210.570312 C 162.015625 210.53125 161.980469 210.488281 161.949219 210.445312 C 161.910156 210.394531 161.875 210.339844 161.835938 210.289062 C 161.804688 210.242188 161.773438 210.199219 161.742188 210.152344 C 161.730469 210.128906 161.714844 210.105469 161.703125 210.082031 C 161.679688 210.046875 161.660156 210.011719 161.640625 209.976562 C 161.613281 209.929688 161.582031 209.878906 161.558594 209.832031 C 161.523438 209.769531 161.492188 209.703125 161.464844 209.640625 C 161.4375 209.589844 161.410156 209.539062 161.386719 209.484375 C 161.359375 209.417969 161.332031 209.347656 161.304688 209.28125 C 161.285156 209.226562 161.261719 209.171875 161.242188 209.117188 C 161.214844 209.046875 161.195312 208.972656 161.171875 208.898438 C 161.152344 208.84375 161.132812 208.789062 161.117188 208.734375 C 161.09375 208.652344 161.078125 208.570312 161.058594 208.492188 C 161.042969 208.4375 161.03125 208.386719 161.015625 208.332031 C 161.007812 208.292969 161.003906 208.25 160.996094 208.210938 C 160.988281 208.160156 160.976562 208.109375 160.96875 208.054688 C 160.960938 208.007812 160.949219 207.960938 160.945312 207.914062 C 160.921875 207.769531 160.90625 207.628906 160.898438 207.480469 C 160.886719 207.335938 160.882812 207.1875 160.878906 207.042969 C 160.878906 206.882812 160.886719 206.726562 160.898438 206.570312 C 160.917969 206.304688 160.953125 206.042969 161.003906 205.789062 C 161.039062 205.625 161.082031 205.46875 161.128906 205.3125 C 161.195312 205.09375 161.269531 204.882812 161.359375 204.683594 C 161.519531 204.339844 161.710938 204.03125 161.929688 203.773438 C 162.351562 203.277344 162.871094 202.964844 163.445312 202.921875 C 163.519531 202.917969 163.589844 202.921875 163.660156 202.925781 C 163.707031 202.925781 163.75 202.929688 163.796875 202.933594 C 163.84375 202.941406 163.894531 202.949219 163.945312 202.957031 C 163.988281 202.96875 164.035156 202.976562 164.078125 202.988281 C 164.125 203 164.175781 203.019531 164.222656 203.035156 C 164.265625 203.050781 164.308594 203.066406 164.351562 203.082031 C 164.398438 203.105469 164.449219 203.128906 164.496094 203.152344 C 164.535156 203.171875 164.578125 203.195312 164.617188 203.21875 C 164.664062 203.246094 164.710938 203.277344 164.757812 203.304688 C 164.796875 203.332031 164.839844 203.359375 164.875 203.386719 C 164.921875 203.421875 164.964844 203.460938 165.011719 203.496094 C 165.050781 203.527344 165.085938 203.558594 165.125 203.59375 C 165.167969 203.632812 165.210938 203.675781 165.253906 203.71875 C 165.289062 203.757812 165.324219 203.792969 165.359375 203.832031 C 165.398438 203.878906 165.441406 203.925781 165.480469 203.976562 C 165.511719 204.015625 165.546875 204.054688 165.578125 204.097656 C 165.617188 204.148438 165.65625 204.203125 165.691406 204.257812 C 165.722656 204.304688 165.753906 204.347656 165.785156 204.394531 C 165.820312 204.453125 165.855469 204.511719 165.886719 204.570312 C 165.917969 204.617188 165.945312 204.664062 165.972656 204.714844 C 166.003906 204.777344 166.035156 204.84375 166.066406 204.90625 C 166.089844 204.957031 166.117188 205.007812 166.140625 205.058594 C 166.167969 205.128906 166.195312 205.195312 166.222656 205.265625 C 166.242188 205.320312 166.265625 205.371094 166.285156 205.425781 C 166.3125 205.5 166.335938 205.574219 166.355469 205.644531 C 166.375 205.703125 166.394531 205.757812 166.410156 205.8125 C 166.433594 205.890625 166.449219 205.972656 166.46875 206.050781 C 166.484375 206.105469 166.5 206.160156 166.511719 206.214844 C 166.53125 206.304688 166.542969 206.398438 166.558594 206.488281 C 166.566406 206.539062 166.578125 206.585938 166.585938 206.632812 C 166.601562 206.765625 166.617188 206.898438 166.628906 207.035156 C 166.628906 207.046875 166.628906 207.054688 166.628906 207.0625 C 166.707031 208.085938 166.527344 209.054688 166.175781 209.835938 C 166.125 209.957031 166.066406 210.074219 166.003906 210.183594 Z M 178.621094 199.917969 L 155.457031 185.742188 C 157.746094 188.425781 162.246094 194.011719 163.03125 197.375 C 163.167969 197.957031 163.453125 199.128906 163.613281 199.785156 C 163.683594 200.070312 163.730469 200.261719 163.730469 200.261719 C 163.730469 200.261719 164.359375 200.054688 165.101562 199.890625 C 165.21875 199.839844 165.332031 199.796875 165.449219 199.757812 C 165.757812 199.65625 166.082031 199.585938 166.414062 199.5625 C 169.398438 199.34375 172.054688 202.433594 172.351562 206.464844 C 172.558594 209.296875 171.441406 211.6875 169.726562 212.9375 C 169.390625 213.183594 169.027344 213.382812 168.648438 213.535156 C 168.335938 213.660156 168.015625 213.753906 167.683594 213.808594 C 167.550781 213.828125 167.417969 213.851562 167.28125 213.863281 C 166.980469 213.882812 166.6875 213.867188 166.398438 213.828125 C 166.523438 213.78125 166.648438 213.730469 166.769531 213.667969 C 167.070312 213.515625 167.355469 213.324219 167.621094 213.097656 C 167.640625 213.078125 167.664062 213.054688 167.683594 213.035156 C 168.054688 212.707031 168.390625 212.316406 168.675781 211.863281 C 168.863281 211.570312 169.027344 211.25 169.167969 210.914062 C 169.1875 210.875 169.203125 210.839844 169.21875 210.804688 C 169.289062 210.628906 169.355469 210.445312 169.417969 210.261719 C 169.726562 209.285156 169.867188 208.183594 169.78125 207.03125 C 169.773438 206.933594 169.757812 206.835938 169.75 206.742188 C 169.734375 206.613281 169.726562 206.484375 169.707031 206.359375 C 169.695312 206.285156 169.679688 206.214844 169.667969 206.144531 C 169.640625 206 169.617188 205.851562 169.585938 205.710938 C 169.566406 205.625 169.542969 205.542969 169.519531 205.460938 C 169.488281 205.335938 169.457031 205.210938 169.421875 205.089844 C 169.394531 205 169.363281 204.917969 169.332031 204.828125 C 169.296875 204.71875 169.257812 204.605469 169.214844 204.496094 C 169.183594 204.410156 169.144531 204.324219 169.105469 204.242188 C 169.0625 204.136719 169.019531 204.035156 168.972656 203.933594 C 168.929688 203.851562 168.886719 203.769531 168.84375 203.6875 C 168.792969 203.59375 168.746094 203.5 168.691406 203.40625 C 168.644531 203.328125 168.59375 203.253906 168.546875 203.175781 C 168.492188 203.089844 168.4375 203 168.378906 202.917969 C 168.324219 202.84375 168.269531 202.773438 168.21875 202.703125 C 168.15625 202.625 168.097656 202.542969 168.035156 202.46875 C 167.976562 202.402344 167.917969 202.339844 167.859375 202.273438 C 167.792969 202.203125 167.726562 202.132812 167.660156 202.0625 C 167.597656 202.003906 167.535156 201.945312 167.472656 201.890625 C 167.402344 201.828125 167.332031 201.765625 167.261719 201.707031 C 167.242188 201.6875 167.222656 201.667969 167.199219 201.652344 C 167.15625 201.617188 167.109375 201.585938 167.0625 201.554688 C 166.988281 201.5 166.914062 201.445312 166.839844 201.398438 C 166.773438 201.351562 166.703125 201.308594 166.632812 201.269531 C 166.554688 201.222656 166.476562 201.179688 166.398438 201.140625 C 166.324219 201.105469 166.253906 201.070312 166.179688 201.039062 C 166.101562 201.003906 166.019531 200.96875 165.9375 200.941406 C 165.863281 200.914062 165.789062 200.890625 165.714844 200.867188 C 165.628906 200.839844 165.546875 200.820312 165.460938 200.800781 C 165.386719 200.78125 165.308594 200.765625 165.230469 200.753906 C 165.144531 200.738281 165.058594 200.730469 164.972656 200.71875 C 164.894531 200.714844 164.816406 200.707031 164.738281 200.707031 C 164.609375 200.699219 164.476562 200.695312 164.34375 200.707031 C 164.125 200.722656 163.917969 200.761719 163.710938 200.816406 C 163.121094 200.960938 162.578125 201.246094 162.097656 201.644531 C 160.605469 202.878906 159.695312 205.183594 159.882812 207.753906 C 159.886719 207.789062 159.890625 207.828125 159.894531 207.863281 C 159.910156 208.054688 159.929688 208.238281 159.957031 208.421875 C 159.96875 208.5 159.984375 208.574219 159.996094 208.648438 C 160.023438 208.789062 160.046875 208.933594 160.078125 209.070312 C 160.097656 209.160156 160.121094 209.242188 160.144531 209.328125 C 160.175781 209.449219 160.207031 209.574219 160.242188 209.695312 C 160.269531 209.78125 160.300781 209.867188 160.332031 209.953125 C 160.355469 210.027344 160.378906 210.097656 160.40625 210.167969 C 160.417969 210.207031 160.433594 210.246094 160.449219 210.289062 C 160.480469 210.375 160.519531 210.457031 160.558594 210.542969 C 160.601562 210.644531 160.644531 210.75 160.691406 210.847656 C 160.730469 210.933594 160.777344 211.011719 160.820312 211.09375 C 160.871094 211.191406 160.917969 211.285156 160.972656 211.375 C 161.019531 211.457031 161.070312 211.53125 161.117188 211.609375 C 161.171875 211.695312 161.226562 211.78125 161.285156 211.867188 C 161.339844 211.941406 161.394531 212.011719 161.445312 212.082031 C 161.507812 212.160156 161.566406 212.238281 161.628906 212.316406 C 161.660156 212.351562 161.691406 212.386719 161.722656 212.421875 C 161.75 212.453125 161.777344 212.480469 161.804688 212.511719 C 161.871094 212.582031 161.933594 212.652344 162.003906 212.71875 C 162.0625 212.78125 162.128906 212.835938 162.191406 212.894531 C 162.261719 212.957031 162.328125 213.019531 162.402344 213.078125 C 162.46875 213.132812 162.535156 213.179688 162.601562 213.230469 C 162.675781 213.285156 162.75 213.335938 162.824219 213.386719 C 162.890625 213.433594 162.960938 213.472656 163.03125 213.515625 C 163.109375 213.558594 163.1875 213.601562 163.265625 213.644531 C 163.335938 213.679688 163.410156 213.710938 163.484375 213.746094 C 163.535156 213.769531 163.589844 213.789062 163.644531 213.808594 C 163.644531 213.816406 163.65625 214.890625 163.65625 214.890625 L 163.726562 224.238281 L 163.730469 224.402344 C 164.429688 225.515625 166.675781 226.402344 169.726562 226.691406 C 170.425781 226.757812 171.167969 226.796875 171.945312 226.796875 C 176.097656 226.796875 179.300781 225.769531 180.160156 224.402344 L 180.160156 210.6875 C 180.179688 210.558594 180.199219 210.453125 180.222656 210.347656 C 180.234375 210.28125 180.242188 210.214844 180.257812 210.152344 C 180.269531 210.097656 180.285156 210.046875 180.300781 209.992188 C 180.332031 209.878906 180.363281 209.765625 180.398438 209.65625 C 180.417969 209.59375 180.441406 209.535156 180.464844 209.472656 C 180.5 209.375 180.539062 209.277344 180.582031 209.179688 C 180.609375 209.121094 180.636719 209.0625 180.667969 209 C 180.710938 208.910156 180.761719 208.816406 180.8125 208.726562 C 180.84375 208.671875 180.875 208.617188 180.90625 208.5625 C 180.964844 208.46875 181.027344 208.378906 181.089844 208.289062 C 181.121094 208.246094 181.152344 208.199219 181.183594 208.15625 C 181.273438 208.039062 181.367188 207.925781 181.464844 207.820312 C 181.476562 207.804688 181.484375 207.792969 181.496094 207.78125 C 181.605469 207.660156 181.722656 207.550781 181.839844 207.441406 C 181.863281 207.421875 181.886719 207.40625 181.90625 207.386719 C 181.921875 207.375 181.941406 207.359375 181.957031 207.347656 C 182.042969 207.277344 182.128906 207.203125 182.21875 207.136719 C 182.265625 207.101562 182.316406 207.070312 182.367188 207.035156 C 182.449219 206.980469 182.535156 206.925781 182.621094 206.871094 C 182.675781 206.839844 182.730469 206.808594 182.785156 206.78125 C 182.871094 206.730469 182.960938 206.6875 183.050781 206.644531 C 183.109375 206.621094 183.164062 206.59375 183.222656 206.570312 C 183.320312 206.527344 183.417969 206.492188 183.519531 206.457031 C 183.570312 206.441406 183.625 206.421875 183.675781 206.402344 C 183.804688 206.363281 183.933594 206.332031 184.066406 206.304688 C 184.09375 206.296875 184.121094 206.289062 184.148438 206.285156 C 184.304688 206.253906 184.46875 206.230469 184.632812 206.214844 C 184.679688 206.210938 184.726562 206.210938 184.773438 206.210938 C 184.867188 206.203125 184.960938 206.195312 185.058594 206.195312 C 185.074219 206.195312 185.09375 206.199219 185.113281 206.199219 C 185.246094 206.199219 185.375 206.210938 185.503906 206.222656 C 185.566406 206.230469 185.628906 206.230469 185.695312 206.238281 C 185.886719 206.265625 186.082031 206.300781 186.277344 206.351562 C 186.679688 206.453125 187.082031 206.558594 187.480469 206.660156 C 188.472656 206.917969 189.433594 207.164062 190.257812 207.378906 C 190.585938 207.460938 190.894531 207.542969 191.175781 207.613281 C 191.1875 207.617188 191.199219 207.621094 191.210938 207.625 L 184.570312 203.5625 L 178.621094 199.917969 "/><g clip-rule="nonzero" clip-path="url(#e98b3cc0ef)"><path style=" stroke:none;fill-rule:nonzero;fill:#8a310d;fill-opacity:1;" d="M 176.878906 232.847656 L 176.878906 228.425781 C 175.46875 228.769531 173.757812 228.972656 171.855469 228.972656 C 169.953125 228.972656 168.242188 228.769531 166.832031 228.425781 L 166.832031 232.847656 C 167.359375 233.683594 169.316406 234.3125 171.855469 234.3125 C 174.394531 234.3125 176.351562 233.683594 176.878906 232.847656 "/></g><path style=" stroke:none;fill-rule:nonzero;fill:#8a310d;fill-opacity:1;" d="M 163.371094 204.902344 C 162.78125 204.945312 162.179688 205.90625 162.183594 207.125 C 162.183594 207.210938 162.175781 207.292969 162.183594 207.382812 C 162.222656 207.882812 162.355469 208.332031 162.542969 208.699219 C 162.859375 209.3125 163.324219 209.691406 163.714844 209.660156 C 163.734375 209.660156 163.753906 209.648438 163.769531 209.644531 C 163.972656 209.613281 164.167969 209.476562 164.34375 209.261719 C 164.707031 208.824219 164.964844 208.058594 164.902344 207.183594 C 164.804688 205.84375 163.996094 204.855469 163.371094 204.902344 "/><g clip-rule="nonzero" clip-path="url(#da94257a63)"><path style=" stroke:none;fill-rule:nonzero;fill:#8a310d;fill-opacity:1;" d="M 251.851562 163.941406 C 250.589844 162.800781 248.984375 162.09375 247.246094 161.960938 C 247.039062 161.945312 246.828125 161.9375 246.617188 161.9375 L 243.125 161.9375 C 243.113281 161.933594 222.683594 161.933594 222.683594 161.933594 C 222.234375 161.933594 221.808594 161.984375 221.398438 162.070312 C 218.910156 162.597656 217.175781 164.652344 215.738281 167.09375 L 237.675781 167.09375 C 238.234375 167.09375 238.765625 167.175781 239.277344 167.3125 C 239.933594 167.488281 240.542969 167.769531 241.09375 168.136719 C 243.050781 169.449219 244.195312 171.84375 243.722656 174.375 L 239.332031 197.84375 L 240.046875 197.847656 L 240.636719 196.800781 L 253.46875 173.992188 C 254.847656 171.542969 254.871094 168.59375 253.539062 166.101562 C 253.09375 165.273438 252.519531 164.546875 251.851562 163.941406 "/></g><path style=" stroke:none;fill-rule:nonzero;fill:#8a310d;fill-opacity:1;" d="M 206.089844 210.34375 C 205.652344 210.34375 205.234375 210.292969 204.828125 210.207031 C 204.144531 210.066406 203.511719 209.816406 202.933594 209.472656 C 200.816406 208.203125 199.550781 205.703125 200.042969 203.066406 L 201.03125 197.777344 L 201.859375 193.351562 L 201.785156 193.496094 C 201.355469 194.261719 200.757812 194.867188 200.066406 195.304688 C 199.453125 195.6875 198.761719 195.933594 198.046875 196.03125 C 197 196.171875 195.902344 195.996094 194.90625 195.445312 L 193.605469 194.726562 L 191.59375 193.621094 L 187.828125 191.546875 L 181.941406 188.308594 L 144.441406 167.667969 L 143.527344 172.550781 C 143.308594 173.734375 143.527344 174.886719 144.0625 175.847656 C 144.199219 176.085938 144.351562 176.316406 144.523438 176.53125 C 144.695312 176.742188 144.882812 176.945312 145.085938 177.128906 C 145.292969 177.3125 145.511719 177.476562 145.746094 177.625 C 145.980469 177.773438 146.230469 177.902344 146.488281 178.011719 L 153.035156 182.019531 L 158.003906 185.058594 L 192.636719 206.25 L 194.660156 207.488281 L 201.195312 211.488281 L 201.242188 211.4375 C 201.824219 211.773438 202.46875 212.015625 203.160156 212.144531 C 203.53125 212.210938 203.910156 212.257812 204.300781 212.257812 L 227.871094 212.257812 C 230.859375 212.257812 233.542969 210.757812 235.148438 208.421875 C 233.628906 209.628906 231.714844 210.34375 229.65625 210.34375 L 206.089844 210.34375 "/><path style=" stroke:none;fill-rule:nonzero;fill:#8a310d;fill-opacity:1;" d="M 233.976562 192.949219 C 233.335938 194.738281 232.453125 196.382812 231.398438 197.832031 C 228.511719 201.808594 224.3125 204.320312 220.078125 204.320312 C 218.855469 204.320312 217.660156 204.113281 216.523438 203.703125 C 215.035156 203.167969 213.714844 202.316406 212.597656 201.195312 C 212.144531 200.742188 211.730469 200.246094 211.347656 199.710938 C 210.929688 199.121094 210.558594 198.480469 210.230469 197.792969 C 209.964844 197.234375 209.730469 196.652344 209.53125 196.035156 C 208.355469 192.421875 208.496094 188.253906 209.917969 184.296875 C 212.324219 177.601562 218.042969 172.925781 223.816406 172.925781 C 223.820312 172.925781 223.820312 174.574219 223.820312 174.574219 L 223.820312 172.925781 C 225.039062 172.925781 226.234375 173.132812 227.371094 173.542969 C 228.984375 174.121094 230.375 175.078125 231.523438 176.304688 C 231.960938 176.777344 232.363281 177.289062 232.730469 177.839844 C 235.324219 181.742188 235.964844 187.429688 233.976562 192.949219 Z M 236.597656 173.347656 C 236.152344 172.894531 235.664062 172.480469 235.136719 172.113281 C 233.496094 170.980469 231.5 170.304688 229.324219 170.304688 L 220.855469 170.304688 C 217.816406 170.304688 214.964844 171.265625 212.625 172.921875 L 206.269531 184.984375 L 204.390625 195.027344 C 204.214844 195.964844 204.175781 196.886719 204.253906 197.785156 C 204.464844 200.3125 205.617188 202.617188 207.386719 204.308594 C 207.847656 204.746094 208.351562 205.144531 208.890625 205.496094 C 210.480469 206.527344 212.378906 207.132812 214.441406 207.132812 L 222.910156 207.132812 C 228.949219 207.132812 234.234375 203.347656 236.277344 197.839844 C 236.554688 197.089844 236.777344 196.304688 236.925781 195.492188 L 239.375 182.410156 C 240.023438 178.949219 238.847656 175.632812 236.597656 173.347656 "/><path style=" stroke:none;fill-rule:nonzero;fill:#8a310d;fill-opacity:1;" d="M 230.445312 177.554688 C 229.449219 176.453125 228.230469 175.605469 226.8125 175.09375 C 225.835938 174.742188 224.832031 174.574219 223.816406 174.574219 C 219.90625 174.574219 215.921875 177.082031 213.300781 181.152344 C 214.785156 179.75 216.617188 178.925781 218.511719 178.925781 C 219.226562 178.925781 219.929688 179.046875 220.597656 179.289062 C 222.515625 179.976562 223.957031 181.546875 224.660156 183.710938 C 224.703125 183.847656 224.738281 183.992188 224.777344 184.132812 C 224.996094 184.953125 225.105469 185.816406 225.09375 186.695312 C 225.082031 187.863281 224.871094 189.058594 224.453125 190.21875 C 223.089844 194.007812 219.9375 196.554688 216.601562 196.554688 C 215.882812 196.554688 215.183594 196.433594 214.515625 196.195312 C 214.484375 196.179688 214.453125 196.164062 214.417969 196.148438 C 212.441406 195.398438 211.042969 193.679688 210.40625 191.542969 C 210.5 193.859375 211.082031 196.011719 212.089844 197.796875 C 212.210938 198.007812 212.335938 198.210938 212.46875 198.414062 C 212.828125 198.964844 213.234375 199.476562 213.679688 199.9375 C 214.632812 200.917969 215.773438 201.683594 217.082031 202.152344 C 218.058594 202.503906 219.066406 202.671875 220.078125 202.671875 C 223.398438 202.671875 226.773438 200.863281 229.320312 197.828125 C 230.601562 196.300781 231.679688 194.46875 232.425781 192.394531 C 234.167969 187.546875 233.722656 182.585938 231.617188 179.128906 C 231.269531 178.5625 230.878906 178.035156 230.445312 177.554688 "/><path style=" stroke:none;fill-rule:nonzero;fill:#8a310d;fill-opacity:1;" d="M 215.074219 194.640625 C 215.238281 194.699219 215.40625 194.746094 215.574219 194.785156 C 215.628906 194.796875 215.664062 194.804688 215.699219 194.8125 C 215.859375 194.84375 216.019531 194.871094 216.179688 194.886719 C 216.1875 194.886719 216.199219 194.886719 216.207031 194.886719 C 216.339844 194.898438 216.472656 194.90625 216.601562 194.90625 C 216.636719 194.90625 216.667969 194.902344 216.703125 194.902344 C 216.765625 194.898438 216.832031 194.894531 216.894531 194.890625 C 217.011719 194.882812 217.125 194.875 217.242188 194.859375 C 217.308594 194.847656 217.371094 194.839844 217.4375 194.828125 C 217.558594 194.808594 217.675781 194.78125 217.796875 194.75 C 217.855469 194.738281 217.914062 194.726562 217.972656 194.707031 C 218.070312 194.679688 218.171875 194.644531 218.273438 194.609375 C 218.324219 194.589844 218.378906 194.574219 218.433594 194.554688 C 218.453125 194.546875 218.472656 194.542969 218.492188 194.535156 C 218.664062 194.46875 218.835938 194.390625 219.003906 194.304688 C 219.058594 194.277344 219.109375 194.246094 219.160156 194.21875 C 219.277344 194.15625 219.394531 194.09375 219.507812 194.019531 C 219.570312 193.984375 219.628906 193.945312 219.6875 193.902344 C 219.792969 193.835938 219.898438 193.761719 220 193.6875 C 220.058594 193.640625 220.117188 193.597656 220.179688 193.550781 C 220.28125 193.464844 220.386719 193.378906 220.488281 193.289062 C 220.539062 193.242188 220.589844 193.199219 220.640625 193.152344 C 220.777344 193.027344 220.910156 192.890625 221.042969 192.75 C 221.054688 192.738281 221.066406 192.730469 221.078125 192.714844 C 221.21875 192.5625 221.351562 192.402344 221.484375 192.234375 C 221.527344 192.183594 221.566406 192.125 221.605469 192.074219 C 221.695312 191.953125 221.78125 191.832031 221.867188 191.707031 C 221.910156 191.640625 221.953125 191.574219 221.996094 191.503906 C 222.074219 191.386719 222.148438 191.261719 222.21875 191.136719 C 222.261719 191.066406 222.300781 190.992188 222.339844 190.921875 C 222.414062 190.785156 222.480469 190.644531 222.546875 190.503906 C 222.578125 190.4375 222.609375 190.375 222.640625 190.308594 C 222.734375 190.097656 222.820312 189.882812 222.902344 189.664062 C 222.980469 189.441406 223.050781 189.21875 223.113281 188.996094 C 223.359375 188.117188 223.460938 187.242188 223.441406 186.40625 C 222.925781 187.441406 222.058594 188.152344 221.152344 188.335938 C 220.761719 188.414062 220.363281 188.398438 219.980469 188.261719 C 218.597656 187.765625 218 185.914062 218.640625 184.128906 C 219.15625 182.699219 220.308594 181.746094 221.460938 181.675781 C 221.042969 181.316406 220.570312 181.03125 220.039062 180.839844 C 219.875 180.78125 219.707031 180.734375 219.539062 180.695312 C 219.5 180.6875 219.457031 180.675781 219.414062 180.667969 C 219.253906 180.636719 219.09375 180.609375 218.933594 180.59375 C 218.925781 180.59375 218.914062 180.59375 218.90625 180.59375 C 218.773438 180.582031 218.644531 180.574219 218.511719 180.574219 C 218.476562 180.574219 218.445312 180.578125 218.410156 180.578125 C 218.347656 180.582031 218.28125 180.585938 218.21875 180.589844 C 218.101562 180.597656 217.988281 180.609375 217.875 180.621094 C 217.808594 180.632812 217.738281 180.640625 217.671875 180.652344 C 217.554688 180.671875 217.4375 180.699219 217.320312 180.726562 C 217.261719 180.742188 217.203125 180.757812 217.140625 180.773438 C 216.992188 180.816406 216.839844 180.867188 216.691406 180.921875 C 216.667969 180.929688 216.644531 180.9375 216.621094 180.945312 C 216.449219 181.015625 216.277344 181.089844 216.109375 181.175781 C 216.054688 181.203125 216.003906 181.234375 215.949219 181.265625 C 215.832031 181.324219 215.71875 181.390625 215.609375 181.457031 C 215.546875 181.496094 215.484375 181.539062 215.421875 181.578125 C 215.320312 181.648438 215.21875 181.71875 215.117188 181.792969 C 215.054688 181.839844 214.996094 181.882812 214.933594 181.933594 C 214.832031 182.015625 214.730469 182.101562 214.628906 182.191406 C 214.578125 182.234375 214.523438 182.28125 214.472656 182.328125 C 214.335938 182.453125 214.207031 182.585938 214.078125 182.722656 C 214.0625 182.738281 214.050781 182.75 214.039062 182.765625 C 213.898438 182.917969 213.761719 183.078125 213.628906 183.246094 C 213.589844 183.296875 213.550781 183.355469 213.507812 183.410156 C 213.417969 183.527344 213.332031 183.648438 213.25 183.769531 C 213.203125 183.839844 213.160156 183.90625 213.117188 183.976562 C 213.039062 184.09375 212.96875 184.21875 212.894531 184.34375 C 212.855469 184.414062 212.8125 184.488281 212.773438 184.558594 C 212.703125 184.695312 212.632812 184.835938 212.566406 184.976562 C 212.535156 185.042969 212.503906 185.105469 212.472656 185.175781 C 212.378906 185.382812 212.292969 185.597656 212.210938 185.816406 C 210.84375 189.628906 212.125 193.578125 215.074219 194.640625 "/><path style=" stroke:none;fill-rule:nonzero;fill:#8a310d;fill-opacity:1;" d="M 240.144531 172.566406 C 240.539062 172.617188 240.914062 172.363281 241.132812 171.957031 C 241.21875 171.796875 241.28125 171.613281 241.308594 171.414062 C 241.398438 170.707031 241.03125 170.074219 240.484375 170 C 240.191406 169.964844 239.910156 170.09375 239.695312 170.328125 C 239.503906 170.535156 239.363281 170.820312 239.320312 171.152344 C 239.226562 171.863281 239.597656 172.492188 240.144531 172.566406 "/><path style=" stroke:none;fill-rule:nonzero;fill:#8a310d;fill-opacity:1;" d="M 234.792969 206.023438 C 234.886719 205.3125 234.519531 204.679688 233.96875 204.609375 C 233.421875 204.539062 232.902344 205.054688 232.808594 205.761719 C 232.714844 206.46875 233.085938 207.101562 233.632812 207.171875 C 234.183594 207.246094 234.703125 206.730469 234.792969 206.023438 "/><path style=" stroke:none;fill-rule:nonzero;fill:#8a310d;fill-opacity:1;" d="M 202.671875 205.761719 C 202.578125 206.46875 202.945312 207.101562 203.496094 207.171875 C 204.042969 207.246094 204.5625 206.730469 204.65625 206.023438 C 204.75 205.3125 204.378906 204.679688 203.832031 204.609375 C 203.28125 204.539062 202.761719 205.054688 202.671875 205.761719 "/><g clip-rule="nonzero" clip-path="url(#46f5a4ffe0)"><path style=" stroke:none;fill-rule:nonzero;fill:#8a310d;fill-opacity:1;" d="M 211.171875 171.347656 L 212.398438 169.007812 L 213.378906 167.125 L 213.824219 166.28125 C 215.464844 163.15625 217.75 159.964844 222.28125 159.964844 L 240.566406 159.964844 L 185.464844 144.742188 L 171.289062 140.824219 C 170.660156 140.679688 169.992188 140.605469 169.320312 140.605469 L 150.949219 140.605469 C 147.6875 140.605469 144.886719 142.929688 144.285156 146.136719 L 141.230469 162.472656 C 141.082031 163.265625 141.453125 164.0625 142.160156 164.457031 L 143.007812 164.921875 L 144.773438 165.890625 L 188.050781 189.636719 L 193.429688 192.589844 L 194.246094 193.039062 C 196.5 194.289062 199.355469 193.480469 200.621094 191.234375 L 200.929688 190.679688 L 202.792969 187.371094 L 203.082031 186.816406 L 210.628906 172.390625 L 211.171875 171.347656 "/></g></g></svg>