<svg xmlns="http://www.w3.org/2000/svg" xmlns:xlink="http://www.w3.org/1999/xlink" width="500" zoomAndPan="magnify" viewBox="0 0 375 374.999991" height="500" preserveAspectRatio="xMidYMid meet" version="1.2"><defs><clipPath id="ee3f79b2b4"><path d="M 132.390625 136.066406 L 242.640625 136.066406 L 242.640625 261 L 132.390625 261 Z M 132.390625 136.066406 "/></clipPath></defs><g id="1ff79c0b63"><rect x="0" width="375" y="0" height="374.999991" style="fill:#ffffff;fill-opacity:1;stroke:none;"/><rect x="0" width="375" y="0" height="374.999991" style="fill:#ffffff;fill-opacity:1;stroke:none;"/><g clip-rule="nonzero" clip-path="url(#ee3f79b2b4)"><path style=" stroke:none;fill-rule:nonzero;fill:#8a310d;fill-opacity:1;" d="M 192.214844 136.195312 C 191.921875 136.195312 191.636719 136.25 191.363281 136.363281 C 191.09375 136.476562 190.851562 136.636719 190.644531 136.84375 C 190.433594 137.050781 190.273438 137.292969 190.160156 137.566406 C 190.046875 137.835938 189.988281 138.121094 189.988281 138.414062 L 189.988281 178.59375 L 179.167969 165.59375 C 178.382812 164.648438 177.378906 164.121094 176.160156 164.007812 C 175.828125 163.976562 175.496094 163.988281 175.164062 164.03125 L 154.585938 164.03125 C 154.433594 164.023438 154.277344 164.023438 154.121094 164.03125 L 153.632812 164.03125 L 153.632812 164.082031 C 152.8125 164.214844 152.085938 164.550781 151.453125 165.089844 L 151.453125 165.085938 L 134.515625 179.5625 C 134.296875 179.746094 134.09375 179.953125 133.914062 180.179688 C 133.734375 180.40625 133.578125 180.648438 133.445312 180.90625 C 133.3125 181.160156 133.207031 181.429688 133.125 181.707031 C 133.046875 181.984375 132.992188 182.265625 132.964844 182.554688 C 132.941406 182.84375 132.941406 183.128906 132.972656 183.417969 C 133.003906 183.707031 133.0625 183.988281 133.144531 184.261719 C 133.230469 184.539062 133.34375 184.804688 133.480469 185.058594 C 133.617188 185.3125 133.777344 185.554688 133.960938 185.777344 L 150.242188 205.578125 C 150.671875 206.097656 151.195312 206.5 151.808594 206.78125 C 152.421875 207.0625 153.066406 207.199219 153.742188 207.1875 L 153.742188 254.714844 C 153.738281 255.082031 153.773438 255.445312 153.84375 255.800781 C 153.914062 256.160156 154.019531 256.507812 154.160156 256.847656 C 154.300781 257.1875 154.46875 257.507812 154.671875 257.8125 C 154.875 258.117188 155.105469 258.398438 155.363281 258.65625 C 155.621094 258.914062 155.902344 259.148438 156.207031 259.351562 C 156.511719 259.554688 156.832031 259.726562 157.167969 259.867188 C 157.507812 260.007812 157.855469 260.113281 158.214844 260.183594 C 158.570312 260.253906 158.933594 260.292969 159.300781 260.292969 C 159.664062 260.292969 160.027344 260.257812 160.386719 260.1875 C 160.746094 260.117188 161.097656 260.011719 161.4375 259.871094 C 161.773438 259.730469 162.097656 259.558594 162.402344 259.355469 C 162.707031 259.152344 162.988281 258.921875 163.246094 258.664062 C 163.503906 258.402344 163.738281 258.121094 163.941406 257.816406 C 164.144531 257.511719 164.316406 257.191406 164.453125 256.851562 C 164.59375 256.511719 164.699219 256.164062 164.769531 255.804688 C 164.84375 255.445312 164.875 255.082031 164.875 254.714844 L 164.875 210.050781 L 172.121094 255.582031 C 172.179688 255.941406 172.273438 256.292969 172.398438 256.632812 C 172.527344 256.976562 172.683594 257.300781 172.875 257.613281 C 173.066406 257.921875 173.285156 258.210938 173.535156 258.476562 C 173.78125 258.746094 174.054688 258.988281 174.347656 259.199219 C 174.644531 259.414062 174.957031 259.597656 175.289062 259.75 C 175.617188 259.902344 175.960938 260.019531 176.316406 260.105469 C 176.671875 260.191406 177.03125 260.242188 177.394531 260.253906 C 177.757812 260.269531 178.121094 260.25 178.480469 260.191406 C 178.839844 260.136719 179.191406 260.042969 179.535156 259.917969 C 179.878906 259.789062 180.203125 259.632812 180.515625 259.441406 C 180.828125 259.25 181.117188 259.03125 181.382812 258.785156 C 181.652344 258.535156 181.894531 258.265625 182.109375 257.96875 C 182.324219 257.675781 182.507812 257.359375 182.660156 257.03125 C 182.8125 256.699219 182.933594 256.355469 183.019531 256 C 183.101562 255.644531 183.152344 255.285156 183.167969 254.921875 C 183.183594 254.554688 183.160156 254.195312 183.105469 253.832031 L 175.671875 207.09375 L 175.75 207.09375 L 175.75 175.390625 L 186.589844 188.40625 C 187.007812 188.910156 187.515625 189.304688 188.109375 189.585938 C 188.703125 189.863281 189.332031 190.007812 189.988281 190.007812 L 189.988281 225.886719 C 189.988281 226.179688 190.042969 226.464844 190.15625 226.738281 C 190.269531 227.007812 190.429688 227.25 190.640625 227.457031 C 190.847656 227.667969 191.089844 227.828125 191.363281 227.941406 C 191.632812 228.054688 191.917969 228.109375 192.210938 228.109375 L 205.390625 228.109375 L 205.390625 246.996094 L 197.394531 246.996094 C 197.101562 246.996094 196.820312 247.054688 196.550781 247.164062 C 196.28125 247.277344 196.039062 247.4375 195.832031 247.644531 C 195.628906 247.851562 195.46875 248.089844 195.355469 248.359375 C 195.242188 248.628906 195.1875 248.910156 195.1875 249.203125 L 195.1875 258.589844 C 195.183594 258.882812 195.238281 259.164062 195.351562 259.4375 C 195.460938 259.710938 195.621094 259.949219 195.828125 260.160156 C 196.035156 260.367188 196.273438 260.53125 196.546875 260.644531 C 196.816406 260.757812 197.101562 260.8125 197.394531 260.8125 L 234.722656 260.8125 C 235.015625 260.8125 235.296875 260.757812 235.570312 260.644531 C 235.839844 260.53125 236.082031 260.367188 236.289062 260.160156 C 236.496094 259.949219 236.652344 259.710938 236.765625 259.4375 C 236.875 259.164062 236.929688 258.882812 236.929688 258.589844 L 236.929688 249.203125 C 236.929688 248.910156 236.871094 248.628906 236.761719 248.359375 C 236.648438 248.089844 236.488281 247.851562 236.28125 247.644531 C 236.074219 247.4375 235.835938 247.277344 235.566406 247.164062 C 235.296875 247.054688 235.015625 246.996094 234.722656 246.996094 L 227.265625 246.996094 L 227.265625 228.109375 L 240.445312 228.109375 C 240.742188 228.109375 241.023438 228.054688 241.296875 227.941406 C 241.566406 227.828125 241.808594 227.664062 242.015625 227.457031 C 242.222656 227.25 242.386719 227.007812 242.496094 226.734375 C 242.609375 226.464844 242.667969 226.179688 242.667969 225.886719 L 242.667969 138.417969 C 242.664062 138.121094 242.609375 137.839844 242.496094 137.566406 C 242.382812 137.296875 242.222656 137.054688 242.015625 136.847656 C 241.804688 136.640625 241.566406 136.480469 241.292969 136.367188 C 241.023438 136.253906 240.738281 136.195312 240.445312 136.195312 Z M 194.4375 140.640625 L 238.222656 140.640625 L 238.222656 223.65625 L 194.4375 223.65625 L 194.4375 187.722656 L 197.101562 185.585938 L 197.101562 196.484375 C 197.101562 196.777344 197.15625 197.0625 197.269531 197.335938 C 197.382812 197.605469 197.546875 197.847656 197.753906 198.054688 C 197.960938 198.261719 198.203125 198.421875 198.476562 198.535156 C 198.746094 198.648438 199.03125 198.703125 199.324219 198.703125 L 233.332031 198.703125 C 233.628906 198.703125 233.910156 198.648438 234.183594 198.535156 C 234.457031 198.421875 234.695312 198.261719 234.90625 198.054688 C 235.113281 197.847656 235.273438 197.605469 235.386719 197.335938 C 235.5 197.0625 235.558594 196.777344 235.558594 196.484375 L 235.558594 145.957031 C 235.558594 145.660156 235.503906 145.375 235.394531 145.097656 C 235.28125 144.824219 235.121094 144.582031 234.914062 144.371094 C 234.703125 144.160156 234.460938 144 234.1875 143.882812 C 233.914062 143.769531 233.628906 143.714844 233.332031 143.714844 L 199.324219 143.714844 C 199.027344 143.714844 198.742188 143.769531 198.46875 143.882812 C 198.195312 144 197.957031 144.160156 197.746094 144.371094 C 197.539062 144.582031 197.375 144.824219 197.265625 145.097656 C 197.152344 145.375 197.097656 145.660156 197.101562 145.957031 L 197.101562 174.183594 L 194.4375 176.316406 Z M 164.691406 142.25 C 164.101562 142.25 163.515625 142.304688 162.9375 142.421875 C 162.355469 142.535156 161.792969 142.707031 161.246094 142.933594 C 160.699219 143.160156 160.179688 143.4375 159.691406 143.765625 C 159.199219 144.09375 158.742188 144.46875 158.324219 144.886719 C 157.90625 145.304688 157.535156 145.757812 157.207031 146.25 C 156.875 146.742188 156.597656 147.261719 156.371094 147.808594 C 156.148438 148.355469 155.976562 148.917969 155.859375 149.496094 C 155.746094 150.078125 155.6875 150.664062 155.6875 151.253906 C 155.6875 151.847656 155.746094 152.429688 155.859375 153.011719 C 155.976562 153.589844 156.148438 154.15625 156.371094 154.699219 C 156.597656 155.246094 156.875 155.765625 157.207031 156.257812 C 157.535156 156.75 157.90625 157.203125 158.324219 157.621094 C 158.742188 158.039062 159.199219 158.414062 159.691406 158.742188 C 160.179688 159.070312 160.699219 159.347656 161.246094 159.574219 C 161.792969 159.800781 162.355469 159.972656 162.9375 160.085938 C 163.515625 160.203125 164.101562 160.261719 164.691406 160.261719 C 165.285156 160.261719 165.871094 160.203125 166.449219 160.085938 C 167.03125 159.972656 167.59375 159.800781 168.140625 159.574219 C 168.683594 159.347656 169.203125 159.070312 169.695312 158.742188 C 170.1875 158.414062 170.644531 158.039062 171.0625 157.621094 C 171.480469 157.203125 171.851562 156.75 172.179688 156.257812 C 172.507812 155.765625 172.785156 155.246094 173.011719 154.699219 C 173.238281 154.15625 173.410156 153.589844 173.527344 153.011719 C 173.640625 152.429688 173.699219 151.847656 173.699219 151.253906 C 173.699219 150.664062 173.640625 150.078125 173.527344 149.496094 C 173.410156 148.917969 173.238281 148.355469 173.011719 147.808594 C 172.785156 147.261719 172.507812 146.742188 172.179688 146.25 C 171.851562 145.757812 171.480469 145.304688 171.0625 144.886719 C 170.644531 144.46875 170.1875 144.09375 169.695312 143.765625 C 169.203125 143.4375 168.6875 143.160156 168.140625 142.933594 C 167.59375 142.707031 167.03125 142.535156 166.449219 142.421875 C 165.871094 142.304688 165.285156 142.25 164.691406 142.25 Z M 201.550781 148.175781 L 231.113281 148.175781 L 231.113281 194.257812 L 201.550781 194.257812 L 201.550781 182.023438 L 210.25 175.058594 L 214.417969 175.058594 C 214.566406 175.058594 214.707031 175.03125 214.84375 174.976562 C 214.980469 174.917969 215.097656 174.839844 215.203125 174.734375 C 215.308594 174.628906 215.386719 174.507812 215.445312 174.375 C 215.5 174.238281 215.53125 174.09375 215.53125 173.949219 L 215.53125 165.136719 C 215.53125 164.988281 215.5 164.847656 215.445312 164.710938 C 215.386719 164.574219 215.308594 164.453125 215.203125 164.351562 C 215.097656 164.246094 214.980469 164.164062 214.84375 164.109375 C 214.707031 164.054688 214.566406 164.023438 214.417969 164.023438 L 205.621094 164.023438 C 205.472656 164.023438 205.332031 164.054688 205.195312 164.109375 C 205.058594 164.167969 204.941406 164.246094 204.835938 164.351562 C 204.730469 164.457031 204.652344 164.578125 204.59375 164.710938 C 204.539062 164.847656 204.511719 164.988281 204.511719 165.136719 L 204.511719 168.253906 L 201.550781 170.621094 Z M 205.621094 150.746094 C 205.472656 150.746094 205.332031 150.773438 205.195312 150.832031 C 205.058594 150.890625 204.941406 150.96875 204.835938 151.074219 C 204.730469 151.179688 204.652344 151.296875 204.59375 151.433594 C 204.539062 151.570312 204.511719 151.710938 204.511719 151.859375 L 204.511719 160.671875 C 204.511719 160.820312 204.539062 160.960938 204.597656 161.097656 C 204.652344 161.230469 204.734375 161.351562 204.835938 161.457031 C 204.941406 161.558594 205.0625 161.640625 205.195312 161.695312 C 205.332031 161.753906 205.472656 161.78125 205.621094 161.78125 L 214.417969 161.78125 C 214.5625 161.78125 214.707031 161.753906 214.839844 161.699219 C 214.976562 161.640625 215.097656 161.5625 215.203125 161.457031 C 215.304688 161.355469 215.386719 161.234375 215.445312 161.097656 C 215.5 160.960938 215.527344 160.820312 215.53125 160.671875 L 215.53125 151.859375 C 215.53125 151.710938 215.5 151.570312 215.445312 151.433594 C 215.386719 151.296875 215.308594 151.175781 215.203125 151.070312 C 215.097656 150.96875 214.980469 150.886719 214.84375 150.832031 C 214.707031 150.773438 214.5625 150.746094 214.417969 150.746094 Z M 218.621094 150.746094 C 218.472656 150.746094 218.332031 150.773438 218.195312 150.832031 C 218.058594 150.886719 217.9375 150.96875 217.832031 151.070312 C 217.730469 151.175781 217.648438 151.296875 217.59375 151.433594 C 217.535156 151.570312 217.507812 151.710938 217.507812 151.859375 L 217.507812 160.671875 C 217.507812 160.820312 217.535156 160.960938 217.59375 161.097656 C 217.648438 161.234375 217.730469 161.351562 217.835938 161.457031 C 217.9375 161.5625 218.058594 161.640625 218.195312 161.699219 C 218.332031 161.753906 218.472656 161.78125 218.621094 161.78125 L 227.429688 161.78125 C 227.578125 161.78125 227.71875 161.753906 227.855469 161.699219 C 227.992188 161.640625 228.109375 161.5625 228.214844 161.457031 C 228.320312 161.355469 228.398438 161.234375 228.457031 161.097656 C 228.511719 160.960938 228.542969 160.820312 228.542969 160.671875 L 228.542969 151.859375 C 228.542969 151.710938 228.515625 151.570312 228.457031 151.433594 C 228.402344 151.296875 228.320312 151.175781 228.21875 151.070312 C 228.113281 150.96875 227.992188 150.886719 227.855469 150.832031 C 227.71875 150.773438 227.578125 150.746094 227.429688 150.746094 Z M 206.730469 152.972656 L 213.304688 152.972656 L 213.304688 159.542969 L 206.730469 159.542969 Z M 219.734375 152.972656 L 226.320312 152.972656 L 226.320312 159.542969 L 219.734375 159.542969 Z M 218.621094 164.023438 C 218.472656 164.023438 218.332031 164.054688 218.195312 164.109375 C 218.058594 164.164062 217.9375 164.246094 217.832031 164.351562 C 217.730469 164.453125 217.648438 164.574219 217.59375 164.710938 C 217.535156 164.847656 217.507812 164.988281 217.507812 165.136719 L 217.507812 173.949219 C 217.507812 174.09375 217.535156 174.238281 217.59375 174.375 C 217.648438 174.507812 217.730469 174.628906 217.832031 174.734375 C 217.9375 174.839844 218.058594 174.917969 218.195312 174.976562 C 218.332031 175.03125 218.472656 175.058594 218.621094 175.058594 L 227.429688 175.058594 C 227.578125 175.058594 227.71875 175.03125 227.855469 174.976562 C 227.992188 174.917969 228.113281 174.839844 228.214844 174.734375 C 228.320312 174.628906 228.402344 174.507812 228.457031 174.375 C 228.515625 174.238281 228.542969 174.09375 228.542969 173.949219 L 228.542969 165.136719 C 228.542969 164.988281 228.515625 164.847656 228.457031 164.710938 C 228.402344 164.574219 228.320312 164.453125 228.21875 164.351562 C 228.113281 164.246094 227.992188 164.164062 227.855469 164.109375 C 227.71875 164.050781 227.578125 164.023438 227.429688 164.023438 Z M 219.734375 166.246094 L 226.320312 166.246094 L 226.320312 172.839844 L 219.734375 172.839844 Z M 213.304688 172.542969 L 213.304688 172.839844 L 213.003906 172.839844 C 213.109375 172.746094 213.207031 172.648438 213.304688 172.542969 Z M 153.632812 174.925781 L 153.632812 195.683594 L 143.605469 183.484375 Z M 198.65625 202.285156 C 198.507812 202.285156 198.367188 202.316406 198.230469 202.371094 C 198.09375 202.425781 197.972656 202.507812 197.871094 202.613281 C 197.765625 202.714844 197.683594 202.835938 197.628906 202.972656 C 197.570312 203.109375 197.542969 203.25 197.542969 203.398438 L 197.542969 215.746094 C 197.542969 215.894531 197.574219 216.035156 197.628906 216.171875 C 197.6875 216.308594 197.765625 216.425781 197.871094 216.53125 C 197.976562 216.636719 198.09375 216.714844 198.230469 216.773438 C 198.367188 216.828125 198.507812 216.855469 198.65625 216.855469 L 210.101562 216.855469 C 210.25 216.859375 210.394531 216.832031 210.53125 216.777344 C 210.667969 216.722656 210.792969 216.640625 210.898438 216.539062 C 211.003906 216.433594 211.085938 216.3125 211.144531 216.175781 C 211.199219 216.039062 211.230469 215.894531 211.230469 215.746094 L 211.230469 203.398438 C 211.230469 203.25 211.203125 203.105469 211.144531 202.96875 C 211.085938 202.832031 211.003906 202.710938 210.898438 202.605469 C 210.792969 202.5 210.671875 202.421875 210.53125 202.367188 C 210.394531 202.3125 210.25 202.285156 210.101562 202.285156 Z M 214.582031 202.285156 C 214.433594 202.285156 214.292969 202.316406 214.15625 202.371094 C 214.019531 202.425781 213.898438 202.507812 213.796875 202.613281 C 213.691406 202.714844 213.609375 202.835938 213.554688 202.972656 C 213.496094 203.109375 213.46875 203.25 213.46875 203.398438 L 213.46875 215.46875 C 213.46875 215.617188 213.5 215.757812 213.554688 215.894531 C 213.613281 216.03125 213.691406 216.148438 213.796875 216.253906 C 213.902344 216.355469 214.019531 216.4375 214.15625 216.492188 C 214.292969 216.550781 214.433594 216.578125 214.582031 216.578125 L 220.90625 216.578125 C 221.054688 216.578125 221.195312 216.550781 221.332031 216.492188 C 221.46875 216.4375 221.585938 216.355469 221.691406 216.253906 C 221.796875 216.148438 221.875 216.03125 221.933594 215.894531 C 221.988281 215.757812 222.019531 215.617188 222.019531 215.46875 L 222.019531 203.398438 C 222.019531 203.25 221.992188 203.109375 221.933594 202.972656 C 221.878906 202.835938 221.796875 202.714844 221.691406 202.613281 C 221.589844 202.507812 221.46875 202.425781 221.332031 202.371094 C 221.195312 202.316406 221.054688 202.285156 220.90625 202.285156 Z M 225.386719 202.285156 C 225.238281 202.285156 225.097656 202.316406 224.960938 202.371094 C 224.824219 202.425781 224.703125 202.507812 224.601562 202.613281 C 224.496094 202.714844 224.414062 202.835938 224.359375 202.972656 C 224.304688 203.109375 224.273438 203.25 224.273438 203.398438 C 224.273438 203.546875 224.304688 203.6875 224.359375 203.824219 C 224.414062 203.960938 224.496094 204.082031 224.601562 204.1875 C 224.703125 204.289062 224.824219 204.371094 224.960938 204.425781 C 225.097656 204.484375 225.238281 204.511719 225.386719 204.511719 L 234.085938 204.511719 C 234.230469 204.511719 234.375 204.484375 234.511719 204.425781 C 234.648438 204.371094 234.765625 204.289062 234.871094 204.1875 C 234.976562 204.082031 235.054688 203.960938 235.113281 203.824219 C 235.167969 203.6875 235.199219 203.546875 235.199219 203.398438 C 235.199219 203.25 235.167969 203.109375 235.113281 202.972656 C 235.054688 202.835938 234.976562 202.714844 234.871094 202.613281 C 234.765625 202.507812 234.648438 202.425781 234.511719 202.371094 C 234.375 202.316406 234.230469 202.285156 234.085938 202.285156 Z M 199.769531 204.511719 L 208.988281 204.511719 L 208.988281 214.636719 L 199.769531 214.636719 Z M 215.695312 204.511719 L 219.796875 204.511719 L 219.796875 214.355469 L 215.695312 214.355469 Z M 225.386719 207.09375 C 225.238281 207.09375 225.097656 207.121094 224.960938 207.179688 C 224.824219 207.234375 224.703125 207.316406 224.601562 207.417969 C 224.496094 207.523438 224.414062 207.644531 224.359375 207.78125 C 224.304688 207.917969 224.273438 208.058594 224.273438 208.207031 L 224.273438 215.746094 C 224.273438 215.894531 224.304688 216.035156 224.359375 216.171875 C 224.417969 216.308594 224.496094 216.425781 224.601562 216.53125 C 224.707031 216.636719 224.828125 216.714844 224.960938 216.773438 C 225.097656 216.828125 225.238281 216.855469 225.386719 216.855469 L 234.085938 216.855469 C 234.230469 216.855469 234.375 216.828125 234.507812 216.773438 C 234.644531 216.714844 234.765625 216.636719 234.871094 216.53125 C 234.972656 216.425781 235.054688 216.308594 235.113281 216.171875 C 235.167969 216.035156 235.195312 215.894531 235.199219 215.746094 L 235.199219 208.207031 C 235.199219 208.058594 235.167969 207.917969 235.113281 207.78125 C 235.054688 207.644531 234.976562 207.523438 234.871094 207.417969 C 234.765625 207.316406 234.648438 207.234375 234.511719 207.179688 C 234.375 207.121094 234.230469 207.09375 234.085938 207.09375 Z M 226.5 209.320312 L 232.976562 209.320312 L 232.976562 210.859375 L 226.5 210.859375 Z M 209.855469 228.109375 L 222.824219 228.109375 L 222.824219 246.976562 L 209.855469 246.976562 Z M 199.605469 251.410156 L 207.417969 251.410156 C 207.484375 251.417969 207.546875 251.425781 207.613281 251.425781 L 225.042969 251.425781 C 225.109375 251.425781 225.175781 251.417969 225.238281 251.410156 L 232.503906 251.410156 L 232.503906 256.382812 L 199.605469 256.382812 Z M 199.605469 251.410156 "/></g></g></svg>