<svg xmlns="http://www.w3.org/2000/svg" xmlns:xlink="http://www.w3.org/1999/xlink" width="500" zoomAndPan="magnify" viewBox="0 0 375 374.999991" height="500" preserveAspectRatio="xMidYMid meet" version="1.2"><defs><clipPath id="7f97dc8789"><path d="M 153 166.144531 L 236.625 166.144531 L 236.625 235 L 153 235 Z M 153 166.144531 "/></clipPath><clipPath id="fa271266b2"><path d="M 138.375 175 L 227 175 L 227 249.394531 L 138.375 249.394531 Z M 138.375 175 "/></clipPath></defs><g id="b1ff1ee232"><rect x="0" width="375" y="0" height="374.999991" style="fill:#ffffff;fill-opacity:1;stroke:none;"/><rect x="0" width="375" y="0" height="374.999991" style="fill:#ffffff;fill-opacity:1;stroke:none;"/><g clip-rule="nonzero" clip-path="url(#7f97dc8789)"><path style=" stroke:none;fill-rule:nonzero;fill:#8a310d;fill-opacity:1;" d="M 197.136719 205.320312 C 162.859375 205.320312 153.066406 234.699219 153.066406 234.699219 C 153.066406 180.835938 197.136719 180.835938 197.136719 180.835938 L 197.136719 166.144531 L 236.3125 195.527344 L 197.136719 224.90625 Z M 197.136719 205.320312 "/></g><g clip-rule="nonzero" clip-path="url(#fa271266b2)"><path style=" stroke:none;fill-rule:nonzero;fill:#8a310d;fill-opacity:1;" d="M 167.757812 175.9375 L 167.757812 180.835938 L 143.273438 180.835938 L 143.273438 244.492188 L 221.621094 244.492188 L 221.621094 220.007812 L 226.519531 220.007812 L 226.519531 249.390625 L 138.375 249.390625 L 138.375 175.9375 Z M 167.757812 175.9375 "/></g></g></svg>