<svg xmlns="http://www.w3.org/2000/svg" xmlns:xlink="http://www.w3.org/1999/xlink" width="500" zoomAndPan="magnify" viewBox="0 0 375 374.999991" height="500" preserveAspectRatio="xMidYMid meet" version="1.2"><defs><clipPath id="05e6405b4e"><path d="M 141 131.710938 L 235.921875 131.710938 L 235.921875 243 L 141 243 Z M 141 131.710938 "/></clipPath><clipPath id="017829aa21"><path d="M 139.171875 192 L 212 192 L 212 200 L 139.171875 200 Z M 139.171875 192 "/></clipPath></defs><g id="77e84643ca"><rect x="0" width="375" y="0" height="374.999991" style="fill:#ffffff;fill-opacity:1;stroke:none;"/><rect x="0" width="375" y="0" height="374.999991" style="fill:#ffffff;fill-opacity:1;stroke:none;"/><g clip-rule="nonzero" clip-path="url(#05e6405b4e)"><path style=" stroke:none;fill-rule:nonzero;fill:#8a310d;fill-opacity:1;" d="M 202.761719 131.710938 C 201.710938 131.710938 200.660156 131.761719 199.613281 131.867188 C 198.566406 131.96875 197.527344 132.121094 196.496094 132.324219 C 195.460938 132.527344 194.441406 132.78125 193.433594 133.082031 C 192.425781 133.382812 191.4375 133.734375 190.460938 134.128906 C 189.488281 134.527344 188.535156 134.96875 187.601562 135.460938 C 186.671875 135.949219 185.765625 136.480469 184.886719 137.058594 C 184.007812 137.636719 183.15625 138.253906 182.335938 138.910156 C 181.515625 139.570312 180.730469 140.265625 179.976562 141 C 179.222656 141.734375 178.507812 142.503906 177.828125 143.308594 C 177.148438 144.113281 176.511719 144.949219 175.914062 145.8125 C 175.3125 146.679688 174.757812 147.570312 174.246094 148.488281 C 173.734375 149.410156 173.269531 150.351562 172.847656 151.3125 C 172.425781 152.277344 172.050781 153.261719 171.726562 154.261719 C 171.398438 155.261719 171.121094 156.273438 170.894531 157.300781 C 170.664062 158.328125 170.484375 159.363281 170.359375 160.40625 C 170.230469 161.453125 170.152344 162.5 170.125 163.550781 C 168.480469 163.804688 166.863281 164.171875 165.269531 164.648438 C 163.675781 165.128906 162.121094 165.710938 160.609375 166.402344 C 159.097656 167.09375 157.640625 167.886719 156.234375 168.78125 C 154.832031 169.671875 153.496094 170.660156 152.230469 171.734375 C 150.960938 172.8125 149.773438 173.972656 148.667969 175.210938 C 147.558594 176.453125 146.542969 177.765625 145.617188 179.144531 C 144.6875 180.527344 143.863281 181.964844 143.132812 183.460938 C 142.40625 184.957031 141.78125 186.492188 141.265625 188.074219 L 209.996094 188.074219 C 209.484375 186.496094 208.863281 184.960938 208.136719 183.464844 C 207.40625 181.972656 206.582031 180.535156 205.65625 179.15625 C 204.734375 177.777344 203.71875 176.46875 202.613281 175.226562 C 201.507812 173.988281 200.324219 172.828125 199.058594 171.75 C 197.796875 170.675781 196.460938 169.691406 195.0625 168.796875 C 193.664062 167.902344 192.207031 167.109375 190.699219 166.417969 C 189.1875 165.722656 187.640625 165.136719 186.050781 164.65625 C 184.460938 164.175781 182.84375 163.808594 181.203125 163.550781 C 181.230469 162.855469 181.289062 162.160156 181.382812 161.464844 C 181.476562 160.773438 181.601562 160.085938 181.761719 159.40625 C 181.921875 158.726562 182.117188 158.054688 182.339844 157.394531 C 182.566406 156.734375 182.824219 156.085938 183.113281 155.449219 C 183.402344 154.8125 183.71875 154.191406 184.066406 153.585938 C 184.417969 152.980469 184.792969 152.390625 185.199219 151.824219 C 185.605469 151.253906 186.039062 150.707031 186.496094 150.179688 C 186.957031 149.652344 187.4375 149.148438 187.945312 148.667969 C 188.453125 148.1875 188.984375 147.734375 189.535156 147.304688 C 190.089844 146.878906 190.660156 146.476562 191.25 146.101562 C 191.839844 145.730469 192.449219 145.386719 193.074219 145.074219 C 193.695312 144.757812 194.335938 144.476562 194.988281 144.222656 C 195.636719 143.972656 196.300781 143.75 196.972656 143.5625 C 197.648438 143.375 198.328125 143.222656 199.015625 143.097656 C 199.703125 142.976562 200.394531 142.890625 201.09375 142.835938 C 201.789062 142.78125 202.488281 142.757812 203.1875 142.773438 C 203.882812 142.785156 204.582031 142.832031 205.273438 142.914062 C 205.96875 142.996094 206.65625 143.109375 207.339844 143.257812 C 208.023438 143.40625 208.699219 143.585938 209.363281 143.796875 C 210.027344 144.011719 210.683594 144.257812 211.324219 144.53125 C 211.964844 144.808594 212.59375 145.117188 213.203125 145.453125 C 213.816406 145.792969 214.410156 146.160156 214.984375 146.554688 C 215.5625 146.949219 216.117188 147.371094 216.652344 147.820312 C 217.1875 148.269531 217.699219 148.742188 218.191406 149.242188 C 218.679688 149.742188 219.144531 150.261719 219.582031 150.808594 C 220.019531 151.351562 220.433594 151.914062 220.816406 152.5 C 221.199219 153.082031 221.554688 153.683594 221.878906 154.300781 C 222.207031 154.921875 222.5 155.554688 222.765625 156.199219 C 223.027344 156.847656 223.261719 157.503906 223.460938 158.175781 C 223.660156 158.84375 223.828125 159.523438 223.960938 160.207031 C 224.097656 160.894531 224.195312 161.582031 224.265625 162.28125 C 224.332031 162.976562 224.363281 163.671875 224.363281 164.371094 L 224.363281 242.914062 L 235.421875 242.914062 L 235.421875 164.371094 C 235.421875 163.300781 235.367188 162.234375 235.261719 161.171875 C 235.15625 160.105469 235 159.050781 234.789062 158 C 234.582031 156.953125 234.320312 155.917969 234.007812 154.894531 C 233.699219 153.871094 233.335938 152.867188 232.925781 151.878906 C 232.519531 150.890625 232.0625 149.925781 231.554688 148.980469 C 231.050781 148.039062 230.503906 147.125 229.90625 146.234375 C 229.3125 145.34375 228.675781 144.488281 228 143.660156 C 227.320312 142.835938 226.601562 142.042969 225.847656 141.285156 C 225.089844 140.53125 224.300781 139.8125 223.472656 139.136719 C 222.644531 138.457031 221.789062 137.820312 220.898438 137.226562 C 220.011719 136.632812 219.09375 136.082031 218.152344 135.578125 C 217.207031 135.074219 216.242188 134.617188 215.253906 134.207031 C 214.269531 133.796875 213.261719 133.4375 212.238281 133.125 C 211.214844 132.8125 210.179688 132.554688 209.132812 132.34375 C 208.082031 132.132812 207.027344 131.976562 205.960938 131.871094 C 204.898438 131.765625 203.832031 131.710938 202.761719 131.710938 Z M 202.761719 131.710938 "/></g><g clip-rule="nonzero" clip-path="url(#017829aa21)"><path style=" stroke:none;fill-rule:nonzero;fill:#8a310d;fill-opacity:1;" d="M 211.695312 196.941406 C 211.605469 195.585938 211.441406 194.242188 211.203125 192.90625 L 140.0625 192.90625 C 139.824219 194.242188 139.660156 195.585938 139.570312 196.941406 C 139.550781 197.242188 139.589844 197.535156 139.691406 197.816406 C 139.792969 198.101562 139.949219 198.351562 140.152344 198.570312 C 140.359375 198.789062 140.601562 198.960938 140.875 199.078125 C 141.152344 199.199219 141.441406 199.257812 141.738281 199.257812 L 209.523438 199.257812 C 209.824219 199.257812 210.113281 199.199219 210.390625 199.078125 C 210.664062 198.960938 210.90625 198.789062 211.109375 198.570312 C 211.316406 198.351562 211.46875 198.101562 211.570312 197.816406 C 211.671875 197.535156 211.714844 197.242188 211.695312 196.941406 Z M 211.695312 196.941406 "/></g><path style=" stroke:none;fill-rule:nonzero;fill:#8a310d;fill-opacity:1;" d="M 158.46875 228.289062 C 158.753906 228 158.992188 227.675781 159.183594 227.316406 C 159.375 226.957031 159.507812 226.578125 159.582031 226.175781 C 159.65625 225.777344 159.671875 225.375 159.625 224.96875 C 159.578125 224.5625 159.472656 224.175781 159.308594 223.800781 L 155.609375 217.1875 L 151.910156 223.800781 C 151.722656 224.234375 151.609375 224.683594 151.578125 225.15625 C 151.546875 225.625 151.59375 226.085938 151.722656 226.539062 C 151.851562 226.992188 152.054688 227.410156 152.332031 227.792969 C 152.605469 228.175781 152.9375 228.5 153.328125 228.765625 C 153.714844 229.03125 154.136719 229.226562 154.59375 229.34375 C 155.050781 229.460938 155.515625 229.5 155.984375 229.457031 C 156.453125 229.414062 156.898438 229.289062 157.328125 229.089844 C 157.753906 228.890625 158.132812 228.621094 158.46875 228.289062 Z M 158.46875 228.289062 "/><path style=" stroke:none;fill-rule:nonzero;fill:#8a310d;fill-opacity:1;" d="M 171.816406 228.289062 C 172.101562 228 172.34375 227.675781 172.53125 227.316406 C 172.722656 226.957031 172.855469 226.578125 172.929688 226.175781 C 173.003906 225.777344 173.019531 225.375 172.972656 224.96875 C 172.925781 224.5625 172.820312 224.175781 172.65625 223.800781 L 168.957031 217.1875 L 165.261719 223.800781 C 165.070312 224.234375 164.960938 224.683594 164.925781 225.15625 C 164.894531 225.625 164.941406 226.085938 165.070312 226.539062 C 165.199219 226.992188 165.402344 227.410156 165.679688 227.792969 C 165.953125 228.175781 166.285156 228.5 166.675781 228.765625 C 167.0625 229.03125 167.488281 229.226562 167.941406 229.34375 C 168.398438 229.460938 168.863281 229.5 169.332031 229.457031 C 169.800781 229.414062 170.25 229.289062 170.675781 229.089844 C 171.101562 228.890625 171.480469 228.621094 171.816406 228.289062 Z M 171.816406 228.289062 "/><path style=" stroke:none;fill-rule:nonzero;fill:#8a310d;fill-opacity:1;" d="M 185.164062 228.289062 C 185.453125 228 185.691406 227.675781 185.878906 227.316406 C 186.070312 226.957031 186.203125 226.578125 186.277344 226.175781 C 186.351562 225.777344 186.367188 225.375 186.320312 224.96875 C 186.273438 224.5625 186.167969 224.175781 186.003906 223.800781 L 182.304688 217.1875 L 178.609375 223.800781 C 178.417969 224.234375 178.308594 224.683594 178.273438 225.15625 C 178.242188 225.625 178.289062 226.085938 178.421875 226.539062 C 178.550781 226.992188 178.75 227.410156 179.027344 227.792969 C 179.300781 228.175781 179.632812 228.5 180.023438 228.765625 C 180.414062 229.03125 180.835938 229.226562 181.292969 229.34375 C 181.746094 229.460938 182.210938 229.5 182.679688 229.457031 C 183.148438 229.414062 183.597656 229.289062 184.023438 229.089844 C 184.449219 228.890625 184.832031 228.621094 185.164062 228.289062 Z M 185.164062 228.289062 "/><path style=" stroke:none;fill-rule:nonzero;fill:#8a310d;fill-opacity:1;" d="M 198.511719 228.289062 C 198.800781 228 199.039062 227.675781 199.230469 227.316406 C 199.417969 226.957031 199.550781 226.578125 199.625 226.175781 C 199.703125 225.777344 199.714844 225.375 199.667969 224.96875 C 199.621094 224.5625 199.515625 224.175781 199.351562 223.800781 L 195.65625 217.1875 L 191.957031 223.800781 C 191.765625 224.234375 191.65625 224.683594 191.625 225.15625 C 191.589844 225.625 191.640625 226.085938 191.769531 226.539062 C 191.898438 226.992188 192.101562 227.410156 192.375 227.792969 C 192.652344 228.175781 192.984375 228.5 193.371094 228.765625 C 193.761719 229.03125 194.183594 229.226562 194.640625 229.34375 C 195.097656 229.460938 195.558594 229.5 196.027344 229.457031 C 196.496094 229.414062 196.945312 229.289062 197.371094 229.089844 C 197.796875 228.890625 198.179688 228.621094 198.511719 228.289062 Z M 198.511719 228.289062 "/><path style=" stroke:none;fill-rule:nonzero;fill:#8a310d;fill-opacity:1;" d="M 159.425781 241.730469 C 159.757812 242.0625 160.140625 242.332031 160.566406 242.53125 C 160.992188 242.730469 161.441406 242.851562 161.910156 242.894531 C 162.378906 242.941406 162.84375 242.902344 163.296875 242.785156 C 163.753906 242.664062 164.175781 242.472656 164.566406 242.207031 C 164.957031 241.941406 165.289062 241.617188 165.5625 241.234375 C 165.839844 240.851562 166.039062 240.433594 166.167969 239.980469 C 166.300781 239.527344 166.347656 239.066406 166.316406 238.59375 C 166.28125 238.125 166.171875 237.675781 165.980469 237.242188 L 162.285156 230.625 L 158.585938 237.242188 C 158.421875 237.617188 158.316406 238.003906 158.269531 238.410156 C 158.222656 238.8125 158.238281 239.214844 158.3125 239.617188 C 158.386719 240.015625 158.519531 240.398438 158.710938 240.757812 C 158.898438 241.117188 159.136719 241.441406 159.425781 241.730469 Z M 159.425781 241.730469 "/><path style=" stroke:none;fill-rule:nonzero;fill:#8a310d;fill-opacity:1;" d="M 178.488281 241.730469 C 178.777344 241.441406 179.015625 241.117188 179.207031 240.757812 C 179.394531 240.398438 179.527344 240.015625 179.605469 239.617188 C 179.679688 239.214844 179.691406 238.8125 179.644531 238.410156 C 179.597656 238.003906 179.492188 237.617188 179.328125 237.242188 L 175.632812 230.625 L 171.933594 237.242188 C 171.746094 237.675781 171.632812 238.125 171.601562 238.59375 C 171.570312 239.066406 171.617188 239.527344 171.746094 239.980469 C 171.875 240.433594 172.078125 240.851562 172.351562 241.234375 C 172.628906 241.617188 172.960938 241.941406 173.347656 242.207031 C 173.738281 242.472656 174.160156 242.664062 174.617188 242.785156 C 175.074219 242.902344 175.535156 242.941406 176.003906 242.894531 C 176.476562 242.851562 176.921875 242.730469 177.347656 242.53125 C 177.777344 242.332031 178.15625 242.0625 178.488281 241.730469 Z M 178.488281 241.730469 "/><path style=" stroke:none;fill-rule:nonzero;fill:#8a310d;fill-opacity:1;" d="M 191.835938 241.730469 C 192.125 241.441406 192.363281 241.117188 192.554688 240.757812 C 192.746094 240.398438 192.878906 240.015625 192.953125 239.617188 C 193.027344 239.214844 193.042969 238.8125 192.996094 238.410156 C 192.949219 238.003906 192.84375 237.617188 192.679688 237.242188 L 188.980469 230.625 L 185.28125 237.242188 C 185.09375 237.675781 184.980469 238.125 184.949219 238.59375 C 184.917969 239.066406 184.964844 239.527344 185.09375 239.980469 C 185.222656 240.433594 185.425781 240.851562 185.703125 241.234375 C 185.976562 241.617188 186.308594 241.941406 186.699219 242.207031 C 187.085938 242.472656 187.507812 242.664062 187.964844 242.785156 C 188.421875 242.902344 188.882812 242.941406 189.355469 242.894531 C 189.824219 242.851562 190.269531 242.730469 190.699219 242.53125 C 191.125 242.332031 191.503906 242.0625 191.835938 241.730469 Z M 191.835938 241.730469 "/><path style=" stroke:none;fill-rule:nonzero;fill:#8a310d;fill-opacity:1;" d="M 165.980469 210.363281 L 162.285156 203.746094 L 158.585938 210.363281 C 158.449219 210.667969 158.355469 210.988281 158.300781 211.320312 C 158.242188 211.652344 158.230469 211.984375 158.257812 212.320312 C 158.285156 212.65625 158.351562 212.980469 158.460938 213.300781 C 158.570312 213.617188 158.714844 213.917969 158.898438 214.199219 C 159.082031 214.480469 159.296875 214.734375 159.542969 214.964844 C 159.792969 215.191406 160.0625 215.386719 160.359375 215.546875 C 160.65625 215.703125 160.964844 215.828125 161.289062 215.910156 C 161.617188 215.992188 161.949219 216.03125 162.285156 216.03125 C 162.621094 216.03125 162.949219 215.992188 163.277344 215.910156 C 163.601562 215.828125 163.914062 215.703125 164.207031 215.546875 C 164.503906 215.386719 164.777344 215.191406 165.023438 214.964844 C 165.269531 214.734375 165.484375 214.480469 165.667969 214.199219 C 165.851562 213.917969 166 213.617188 166.105469 213.300781 C 166.214844 212.980469 166.285156 212.65625 166.3125 212.320312 C 166.339844 211.984375 166.324219 211.652344 166.269531 211.320312 C 166.210938 210.988281 166.117188 210.667969 165.980469 210.363281 Z M 165.980469 210.363281 "/><path style=" stroke:none;fill-rule:nonzero;fill:#8a310d;fill-opacity:1;" d="M 178.488281 214.847656 C 178.777344 214.5625 179.015625 214.238281 179.207031 213.875 C 179.394531 213.515625 179.527344 213.136719 179.605469 212.734375 C 179.679688 212.335938 179.691406 211.933594 179.644531 211.527344 C 179.597656 211.125 179.492188 210.734375 179.328125 210.363281 L 175.632812 203.746094 L 171.933594 210.363281 C 171.746094 210.792969 171.632812 211.242188 171.601562 211.714844 C 171.570312 212.183594 171.617188 212.644531 171.746094 213.097656 C 171.875 213.554688 172.078125 213.96875 172.351562 214.351562 C 172.628906 214.734375 172.960938 215.058594 173.347656 215.328125 C 173.738281 215.59375 174.160156 215.785156 174.617188 215.902344 C 175.074219 216.023438 175.535156 216.058594 176.003906 216.015625 C 176.476562 215.972656 176.921875 215.851562 177.347656 215.648438 C 177.777344 215.449219 178.15625 215.183594 178.488281 214.847656 Z M 178.488281 214.847656 "/><path style=" stroke:none;fill-rule:nonzero;fill:#8a310d;fill-opacity:1;" d="M 191.835938 214.847656 C 192.125 214.5625 192.363281 214.238281 192.554688 213.875 C 192.746094 213.515625 192.878906 213.136719 192.953125 212.734375 C 193.027344 212.335938 193.042969 211.933594 192.996094 211.527344 C 192.949219 211.125 192.84375 210.734375 192.679688 210.363281 L 188.980469 203.746094 L 185.28125 210.363281 C 185.09375 210.792969 184.980469 211.242188 184.949219 211.714844 C 184.917969 212.183594 184.964844 212.644531 185.09375 213.097656 C 185.222656 213.554688 185.425781 213.972656 185.703125 214.351562 C 185.976562 214.734375 186.308594 215.058594 186.699219 215.328125 C 187.085938 215.59375 187.507812 215.785156 187.964844 215.902344 C 188.421875 216.023438 188.882812 216.058594 189.355469 216.015625 C 189.824219 215.972656 190.269531 215.851562 190.699219 215.648438 C 191.125 215.449219 191.503906 215.183594 191.835938 214.847656 Z M 191.835938 214.847656 "/></g></svg>