<svg xmlns="http://www.w3.org/2000/svg" xmlns:xlink="http://www.w3.org/1999/xlink" width="500" zoomAndPan="magnify" viewBox="0 0 375 374.999991" height="500" preserveAspectRatio="xMidYMid meet" version="1.2"><defs><clipPath id="7a711aebd5"><path d="M 124.640625 182 L 224 182 L 224 235 L 124.640625 235 Z M 124.640625 182 "/></clipPath><clipPath id="0a7148d679"><path d="M 228 223 L 238 223 L 238 240.476562 L 228 240.476562 Z M 228 223 "/></clipPath><clipPath id="2568eda615"><path d="M 202 147.476562 L 219 147.476562 L 219 190 L 202 190 Z M 202 147.476562 "/></clipPath></defs><g id="ff651899fc"><rect x="0" width="375" y="0" height="374.999991" style="fill:#ffffff;fill-opacity:1;stroke:none;"/><rect x="0" width="375" y="0" height="374.999991" style="fill:#ffffff;fill-opacity:1;stroke:none;"/><g clip-rule="nonzero" clip-path="url(#7a711aebd5)"><path style=" stroke:none;fill-rule:nonzero;fill:#8a310d;fill-opacity:1;" d="M 223.320312 219.0625 L 130.777344 182.324219 L 124.925781 197.964844 L 217.46875 234.703125 Z M 223.320312 219.0625 "/></g><path style=" stroke:none;fill-rule:nonzero;fill:#8a310d;fill-opacity:1;" d="M 230.375 221.585938 L 226.9375 220.222656 L 221.085938 235.863281 L 224.523438 237.230469 Z M 230.375 221.585938 "/><g clip-rule="nonzero" clip-path="url(#0a7148d679)"><path style=" stroke:none;fill-rule:nonzero;fill:#8a310d;fill-opacity:1;" d="M 237.558594 224.648438 L 234.121094 223.285156 L 228.269531 238.929688 L 231.707031 240.292969 Z M 237.558594 224.648438 "/></g><path style=" stroke:none;fill-rule:nonzero;fill:#8a310d;fill-opacity:1;" d="M 228.257812 217.054688 L 231.746094 218.101562 C 231.746094 218.101562 238.585938 209.257812 233.265625 200.238281 C 229.394531 193.675781 221.398438 195.011719 215.414062 183.476562 C 210.175781 173.378906 219.695312 161.410156 219.695312 161.410156 L 217.058594 159.15625 C 217.058594 159.15625 208.347656 168.617188 211.410156 180.765625 C 215.140625 195.566406 227.503906 194.644531 230.84375 202.863281 C 234.179688 211.085938 228.257812 217.058594 228.257812 217.058594 Z M 228.257812 217.054688 "/><path style=" stroke:none;fill-rule:nonzero;fill:#8a310d;fill-opacity:1;" d="M 236.257812 219.867188 L 239.304688 221.226562 C 239.304688 221.226562 246.953125 209.269531 240.742188 197.476562 C 234.527344 185.6875 227.058594 188.207031 223.238281 180.203125 C 219.417969 172.199219 225.699219 166.777344 225.699219 166.777344 L 223.054688 164.761719 C 223.054688 164.761719 215.472656 171.953125 220.101562 181.492188 C 224.722656 191.03125 231.460938 187.65625 237.601562 198.765625 C 243.742188 209.878906 236.257812 219.871094 236.257812 219.871094 Z M 236.257812 219.867188 "/><g clip-rule="nonzero" clip-path="url(#2568eda615)"><path style=" stroke:none;fill-rule:nonzero;fill:#8a310d;fill-opacity:1;" d="M 210.199219 189.722656 L 205.777344 188.148438 C 205.777344 188.148438 200.546875 177.457031 204.101562 165.554688 C 207.207031 155.148438 216.347656 147.980469 216.347656 147.980469 L 218.738281 150.464844 C 218.738281 150.464844 212.066406 154.261719 207.792969 165.441406 C 202.824219 178.453125 210.199219 189.722656 210.199219 189.722656 Z M 210.199219 189.722656 "/></g></g></svg>