<svg xmlns="http://www.w3.org/2000/svg" xmlns:xlink="http://www.w3.org/1999/xlink" width="500" zoomAndPan="magnify" viewBox="0 0 375 374.999991" height="500" preserveAspectRatio="xMidYMid meet" version="1.2"><defs><clipPath id="9c78c061bb"><path d="M 112.5 149 L 262.5 149 L 262.5 246.5625 L 112.5 246.5625 Z M 112.5 149 "/></clipPath><clipPath id="91d94333e2"><path d="M 124 128.8125 L 194 128.8125 L 194 198 L 124 198 Z M 124 128.8125 "/></clipPath></defs><g id="8bcbc664b1"><rect x="0" width="375" y="0" height="374.999991" style="fill:#ffffff;fill-opacity:1;stroke:none;"/><rect x="0" width="375" y="0" height="374.999991" style="fill:#ffffff;fill-opacity:1;stroke:none;"/><path style=" stroke:none;fill-rule:nonzero;fill:#8a310d;fill-opacity:1;" d="M 240.296875 237.972656 L 203.140625 237.972656 C 202.195312 237.972656 201.425781 237.203125 201.425781 236.257812 C 201.425781 232.328125 198.230469 229.132812 194.304688 229.132812 C 190.375 229.132812 187.179688 232.328125 187.179688 236.257812 C 187.179688 237.203125 186.410156 237.972656 185.460938 237.972656 L 134.703125 237.972656 C 134.007812 237.972656 133.382812 237.554688 133.117188 236.914062 C 132.851562 236.269531 133 235.53125 133.492188 235.042969 C 134.835938 233.699219 135.578125 231.910156 135.578125 230.007812 C 135.578125 228.105469 134.835938 226.3125 133.488281 224.96875 C 132.144531 223.625 130.355469 222.882812 128.453125 222.882812 C 126.550781 222.882812 124.761719 223.625 123.414062 224.972656 C 122.921875 225.460938 122.1875 225.609375 121.546875 225.34375 C 120.902344 225.078125 120.484375 224.453125 120.484375 223.757812 L 120.484375 172.378906 C 120.484375 171.683594 120.902344 171.058594 121.546875 170.792969 C 122.1875 170.53125 122.925781 170.675781 123.414062 171.167969 C 124.761719 172.511719 126.550781 173.253906 128.453125 173.253906 C 130.355469 173.253906 132.144531 172.515625 133.488281 171.167969 C 134.835938 169.824219 135.578125 168.035156 135.578125 166.128906 C 135.578125 164.226562 134.835938 162.4375 133.492188 161.09375 C 133 160.605469 132.851562 159.867188 133.117188 159.226562 C 133.382812 158.582031 134.007812 158.164062 134.703125 158.164062 L 149.78125 158.164062 C 150.726562 158.164062 151.496094 158.933594 151.496094 159.882812 C 151.496094 160.828125 150.726562 161.597656 149.78125 161.597656 L 137.992188 161.597656 C 138.65625 162.996094 139.007812 164.535156 139.007812 166.128906 C 139.007812 168.949219 137.910156 171.601562 135.917969 173.59375 C 133.921875 175.589844 131.273438 176.683594 128.453125 176.683594 C 126.859375 176.683594 125.316406 176.332031 123.917969 175.667969 L 123.917969 220.472656 C 125.316406 219.804688 126.859375 219.453125 128.453125 219.453125 C 131.273438 219.453125 133.921875 220.550781 135.917969 222.542969 C 137.910156 224.535156 139.007812 227.1875 139.007812 230.007812 C 139.007812 231.601562 138.65625 233.144531 137.992188 234.539062 L 183.886719 234.539062 C 184.707031 229.535156 189.066406 225.703125 194.304688 225.703125 C 199.539062 225.703125 203.894531 229.535156 204.71875 234.539062 L 237.007812 234.539062 C 236.34375 233.144531 235.992188 231.601562 235.992188 230.007812 C 235.992188 227.1875 237.089844 224.535156 239.085938 222.542969 C 242.324219 219.304688 247.164062 218.613281 251.082031 220.476562 L 251.082031 175.660156 C 247.160156 177.523438 242.324219 176.835938 239.085938 173.59375 C 237.089844 171.601562 235.992188 168.949219 235.992188 166.128906 C 235.992188 164.535156 236.34375 162.996094 237.007812 161.597656 L 204.71875 161.597656 C 203.894531 166.601562 199.539062 170.433594 194.304688 170.433594 C 189.066406 170.433594 184.707031 166.601562 183.886719 161.597656 L 161.75 161.597656 C 160.800781 161.597656 160.035156 160.828125 160.035156 159.882812 C 160.035156 158.933594 160.800781 158.164062 161.75 158.164062 L 185.460938 158.164062 C 186.410156 158.164062 187.175781 158.933594 187.175781 159.882812 C 187.175781 163.808594 190.375 167.003906 194.304688 167.003906 C 198.230469 167.003906 201.425781 163.808594 201.425781 159.882812 C 201.425781 158.933594 202.195312 158.164062 203.140625 158.164062 L 240.296875 158.164062 C 240.992188 158.164062 241.617188 158.582031 241.882812 159.226562 C 242.148438 159.867188 242 160.605469 241.507812 161.09375 C 240.164062 162.441406 239.421875 164.226562 239.421875 166.128906 C 239.421875 168.035156 240.164062 169.824219 241.507812 171.167969 C 244.285156 173.945312 248.804688 173.945312 251.585938 171.167969 C 252.074219 170.675781 252.8125 170.53125 253.453125 170.792969 C 254.09375 171.058594 254.511719 171.6875 254.511719 172.378906 L 254.511719 223.757812 C 254.511719 224.453125 254.09375 225.078125 253.453125 225.34375 C 252.8125 225.609375 252.074219 225.460938 251.585938 224.972656 C 248.804688 222.191406 244.285156 222.191406 241.507812 224.96875 C 240.164062 226.3125 239.421875 228.101562 239.421875 230.007812 C 239.421875 231.910156 240.164062 233.699219 241.507812 235.042969 C 242 235.53125 242.148438 236.269531 241.882812 236.914062 C 241.617188 237.554688 240.992188 237.972656 240.296875 237.972656 Z M 240.296875 237.972656 "/><g clip-rule="nonzero" clip-path="url(#9c78c061bb)"><path style=" stroke:none;fill-rule:nonzero;fill:#8a310d;fill-opacity:1;" d="M 255.582031 246.164062 L 119.417969 246.164062 C 115.652344 246.164062 112.585938 243.097656 112.585938 239.328125 L 112.585938 156.808594 C 112.585938 153.039062 115.652344 149.972656 119.417969 149.972656 L 141.113281 149.972656 C 142.0625 149.972656 142.828125 150.742188 142.828125 151.691406 C 142.828125 152.636719 142.0625 153.40625 141.113281 153.40625 L 119.417969 153.40625 C 117.542969 153.40625 116.015625 154.929688 116.015625 156.808594 L 116.015625 239.332031 C 116.015625 241.207031 117.542969 242.730469 119.417969 242.730469 L 255.582031 242.730469 C 257.457031 242.730469 258.984375 241.207031 258.984375 239.332031 L 258.984375 156.808594 C 258.984375 154.929688 257.457031 153.40625 255.582031 153.40625 L 154.003906 153.40625 C 153.058594 153.40625 152.289062 152.636719 152.289062 151.691406 C 152.289062 150.742188 153.058594 149.972656 154.003906 149.972656 L 255.582031 149.972656 C 259.347656 149.972656 262.414062 153.039062 262.414062 156.808594 L 262.414062 239.332031 C 262.414062 243.097656 259.347656 246.164062 255.582031 246.164062 Z M 255.582031 246.164062 "/></g><path style=" stroke:none;fill-rule:nonzero;fill:#8a310d;fill-opacity:1;" d="M 228.933594 189.84375 C 225.558594 189.84375 222.816406 187.097656 222.816406 183.722656 C 222.816406 180.351562 225.558594 177.605469 228.933594 177.605469 C 232.308594 177.605469 235.054688 180.351562 235.054688 183.722656 C 235.054688 187.097656 232.308594 189.84375 228.933594 189.84375 Z M 228.933594 181.035156 C 227.453125 181.035156 226.246094 182.242188 226.246094 183.722656 C 226.246094 185.207031 227.453125 186.414062 228.933594 186.414062 C 230.417969 186.414062 231.621094 185.207031 231.621094 183.722656 C 231.621094 182.242188 230.417969 181.035156 228.933594 181.035156 Z M 228.933594 181.035156 "/><path style=" stroke:none;fill-rule:nonzero;fill:#8a310d;fill-opacity:1;" d="M 228.933594 204.1875 C 225.558594 204.1875 222.816406 201.441406 222.816406 198.070312 C 222.816406 194.695312 225.558594 191.949219 228.933594 191.949219 C 232.308594 191.949219 235.054688 194.695312 235.054688 198.070312 C 235.054688 201.441406 232.308594 204.1875 228.933594 204.1875 Z M 228.933594 195.378906 C 227.453125 195.378906 226.246094 196.585938 226.246094 198.066406 C 226.246094 199.550781 227.453125 200.757812 228.933594 200.757812 C 230.417969 200.757812 231.621094 199.550781 231.621094 198.066406 C 231.621094 196.585938 230.417969 195.378906 228.933594 195.378906 Z M 228.933594 195.378906 "/><path style=" stroke:none;fill-rule:nonzero;fill:#8a310d;fill-opacity:1;" d="M 228.933594 218.53125 C 225.558594 218.53125 222.816406 215.785156 222.816406 212.414062 C 222.816406 209.039062 225.558594 206.292969 228.933594 206.292969 C 232.308594 206.292969 235.054688 209.039062 235.054688 212.414062 C 235.054688 215.785156 232.308594 218.53125 228.933594 218.53125 Z M 228.933594 209.722656 C 227.453125 209.722656 226.246094 210.929688 226.246094 212.414062 C 226.246094 213.894531 227.453125 215.101562 228.933594 215.101562 C 230.417969 215.101562 231.621094 213.894531 231.621094 212.414062 C 231.621094 210.929688 230.417969 209.722656 228.933594 209.722656 Z M 228.933594 209.722656 "/><path style=" stroke:none;fill-rule:nonzero;fill:#8a310d;fill-opacity:1;" d="M 216.125 197.015625 C 212.75 197.015625 210.003906 194.269531 210.003906 190.898438 C 210.003906 187.523438 212.75 184.777344 216.125 184.777344 C 219.496094 184.777344 222.242188 187.523438 222.242188 190.898438 C 222.242188 194.269531 219.496094 197.015625 216.125 197.015625 Z M 216.125 188.207031 C 214.640625 188.207031 213.433594 189.414062 213.433594 190.894531 C 213.433594 192.378906 214.640625 193.585938 216.125 193.585938 C 217.605469 193.585938 218.8125 192.378906 218.8125 190.894531 C 218.8125 189.414062 217.605469 188.207031 216.125 188.207031 Z M 216.125 188.207031 "/><path style=" stroke:none;fill-rule:nonzero;fill:#8a310d;fill-opacity:1;" d="M 216.125 211.359375 C 212.75 211.359375 210.003906 208.613281 210.003906 205.242188 C 210.003906 201.867188 212.75 199.121094 216.125 199.121094 C 219.496094 199.121094 222.242188 201.867188 222.242188 205.242188 C 222.242188 208.613281 219.496094 211.359375 216.125 211.359375 Z M 216.125 202.550781 C 214.640625 202.550781 213.433594 203.757812 213.433594 205.242188 C 213.433594 206.722656 214.640625 207.929688 216.125 207.929688 C 217.605469 207.929688 218.8125 206.722656 218.8125 205.242188 C 218.8125 203.757812 217.605469 202.550781 216.125 202.550781 Z M 216.125 202.550781 "/><path style=" stroke:none;fill-rule:nonzero;fill:#8a310d;fill-opacity:1;" d="M 203.3125 204.1875 C 199.9375 204.1875 197.191406 201.441406 197.191406 198.070312 C 197.191406 194.695312 199.9375 191.949219 203.3125 191.949219 C 206.6875 191.949219 209.433594 194.695312 209.433594 198.070312 C 209.433594 201.441406 206.6875 204.1875 203.3125 204.1875 Z M 203.3125 195.378906 C 201.828125 195.378906 200.625 196.585938 200.625 198.066406 C 200.625 199.550781 201.828125 200.757812 203.3125 200.757812 C 204.792969 200.757812 206 199.550781 206 198.066406 C 206 196.585938 204.792969 195.378906 203.3125 195.378906 Z M 203.3125 195.378906 "/><path style=" stroke:none;fill-rule:nonzero;fill:#8a310d;fill-opacity:1;" d="M 148.707031 204.1875 C 145.332031 204.1875 142.589844 201.441406 142.589844 198.070312 C 142.589844 194.695312 145.332031 191.949219 148.707031 191.949219 C 152.082031 191.949219 154.828125 194.695312 154.828125 198.070312 C 154.828125 201.441406 152.082031 204.1875 148.707031 204.1875 Z M 148.707031 195.378906 C 147.226562 195.378906 146.019531 196.585938 146.019531 198.066406 C 146.019531 199.550781 147.226562 200.757812 148.707031 200.757812 C 150.191406 200.757812 151.394531 199.550781 151.394531 198.066406 C 151.394531 196.585938 150.191406 195.378906 148.707031 195.378906 Z M 148.707031 195.378906 "/><g clip-rule="nonzero" clip-path="url(#91d94333e2)"><path style=" stroke:none;fill-rule:nonzero;fill:#8a310d;fill-opacity:1;" d="M 188.417969 197.019531 C 187.289062 197.019531 186.164062 196.613281 185.269531 195.792969 L 125.394531 139.191406 C 125.058594 138.875 124.867188 138.433594 124.859375 137.96875 C 124.851562 137.503906 125.035156 137.058594 125.363281 136.730469 L 132.785156 129.308594 C 133.109375 128.984375 133.546875 128.796875 134.019531 128.808594 C 134.484375 128.816406 134.925781 129.007812 135.242188 129.34375 L 191.824219 189.199219 C 193.53125 191.058594 193.472656 193.886719 191.707031 195.652344 C 190.796875 196.5625 189.605469 197.019531 188.417969 197.019531 Z M 190.492188 194.441406 L 190.496094 194.441406 Z M 129.035156 137.910156 L 187.609375 193.28125 C 188.074219 193.707031 188.816406 193.691406 189.277344 193.226562 C 189.742188 192.765625 189.757812 192.023438 189.316406 191.539062 L 133.960938 132.984375 Z M 129.035156 137.910156 "/></g><path style=" stroke:none;fill-rule:nonzero;fill:#8a310d;fill-opacity:1;" d="M 182.625 192.75 C 182.183594 192.75 181.746094 192.582031 181.410156 192.25 C 180.742188 191.578125 180.742188 190.492188 181.410156 189.824219 L 185.875 185.359375 C 186.542969 184.691406 187.628906 184.6875 188.300781 185.359375 C 188.96875 186.03125 188.96875 187.117188 188.300781 187.785156 L 183.835938 192.25 C 183.503906 192.582031 183.0625 192.75 182.625 192.75 Z M 182.625 192.75 "/><path style=" stroke:none;fill-rule:nonzero;fill:#8a310d;fill-opacity:1;" d="M 134.535156 147.1875 C 134.09375 147.1875 133.65625 147.019531 133.320312 146.683594 C 132.648438 146.015625 132.648438 144.929688 133.320312 144.257812 L 140.308594 137.269531 C 140.980469 136.597656 142.066406 136.597656 142.734375 137.269531 C 143.40625 137.9375 143.40625 139.027344 142.734375 139.695312 L 135.746094 146.683594 C 135.410156 147.019531 134.972656 147.1875 134.535156 147.1875 Z M 134.535156 147.1875 "/></g></svg>