<svg xmlns="http://www.w3.org/2000/svg" xmlns:xlink="http://www.w3.org/1999/xlink" width="500" zoomAndPan="magnify" viewBox="0 0 375 374.999991" height="500" preserveAspectRatio="xMidYMid meet" version="1.2"><defs><clipPath id="322772bd24"><path d="M 112.5 148.90625 L 243.75 148.90625 L 243.75 226 L 112.5 226 Z M 112.5 148.90625 "/></clipPath></defs><g id="7ee643141e"><rect x="0" width="375" y="0" height="374.999991" style="fill:#ffffff;fill-opacity:1;stroke:none;"/><rect x="0" width="375" y="0" height="374.999991" style="fill:#ffffff;fill-opacity:1;stroke:none;"/><g clip-rule="nonzero" clip-path="url(#322772bd24)"><path style=" stroke:none;fill-rule:nonzero;fill:#8a310d;fill-opacity:1;" d="M 238.0625 217.695312 C 241.472656 215.457031 243.738281 211.601562 243.738281 207.226562 C 243.738281 200.328125 238.140625 194.730469 231.242188 194.730469 L 230.667969 194.730469 C 231.03125 194.105469 231.242188 193.402344 231.242188 192.648438 C 231.242188 191.34375 230.640625 190.199219 229.703125 189.417969 C 233.089844 187.699219 235.40625 184.183594 235.40625 180.148438 C 235.40625 174.394531 230.746094 169.734375 224.992188 169.734375 L 220.644531 169.734375 C 220.746094 169.394531 220.824219 169.058594 220.824219 168.691406 C 220.824219 168.042969 220.617188 167.417969 220.277344 166.921875 C 223.664062 165.515625 226.03125 162.15625 226.03125 158.277344 C 226.03125 153.097656 221.839844 148.90625 216.660156 148.90625 L 142.714844 148.90625 C 136.386719 148.90625 131.257812 154.035156 131.257812 160.359375 C 131.257812 164.242188 133.183594 167.652344 136.128906 169.734375 L 134.382812 169.734375 C 126.910156 169.734375 120.84375 175.800781 120.84375 183.273438 C 120.84375 188.117188 123.394531 192.359375 127.222656 194.753906 C 119.019531 195.222656 112.511719 202.046875 112.511719 210.351562 C 112.511719 218.96875 119.515625 225.972656 128.132812 225.972656 L 237.488281 225.972656 C 239.78125 225.972656 241.65625 224.097656 241.65625 221.808594 C 241.65625 219.699219 240.09375 217.980469 238.0625 217.695312 Z M 233.324219 180.148438 C 233.324219 184.730469 229.574219 188.480469 224.992188 188.480469 L 199.476562 188.480469 C 197.46875 188.480469 195.832031 186.839844 195.832031 184.835938 C 195.832031 182.832031 197.46875 181.191406 199.476562 181.191406 L 226.03125 181.191406 C 226.605469 181.191406 227.074219 180.722656 227.074219 180.148438 C 227.074219 179.574219 226.605469 179.109375 226.03125 179.109375 L 199.476562 179.109375 C 196.324219 179.109375 193.746094 181.683594 193.746094 184.835938 C 193.746094 187.984375 196.324219 190.5625 199.476562 190.5625 L 227.074219 190.5625 C 228.21875 190.5625 229.15625 191.5 229.15625 192.648438 C 229.15625 193.792969 228.21875 194.730469 227.074219 194.730469 L 198.953125 194.730469 C 192.628906 194.730469 187.5 189.601562 187.5 183.273438 C 187.5 176.945312 192.628906 171.816406 198.953125 171.816406 L 224.992188 171.816406 C 229.574219 171.816406 233.324219 175.566406 233.324219 180.148438 Z M 176.042969 194.730469 C 169.714844 194.730469 164.585938 189.601562 164.585938 183.273438 C 164.585938 176.945312 169.714844 171.816406 176.042969 171.816406 L 191.742188 171.816406 C 187.941406 174.210938 185.414062 178.457031 185.414062 183.273438 C 185.414062 188.089844 187.941406 192.335938 191.742188 194.730469 Z M 154.171875 183.273438 C 154.171875 176.945312 159.300781 171.816406 165.628906 171.816406 L 168.828125 171.816406 C 165.027344 174.210938 162.503906 178.457031 162.503906 183.273438 C 162.503906 188.089844 165.027344 192.335938 168.828125 194.730469 L 165.628906 194.730469 C 159.300781 194.730469 154.171875 189.601562 154.171875 183.273438 Z M 216.660156 150.988281 C 220.667969 150.988281 223.949219 154.269531 223.949219 158.277344 C 223.949219 162.289062 220.667969 165.566406 216.660156 165.566406 L 203.121094 165.566406 C 201.402344 165.566406 199.996094 164.164062 199.996094 162.445312 C 199.996094 160.726562 201.402344 159.320312 203.121094 159.320312 L 217.703125 159.320312 C 218.273438 159.320312 218.742188 158.851562 218.742188 158.277344 C 218.742188 157.703125 218.273438 157.238281 217.703125 157.238281 L 203.121094 157.238281 C 200.257812 157.238281 197.914062 159.578125 197.914062 162.445312 C 197.914062 165.308594 200.257812 167.652344 203.121094 167.652344 L 217.703125 167.652344 C 218.273438 167.652344 218.742188 168.121094 218.742188 168.691406 C 218.742188 169.265625 218.273438 169.734375 217.703125 169.734375 L 201.039062 169.734375 C 195.855469 169.734375 191.664062 165.542969 191.664062 160.359375 C 191.664062 155.179688 195.855469 150.988281 201.039062 150.988281 Z M 194.449219 150.988281 C 191.507812 153.070312 189.582031 156.480469 189.582031 160.359375 C 189.582031 164.242188 191.507812 167.652344 194.449219 169.734375 L 180.207031 169.734375 C 175.027344 169.734375 170.835938 165.542969 170.835938 160.359375 C 170.835938 155.179688 175.027344 150.988281 180.207031 150.988281 Z M 173.621094 150.988281 C 170.679688 153.070312 168.75 156.480469 168.75 160.359375 C 168.75 164.242188 170.679688 167.652344 173.621094 169.734375 L 169.792969 169.734375 C 164.613281 169.734375 160.417969 165.542969 160.417969 160.359375 C 160.417969 155.179688 164.613281 150.988281 169.792969 150.988281 Z M 133.339844 160.359375 C 133.339844 155.179688 137.535156 150.988281 142.714844 150.988281 L 163.207031 150.988281 C 160.261719 153.070312 158.335938 156.480469 158.335938 160.359375 C 158.335938 164.242188 160.261719 167.652344 163.207031 169.734375 L 142.714844 169.734375 C 137.535156 169.734375 133.339844 165.542969 133.339844 160.359375 Z M 122.925781 183.273438 C 122.925781 176.945312 128.054688 171.816406 134.382812 171.816406 L 158.414062 171.816406 C 154.613281 174.210938 152.089844 178.457031 152.089844 183.273438 C 152.089844 188.089844 154.613281 192.335938 158.414062 194.730469 L 134.382812 194.730469 C 128.054688 194.730469 122.925781 189.601562 122.925781 183.273438 Z M 128.132812 223.890625 C 120.660156 223.890625 114.59375 217.824219 114.59375 210.351562 C 114.59375 202.878906 120.660156 196.8125 128.132812 196.8125 L 155.757812 196.8125 C 151.074219 199.519531 147.921875 204.570312 147.921875 210.351562 C 147.921875 216.132812 151.074219 221.183594 155.757812 223.890625 Z M 163.542969 223.890625 C 156.070312 223.890625 150.003906 217.824219 150.003906 210.351562 C 150.003906 202.878906 156.070312 196.8125 163.542969 196.8125 L 168.257812 196.8125 C 163.570312 199.519531 160.417969 204.570312 160.417969 210.351562 C 160.417969 216.132812 163.570312 221.183594 168.257812 223.890625 Z M 176.042969 223.890625 C 168.570312 223.890625 162.503906 217.824219 162.503906 210.351562 C 162.503906 202.878906 168.570312 196.8125 176.042969 196.8125 L 191.167969 196.8125 C 186.484375 199.519531 183.332031 204.570312 183.332031 210.351562 C 183.332031 216.132812 186.484375 221.183594 191.167969 223.890625 Z M 237.488281 223.890625 L 198.953125 223.890625 C 191.480469 223.890625 185.414062 217.824219 185.414062 210.351562 C 185.414062 202.878906 191.480469 196.8125 198.953125 196.8125 L 231.242188 196.8125 C 236.996094 196.8125 241.65625 201.472656 241.65625 207.226562 C 241.65625 212.980469 236.996094 217.640625 231.242188 217.640625 L 200.515625 217.640625 C 197.9375 217.640625 195.832031 215.535156 195.832031 212.957031 C 195.832031 210.378906 197.9375 208.269531 200.515625 208.269531 L 234.363281 208.269531 C 234.9375 208.269531 235.40625 207.800781 235.40625 207.226562 C 235.40625 206.65625 234.9375 206.1875 234.363281 206.1875 L 200.515625 206.1875 C 196.792969 206.1875 193.746094 209.230469 193.746094 212.957031 C 193.746094 216.679688 196.792969 219.726562 200.515625 219.726562 L 237.488281 219.726562 C 238.636719 219.726562 239.574219 220.664062 239.574219 221.808594 C 239.574219 222.953125 238.636719 223.890625 237.488281 223.890625 Z M 237.488281 223.890625 "/></g></g></svg>