<svg xmlns="http://www.w3.org/2000/svg" xmlns:xlink="http://www.w3.org/1999/xlink" width="500" zoomAndPan="magnify" viewBox="0 0 375 374.999991" height="500" preserveAspectRatio="xMidYMid meet" version="1.2"><defs><clipPath id="ede8c2a1b9"><path d="M 150 196 L 250.722656 196 L 250.722656 245 L 150 245 Z M 150 196 "/></clipPath><clipPath id="70bc5dba0e"><path d="M 184 132.03125 L 217 132.03125 L 217 153 L 184 153 Z M 184 132.03125 "/></clipPath></defs><g id="0c18113238"><rect x="0" width="375" y="0" height="374.999991" style="fill:#ffffff;fill-opacity:1;stroke:none;"/><rect x="0" width="375" y="0" height="374.999991" style="fill:#ffffff;fill-opacity:1;stroke:none;"/><g clip-rule="nonzero" clip-path="url(#ede8c2a1b9)"><path style=" stroke:none;fill-rule:nonzero;fill:#8a310d;fill-opacity:1;" d="M 152.46875 244.441406 C 151.671875 244.441406 150.921875 243.949219 150.628906 243.15625 C 150.253906 242.140625 150.773438 241.011719 151.789062 240.636719 L 156.472656 238.902344 C 157.972656 238.34375 159.554688 238.121094 161.167969 238.238281 C 197.734375 240.910156 207.617188 237.226562 208.53125 236.839844 L 243.8125 212.90625 C 245.675781 211.640625 246.789062 209.539062 246.789062 207.285156 C 246.789062 205.976562 246.410156 204.699219 245.691406 203.59375 C 244.667969 202.019531 243.085938 200.964844 241.238281 200.621094 C 239.390625 200.28125 237.535156 200.699219 236.015625 201.804688 L 211.65625 219.503906 C 211.640625 219.515625 211.621094 219.527344 211.605469 219.539062 C 210.707031 220.148438 209.484375 219.914062 208.875 219.019531 C 208.273438 218.128906 208.492188 216.925781 209.371094 216.3125 L 233.710938 198.628906 C 236.109375 196.886719 239.035156 196.222656 241.953125 196.761719 C 244.871094 197.300781 247.367188 198.96875 248.984375 201.457031 C 250.117188 203.195312 250.714844 205.214844 250.714844 207.285156 C 250.714844 210.84375 248.957031 214.160156 246.015625 216.15625 L 210.605469 240.179688 C 210.550781 240.214844 210.496094 240.246094 210.4375 240.277344 C 209.523438 240.773438 200.371094 245.042969 160.886719 242.152344 C 159.851562 242.078125 158.796875 242.226562 157.835938 242.582031 L 153.152344 244.316406 C 152.925781 244.402344 152.695312 244.441406 152.46875 244.441406 Z M 152.46875 244.441406 "/></g><path style=" stroke:none;fill-rule:nonzero;fill:#8a310d;fill-opacity:1;" d="M 201.691406 225.351562 L 181.164062 225.351562 C 180.078125 225.351562 179.199219 224.472656 179.199219 223.390625 C 179.199219 222.304688 180.078125 221.425781 181.164062 221.425781 L 201.691406 221.425781 C 204.148438 221.425781 206.472656 220.289062 207.910156 218.386719 C 208.25 217.9375 208.527344 217.492188 208.738281 217.058594 C 209.601562 215.300781 209.429688 213.742188 208.199219 212.140625 C 206.78125 210.296875 204.484375 209.195312 202.054688 209.195312 L 177.722656 209.195312 C 174.53125 209.195312 171.472656 208.554688 168.625 207.296875 C 162.164062 204.4375 149.800781 201.667969 139.613281 215.242188 C 138.964844 216.109375 137.734375 216.28125 136.867188 215.632812 C 136 214.980469 135.824219 213.75 136.472656 212.882812 C 148.734375 196.550781 164.152344 201.023438 170.214844 203.707031 C 172.554688 204.742188 175.082031 205.269531 177.722656 205.269531 L 202.054688 205.269531 C 205.695312 205.269531 209.15625 206.945312 211.3125 209.75 C 213.464844 212.546875 213.796875 215.671875 212.265625 218.78125 C 211.949219 219.433594 211.535156 220.101562 211.039062 220.757812 C 208.867188 223.632812 205.371094 225.351562 201.691406 225.351562 Z M 201.691406 225.351562 "/><path style=" stroke:none;fill-rule:nonzero;fill:#8a310d;fill-opacity:1;" d="M 146.773438 254.453125 C 143.632812 254.453125 140.613281 252.699219 139.148438 249.695312 L 126.015625 222.71875 C 123.972656 218.523438 125.722656 213.445312 129.917969 211.402344 L 130.074219 211.328125 C 132.105469 210.339844 134.402344 210.199219 136.539062 210.9375 C 138.679688 211.675781 140.398438 213.199219 141.390625 215.234375 L 154.523438 242.207031 C 155.511719 244.242188 155.652344 246.535156 154.914062 248.675781 C 154.175781 250.8125 152.652344 252.535156 150.621094 253.523438 L 150.464844 253.597656 C 149.273438 254.179688 148.015625 254.453125 146.773438 254.453125 Z M 133.777344 214.398438 C 133.097656 214.398438 132.421875 214.550781 131.792969 214.855469 L 131.636719 214.933594 C 129.386719 216.027344 128.449219 218.75 129.542969 221 L 142.679688 247.976562 C 143.773438 250.226562 146.496094 251.164062 148.746094 250.070312 L 148.898438 249.996094 C 148.898438 249.996094 148.898438 249.992188 148.898438 249.992188 C 149.988281 249.464844 150.808594 248.539062 151.203125 247.394531 C 151.597656 246.246094 151.523438 245.015625 150.992188 243.925781 L 137.859375 216.949219 C 137.328125 215.859375 136.40625 215.042969 135.261719 214.648438 C 134.773438 214.480469 134.273438 214.398438 133.777344 214.398438 Z M 133.777344 214.398438 "/><path style=" stroke:none;fill-rule:nonzero;fill:#8a310d;fill-opacity:1;" d="M 211.351562 163.167969 L 189.652344 163.167969 C 185.652344 163.167969 182.402344 159.914062 182.402344 155.917969 C 182.402344 151.921875 185.652344 148.667969 189.652344 148.667969 L 211.351562 148.667969 C 215.347656 148.667969 218.597656 151.921875 218.597656 155.917969 C 218.597656 159.914062 215.347656 163.167969 211.351562 163.167969 Z M 189.648438 152.59375 C 187.816406 152.59375 186.328125 154.085938 186.328125 155.917969 C 186.328125 157.75 187.816406 159.238281 189.648438 159.238281 L 211.351562 159.238281 C 213.183594 159.238281 214.671875 157.75 214.671875 155.917969 C 214.671875 154.085938 213.183594 152.59375 211.351562 152.59375 Z M 189.648438 152.59375 "/><path style=" stroke:none;fill-rule:nonzero;fill:#8a310d;fill-opacity:1;" d="M 200.5 202.300781 C 189.804688 202.300781 181.101562 192.765625 181.101562 181.046875 C 181.101562 175.5 183.066406 167.082031 185.988281 160.109375 C 186.40625 159.109375 187.554688 158.636719 188.554688 159.058594 C 189.554688 159.476562 190.027344 160.625 189.609375 161.625 C 186.871094 168.164062 185.027344 175.96875 185.027344 181.046875 C 185.027344 190.601562 191.96875 198.375 200.5 198.375 C 209.03125 198.375 215.972656 190.601562 215.972656 181.046875 C 215.972656 175.96875 214.132812 168.164062 211.394531 161.625 C 210.972656 160.625 211.445312 159.476562 212.445312 159.058594 C 213.445312 158.636719 214.59375 159.109375 215.015625 160.109375 C 217.933594 167.082031 219.898438 175.496094 219.898438 181.046875 C 219.898438 192.765625 211.195312 202.300781 200.5 202.300781 Z M 200.5 202.300781 "/><g clip-rule="nonzero" clip-path="url(#70bc5dba0e)"><path style=" stroke:none;fill-rule:nonzero;fill:#8a310d;fill-opacity:1;" d="M 209.902344 152.59375 C 209.703125 152.59375 209.5 152.5625 209.300781 152.5 C 208.269531 152.167969 207.699219 151.066406 208.03125 150.03125 L 212.238281 136.902344 C 212.144531 136.808594 211.917969 136.652344 211.566406 136.550781 C 210.964844 136.382812 210.3125 136.445312 209.820312 136.722656 L 203.519531 140.28125 C 201.714844 141.300781 199.289062 141.300781 197.484375 140.28125 L 191.183594 136.722656 C 190.691406 136.445312 190.039062 136.382812 189.4375 136.550781 C 189.082031 136.652344 188.855469 136.808594 188.761719 136.902344 L 192.96875 150.03125 C 193.300781 151.066406 192.730469 152.167969 191.699219 152.5 C 190.667969 152.832031 189.5625 152.261719 189.230469 151.230469 L 184.996094 138.015625 C 184.5 136.46875 185.003906 134.894531 186.347656 133.800781 C 188.160156 132.324219 191.007812 132.117188 193.113281 133.304688 L 199.414062 136.863281 C 200.023438 137.207031 200.976562 137.207031 201.585938 136.863281 L 207.886719 133.304688 C 209.992188 132.117188 212.839844 132.324219 214.652344 133.800781 C 215.996094 134.894531 216.5 136.46875 216.003906 138.015625 L 211.769531 151.230469 C 211.503906 152.0625 210.730469 152.59375 209.902344 152.59375 Z M 209.902344 152.59375 "/></g><path style=" stroke:none;fill-rule:nonzero;fill:#8a310d;fill-opacity:1;" d="M 200.4375 182.527344 C 199.539062 182.527344 198.75 181.914062 198.53125 181.042969 C 198.3125 180.167969 198.714844 179.257812 199.511719 178.832031 C 199.792969 178.679688 200.121094 178.601562 200.445312 178.601562 C 201.214844 178.601562 201.914062 179.050781 202.230469 179.753906 C 202.550781 180.453125 202.429688 181.277344 201.921875 181.855469 C 201.550781 182.28125 201.003906 182.527344 200.4375 182.527344 Z M 200.4375 182.527344 "/><path style=" stroke:none;fill-rule:nonzero;fill:#8a310d;fill-opacity:1;" d="M 200.4375 182.527344 C 199.539062 182.527344 198.75 181.914062 198.53125 181.042969 C 198.3125 180.167969 198.714844 179.257812 199.511719 178.832031 C 199.792969 178.679688 200.121094 178.601562 200.445312 178.601562 C 201.214844 178.601562 201.914062 179.050781 202.230469 179.753906 C 202.550781 180.453125 202.429688 181.277344 201.921875 181.855469 C 201.550781 182.28125 201.003906 182.527344 200.4375 182.527344 Z M 200.4375 182.527344 "/><path style=" stroke:none;fill-rule:nonzero;fill:#8a310d;fill-opacity:1;" d="M 200.4375 182.527344 L 200.433594 182.527344 C 200.417969 182.527344 200.398438 182.527344 200.382812 182.527344 C 197.566406 182.460938 195.09375 179.863281 195.09375 176.964844 C 195.09375 173.980469 197.519531 171.554688 200.5 171.554688 C 202.203125 171.554688 203.769531 172.332031 204.800781 173.683594 C 205.457031 174.546875 205.292969 175.777344 204.429688 176.433594 C 203.566406 177.09375 202.335938 176.925781 201.679688 176.0625 C 201.398438 175.691406 200.96875 175.480469 200.5 175.480469 C 199.683594 175.480469 199.015625 176.144531 199.015625 176.964844 C 199.015625 177.742188 199.765625 178.582031 200.472656 178.601562 C 201.539062 178.625 202.398438 179.496094 202.398438 180.566406 C 202.398438 181.648438 201.523438 182.527344 200.4375 182.527344 Z M 200.4375 182.527344 "/><path style=" stroke:none;fill-rule:nonzero;fill:#8a310d;fill-opacity:1;" d="M 200.5 189.648438 C 198.714844 189.648438 197.042969 188.769531 196.035156 187.289062 C 195.421875 186.394531 195.652344 185.175781 196.546875 184.5625 C 197.441406 183.949219 198.660156 184.179688 199.273438 185.074219 C 199.550781 185.480469 200.011719 185.722656 200.5 185.722656 C 201.320312 185.722656 201.984375 185.058594 201.984375 184.242188 C 201.984375 183.375 201.21875 182.527344 200.4375 182.527344 C 199.355469 182.527344 198.472656 181.648438 198.472656 180.566406 C 198.472656 179.480469 199.351562 178.601562 200.433594 178.601562 C 203.402344 178.601562 205.910156 181.183594 205.910156 184.242188 C 205.910156 187.222656 203.484375 189.648438 200.5 189.648438 Z M 200.5 189.648438 "/><path style=" stroke:none;fill-rule:nonzero;fill:#8a310d;fill-opacity:1;" d="M 200.433594 182.527344 C 200.417969 182.527344 200.398438 182.527344 200.382812 182.527344 C 197.566406 182.460938 195.09375 179.863281 195.09375 176.964844 C 195.09375 173.980469 197.519531 171.554688 200.5 171.554688 C 201.585938 171.554688 202.464844 172.433594 202.464844 173.515625 C 202.464844 174.601562 201.585938 175.480469 200.5 175.480469 C 199.683594 175.480469 199.015625 176.144531 199.015625 176.964844 C 199.015625 177.726562 199.734375 178.546875 200.429688 178.601562 C 200.433594 178.601562 200.441406 178.601562 200.445312 178.601562 C 201.527344 178.601562 202.40625 179.480469 202.40625 180.5625 C 202.40625 181.550781 201.679688 182.367188 200.730469 182.507812 C 200.632812 182.519531 200.535156 182.527344 200.433594 182.527344 Z M 200.433594 182.527344 "/><path style=" stroke:none;fill-rule:nonzero;fill:#8a310d;fill-opacity:1;" d="M 200.4375 182.527344 C 199.355469 182.527344 198.476562 181.648438 198.476562 180.566406 C 198.476562 179.652344 199.101562 178.882812 199.945312 178.664062 C 200.109375 178.621094 200.273438 178.601562 200.445312 178.601562 C 201.527344 178.601562 202.410156 179.480469 202.410156 180.5625 C 202.410156 181.539062 201.699219 182.351562 200.761719 182.5 C 200.65625 182.519531 200.546875 182.527344 200.4375 182.527344 Z M 200.4375 182.527344 "/><path style=" stroke:none;fill-rule:nonzero;fill:#8a310d;fill-opacity:1;" d="M 200.5 182.566406 C 200.375 182.566406 200.242188 182.554688 200.117188 182.527344 C 199.992188 182.5 199.867188 182.464844 199.75 182.414062 C 199.628906 182.367188 199.519531 182.304688 199.410156 182.234375 C 199.304688 182.164062 199.203125 182.078125 199.113281 181.992188 C 199.023438 181.902344 198.941406 181.800781 198.871094 181.691406 C 198.796875 181.585938 198.738281 181.472656 198.6875 181.355469 C 198.640625 181.234375 198.601562 181.109375 198.574219 180.984375 C 198.550781 180.859375 198.539062 180.730469 198.539062 180.601562 C 198.539062 180.476562 198.550781 180.34375 198.574219 180.21875 C 198.601562 180.09375 198.640625 179.96875 198.6875 179.851562 C 198.738281 179.734375 198.796875 179.617188 198.871094 179.511719 C 198.941406 179.40625 199.023438 179.304688 199.113281 179.214844 C 199.203125 179.125 199.304688 179.042969 199.410156 178.972656 C 199.519531 178.898438 199.628906 178.839844 199.75 178.789062 C 199.867188 178.742188 199.992188 178.703125 200.117188 178.679688 C 200.371094 178.628906 200.632812 178.628906 200.882812 178.679688 C 201.007812 178.703125 201.132812 178.742188 201.253906 178.789062 C 201.371094 178.839844 201.484375 178.898438 201.589844 178.972656 C 201.699219 179.042969 201.796875 179.125 201.886719 179.214844 C 201.976562 179.304688 202.0625 179.40625 202.132812 179.511719 C 202.203125 179.617188 202.261719 179.734375 202.3125 179.851562 C 202.359375 179.96875 202.402344 180.09375 202.425781 180.21875 C 202.449219 180.34375 202.464844 180.476562 202.464844 180.601562 C 202.464844 180.730469 202.449219 180.859375 202.425781 180.984375 C 202.402344 181.109375 202.359375 181.234375 202.3125 181.355469 C 202.261719 181.472656 202.203125 181.585938 202.132812 181.691406 C 202.0625 181.800781 201.976562 181.902344 201.886719 181.992188 C 201.796875 182.078125 201.699219 182.164062 201.589844 182.234375 C 201.484375 182.304688 201.371094 182.367188 201.253906 182.414062 C 201.132812 182.464844 201.007812 182.5 200.882812 182.527344 C 200.757812 182.554688 200.628906 182.566406 200.5 182.566406 Z M 200.5 182.566406 "/><path style=" stroke:none;fill-rule:nonzero;fill:#8a310d;fill-opacity:1;" d="M 200.5 175.480469 C 199.417969 175.480469 198.539062 174.601562 198.539062 173.515625 L 198.539062 170.402344 C 198.539062 169.320312 199.417969 168.441406 200.5 168.441406 C 201.585938 168.441406 202.464844 169.320312 202.464844 170.402344 L 202.464844 173.515625 C 202.464844 174.601562 201.585938 175.480469 200.5 175.480469 Z M 200.5 175.480469 "/><path style=" stroke:none;fill-rule:nonzero;fill:#8a310d;fill-opacity:1;" d="M 200.5 192.765625 C 199.417969 192.765625 198.539062 191.886719 198.539062 190.800781 L 198.539062 187.6875 C 198.539062 186.605469 199.417969 185.726562 200.5 185.726562 C 201.585938 185.726562 202.464844 186.605469 202.464844 187.6875 L 202.464844 190.800781 C 202.464844 191.886719 201.585938 192.765625 200.5 192.765625 Z M 200.5 192.765625 "/></g></svg>