<svg xmlns="http://www.w3.org/2000/svg" xmlns:xlink="http://www.w3.org/1999/xlink" width="500" zoomAndPan="magnify" viewBox="0 0 375 374.999991" height="500" preserveAspectRatio="xMidYMid meet" version="1.2"><defs><clipPath id="a0cb01fe9d"><path d="M 137.855469 139.269531 L 236.855469 139.269531 L 236.855469 254 L 137.855469 254 Z M 137.855469 139.269531 "/></clipPath></defs><g id="9174d270b5"><rect x="0" width="375" y="0" height="374.999991" style="fill:#ffffff;fill-opacity:1;stroke:none;"/><rect x="0" width="375" y="0" height="374.999991" style="fill:#ffffff;fill-opacity:1;stroke:none;"/><path style=" stroke:none;fill-rule:nonzero;fill:#8a310d;fill-opacity:1;" d="M 210.199219 156.4375 L 214.007812 156.4375 L 214.007812 160.242188 L 210.199219 160.242188 Z M 210.199219 156.4375 "/><path style=" stroke:none;fill-rule:nonzero;fill:#8a310d;fill-opacity:1;" d="M 217.816406 156.4375 L 221.625 156.4375 L 221.625 160.242188 L 217.816406 160.242188 Z M 217.816406 156.4375 "/><path style=" stroke:none;fill-rule:nonzero;fill:#8a310d;fill-opacity:1;" d="M 225.429688 156.4375 L 229.238281 156.4375 L 229.238281 160.242188 L 225.429688 160.242188 Z M 225.429688 156.4375 "/><path style=" stroke:none;fill-rule:nonzero;fill:#8a310d;fill-opacity:1;" d="M 147.375 158.339844 L 166.414062 158.339844 C 167.464844 158.339844 168.316406 157.488281 168.316406 156.4375 L 168.316406 148.820312 C 168.316406 147.769531 167.464844 146.917969 166.414062 146.917969 L 147.375 146.917969 C 146.320312 146.917969 145.46875 147.769531 145.46875 148.820312 L 145.46875 156.4375 C 145.46875 157.488281 146.320312 158.339844 147.375 158.339844 Z M 149.277344 150.722656 L 164.507812 150.722656 L 164.507812 154.53125 L 149.277344 154.53125 Z M 149.277344 150.722656 "/><path style=" stroke:none;fill-rule:nonzero;fill:#8a310d;fill-opacity:1;" d="M 187.355469 181.1875 C 171.609375 181.1875 158.796875 193.996094 158.796875 209.742188 C 158.796875 225.492188 171.609375 238.300781 187.355469 238.300781 C 203.101562 238.300781 215.914062 225.492188 215.914062 209.742188 C 215.914062 193.996094 203.101562 181.1875 187.355469 181.1875 Z M 187.355469 234.492188 C 179.003906 234.492188 171.621094 230.324219 167.136719 223.972656 C 170.425781 223.230469 172.308594 220.632812 173.859375 218.464844 C 175.691406 215.902344 176.933594 214.332031 179.351562 214.332031 C 181.773438 214.332031 183.015625 215.902344 184.847656 218.464844 C 186.667969 221.015625 188.9375 224.191406 193.4375 224.191406 C 197.941406 224.191406 200.210938 221.015625 202.035156 218.464844 C 203.867188 215.902344 205.113281 214.328125 207.535156 214.328125 C 208.945312 214.328125 210.035156 214.894531 211.226562 216.183594 C 208.378906 226.714844 198.769531 234.492188 187.355469 234.492188 Z M 212 211.820312 C 210.820312 211.058594 209.363281 210.523438 207.53125 210.523438 C 203.027344 210.523438 200.757812 213.699219 198.9375 216.25 C 197.105469 218.8125 195.859375 220.382812 193.433594 220.382812 C 191.015625 220.382812 189.773438 218.8125 187.941406 216.25 C 186.121094 213.699219 183.851562 210.523438 179.351562 210.523438 C 174.847656 210.523438 172.582031 213.699219 170.757812 216.25 C 168.925781 218.8125 167.683594 220.382812 165.261719 220.382812 C 165.1875 220.382812 165.109375 220.371094 165.035156 220.367188 C 163.492188 217.144531 162.605469 213.550781 162.605469 209.742188 C 162.605469 196.097656 173.707031 184.992188 187.355469 184.992188 C 201 184.992188 212.105469 196.097656 212.105469 209.742188 C 212.105469 210.445312 212.058594 211.132812 212 211.820312 Z M 212 211.820312 "/><g clip-rule="nonzero" clip-path="url(#a0cb01fe9d)"><path style=" stroke:none;fill-rule:nonzero;fill:#8a310d;fill-opacity:1;" d="M 145.46875 253.53125 L 229.238281 253.53125 C 233.4375 253.53125 236.855469 250.117188 236.855469 245.917969 L 236.855469 146.917969 C 236.855469 142.714844 233.4375 139.300781 229.238281 139.300781 L 145.46875 139.300781 C 141.269531 139.300781 137.855469 142.714844 137.855469 146.917969 L 137.855469 245.917969 C 137.855469 250.117188 141.269531 253.53125 145.46875 253.53125 Z M 229.238281 249.722656 L 145.46875 249.722656 C 143.371094 249.722656 141.664062 248.015625 141.664062 245.917969 L 141.664062 169.761719 L 233.046875 169.761719 L 233.046875 245.917969 C 233.046875 248.015625 231.339844 249.722656 229.238281 249.722656 Z M 145.46875 143.109375 L 229.238281 143.109375 C 231.339844 143.109375 233.046875 144.816406 233.046875 146.917969 L 233.046875 165.957031 L 141.664062 165.957031 L 141.664062 146.917969 C 141.664062 144.816406 143.371094 143.109375 145.46875 143.109375 Z M 145.46875 143.109375 "/></g><path style=" stroke:none;fill-rule:nonzero;fill:#8a310d;fill-opacity:1;" d="M 210.199219 148.820312 L 214.007812 148.820312 L 214.007812 152.628906 L 210.199219 152.628906 Z M 210.199219 148.820312 "/><path style=" stroke:none;fill-rule:nonzero;fill:#8a310d;fill-opacity:1;" d="M 217.816406 148.820312 L 221.625 148.820312 L 221.625 152.628906 L 217.816406 152.628906 Z M 217.816406 148.820312 "/><path style=" stroke:none;fill-rule:nonzero;fill:#8a310d;fill-opacity:1;" d="M 225.429688 148.820312 L 229.238281 148.820312 L 229.238281 152.628906 L 225.429688 152.628906 Z M 225.429688 148.820312 "/><path style=" stroke:none;fill-rule:nonzero;fill:#8a310d;fill-opacity:1;" d="M 198.777344 162.148438 C 202.976562 162.148438 206.394531 158.730469 206.394531 154.53125 C 206.394531 150.332031 202.976562 146.917969 198.777344 146.917969 C 194.578125 146.917969 191.164062 150.332031 191.164062 154.53125 C 191.164062 158.730469 194.578125 162.148438 198.777344 162.148438 Z M 198.777344 150.722656 C 200.878906 150.722656 202.585938 152.433594 202.585938 154.53125 C 202.585938 156.632812 200.878906 158.339844 198.777344 158.339844 C 196.675781 158.339844 194.96875 156.632812 194.96875 154.53125 C 194.96875 152.433594 196.675781 150.722656 198.777344 150.722656 Z M 198.777344 150.722656 "/><path style=" stroke:none;fill-rule:nonzero;fill:#8a310d;fill-opacity:1;" d="M 187.355469 186.898438 L 187.355469 190.707031 C 194.542969 190.707031 201.042969 194.683594 204.316406 201.089844 L 207.707031 199.359375 C 203.777344 191.671875 195.980469 186.898438 187.355469 186.898438 Z M 187.355469 186.898438 "/><path style=" stroke:none;fill-rule:nonzero;fill:#8a310d;fill-opacity:1;" d="M 187.355469 173.570312 C 167.40625 173.570312 151.179688 189.796875 151.179688 209.742188 C 151.179688 229.691406 167.40625 245.917969 187.355469 245.917969 C 207.300781 245.917969 223.527344 229.691406 223.527344 209.742188 C 223.527344 189.796875 207.300781 173.570312 187.355469 173.570312 Z M 187.355469 242.109375 C 169.507812 242.109375 154.988281 227.589844 154.988281 209.742188 C 154.988281 191.898438 169.507812 177.378906 187.355469 177.378906 C 205.203125 177.378906 219.71875 191.898438 219.71875 209.742188 C 219.71875 227.589844 205.203125 242.109375 187.355469 242.109375 Z M 187.355469 242.109375 "/></g></svg>