<svg xmlns="http://www.w3.org/2000/svg" xmlns:xlink="http://www.w3.org/1999/xlink" width="500" zoomAndPan="magnify" viewBox="0 0 375 374.999991" height="500" preserveAspectRatio="xMidYMid meet" version="1.2"><defs><clipPath id="90c6d7a85c"><path d="M 131.832031 140.386719 L 242.832031 140.386719 L 242.832031 261.886719 L 131.832031 261.886719 Z M 131.832031 140.386719 "/></clipPath></defs><g id="2fdef468e4"><rect x="0" width="375" y="0" height="374.999991" style="fill:#ffffff;fill-opacity:1;stroke:none;"/><rect x="0" width="375" y="0" height="374.999991" style="fill:#ffffff;fill-opacity:1;stroke:none;"/><g clip-rule="nonzero" clip-path="url(#90c6d7a85c)"><path style=" stroke:none;fill-rule:nonzero;fill:#8a310d;fill-opacity:1;" d="M 169.660156 193.753906 L 196.109375 193.753906 C 196.941406 193.753906 197.613281 193.082031 197.613281 192.25 L 197.613281 184.539062 C 197.613281 183.707031 196.941406 183.03125 196.109375 183.03125 L 169.660156 183.03125 C 168.832031 183.03125 168.15625 183.707031 168.15625 184.539062 L 168.15625 192.25 C 168.15625 193.082031 168.832031 193.753906 169.660156 193.753906 Z M 171.167969 186.042969 L 194.601562 186.042969 L 194.601562 190.742188 L 171.167969 190.742188 Z M 169.660156 208.421875 L 196.109375 208.421875 C 196.941406 208.421875 197.613281 207.746094 197.613281 206.917969 L 197.613281 199.207031 C 197.613281 198.375 196.941406 197.699219 196.109375 197.699219 L 169.660156 197.699219 C 168.832031 197.699219 168.15625 198.375 168.15625 199.207031 L 168.15625 206.917969 C 168.15625 207.75 168.832031 208.421875 169.660156 208.421875 Z M 171.167969 200.710938 L 194.601562 200.710938 L 194.601562 205.410156 L 171.167969 205.410156 Z M 169.660156 223.09375 L 196.109375 223.09375 C 196.941406 223.09375 197.613281 222.417969 197.613281 221.585938 L 197.613281 213.875 C 197.613281 213.042969 196.941406 212.367188 196.109375 212.367188 L 169.660156 212.367188 C 168.832031 212.367188 168.15625 213.042969 168.15625 213.875 L 168.15625 221.585938 C 168.15625 222.417969 168.832031 223.09375 169.660156 223.09375 Z M 171.167969 215.378906 L 194.601562 215.378906 L 194.601562 220.078125 L 171.167969 220.078125 Z M 210.214844 212.644531 L 224.480469 212.644531 C 225.3125 212.644531 225.988281 211.96875 225.988281 211.136719 L 225.988281 205.003906 C 225.988281 204.171875 225.3125 203.496094 224.480469 203.496094 L 210.214844 203.496094 C 209.382812 203.496094 208.707031 204.171875 208.707031 205.003906 L 208.707031 211.136719 C 208.707031 211.96875 209.382812 212.644531 210.214844 212.644531 Z M 211.71875 206.511719 L 222.976562 206.511719 L 222.976562 209.632812 L 211.71875 209.632812 Z M 210.214844 226.582031 L 224.480469 226.582031 C 225.3125 226.582031 225.988281 225.910156 225.988281 225.078125 L 225.988281 218.941406 C 225.988281 218.113281 225.3125 217.4375 224.480469 217.4375 L 210.214844 217.4375 C 209.382812 217.4375 208.707031 218.113281 208.707031 218.941406 L 208.707031 225.078125 C 208.707031 225.910156 209.382812 226.582031 210.214844 226.582031 Z M 211.71875 220.449219 L 222.976562 220.449219 L 222.976562 223.570312 L 211.71875 223.570312 Z M 210.214844 240.523438 L 224.480469 240.523438 C 225.3125 240.523438 225.988281 239.847656 225.988281 239.015625 L 225.988281 232.882812 C 225.988281 232.050781 225.3125 231.375 224.480469 231.375 L 210.214844 231.375 C 209.382812 231.375 208.707031 232.050781 208.707031 232.882812 L 208.707031 239.015625 C 208.707031 239.847656 209.382812 240.523438 210.214844 240.523438 Z M 211.71875 234.386719 L 222.976562 234.386719 L 222.976562 237.511719 L 211.71875 237.511719 Z M 210.214844 254.460938 L 224.480469 254.460938 C 225.3125 254.460938 225.988281 253.785156 225.988281 252.957031 L 225.988281 246.816406 C 225.988281 245.988281 225.3125 245.3125 224.480469 245.3125 L 210.214844 245.3125 C 209.382812 245.3125 208.707031 245.988281 208.707031 246.816406 L 208.707031 252.953125 C 208.707031 253.785156 209.382812 254.460938 210.214844 254.460938 Z M 211.71875 248.324219 L 222.976562 248.324219 L 222.976562 251.445312 L 211.71875 251.445312 Z M 156.050781 214.414062 L 149.703125 214.414062 C 148.871094 214.414062 148.199219 215.089844 148.199219 215.921875 L 148.199219 221.765625 C 148.199219 222.597656 148.871094 223.273438 149.703125 223.273438 L 156.050781 223.273438 C 156.882812 223.273438 157.558594 222.597656 157.558594 221.765625 L 157.558594 215.921875 C 157.558594 215.089844 156.886719 214.414062 156.050781 214.414062 Z M 154.546875 220.261719 L 151.210938 220.261719 L 151.210938 217.429688 L 154.546875 217.429688 Z M 156.050781 229.164062 L 149.703125 229.164062 C 148.871094 229.164062 148.199219 229.839844 148.199219 230.671875 L 148.199219 236.515625 C 148.199219 237.347656 148.871094 238.023438 149.703125 238.023438 L 156.050781 238.023438 C 156.882812 238.023438 157.558594 237.347656 157.558594 236.515625 L 157.558594 230.671875 C 157.558594 229.835938 156.886719 229.164062 156.050781 229.164062 Z M 154.546875 235.011719 L 151.210938 235.011719 L 151.210938 232.175781 L 154.546875 232.175781 Z M 156.050781 243.910156 L 149.703125 243.910156 C 148.871094 243.910156 148.199219 244.585938 148.199219 245.417969 L 148.199219 251.261719 C 148.199219 252.09375 148.871094 252.769531 149.703125 252.769531 L 156.050781 252.769531 C 156.882812 252.769531 157.558594 252.09375 157.558594 251.261719 L 157.558594 245.417969 C 157.558594 244.585938 156.886719 243.910156 156.050781 243.910156 Z M 154.546875 249.757812 L 151.210938 249.757812 L 151.210938 246.921875 L 154.546875 246.921875 Z M 241.328125 258.363281 L 233.351562 258.363281 L 233.351562 198.085938 C 233.351562 197.253906 232.675781 196.578125 231.84375 196.578125 L 204.359375 196.578125 L 204.359375 176.609375 C 204.359375 175.777344 203.683594 175.101562 202.855469 175.101562 L 188.835938 175.101562 C 188.714844 172.339844 186.433594 170.132812 183.644531 170.132812 C 180.851562 170.132812 178.574219 172.339844 178.449219 175.101562 L 162.914062 175.101562 C 162.082031 175.101562 161.40625 175.777344 161.40625 176.609375 L 161.40625 196.09375 L 142.152344 205.972656 C 141.652344 206.230469 141.335938 206.75 141.335938 207.3125 L 141.335938 258.363281 L 133.359375 258.363281 C 132.527344 258.363281 131.851562 259.039062 131.851562 259.871094 C 131.851562 260.703125 132.527344 261.378906 133.359375 261.378906 L 241.328125 261.378906 C 242.160156 261.378906 242.835938 260.703125 242.835938 259.871094 C 242.835938 259.039062 242.160156 258.363281 241.328125 258.363281 Z M 230.335938 199.59375 L 230.335938 258.363281 L 204.359375 258.363281 L 204.359375 199.59375 Z M 183.644531 173.144531 C 184.855469 173.144531 185.835938 174.128906 185.835938 175.335938 C 185.835938 176.542969 184.851562 177.527344 183.644531 177.527344 C 182.4375 177.527344 181.453125 176.542969 181.453125 175.335938 C 181.453125 174.128906 182.4375 173.144531 183.644531 173.144531 Z M 179.253906 178.113281 C 180.175781 179.570312 181.796875 180.539062 183.644531 180.539062 C 185.492188 180.539062 187.113281 179.566406 188.039062 178.113281 L 201.347656 178.113281 L 201.347656 258.363281 L 196.5625 258.363281 L 196.5625 237.945312 C 196.5625 237.113281 195.886719 236.4375 195.058594 236.4375 L 170.714844 236.4375 C 169.882812 236.4375 169.207031 237.113281 169.207031 237.945312 L 169.207031 258.363281 L 164.421875 258.363281 L 164.421875 178.113281 Z M 184.390625 239.449219 L 193.550781 239.449219 L 193.550781 258.363281 L 184.390625 258.363281 Z M 181.378906 258.363281 L 172.21875 258.363281 L 172.21875 239.449219 L 181.378906 239.449219 Z M 144.347656 208.234375 L 161.410156 199.480469 L 161.410156 258.363281 L 144.347656 258.363281 Z M 158.933594 152.753906 C 158.347656 152.164062 158.347656 151.210938 158.933594 150.621094 C 165.535156 144.023438 174.3125 140.386719 183.644531 140.386719 C 192.980469 140.386719 201.757812 144.023438 208.359375 150.625 C 208.945312 151.210938 208.945312 152.164062 208.359375 152.753906 C 208.066406 153.046875 207.679688 153.195312 207.292969 153.195312 C 206.910156 153.195312 206.523438 153.046875 206.230469 152.753906 C 200.195312 146.722656 192.175781 143.398438 183.644531 143.398438 C 175.117188 143.398438 167.097656 146.71875 161.066406 152.753906 C 160.476562 153.34375 159.519531 153.34375 158.933594 152.753906 Z M 199.214844 159.761719 C 195.058594 155.605469 189.527344 153.3125 183.644531 153.3125 C 177.761719 153.3125 172.230469 155.605469 168.074219 159.761719 C 167.78125 160.058594 167.394531 160.203125 167.007812 160.203125 C 166.625 160.203125 166.238281 160.058594 165.945312 159.761719 C 165.355469 159.175781 165.355469 158.222656 165.945312 157.632812 C 170.671875 152.902344 176.960938 150.300781 183.644531 150.300781 C 190.332031 150.300781 196.617188 152.902344 201.347656 157.632812 C 201.933594 158.21875 201.933594 159.171875 201.347656 159.761719 C 200.761719 160.351562 199.804688 160.351562 199.214844 159.761719 Z M 183.644531 160.21875 C 187.683594 160.21875 191.480469 161.789062 194.335938 164.644531 C 194.925781 165.234375 194.925781 166.1875 194.335938 166.773438 C 194.042969 167.066406 193.65625 167.214844 193.273438 167.214844 C 192.886719 167.214844 192.503906 167.066406 192.207031 166.773438 C 189.921875 164.488281 186.882812 163.226562 183.648438 163.226562 C 180.414062 163.226562 177.375 164.488281 175.089844 166.773438 C 174.5 167.363281 173.546875 167.363281 172.960938 166.773438 C 172.371094 166.1875 172.371094 165.234375 172.960938 164.644531 C 175.808594 161.789062 179.605469 160.21875 183.644531 160.21875 Z M 183.644531 160.21875 "/></g></g></svg>