<svg xmlns="http://www.w3.org/2000/svg" xmlns:xlink="http://www.w3.org/1999/xlink" width="500" zoomAndPan="magnify" viewBox="0 0 375 374.999991" height="500" preserveAspectRatio="xMidYMid meet" version="1.2"><defs><clipPath id="25f43901ae"><path d="M 112.5 133.417969 L 262.5 133.417969 L 262.5 283.417969 L 112.5 283.417969 Z M 112.5 133.417969 "/></clipPath></defs><g id="bccbdffefb"><rect x="0" width="375" y="0" height="374.999991" style="fill:#ffffff;fill-opacity:1;stroke:none;"/><rect x="0" width="375" y="0" height="374.999991" style="fill:#ffffff;fill-opacity:1;stroke:none;"/><g clip-rule="nonzero" clip-path="url(#25f43901ae)"><path style=" stroke:none;fill-rule:nonzero;fill:#8a310d;fill-opacity:1;" d="M 258.324219 137.238281 C 255.796875 134.882812 252.316406 133.417969 248.5 133.417969 L 141.03125 133.417969 C 137.21875 133.417969 133.738281 134.882812 131.210938 137.242188 C 128.636719 139.640625 127.035156 142.96875 127.035156 146.632812 L 127.035156 260.5625 L 114.917969 260.5625 C 113.582031 260.5625 112.5 261.644531 112.5 262.980469 L 112.5 265.816406 C 112.5 270.6875 114.628906 275.105469 118.058594 278.304688 C 121.441406 281.460938 126.097656 283.417969 131.203125 283.417969 L 220.640625 283.417969 C 225.746094 283.417969 230.398438 281.460938 233.78125 278.304688 C 237.210938 275.105469 239.339844 270.6875 239.339844 265.816406 L 239.339844 165.535156 L 260.078125 165.535156 C 261.414062 165.535156 262.496094 164.453125 262.496094 163.117188 L 262.496094 146.628906 C 262.5 142.964844 260.898438 139.640625 258.324219 137.238281 Z M 131.203125 278.578125 C 127.359375 278.578125 123.867188 277.121094 121.347656 274.773438 C 118.875 272.46875 117.335938 269.292969 117.335938 265.816406 L 117.335938 265.398438 L 131.203125 265.398438 C 131.203125 265.398438 131.203125 265.398438 131.207031 265.398438 L 201.9375 265.398438 L 201.9375 265.816406 C 201.9375 270.6875 204.066406 275.105469 207.496094 278.304688 C 207.597656 278.398438 207.703125 278.488281 207.800781 278.578125 Z M 234.507812 265.816406 C 234.507812 269.292969 232.96875 272.46875 230.496094 274.773438 C 227.976562 277.121094 224.484375 278.578125 220.640625 278.578125 C 216.792969 278.578125 213.300781 277.121094 210.78125 274.773438 C 208.308594 272.46875 206.769531 269.292969 206.769531 265.816406 L 206.769531 262.980469 C 206.769531 261.644531 205.6875 260.5625 204.351562 260.5625 L 131.871094 260.5625 L 131.871094 146.632812 C 131.871094 144.359375 132.878906 142.285156 134.496094 140.773438 C 136.164062 139.222656 138.476562 138.253906 141.03125 138.253906 L 237.699219 138.253906 C 237.589844 138.382812 237.480469 138.507812 237.375 138.640625 C 237.359375 138.65625 237.347656 138.675781 237.332031 138.691406 C 237.207031 138.847656 237.082031 139.007812 236.960938 139.171875 C 236.921875 139.230469 236.878906 139.289062 236.84375 139.347656 C 236.765625 139.453125 236.6875 139.566406 236.613281 139.675781 C 236.570312 139.742188 236.523438 139.816406 236.484375 139.882812 C 236.414062 139.988281 236.351562 140.089844 236.289062 140.195312 C 236.242188 140.273438 236.203125 140.347656 236.15625 140.421875 C 236.097656 140.527344 236.039062 140.632812 235.984375 140.738281 C 235.941406 140.8125 235.90625 140.886719 235.863281 140.964844 C 235.808594 141.074219 235.753906 141.1875 235.703125 141.300781 C 235.667969 141.375 235.632812 141.445312 235.597656 141.519531 C 235.542969 141.648438 235.484375 141.78125 235.433594 141.910156 C 235.410156 141.972656 235.382812 142.027344 235.359375 142.085938 C 235.28125 142.273438 235.214844 142.464844 235.152344 142.65625 C 235.132812 142.714844 235.113281 142.773438 235.09375 142.832031 C 235.050781 142.972656 235.007812 143.109375 234.96875 143.25 C 234.945312 143.328125 234.925781 143.40625 234.902344 143.484375 C 234.875 143.609375 234.839844 143.730469 234.8125 143.851562 C 234.796875 143.941406 234.777344 144.023438 234.757812 144.109375 C 234.730469 144.226562 234.707031 144.347656 234.691406 144.46875 C 234.675781 144.554688 234.660156 144.640625 234.644531 144.730469 C 234.625 144.855469 234.609375 144.976562 234.59375 145.101562 C 234.582031 145.1875 234.570312 145.269531 234.5625 145.355469 C 234.546875 145.492188 234.539062 145.628906 234.527344 145.765625 C 234.523438 145.839844 234.515625 145.914062 234.515625 145.992188 C 234.503906 146.1875 234.5 146.382812 234.5 146.582031 C 234.5 146.597656 234.5 146.613281 234.5 146.628906 L 234.5 163.117188 C 234.5 163.117188 234.5 163.121094 234.5 163.121094 L 234.5 265.816406 Z M 257.664062 160.699219 L 239.34375 160.699219 L 239.34375 146.628906 C 239.34375 144.355469 240.347656 142.28125 241.96875 140.769531 C 243.632812 139.21875 245.949219 138.25 248.5 138.25 C 251.054688 138.25 253.367188 139.214844 255.039062 140.765625 C 256.65625 142.277344 257.664062 144.351562 257.664062 146.625 Z M 257.664062 160.699219 "/></g><path style=" stroke:none;fill-rule:nonzero;fill:#8a310d;fill-opacity:1;" d="M 159.851562 177.648438 L 159.851562 177.660156 C 164.847656 186.585938 175.542969 193.957031 181.785156 198.261719 L 182.109375 198.488281 C 182.96875 199.078125 184.078125 199.039062 184.886719 198.464844 L 185.179688 198.261719 C 191.421875 193.957031 202.117188 186.585938 207.113281 177.660156 L 207.652344 176.640625 L 207.734375 176.457031 C 210 171.832031 210.324219 167.390625 209.332031 163.660156 C 208.292969 159.75 205.828125 156.621094 202.613281 154.824219 L 202.058594 154.539062 C 198.78125 152.902344 194.832031 152.601562 190.875 154.171875 C 188.335938 155.183594 185.804688 156.96875 183.480469 159.664062 C 181.15625 156.964844 178.625 155.183594 176.085938 154.171875 C 172.128906 152.601562 168.175781 152.902344 164.902344 154.539062 L 164.347656 154.824219 C 161.132812 156.625 158.667969 159.753906 157.628906 163.660156 C 156.621094 167.441406 156.972656 171.945312 159.308594 176.640625 C 159.4375 176.902344 159.621094 177.238281 159.851562 177.648438 Z M 162.292969 164.886719 C 162.984375 162.285156 164.605469 160.214844 166.707031 159.035156 L 167.050781 158.847656 C 169.148438 157.796875 171.707031 157.621094 174.308594 158.652344 C 176.738281 159.613281 179.21875 161.632812 181.457031 164.957031 C 181.632812 165.222656 181.859375 165.460938 182.140625 165.648438 C 183.246094 166.386719 184.742188 166.089844 185.484375 164.988281 C 187.730469 161.648438 190.21875 159.621094 192.65625 158.65625 C 195.25 157.625 197.8125 157.804688 199.914062 158.847656 L 200.257812 159.039062 C 202.359375 160.21875 203.980469 162.289062 204.671875 164.890625 C 205.382812 167.578125 205.121094 170.84375 203.421875 174.320312 C 203.246094 174.644531 203.089844 174.984375 202.90625 175.300781 C 198.699219 182.8125 189.472656 189.433594 183.488281 193.578125 C 177.503906 189.4375 168.277344 182.816406 164.066406 175.304688 L 163.636719 174.492188 C 161.851562 170.941406 161.570312 167.617188 162.292969 164.886719 Z M 162.292969 164.886719 "/><path style=" stroke:none;fill-rule:nonzero;fill:#8a310d;fill-opacity:1;" d="M 148.511719 208.175781 L 148.492188 208.175781 C 147.15625 208.175781 146.074219 209.261719 146.074219 210.597656 C 146.074219 211.929688 147.15625 213.015625 148.492188 213.015625 L 148.511719 213.015625 C 149.847656 213.015625 150.929688 211.929688 150.929688 210.597656 C 150.929688 209.261719 149.847656 208.175781 148.511719 208.175781 Z M 148.511719 208.175781 "/><path style=" stroke:none;fill-rule:nonzero;fill:#8a310d;fill-opacity:1;" d="M 217.882812 208.175781 L 160.625 208.175781 C 159.289062 208.175781 158.203125 209.261719 158.203125 210.597656 C 158.203125 211.929688 159.289062 213.015625 160.625 213.015625 L 217.882812 213.015625 C 219.21875 213.015625 220.300781 211.929688 220.300781 210.597656 C 220.300781 209.257812 219.222656 208.175781 217.882812 208.175781 Z M 217.882812 208.175781 "/><path style=" stroke:none;fill-rule:nonzero;fill:#8a310d;fill-opacity:1;" d="M 217.882812 220.269531 L 160.625 220.269531 C 159.289062 220.269531 158.203125 221.355469 158.203125 222.691406 C 158.203125 224.023438 159.289062 225.109375 160.625 225.109375 L 217.882812 225.109375 C 219.21875 225.109375 220.300781 224.023438 220.300781 222.691406 C 220.300781 221.355469 219.222656 220.269531 217.882812 220.269531 Z M 217.882812 220.269531 "/><path style=" stroke:none;fill-rule:nonzero;fill:#8a310d;fill-opacity:1;" d="M 148.511719 220.269531 L 148.492188 220.269531 C 147.15625 220.269531 146.074219 221.355469 146.074219 222.691406 C 146.074219 224.023438 147.15625 225.109375 148.492188 225.109375 L 148.511719 225.109375 C 149.847656 225.109375 150.929688 224.023438 150.929688 222.691406 C 150.929688 221.355469 149.847656 220.269531 148.511719 220.269531 Z M 148.511719 220.269531 "/><path style=" stroke:none;fill-rule:nonzero;fill:#8a310d;fill-opacity:1;" d="M 217.882812 232.367188 L 160.625 232.367188 C 159.289062 232.367188 158.203125 233.453125 158.203125 234.785156 C 158.203125 236.121094 159.289062 237.207031 160.625 237.207031 L 217.882812 237.207031 C 219.21875 237.207031 220.300781 236.121094 220.300781 234.785156 C 220.300781 233.453125 219.222656 232.367188 217.882812 232.367188 Z M 217.882812 232.367188 "/><path style=" stroke:none;fill-rule:nonzero;fill:#8a310d;fill-opacity:1;" d="M 148.511719 232.367188 L 148.492188 232.367188 C 147.15625 232.367188 146.074219 233.453125 146.074219 234.785156 C 146.074219 236.121094 147.15625 237.207031 148.492188 237.207031 L 148.511719 237.207031 C 149.847656 237.207031 150.929688 236.121094 150.929688 234.785156 C 150.929688 233.453125 149.847656 232.367188 148.511719 232.367188 Z M 148.511719 232.367188 "/><path style=" stroke:none;fill-rule:nonzero;fill:#8a310d;fill-opacity:1;" d="M 217.882812 244.464844 L 160.625 244.464844 C 159.289062 244.464844 158.203125 245.550781 158.203125 246.882812 C 158.203125 248.21875 159.289062 249.304688 160.625 249.304688 L 217.882812 249.304688 C 219.21875 249.304688 220.300781 248.21875 220.300781 246.882812 C 220.300781 245.550781 219.222656 244.464844 217.882812 244.464844 Z M 217.882812 244.464844 "/><path style=" stroke:none;fill-rule:nonzero;fill:#8a310d;fill-opacity:1;" d="M 148.511719 244.464844 L 148.492188 244.464844 C 147.15625 244.464844 146.074219 245.550781 146.074219 246.882812 C 146.074219 248.21875 147.15625 249.304688 148.492188 249.304688 L 148.511719 249.304688 C 149.847656 249.304688 150.929688 248.21875 150.929688 246.882812 C 150.929688 245.550781 149.847656 244.464844 148.511719 244.464844 Z M 148.511719 244.464844 "/></g></svg>